<?xml version="1.0" encoding="utf-8"?>
<!-- Generator: Adobe Illustrator 25.0.0, SVG Export Plug-In . SVG Version: 6.00 Build 0)  -->
<svg version="1.1" id="Layer_1" xmlns="http://www.w3.org/2000/svg" xmlns:xlink="http://www.w3.org/1999/xlink" x="0px" y="0px"
	 viewBox="0 0 100 100" style="enable-background:new 0 0 100 100;" xml:space="preserve">
<style type="text/css">
	.st0{fill-rule:evenodd;clip-rule:evenodd;fill:#FFE808;}
	.st1{fill:#0C2534;}
	.st2{fill-rule:evenodd;clip-rule:evenodd;fill:#205F89;}
	.st3{fill-rule:evenodd;clip-rule:evenodd;fill:#B93128;}
	.st4{fill-rule:evenodd;clip-rule:evenodd;fill:#0C2534;}
</style>
<g transform="translate(44 -565)">
	<g>
		<path class="st0" d="M-41.5,615.5c0-26.5,21.5-48,48-48s48,21.5,48,48s-21.5,48-48,48S-41.5,642-41.5,615.5z"/>
		<path class="st1" d="M6.5,665c-27.3,0-49.5-22.2-49.5-49.5c0-27.3,22.2-49.5,49.5-49.5c27.3,0,49.5,22.2,49.5,49.5
			C56,642.8,33.8,665,6.5,665z M6.5,569c-25.6,0-46.5,20.9-46.5,46.5c0,25.6,20.9,46.5,46.5,46.5c25.6,0,46.5-20.9,46.5-46.5
			C53,589.9,32.1,569,6.5,569z"/>
	</g>
	<g>
		<path class="st0" d="M-1.4,610.4h-0.1c-0.1,0-0.3,0-0.4,0c-1.2-0.2-2.2-1.2-2.5-2.4c-0.6,0.3-1.3,0.5-2,0.5s-1.4-0.2-2-0.5
			c-0.3,1.2-1.3,2.2-2.5,2.4c-0.1,0-0.3,0-0.4,0h-0.1c-1.9,0-3.4,1.5-3.4,3.5v5.2H2v-5.2C2,611.9,0.5,610.4-1.4,610.4z"/>
	</g>
	<g>
		<path class="st2" d="M-1.4,610.2h-0.1c-0.1,0-0.3,0-0.4,0c-0.2,0-0.4-0.1-0.6-0.1l-0.7,0.7c-0.9,0.9-2,1.4-3.2,1.4
			s-2.4-0.5-3.2-1.4l-0.7-0.7c-0.2,0.1-0.4,0.1-0.6,0.1c-0.1,0-0.3,0-0.4,0h-0.1c-1.9,0-3.4,1.6-3.4,3.5v5.3H2v-5.3
			C2,611.8,0.5,610.2-1.4,610.2z"/>
	</g>
	<g>
		<path class="st0" d="M-7,609c-2.8,0-5-2.2-5-5v-2c0-2.8,2.2-5,5-5s5,2.2,5,5v2C-2,606.8-4.2,609-7,609z"/>
	</g>
	<g>
		<path class="st0" d="M24.6,610.4h-0.1c-0.1,0-0.3,0-0.4,0c-1.2-0.2-2.2-1.2-2.5-2.4c-0.6,0.3-1.3,0.5-2,0.5s-1.4-0.2-2-0.5
			c-0.3,1.2-1.3,2.2-2.5,2.4c-0.1,0-0.3,0-0.4,0h-0.1c-1.9,0-3.4,1.5-3.4,3.5v5.2h17v-5.2C28,611.9,26.5,610.4,24.6,610.4z"/>
	</g>
	<g>
		<path class="st2" d="M24.6,610.2h-0.1c-0.1,0-0.3,0-0.4,0c-0.2,0-0.4-0.1-0.6-0.1l-0.7,0.7c-0.9,0.9-2,1.4-3.2,1.4
			s-2.4-0.5-3.2-1.4l-0.7-0.7c-0.2,0.1-0.4,0.1-0.6,0.1c-0.1,0-0.3,0-0.4,0h-0.1c-1.9,0-3.4,1.6-3.4,3.5v5.3h17v-5.3
			C28,611.8,26.5,610.2,24.6,610.2z"/>
	</g>
	<g>
		<path class="st0" d="M19.5,609c-2.5,0-4.5-2.2-4.5-5v-2c0-2.8,2-5,4.5-5s4.5,2.2,4.5,5v2C24,606.8,22,609,19.5,609z"/>
	</g>
	<g>
		<path class="st0" d="M11.6,607.4h-0.1c-0.1,0-0.3,0-0.4,0c-1.2-0.2-2.2-1.1-2.5-2.3c-0.6,0.3-1.3,0.5-2,0.5s-1.4-0.2-2-0.5
			c-0.3,1.2-1.3,2.2-2.5,2.3c-0.1,0-0.3,0-0.4,0H1.4c-1.9,0-3.4,1.5-3.4,3.4v4.2h17v-4.2C15,608.9,13.5,607.4,11.6,607.4z"/>
	</g>
	<g>
		<path class="st2" d="M11.6,607.2h-0.1c-0.1,0-0.3,0-0.4,0c-0.2,0-0.4-0.1-0.6-0.1l-0.7,0.7c-0.9,0.9-2,1.4-3.2,1.4
			s-2.4-0.5-3.2-1.4L2.6,607c-0.2,0.1-0.4,0.1-0.6,0.1c-0.1,0-0.3,0-0.4,0H1.4c-1.9,0-3.4,1.6-3.4,3.5v4.3h17v-4.3
			C15,608.8,13.5,607.2,11.6,607.2z"/>
	</g>
	<g>
		<path class="st0" d="M6.5,606C4,606,2,603.9,2,601.4v-1.8c0-2.5,2-4.6,4.5-4.6s4.5,2.1,4.5,4.6v1.8C11,603.9,9,606,6.5,606z"/>
	</g>
	<g>
		<path class="st0" d="M9.7,631.6l19.6-5.4c1.5-0.4,3.3,0.1,4.1,1.5c0.4,0.6,0.6,1.3,0.6,2v0.9L4.1,641l-5.6-1.9H-9V624H2.2
			L9.7,631.6z"/>
	</g>
	<g>
		<path class="st3" d="M-22,623h8v20h-8V623z"/>
	</g>
	<g>
		<path class="st0" d="M-14,623h5v18h-5V623z"/>
	</g>
	<g>
		<path class="st4" d="M-12.2,602.4v1.9c0,2,1,3.7,2.6,4.7c-0.5,0.6-1.1,0.9-1.9,0.9h-0.1c-2.4,0-4.3,1.9-4.3,4.3v5
			c0,0.5,0.4,0.9,0.9,0.9H1.8c0.5,0,0.9-0.4,0.9-0.9v-2.8h7.5v2.8c0,0.5,0.4,0.9,0.9,0.9h16.9c0.5,0,0.9-0.4,0.9-0.9v-5
			c0-2.4-1.9-4.3-4.3-4.3h-0.1c-0.7,0-1.4-0.3-1.9-0.9c1.6-1,2.6-2.7,2.6-4.7v-1.9c0-3.1-2.5-5.6-5.6-5.6s-5.6,2.5-5.6,5.6v1.9
			c0,2,1,3.7,2.6,4.7c-0.3,0.3-0.6,0.6-1.1,0.7c-0.7-1.5-2.2-2.6-4-2.6h-0.1c-0.7,0-1.4-0.3-1.9-0.9c1.6-1,2.6-2.7,2.6-4.7v-1.9
			c0-3.1-2.5-5.6-5.6-5.6s-5.6,2.5-5.6,5.6v1.9c0,2,1,3.7,2.6,4.7C3,606.7,2.3,607,1.6,607H1.5c-1.8,0-3.3,1.1-4,2.6
			c-0.4-0.1-0.8-0.4-1.1-0.7c1.6-1,2.6-2.7,2.6-4.7v-1.9c0-3.1-2.5-5.6-5.6-5.6S-12.2,599.3-12.2,602.4z M0.9,618.1h-15v-4.1
			c0-1.3,1.1-2.4,2.5-2.4h0.1c0.2,0,0.5,0,0.7-0.1l0.3,0.3c1,1,2.4,1.6,3.9,1.6c1.4,0,2.7-0.5,3.8-1.5v3.3c0,0.5,0.4,0.9,0.9,0.9
			h2.8V618.1z M24.7,611.6c1.4,0,2.5,1.1,2.5,2.4v4.1h-15v-1.9h2.8c0.5,0,0.9-0.4,0.9-0.9V612c1,1,2.3,1.5,3.8,1.5
			c1.5,0,2.8-0.6,3.9-1.6l0.3-0.3c0.2,0,0.5,0.1,0.7,0.1H24.7z M15.9,602.4c0-2,1.7-3.7,3.8-3.7s3.8,1.7,3.8,3.7v1.9
			c0,2-1.7,3.7-3.8,3.7s-3.8-1.7-3.8-3.7V602.4z M19.6,609.8c0.4,0,0.9-0.1,1.3-0.1c0.3,0.4,0.6,0.8,1.1,1.1c-1.3,1.1-3.3,1.1-4.6,0
			c0.4-0.3,0.8-0.7,1.1-1.1C18.8,609.7,19.2,609.8,19.6,609.8z M2.8,599.6c0-2,1.7-3.7,3.8-3.7s3.8,1.7,3.8,3.7v1.9
			c0,2-1.7,3.7-3.8,3.7s-3.8-1.7-3.8-3.7V599.6z M6.5,607c0.4,0,0.9-0.1,1.3-0.1c0.3,0.4,0.6,0.8,1.1,1.1c-1.3,1.1-3.3,1.1-4.6,0
			c0.4-0.3,0.8-0.7,1.1-1.1C5.6,606.9,6.1,607,6.5,607z M-1,611.3c0-1.3,1.1-2.4,2.5-2.4h0.1c0.2,0,0.5,0,0.7-0.1l0.3,0.3
			c1,1,2.4,1.6,3.9,1.6s2.8-0.6,3.9-1.6l0.3-0.3c0.2,0,0.5,0.1,0.7,0.1h0.1c1.4,0,2.5,1.1,2.5,2.4v3.1H-1V611.3z M-4.3,610.8
			c-1.3,1.1-3.3,1.1-4.6,0c0.4-0.3,0.8-0.7,1.1-1.1c0.4,0.1,0.8,0.1,1.3,0.1s0.9-0.1,1.3-0.1C-5.1,610.1-4.7,610.5-4.3,610.8z
			 M-2.9,602.4v1.9c0,2-1.7,3.7-3.8,3.7s-3.8-1.7-3.8-3.7v-1.9c0-2,1.7-3.7,3.8-3.7S-2.9,600.3-2.9,602.4z"/>
	</g>
	<g>
		<path class="st4" d="M29.1,626l-19.2,5.1c-0.1-0.2-0.3-0.4-0.5-0.6l-6.5-6.4c-0.2-0.2-0.4-0.3-0.7-0.3H-8v-0.9
			c0-0.5-0.4-0.9-0.9-0.9h-5.6h-7.5c-0.5,0-0.9,0.4-0.9,0.9v20.2c0,0.5,0.4,0.9,0.9,0.9h7.5c0.5,0,0.9-0.4,0.9-0.9v-0.9H-9
			c0.5,0,0.9-0.4,0.9-0.9v-0.9h6.4l5.5,1.8c0.1,0,0.2,0,0.3,0c0.1,0,0.2,0,0.3-0.1L34.4,632c0.4-0.1,0.6-0.5,0.6-0.9v-0.9
			c0-0.9-0.3-1.7-0.7-2.5C33.2,626.2,31.1,625.4,29.1,626z M-15.5,642.2h-5.6v-18.3h5.6v17.4V642.2z M-9.9,640.3h-3.7v-16.5h3.7
			V640.3z M33.1,630.5l-29,9.8l-5.3-1.7c-0.1,0-0.2,0-0.3,0H-8v-12.8h9.9l6.3,6.1c0.7,0.7,0.7,1.7,0,2.4c-0.7,0.7-1.8,0.7-2.4,0
			L1,629.6l-1.3,1.3l4.7,4.6c0.7,0.7,1.6,1,2.5,1c0.9,0,1.8-0.3,2.5-1c0.7-0.7,1.1-1.7,1-2.7l19.1-5.1c1.2-0.3,2.5,0.1,3.1,1
			c0.3,0.4,0.4,1,0.4,1.5V630.5z"/>
	</g>
	<g>
		<path class="st4" d="M15,587.4c-0.8-0.2-1.6-0.3-2.4-0.4l-0.6,1.6c0.8,0.1,1.5,0.3,2.3,0.4L15,587.4z"/>
	</g>
	<g>
		<path class="st4" d="M33,615.3c0,0.2,0,0.4,0,0.7l2,0c0-0.2,0-0.5,0-0.7c0-0.1,0-0.2,0-0.3l-2,0C33,615.1,33,615.2,33,615.3z"/>
	</g>
	<g>
		<path class="st4" d="M11,586.2c-0.6-0.1-1.2-0.2-1.8-0.2L9,587.8c0.6,0.1,1.1,0.1,1.7,0.2L11,586.2z"/>
	</g>
	<g>
		<path class="st4" d="M32.4,609l1.6-0.4c-0.1-0.6-0.3-1.1-0.4-1.6l-1.6,0.5C32.1,608,32.3,608.5,32.4,609z"/>
	</g>
	<g>
		<path class="st4" d="M18,588.9c-0.5-0.3-1-0.6-1.4-0.9l-0.6,2.1c0.5,0.3,0.9,0.5,1.4,0.9L18,588.9z"/>
	</g>
	<g>
		<path class="st4" d="M33.2,613l1.8-0.2c-0.1-0.6-0.1-1.2-0.2-1.8l-1.8,0.3C33.1,611.8,33.2,612.4,33.2,613z"/>
	</g>
	<g>
		<path class="st4" d="M28.2,600l1.8-1.2c-0.4-0.6-0.9-1.2-1.3-1.8l-1.7,1.4C27.4,598.9,27.8,599.4,28.2,600z"/>
	</g>
	<g>
		<path class="st4" d="M31.5,606l1.5-0.8c-0.2-0.7-0.4-1.5-0.6-2.2l-1.4,0.9C31.2,604.6,31.4,605.3,31.5,606z"/>
	</g>
	<g>
		<path class="st4" d="M27,595.6c-0.3-0.5-0.7-1.1-1-1.6l-1,1.5c0.3,0.5,0.6,1,1,1.5L27,595.6z"/>
	</g>
	<g>
		<path class="st4" d="M22,590.8c-0.6-0.3-1.3-0.5-1.9-0.8l-1.1,1.3c0.6,0.2,1.2,0.5,1.8,0.7L22,590.8z"/>
	</g>
	<g>
		<path class="st4" d="M32,623.5l1.5,0.5c0.2-0.5,0.3-1.1,0.5-1.6l-1.6-0.4C32.3,622.5,32.2,623,32,623.5z"/>
	</g>
	<g>
		<path class="st4" d="M35,618.2l-1.8-0.2c-0.1,0.6-0.1,1.1-0.2,1.7l1.7,0.3C34.8,619.4,34.9,618.8,35,618.2z"/>
	</g>
	<g>
		<path class="st4" d="M25,592.9c-0.6-0.3-1.1-0.6-1.7-0.9l-1.3,1.2c0.6,0.3,1.1,0.6,1.6,0.8L25,592.9z"/>
	</g>
	<g>
		<path class="st4" d="M30,603l2-1c-0.3-0.7-0.7-1.3-1.1-2l-1.9,1.2C29.4,601.8,29.7,602.4,30,603z"/>
	</g>
	<g>
		<path class="st4" d="M-20,607.5l-1.6-0.5c-0.2,0.5-0.3,1.1-0.4,1.6l1.6,0.4C-20.3,608.5-20.1,608-20,607.5z"/>
	</g>
	<g>
		<path class="st4" d="M-18,604l-2.1-1c-0.3,0.7-0.6,1.5-0.9,2.2l2.2,0.8C-18.6,605.3-18.3,604.6-18,604z"/>
	</g>
	<g>
		<path class="st4" d="M-17,600.8l-1.3-0.8c-0.3,0.4-0.5,0.9-0.7,1.3l1.3,0.7C-17.5,601.6-17.2,601.2-17,600.8z"/>
	</g>
	<g>
		<path class="st4" d="M-15,597.9l-1.1-0.9c-0.3,0.4-0.6,0.8-0.9,1.2l1.2,0.8C-15.6,598.6-15.3,598.3-15,597.9z"/>
	</g>
	<g>
		<path class="st4" d="M-21,615.9c0-0.4,0-0.7,0-1.1c0-0.3,0-0.5,0-0.8l-2-0.1c0,0.3,0,0.5,0,0.8c0,0.4,0,0.8,0,1.2L-21,615.9z"/>
	</g>
	<g>
		<path class="st4" d="M-21,611.3l-1.8-0.3c-0.1,0.6-0.2,1.2-0.2,1.8l1.8,0.2C-21.2,612.4-21.1,611.8-21,611.3z"/>
	</g>
	<g>
		<path class="st4" d="M-23,618.2c0.1,0.6,0.2,1.2,0.4,1.8l2.6-0.3c-0.1-0.6-0.3-1.1-0.3-1.7L-23,618.2z"/>
	</g>
	<g>
		<path class="st4" d="M-10,593.2l-0.8-1.2c-0.4,0.3-0.8,0.6-1.2,0.9l0.9,1.1C-10.7,593.7-10.4,593.4-10,593.2z"/>
	</g>
	<g>
		<path class="st4" d="M-3,589.4l-0.8-1.4c-0.7,0.2-1.5,0.4-2.2,0.6l1,1.4C-4.4,589.8-3.7,589.6-3,589.4z"/>
	</g>
	<g>
		<path class="st4" d="M0,588.6l-0.4-1.6c-0.5,0.1-1.1,0.3-1.6,0.4l0.5,1.6C-1,588.9-0.5,588.7,0,588.6z"/>
	</g>
	<g>
		<path class="st4" d="M4,587.8L3.8,586c-0.6,0.1-1.2,0.1-1.8,0.2l0.3,1.8C2.9,587.9,3.4,587.8,4,587.8z"/>
	</g>
	<g>
		<path class="st4" d="M-7,591.3l-0.7-1.3c-0.4,0.2-0.9,0.5-1.3,0.8l0.8,1.2C-7.8,591.8-7.4,591.5-7,591.3z"/>
	</g>
	<g>
		<path class="st4" d="M5.8,588c0.4,0,0.8,0,1.1,0l0.1-2c-0.4,0-0.7,0-1.1,0c-0.3,0-0.6,0-0.9,0l0.1,2C5.3,588,5.6,588,5.8,588z"/>
	</g>
	<g>
		<path class="st4" d="M-12,595.6l-1.5-1.6c-0.5,0.5-1,1-1.5,1.5l1.6,1.5C-13,596.5-12.5,596-12,595.6z"/>
	</g>
</g>
</svg>
