<?xml version="1.0" encoding="utf-8"?>
<!-- Generator: Adobe Illustrator 25.0.0, SVG Export Plug-In . SVG Version: 6.00 Build 0)  -->
<svg version="1.1" id="Layer_1" xmlns="http://www.w3.org/2000/svg" xmlns:xlink="http://www.w3.org/1999/xlink" x="0px" y="0px"
	 viewBox="0 0 100 101" style="enable-background:new 0 0 100 101;" xml:space="preserve">
<style type="text/css">
	.st0{fill-rule:evenodd;clip-rule:evenodd;fill:#FFE808;}
	.st1{fill:#0C2534;}
	.st2{fill-rule:evenodd;clip-rule:evenodd;fill:#205F89;}
	.st3{fill-rule:evenodd;clip-rule:evenodd;fill:#FF6371;}
	.st4{fill-rule:evenodd;clip-rule:evenodd;fill:#B93128;}
	.st5{fill-rule:evenodd;clip-rule:evenodd;fill:#0C2534;}
	.st6{fill-rule:evenodd;clip-rule:evenodd;}
</style>
<g transform="translate(-105 -150)">
	<g>
		<path class="st0" d="M107.5,200.5c0-26.5,21.5-48,48-48s48,21.5,48,48s-21.5,48-48,48S107.5,227,107.5,200.5z"/>
		<path class="st1" d="M155.5,250c-27.3,0-49.5-22.2-49.5-49.5s22.2-49.5,49.5-49.5s49.5,22.2,49.5,49.5S182.8,250,155.5,250z
			 M155.5,154c-25.6,0-46.5,20.9-46.5,46.5s20.9,46.5,46.5,46.5s46.5-20.9,46.5-46.5S181.1,154,155.5,154z"/>
	</g>
	<g>
		<path class="st2" d="M148,181c-2.4,2.8-5.7,4.8-9.4,5.8c-1.2,0.3-1.9,1.5-1.6,2.6c0.3,1.1,1.5,1.7,2.6,1.5c0.1,0,0.1,0,0.2,0
			c1.9-0.5,3.7-1.2,5.3-2.1L148,181z"/>
	</g>
	<g>
		<path class="st2" d="M154.8,195l2.5-7.2c0.7,0.1,1.5,0.2,2.2,0.2c3.4,0,6.7-1.2,9.4-3.4l0.3-0.3c1-0.8,1.1-2.2,0.4-3.2
			c-0.8-1-2.3-1.2-3.3-0.4L166,181c-0.6,0.5-1.2,0.9-1.9,1.3c-2.6,1.3-5.8,0.6-7.8-1.5c-1-1.1-2.4-1.7-4-1.7l0,0
			c-2.5,0-4.6,1.7-5.2,4.1L144,195H154.8z"/>
	</g>
	<g>
		<path class="st2" d="M144.1,195l-8.9,23.5c-0.6,1.5,0.4,3.2,2,3.4h0.1c1.1,0.2,2.2-0.4,2.7-1.4c2.5-5,10-19.9,10-19.9h3l-1.5,9.8
			c-0.2,1.4,0.9,2.8,2.3,2.8l0,0c1.1,0,2-0.7,2.3-1.7L159,201c0.8-3-1.4-6-4.5-6h-1.4L144.1,195L144.1,195z"/>
	</g>
	<g>
		<path class="st3" d="M186,197l-11,2.2l2.4,2.4l-7.7,7.7l-5.4-5.5L139,229.3l3.7,3.7l21.6-21.7l5.4,5.5l11.3-11.4l2.7,2.8L186,197z
			"/>
	</g>
	<g>
		<path class="st4" d="M186,197l-11,2.2l2.4,2.4l-7.7,7.7l-5.4-5.5L139,229.3l3.7,3.7l21.6-21.7l5.4,5.5l11.3-11.4l2.7,2.8L186,197z
			"/>
	</g>
	<g>
		<path class="st0" d="M160,174.5c0,2.5-2,4.5-4.5,4.5s-4.5-2-4.5-4.5s2-4.5,4.5-4.5S160,172,160,174.5z"/>
	</g>
	<g>
		<path class="st0" d="M133.1,204.5l-9.6-9.6c-0.7-0.7-0.7-1.7,0-2.4l7-7c0.7-0.7,1.7-0.7,2.4,0l9.6,9.6c0.7,0.7,0.7,1.7,0,2.4l-7,7
			C134.9,205.2,133.8,205.2,133.1,204.5z"/>
	</g>
	<g>
		<path class="st0" d="M131.9,196.5l-0.4-0.4c-0.7-0.7-0.7-1.8,0-2.5l1.6-1.6l2.9,2.9l-1.6,1.6C133.7,197.2,132.6,197.2,131.9,196.5
			z"/>
	</g>
	<g>
		<path class="st5" d="M186.6,196.3c-0.3-0.3-0.7-0.4-1.1-0.3l-10.9,2.2c-0.5,0.1-0.8,0.4-1,0.9c-0.1,0.4,0,0.9,0.3,1.3l1.5,1.5
			l-5.8,5.8l-4.5-4.5c-0.2-0.2-0.6-0.4-0.9-0.4c-0.3,0-0.7,0.1-0.9,0.4l-5.5,5.5l2.1-7.4c0.5-1.8,0.1-3.7-1-5.2
			c-0.7-0.9-1.6-1.6-2.7-2l1.7-4.7c0.5,0,0.9,0.1,1.4,0.1c3.7,0,7.2-1.3,10.1-3.6l0.3-0.3c1.5-1.2,1.7-3.4,0.6-4.9
			c-0.6-0.8-1.4-1.2-2.4-1.4c-1-0.1-1.9,0.2-2.6,0.8l-0.3,0.3c-0.5,0.4-1.1,0.8-1.6,1.1c-2,1-4.4,0.5-6-1.1c2.4-0.7,4.1-2.9,4.1-5.5
			c0-3.2-2.6-5.8-5.8-5.8s-5.8,2.6-5.8,5.8c0,1.3,0.4,2.4,1.1,3.4c-1.3,0.3-2.5,1-3.4,1.9c-0.1,0-0.1,0.1-0.2,0.2
			c-2.2,2.7-5.2,4.7-8.6,5.7c-0.9,0.3-1.7,0.9-2.1,1.7l-2.6-2.6c-1.1-1.1-3-1.1-4.1,0l-3.4,3.4l0,0l0,0l-3.4,3.4
			c-0.6,0.6-0.9,1.3-0.9,2.1s0.3,1.5,0.9,2.1l9.4,9.4c0.6,0.6,1.3,0.9,2.1,0.9s1.5-0.3,2.1-0.9l3.5-3.5l-1.7,4.4
			c-0.2,0.7,0.1,1.4,0.7,1.6c0.1,0.1,0.3,0.1,0.5,0.1c0.5,0,1-0.3,1.2-0.8l4.2-10.9h7.9h1.4c1.1,0,2.1,0.5,2.7,1.3
			c0.7,0.9,0.9,1.9,0.6,3l-2.9,10.4c-0.1,0.5-0.6,0.8-1,0.8s-0.7-0.2-0.8-0.4c-0.1-0.1-0.3-0.4-0.2-0.9l1.5-9.6c0.1-0.4,0-0.7-0.3-1
			c-0.2-0.3-0.6-0.4-1-0.4h-3c-0.5,0-0.9,0.3-1.1,0.7c-0.1,0.1-7.4,14.7-9.9,19.6c-0.2,0.5-0.8,0.8-1.3,0.7h-0.1
			c-0.4-0.1-0.7-0.3-0.9-0.6s-0.2-0.7-0.1-1.1l0.8-2.1c0.2-0.7-0.1-1.4-0.7-1.6s-1.4,0.1-1.6,0.7l-0.8,2.1c-0.4,1.1-0.3,2.3,0.3,3.3
			s1.6,1.7,2.7,1.8h0.1c0.2,0,0.3,0,0.5,0c1.4,0,2.8-0.8,3.4-2.1c2.2-4.3,8.1-16,9.6-18.9h0.7l-1.3,8.2c-0.2,1,0.1,2.1,0.8,2.9
			c0.4,0.5,1,0.9,1.7,1.1l-14.1,14.1c-0.2,0.2-0.4,0.6-0.4,0.9c0,0.3,0.1,0.7,0.4,0.9l3.6,3.6c0.2,0.2,0.6,0.4,0.9,0.4
			c0.3,0,0.6-0.1,0.9-0.4l7-7c0.5-0.5,0.5-1.3,0-1.8s-1.3-0.5-1.8,0l-6.1,6.1l-1.8-1.8l23.3-23.3l4.5,4.5c0.2,0.2,0.6,0.4,0.9,0.4
			c0.3,0,0.7-0.1,0.9-0.4l7.6-7.6c0.5-0.5,0.5-1.3,0-1.8l-0.7-0.7l6.7-1.4l-1.4,6.7l-1-1c-0.5-0.5-1.3-0.5-1.8,0l-10.4,10.3
			l-4.5-4.5c-0.5-0.5-1.3-0.5-1.8,0l-7.2,7.2c-0.5,0.5-0.5,1.3,0,1.8s1.3,0.5,1.8,0l6.3-6.3l4.5,4.5c0.5,0.5,1.3,0.5,1.8,0
			l10.4-10.3l1.8,1.8c0.3,0.3,0.8,0.5,1.3,0.3c0.4-0.1,0.8-0.5,0.9-1l2.2-10.9C187.1,197.1,186.9,196.6,186.6,196.3z M155.4,171.5
			c1.8,0,3.3,1.5,3.3,3.3s-1.5,3.3-3.3,3.3s-3.3-1.5-3.3-3.3C152.1,173,153.6,171.5,155.4,171.5z M142.8,194l-1.5-1.5
			c0.7-0.2,1.5-0.5,2.2-0.8L142.8,194z M138.5,189.6c-0.2-0.5,0.2-1.1,0.7-1.2c2.1-0.6,4-1.5,5.8-2.7l-0.7,2.8
			c-1.4,0.8-2.9,1.4-4.5,1.9h-0.1c-0.2,0-0.5,0-0.7-0.1l-0.4-0.4C138.6,189.8,138.5,189.7,138.5,189.6z M131.5,186.8
			c0.1-0.1,0.2-0.1,0.3-0.1s0.2,0,0.3,0.1l4.6,4.6c0.2,0.3,0.5,0.5,0.8,0.8l4,4c0.1,0.1,0.1,0.4,0,0.5l-2.5,2.5l-2.8-2.8l0.5-0.5
			c0.5-0.5,0.5-1.3,0-1.8l-2.9-2.9c-0.5-0.5-1.3-0.5-1.8,0l-0.5,0.5l-2.5-2.5L131.5,186.8z M133.2,195.8c-0.1,0.1-0.3,0.1-0.3,0.1
			c-0.1,0-0.2,0-0.3-0.1l0,0l-0.4-0.4c-0.1-0.1-0.1-0.3-0.1-0.3c0-0.1,0-0.2,0.1-0.3l0.7-0.7l1.1,1.1L133.2,195.8z M134.6,203.6
			c-0.1,0.1-0.2,0.1-0.3,0.1s-0.2,0-0.3-0.1l-9.4-9.4c-0.1-0.1-0.1-0.2-0.1-0.3s0-0.2,0.1-0.3l2.5-2.5l2.6,2.6
			c-0.2,0.4-0.3,0.8-0.3,1.3c0,0.8,0.3,1.6,0.9,2.1l0.4,0.4l0,0c0.6,0.6,1.3,0.9,2.1,0.9c0.5,0,0.9-0.1,1.3-0.3l2.9,2.9L134.6,203.6
			z M152.7,193.7h-7.2l2.6-10c0.5-1.8,2.1-3,3.9-3c1.1,0,2.2,0.5,3,1.3c2.4,2.6,6.2,3.3,9.2,1.8c0.8-0.4,1.5-0.9,2.1-1.4l0.3-0.3
			c0.2-0.2,0.5-0.3,0.7-0.2c0.3,0,0.5,0.2,0.7,0.4c0.3,0.4,0.2,1-0.2,1.4l-0.3,0.3c-2.4,2-5.4,3.1-8.4,3.1c-0.7,0-1.3-0.1-2-0.2
			c-0.6-0.1-1.2,0.3-1.4,0.8l-2.2,6.2h-0.8V193.7z"/>
	</g>
	<g>
		<path class="st6" d="M153.5,221c-0.4,0-0.8,0.1-1.1,0.3s-0.4,0.4-0.4,0.7s0.2,0.5,0.4,0.7c0.3,0.2,0.7,0.3,1.1,0.3
			s0.8-0.1,1.1-0.3s0.4-0.4,0.4-0.7s-0.2-0.5-0.4-0.7C154.3,221.1,153.9,221,153.5,221z"/>
	</g>
	<g>
		<path class="st6" d="M137.5,213c0.4,0,0.8-0.2,1.1-0.4c0.3-0.3,0.4-0.7,0.4-1.1s-0.2-0.8-0.4-1.1c-0.3-0.3-0.7-0.4-1.1-0.4
			s-0.8,0.2-1.1,0.4c-0.3,0.3-0.4,0.7-0.4,1.1s0.2,0.8,0.4,1.1C136.7,212.8,137.1,213,137.5,213z"/>
	</g>
</g>
</svg>
