<?xml version="1.0" encoding="utf-8"?>
<!-- Generator: Adobe Illustrator 25.0.0, SVG Export Plug-In . SVG Version: 6.00 Build 0)  -->
<svg version="1.1" id="Layer_1" xmlns="http://www.w3.org/2000/svg" xmlns:xlink="http://www.w3.org/1999/xlink" x="0px" y="0px"
	 viewBox="0 0 100 100" style="enable-background:new 0 0 100 100;" xml:space="preserve">
<style type="text/css">
	.st0{fill:none;}
	.st1{fill-rule:evenodd;clip-rule:evenodd;fill:#FFE808;}
	.st2{fill:#0C2534;}
	.st3{enable-background:new    ;}
	.st4{fill:#FFE808;}
	.st5{fill:#205F89;}
	.st6{fill:#B93128;}
</style>
<g>
	<rect y="0" class="st0" width="100" height="100"/>
</g>
<g>
	<path class="st1" d="M2.5,50.5c0-26.5,21.5-48,48-48c26.5,0,48,21.5,48,48s-21.5,48-48,48C24,98.5,2.5,77,2.5,50.5z"/>
	<path class="st2" d="M50.5,100C23.2,100,1,77.8,1,50.5C1,23.2,23.2,1,50.5,1C77.8,1,100,23.2,100,50.5C100,77.8,77.8,100,50.5,100z
		 M50.5,4C24.9,4,4,24.9,4,50.5C4,76.1,24.9,97,50.5,97C76.1,97,97,76.1,97,50.5C97,24.9,76.1,4,50.5,4z"/>
</g>
<g class="st3">
	<path class="st4" d="M65.3,54.5l9-6.7c2-1.6,4.8-1.3,6.4,0.6L63.2,65.6c-2.5,1.8-5.4,2.8-8.5,2.7L40,67.2c-1.4-0.1-2.7,0.3-3.7,1.2
		l-2.6,2.1l-2.5-14.2l0.1,0c3.6-3.8,8.9-5.3,13.9-3.9l0.9,0.3c1.4,0.4,3,0.5,4.4,0.2l8.2-1.4C61.4,51,64,52.2,65.3,54.5z"/>
</g>
<g class="st3">
	<path class="st5" d="M53.9,19.8c7.7,0,13.9,6.2,13.9,13.9c0,7.7-6.2,13.9-13.9,13.9c-7.7,0-13.9-6.2-13.9-13.9
		C40,26,46.2,19.8,53.9,19.8z"/>
</g>
<g class="st3">
	<path class="st6" d="M33.7,70.5l0.3,1.6l-9,1.6L21.5,54l9-1.6l0.7,3.9L33.7,70.5z"/>
</g>
<g class="st3">
	<g>
		<path class="st2" d="M23.9,73.9c0.1,0.6,0.7,1,1.3,0.9l9-1.6c0.6-0.1,1-0.7,0.9-1.3l-0.2-1l2.1-1.7c0.8-0.7,1.9-1,3-0.9l14.7,1.1
			c0.1,0,0.1,0,0.2,0c3.2,0,6.4-1,9-3c0,0,0.1-0.1,0.1-0.1l17.5-17.2c0.4-0.4,0.4-1.1,0.1-1.5c-2-2.3-5.5-2.7-7.9-0.8l-8,6
			c-1.7-2-4.3-3-6.9-2.6l-8.2,1.4c-1.3,0.2-2.7,0.2-3.9-0.2l-0.9-0.3c-4.7-1.4-9.8-0.3-13.6,2.8l-0.3-2c-0.1-0.6-0.7-1-1.3-0.9
			l-9,1.6c-0.6,0.1-1,0.7-0.9,1.3L23.9,73.9z M45,53.5l0.9,0.3c1.6,0.5,3.3,0.5,4.9,0.3l8.2-1.4c2.1-0.4,4.2,0.6,5.3,2.5
			c0.1,0.2,0.2,0.4,0.3,0.6l-12.3,2.2c-0.6,0.1-1,0.6-0.9,1.2c0,0.6,0.5,1,1.1,1c0.1,0,0.1,0,0.2,0l13.5-2.4c0.6-0.1,1-0.7,0.9-1.3
			c-0.1-0.5-0.2-1-0.4-1.5l8.2-6.2l0,0c1.2-0.9,2.8-1,4.1-0.2L62.5,64.7c-2.2,1.6-4.9,2.5-7.7,2.5h0l-14.7-1.1
			c-1.6-0.1-3.3,0.4-4.5,1.4l-1.1,0.9l-2.1-11.7C35.7,53.4,40.5,52.2,45,53.5z M29.6,53.7l3,17.1l0.1,0.6l-6.8,1.2l-3.1-17.6
			L29.6,53.7z"/>
	</g>
	<g>
		<path class="st2" d="M53.9,48.7c8.3,0,15-6.7,15-15c0-8.3-6.7-15-15-15c-8.3,0-15,6.7-15,15C38.9,42,45.6,48.7,53.9,48.7z
			 M53.9,20.9c7.1,0,12.8,5.7,12.8,12.8c0,7.1-5.7,12.8-12.8,12.8c-7.1,0-12.8-5.7-12.8-12.8C41.1,26.6,46.8,20.9,53.9,20.9z"/>
	</g>
	<g>
		<path class="st2" d="M53.1,36h6.2c0.6,0,1.1-0.5,1.1-1.1c0-0.6-0.5-1.1-1.1-1.1h-5.1v-7.1c0-0.6-0.5-1.1-1.1-1.1
			c-0.6,0-1.1,0.5-1.1,1.1v8.1C52,35.5,52.5,36,53.1,36z"/>
	</g>
</g>
</svg>
