<?xml version="1.0" encoding="utf-8"?>
<!-- Generator: Adobe Illustrator 25.0.0, SVG Export Plug-In . SVG Version: 6.00 Build 0)  -->
<svg version="1.1" id="Layer_1" xmlns="http://www.w3.org/2000/svg" xmlns:xlink="http://www.w3.org/1999/xlink" x="0px" y="0px"
	 viewBox="0 0 101 101" style="enable-background:new 0 0 101 101;" xml:space="preserve">
<style type="text/css">
	.st0{fill-rule:evenodd;clip-rule:evenodd;fill:#FFE808;}
	.st1{fill:#0C2534;}
	.st2{fill-rule:evenodd;clip-rule:evenodd;fill:#205F89;}
	.st3{fill-rule:evenodd;clip-rule:evenodd;fill:#B93128;}
	.st4{fill-rule:evenodd;clip-rule:evenodd;fill:#0C2534;}
</style>
<g transform="translate(-105 -386)">
	<g>
		<path class="st0" d="M108.5,436.5c0-26.5,21.5-48,48-48s48,21.5,48,48s-21.5,48-48,48S108.5,463,108.5,436.5z"/>
		<path class="st1" d="M156.5,486c-27.3,0-49.5-22.2-49.5-49.5c0-27.3,22.2-49.5,49.5-49.5c27.3,0,49.5,22.2,49.5,49.5
			C206,463.8,183.8,486,156.5,486z M156.5,390c-25.6,0-46.5,20.9-46.5,46.5c0,25.6,20.9,46.5,46.5,46.5c25.6,0,46.5-20.9,46.5-46.5
			C203,410.9,182.1,390,156.5,390z"/>
	</g>
	<g>
		<path class="st0" d="M150,452.9v-1.6l-9.3,1c-1.6,0.2-3.1-1.1-3.2-2.7l-0.5-7.6c-0.1-1.5-3.4-1.5-3.6-1.8c-0.4-0.5-0.4-1.2,0-1.7
			l3.8-6.7c-1.2-12.1,7-22.7,19.7-22.7c0,0,0,0,0,0l0,0v0c16,0,22,12.9,21.1,23.7c-0.4,5-3.7,12.2-10.8,16.4c-1.7,1-2.7,2.9-2.7,4.8
			v10H150v-1"/>
	</g>
	<g>
		<path class="st2" d="M171.4,431l1.4-0.2c0.1-0.7,0.2-1.5,0.2-2.3c0-0.8-0.1-1.5-0.2-2.3l-1.4-0.2c-0.2-1-0.6-1.9-1.1-2.8l0.8-1.1
			c-0.8-1.3-1.9-2.3-3.2-3.2l-1.1,0.8c-0.9-0.5-1.8-0.9-2.8-1.1l-0.2-1.4c-0.7-0.1-1.5-0.2-2.3-0.2c-0.8,0-1.5,0.1-2.3,0.2l-0.2,1.4
			c-1,0.2-1.9,0.6-2.8,1.1l-1.1-0.8c-1.3,0.8-2.3,1.9-3.2,3.2l0.8,1.1c-0.5,0.9-0.9,1.8-1.1,2.8l-1.4,0.2c-0.1,0.7-0.2,1.5-0.2,2.3
			s0.1,1.5,0.2,2.3l1.4,0.2c0.2,1,0.6,1.9,1.1,2.8l-0.8,1.1c0.8,1.3,1.9,2.3,3.2,3.2l1.1-0.8c0.9,0.5,1.8,0.9,2.8,1.1l0.2,1.4
			c0.7,0.1,1.5,0.2,2.3,0.2c0.8,0,1.5-0.1,2.3-0.2l0.2-1.4c1-0.2,1.9-0.6,2.8-1.1l1.1,0.8c1.3-0.8,2.3-1.9,3.2-3.2l-0.8-1.1
			C170.8,432.9,171.1,431.9,171.4,431z"/>
	</g>
	<g>
		<path class="st3" d="M162.1,423.4c2.8,0.5,4.8,3.1,4.3,6c-0.5,2.8-3.1,4.8-6,4.3c-2.8-0.5-4.8-3.1-4.3-6
			C156.6,424.8,159.3,422.9,162.1,423.4z"/>
	</g>
	<g>
		<path class="st4" d="M178,423.3c-1-3.3-2.6-6.2-4.7-8.6c-4-4.4-9.6-6.7-16.4-6.7h0h0c-6.1,0-11.6,2.4-15.4,6.7
			c-3.9,4.4-5.8,10.5-5.3,16.8l-3.6,6.3c-0.7,0.9-0.6,2.3,0.2,3.1c0.3,0.3,0.7,0.4,1.3,0.5c1.1,0.2,1.8,0.4,2,0.6l0.5,7.5
			c0.1,1.1,0.6,2.1,1.4,2.8c0.8,0.7,1.9,1,3,0.9l8.1-0.9v0.4c0,0.6,0.5,1.1,1.1,1.1c0.6,0,1.1-0.5,1.1-1.1v-1.6
			c0-0.3-0.1-0.6-0.4-0.8c-0.2-0.2-0.5-0.3-0.9-0.3l-9.3,1c-0.5,0.1-1-0.1-1.3-0.4c-0.4-0.3-0.6-0.8-0.6-1.3l-0.2-2.6
			c1.3-0.2,2.6-0.5,3.8-1.1c0.6-0.3,0.8-0.9,0.5-1.5c-0.3-0.6-0.9-0.8-1.5-0.6c-1,0.4-2,0.7-3,0.9l-0.2-2.7
			c-0.1-1.9-2.5-2.4-3.8-2.6c-0.1,0-0.1,0-0.2,0c0,0,0-0.1,0-0.1c0,0,0.1-0.1,0.1-0.2l3.8-6.7c0.1-0.2,0.2-0.4,0.1-0.7
			c-0.6-5.8,1.1-11.4,4.7-15.4c3.4-3.9,8.3-6,13.8-6c0,0,0,0,0.1,0c0,0,0,0,0,0c6.1,0,11.2,2.1,14.8,5.9c3.7,4.1,5.6,10.3,5.1,16.5
			c-0.4,4.9-3.7,11.6-10.2,15.5c-2,1.2-3.3,3.4-3.3,5.8v8.9h-12.1c0-0.6-0.5-1-1.1-1c-0.6,0-1.1,0.5-1.1,1.1v1
			c0,0.6,0.5,1.1,1.1,1.1h14.3c0.6,0,1.1-0.5,1.1-1.1v-10c0-1.6,0.8-3.1,2.2-3.9c3.4-2,6.2-4.9,8.2-8.3c1.7-2.9,2.8-6,3-8.9
			C179.2,429.6,178.9,426.3,178,423.3z"/>
	</g>
	<g>
		<path class="st4" d="M149.2,458.6c0.2,0.3,0.7,0.5,1.1,0.4c0.4-0.1,0.7-0.4,0.8-0.8c0.1-0.4-0.2-0.8-0.5-1
			c-0.4-0.2-0.8-0.1-1.1,0.2C149,457.6,148.9,458.2,149.2,458.6z"/>
	</g>
	<g>
		<path class="st4" d="M141.6,433c0.6,0,1.2-0.5,1.2-1.2v-2.4h2.1c0.6,0,1.2-0.5,1.2-1.2c0-0.7-0.5-1.2-1.2-1.2h-4.6
			c-0.6,0-1.2,0.5-1.2,1.2c0,0.7,0.5,1.2,1.2,1.2h0.2v2.4C140.4,432.5,140.9,433,141.6,433z"/>
	</g>
	<g>
		<path class="st4" d="M151.1,435.4c0.9,1.4,2.1,2.5,3.5,3.5c0.4,0.3,0.9,0.2,1.3,0l0.6-0.4c0.5,0.3,1.1,0.5,1.7,0.7l0.1,0.7
			c0.1,0.5,0.4,0.8,0.9,0.9c0.8,0.2,1.6,0.2,2.4,0.2s1.6-0.1,2.4-0.2c0.5-0.1,0.8-0.5,0.9-0.9l0.1-0.7c0.6-0.2,1.1-0.4,1.7-0.7
			l0.6,0.4c0.4,0.3,0.9,0.3,1.3,0c1.4-0.9,2.5-2.1,3.5-3.5c0.3-0.4,0.2-0.9,0-1.3l-0.4-0.6c0.3-0.5,0.5-1.1,0.7-1.7l0.7-0.1
			c0.5-0.1,0.8-0.4,0.9-0.9c0.2-0.8,0.2-1.6,0.2-2.5c0-0.8-0.1-1.6-0.2-2.4c-0.1-0.5-0.5-0.8-0.9-0.9l-0.7-0.1
			c-0.2-0.6-0.4-1.1-0.7-1.7l0.4-0.6c0.3-0.4,0.3-0.9,0-1.3c-0.9-1.4-2.1-2.5-3.5-3.5c-0.4-0.3-0.9-0.2-1.3,0l-0.6,0.4
			c-0.5-0.3-1.1-0.5-1.7-0.7l-0.1-0.7c-0.1-0.5-0.4-0.8-0.9-0.9c-1.6-0.3-3.3-0.3-4.9,0c-0.5,0.1-0.8,0.5-0.9,0.9l-0.1,0.7
			c-0.6,0.2-1.1,0.4-1.7,0.7l-0.6-0.4c-0.4-0.3-0.9-0.3-1.3,0c-1.4,0.9-2.5,2.1-3.5,3.5c-0.3,0.4-0.2,0.9,0,1.3l0.4,0.6
			c-0.3,0.5-0.5,1.1-0.7,1.7l-0.7,0.1c-0.5,0.1-0.8,0.4-0.9,0.9c-0.2,0.8-0.2,1.6-0.2,2.5c0,0.8,0.1,1.6,0.2,2.4
			c0.1,0.5,0.5,0.8,0.9,0.9l0.7,0.1c0.2,0.6,0.4,1.1,0.7,1.7l-0.4,0.6C150.9,434.6,150.8,435.1,151.1,435.4z M151.3,429.8
			c-0.1-0.4-0.1-0.8-0.1-1.3c0-0.4,0-0.9,0.1-1.3l0.6-0.1c0.4-0.1,0.8-0.4,0.9-0.8c0.2-0.9,0.6-1.7,1-2.4c0.2-0.4,0.2-0.9-0.1-1.2
			l-0.4-0.5c0.5-0.7,1.1-1.3,1.8-1.8l0.5,0.4c0.4,0.3,0.8,0.3,1.2,0.1c0.8-0.5,1.6-0.8,2.4-1c0.4-0.1,0.8-0.5,0.8-0.9l0.1-0.6
			c0.8-0.1,1.7-0.1,2.5,0l0.1,0.6c0.1,0.4,0.4,0.8,0.8,0.9c0.9,0.2,1.7,0.6,2.4,1c0.4,0.2,0.9,0.2,1.2-0.1l0.5-0.4
			c0.7,0.5,1.3,1.1,1.8,1.8l-0.4,0.5c-0.3,0.4-0.3,0.8-0.1,1.2c0.5,0.8,0.8,1.6,1,2.4c0.1,0.4,0.5,0.8,0.9,0.8l0.6,0.1
			c0.1,0.4,0.1,0.8,0.1,1.3c0,0.4,0,0.9-0.1,1.3l-0.6,0.1c-0.4,0.1-0.8,0.4-0.9,0.8c-0.2,0.9-0.6,1.7-1,2.4
			c-0.2,0.4-0.2,0.9,0.1,1.2l0.4,0.5c-0.5,0.7-1.1,1.3-1.8,1.8l-0.5-0.4c-0.4-0.3-0.8-0.3-1.2-0.1c-0.8,0.5-1.6,0.8-2.4,1
			c-0.4,0.1-0.8,0.5-0.8,0.9l-0.1,0.6c-0.8,0.1-1.7,0.1-2.5,0l-0.1-0.6c-0.1-0.4-0.4-0.8-0.8-0.9c-0.9-0.2-1.7-0.6-2.4-1
			c-0.4-0.2-0.9-0.2-1.2,0.1l-0.5,0.4c-0.7-0.5-1.3-1.1-1.8-1.8l0.4-0.5c0.3-0.4,0.3-0.8,0.1-1.2c-0.5-0.8-0.8-1.6-1-2.4
			c-0.1-0.4-0.5-0.8-0.9-0.8L151.3,429.8z"/>
	</g>
	<g>
		<path class="st4" d="M161.5,435c3.6,0,6.5-2.9,6.5-6.5s-2.9-6.5-6.5-6.5s-6.5,2.9-6.5,6.5S157.9,435,161.5,435z M161.5,424.3
			c2.3,0,4.2,1.9,4.2,4.2s-1.9,4.2-4.2,4.2s-4.2-1.9-4.2-4.2S159.2,424.3,161.5,424.3z"/>
	</g>
</g>
</svg>
