<?xml version="1.0" encoding="utf-8"?>
<!-- Generator: Adobe Illustrator 25.0.0, SVG Export Plug-In . SVG Version: 6.00 Build 0)  -->
<svg version="1.1" id="Layer_1" xmlns="http://www.w3.org/2000/svg" xmlns:xlink="http://www.w3.org/1999/xlink" x="0px" y="0px"
	 viewBox="0 0 101 101" style="enable-background:new 0 0 101 101;" xml:space="preserve">
<style type="text/css">
	.st0{fill-rule:evenodd;clip-rule:evenodd;fill:#FFE808;}
	.st1{fill:#0C2534;}
	.st2{fill-rule:evenodd;clip-rule:evenodd;fill:#205F89;}
	.st3{fill-rule:evenodd;clip-rule:evenodd;fill:#B93128;}
	.st4{fill-rule:evenodd;clip-rule:evenodd;fill:#0C2534;}
</style>
<g transform="translate(-105 -279)">
	<g>
		<path class="st0" d="M108.5,329.5c0-26.5,21.5-48,48-48s48,21.5,48,48s-21.5,48-48,48S108.5,356,108.5,329.5z"/>
		<path class="st1" d="M156.5,379c-27.3,0-49.5-22.2-49.5-49.5c0-27.3,22.2-49.5,49.5-49.5c27.3,0,49.5,22.2,49.5,49.5
			C206,356.8,183.8,379,156.5,379z M156.5,283c-25.6,0-46.5,20.9-46.5,46.5c0,25.6,20.9,46.5,46.5,46.5c25.6,0,46.5-20.9,46.5-46.5
			C203,303.9,182.1,283,156.5,283z"/>
	</g>
	<g>
		<path class="st0" d="M145,344v6.7c0,1.8-1.6,3.3-3.5,3.3h-7.9c-2,0-3.5-1.5-3.5-3.3v-3.3c0-1.8,1.6-3.3,3.5-3.3H145z"/>
	</g>
	<g>
		<path class="st0" d="M177.5,304c2,0,3.5,1.5,3.5,3.3v3.3c0,1.8-1.6,3.3-3.5,3.3H166v-6.7c0-1.8,1.6-3.3,3.5-3.3H177.5z"/>
	</g>
	<g>
		<path class="st2" d="M141.7,314.5l4.3,3.1c-1.6,2.1-4.2,3.4-7.1,3.4c-4.9,0-8.9-3.8-8.9-8.5s4-8.5,8.9-8.5v5.1
			c-2,0-3.6,1.5-3.6,3.4s1.6,3.4,3.6,3.4C140.1,315.9,141.1,315.4,141.7,314.5z"/>
	</g>
	<g>
		<path class="st0" d="M147,312.8c0,2-0.6,3.8-1.6,5.2l-3.8-3.1c0.4-0.6,0.6-1.3,0.6-2.1c0-1.9-1.4-3.5-3.2-3.5V304
			C143.4,304,147,307.9,147,312.8z"/>
	</g>
	<g>
		<path class="st3" d="M141.3,314.6c-0.6,0.8-1.7,1.4-2.8,1.4c-1.9,0-3.5-1.6-3.5-3.5s1.6-3.5,3.5-3.5s3.5,1.6,3.5,3.5
			C142,313.3,141.7,314,141.3,314.6z"/>
	</g>
	<g>
		<path class="st2" d="M155.5,316c-2.6,0-5,1-6.7,2.7c-1.7,1.6-2.8,3.9-2.8,6.4v5.8c0,1.8,1.5,3.3,3.5,3.3h0.9v4.1v13.2
			c0,0.7,0.3,1.3,0.8,1.8c0.5,0.4,1.1,0.7,1.8,0.7c1.4,0,2.6-1.1,2.6-2.5c0,1.4,1.2,2.5,2.6,2.5c0.7,0,1.4-0.3,1.8-0.7
			c0.5-0.4,0.8-1.1,0.8-1.8v-17.3h0.9c1.9,0,3.5-1.5,3.5-3.3v-5.8C165,320.1,160.8,316,155.5,316z"/>
	</g>
	<g>
		<path class="st0" d="M161,310c0,3.3-2.5,6-5.5,6s-5.5-2.7-5.5-6s2.5-6,5.5-6S161,306.7,161,310z"/>
	</g>
	<g>
		<path class="st4" d="M177.8,303h-7.5c-2.3,0-4.2,1.9-4.2,4.2v6.4l-3.6,3.6c-0.9-0.7-1.9-1.3-2.9-1.7c1.9-1.2,3.2-3.3,3.2-5.7
			c0-3.7-3-6.7-6.7-6.7s-6.7,3-6.7,6.7c0,2.4,1.3,4.5,3.2,5.7c-3.8,1.4-6.5,5.1-6.5,9.4v5.9c0,2.3,1.9,4.2,4.2,4.2v3l-5.4,5.4h-10.6
			c-2.3,0-4.2,1.9-4.2,4.2v3.4c0,2.3,1.9,4.2,4.2,4.2h7.5c2.3,0,4.2-1.9,4.2-4.2v-6.4l4.2-4.2v11.4c0,1.9,1.5,3.4,3.4,3.4
			c1,0,1.9-0.5,2.5-1.2c0.6,0.7,1.5,1.2,2.5,1.2c1.8,0,3.4-1.5,3.4-3.4v-16.8c2.3,0,4.2-1.9,4.2-4.2v-5.9c0-2.5-0.9-4.7-2.4-6.5
			l3.6-3.6h10.6c2.3,0,4.2-1.9,4.2-4.2v-3.4C182,304.9,180.1,303,177.8,303z M144.3,350.8c0,1.4-1.1,2.5-2.5,2.5h-7.5
			c-1.4,0-2.5-1.1-2.5-2.5v-3.4c0-1.4,1.1-2.5,2.5-2.5h10.1V350.8z M151,309.7c0-2.8,2.3-5,5-5s5,2.3,5,5c0,2.8-2.3,5-5,5
			S151,312.5,151,309.7z M164.4,330.7c0,1.4-1.1,2.5-2.5,2.5v-10.9h-1.7v29.4c0,0.9-0.8,1.7-1.7,1.7c-0.9,0-1.7-0.8-1.7-1.7v-20.1
			h-1.7v20.1c0,0.9-0.8,1.7-1.7,1.7c-0.9,0-1.7-0.8-1.7-1.7v-29.4h-1.7v10.9c-1.4,0-2.5-1.1-2.5-2.5v-5.9c0-4.6,3.8-8.4,8.4-8.4
			s8.4,3.8,8.4,8.4V330.7z M180.3,310.5c0,1.4-1.1,2.5-2.5,2.5h-10.1v-5.9c0-1.4,1.1-2.5,2.5-2.5h7.5c1.4,0,2.5,1.1,2.5,2.5V310.5z"
			/>
	</g>
	<g>
		<path class="st4" d="M169,307h9v1h-9V307z"/>
	</g>
	<g>
		<path class="st4" d="M176,310h2v2h-2V310z"/>
	</g>
	<g>
		<path class="st4" d="M169,310h6v2h-6V310z"/>
	</g>
	<g>
		<path class="st4" d="M133,350h9v2h-9V350z"/>
	</g>
	<g>
		<path class="st4" d="M133,347h2v2h-2V347z"/>
	</g>
	<g>
		<path class="st4" d="M136,347h6v2h-6V347z"/>
	</g>
	<g>
		<path class="st4" d="M180.3,334h-1.7v14.3h-1.7v-12.6h-1.7v12.6h-1.7v-7.6h-1.7v7.6h-1.7v-10.1h-1.7v10.1h-1.7v-8.4h-1.7v8.4H163
			v1.7h19v-1.7h-1.7V334z"/>
	</g>
	<g>
		<path class="st4" d="M180,352h2v2h-2V352z"/>
	</g>
	<g>
		<path class="st4" d="M163,352h15v2h-15V352z"/>
	</g>
	<g>
		<path class="st4" d="M139,322c5,0,9-4.3,9-9.5s-4-9.5-9-9.5s-9,4.3-9,9.5S134,322,139,322z M146.4,312.5c0,1.4-0.4,2.8-1,3.9
			l-2.7-2.1c0.3-0.6,0.4-1.2,0.4-1.8c0-2.1-1.4-3.8-3.3-4.2v-3.5C143.5,305.2,146.4,308.5,146.4,312.5z M139,309.9
			c1.4,0,2.5,1.2,2.5,2.6s-1.1,2.6-2.5,2.6s-2.5-1.2-2.5-2.6S137.6,309.9,139,309.9z M138.2,304.8v3.5c-1.9,0.4-3.3,2.1-3.3,4.2
			c0,2.4,1.8,4.3,4.1,4.3c1,0,2-0.4,2.7-1.1l2.7,2.1c-1.3,1.5-3.2,2.5-5.4,2.5c-4.1,0-7.4-3.5-7.4-7.8
			C131.6,308.5,134.5,305.2,138.2,304.8z"/>
	</g>
</g>
</svg>
