<?xml version="1.0" encoding="utf-8"?>
<!-- Generator: Adobe Illustrator 25.0.0, SVG Export Plug-In . SVG Version: 6.00 Build 0)  -->
<svg version="1.1" id="Layer_1" xmlns="http://www.w3.org/2000/svg" xmlns:xlink="http://www.w3.org/1999/xlink" x="0px" y="0px"
	 viewBox="0 0 100 100" style="enable-background:new 0 0 100 100;" xml:space="preserve">
<style type="text/css">
	.st0{fill:none;}
	.st1{fill-rule:evenodd;clip-rule:evenodd;fill:#FFE808;}
	.st2{fill:#0C2534;}
	.st3{fill-rule:evenodd;clip-rule:evenodd;fill:#205F89;}
	.st4{fill-rule:evenodd;clip-rule:evenodd;fill:#B93128;}
	.st5{fill-rule:evenodd;clip-rule:evenodd;fill:#0C2534;}
</style>
<g>
	<rect y="0" class="st0" width="100" height="100"/>
</g>
<g transform="translate(-100 -240)">
	<g>
		<path class="st1" d="M102.5,290.5c0-26.5,21.5-48,48-48s48,21.5,48,48s-21.5,48-48,48S102.5,317,102.5,290.5z"/>
		<path class="st2" d="M150.5,340c-27.3,0-49.5-22.2-49.5-49.5c0-27.3,22.2-49.5,49.5-49.5c27.3,0,49.5,22.2,49.5,49.5
			C200,317.8,177.8,340,150.5,340z M150.5,244c-25.6,0-46.5,20.9-46.5,46.5c0,25.6,20.9,46.5,46.5,46.5c25.6,0,46.5-20.9,46.5-46.5
			C197,264.9,176.1,244,150.5,244z"/>
	</g>
	<g>
		<path class="st1" d="M163.9,296.5l7.8-7.5c2.9-2.8,8.5,0.7,5.5,4.2l-9.4,10.8c-0.4,0.4-0.8,0.8-1.3,1.1c-1.5,0.9-3.3,1.3-5.1,1.3
			h-14c-1,0-2,0.1-3,0.2l-4,0.4l-8.3-7.9c0,0,4.7-8.7,14-6.2c1.7,0.5,3.5,0.7,5.3,0.7h9.2c4.3,0,4.4,6.7,0,6.7
			c-2.7,0,4.3-0.5,1.6-0.5"/>
	</g>
	<g>
		<path class="st3" d="M134.9,318l8.1-8.1c0,0,0,0,0,0L129.2,297c0,0,0,0,0,0l-8.2,8.2L134.9,318z"/>
	</g>
	<g>
		<path class="st3" d="M130.6,272c-2.6,0.2-4.6,2.4-4.6,5v5.3c0,0.9,0.8,1.7,1.7,1.7h11.6c0.9,0,1.7-0.7,1.7-1.7V277
			c0-2.6-2-4.8-4.6-5"/>
	</g>
	<g>
		<path class="st1" d="M139,267c0,3.3-2.5,6-5.5,6s-5.5-2.7-5.5-6c0-3.3,2.5-6,5.5-6S139,263.7,139,267z"/>
	</g>
	<g>
		<path class="st4" d="M145.6,272c-2.6,0.2-4.6,2.4-4.6,5v5.3c0,0.9,0.8,1.7,1.7,1.7h11.6c0.9,0,1.7-0.7,1.7-1.7V277
			c0-2.6-2-4.8-4.6-5"/>
	</g>
	<g>
		<path class="st1" d="M154,267c0,3.3-2.5,6-5.5,6c-3,0-5.5-2.7-5.5-6c0-3.3,2.5-6,5.5-6C151.5,261,154,263.7,154,267z"/>
	</g>
	<g>
		<path class="st3" d="M160.3,272c-2.4,0.2-4.3,2.4-4.3,5v5.3c0,0.9,0.7,1.7,1.6,1.7h10.8c0.9,0,1.6-0.7,1.6-1.7V277
			c0-2.6-1.9-4.8-4.3-5"/>
	</g>
	<g>
		<path class="st1" d="M169,267c0,3.3-2.7,6-6,6c-3.3,0-6-2.7-6-6c0-3.3,2.7-6,6-6C166.3,261,169,263.7,169,267z"/>
	</g>
	<g>
		<path class="st5" d="M178.6,287.4c-0.9-0.8-2.1-1.3-3.4-1.4c-1.4-0.1-2.7,0.4-3.7,1.4l-6.7,6.6c-0.1-0.2-0.3-0.4-0.5-0.6
			c-0.8-1-2-1.5-3.4-1.5h-9.3c-1.8,0-3.5-0.2-5.1-0.7c-4.2-1.2-8.3-0.3-11.7,2.5c-1.4,1.1-2.4,2.4-3.1,3.3l-1.7-1.6
			c-0.2-0.2-0.5-0.3-0.8-0.3c0,0,0,0,0,0c-0.3,0-0.6,0.1-0.8,0.4l-8.1,8.5c-0.2,0.2-0.3,0.5-0.3,0.8c0,0.3,0.1,0.6,0.4,0.8
			l13.8,13.2c0.2,0.2,0.5,0.3,0.8,0.3c0.3,0,0.6-0.1,0.8-0.4l8.1-8.3c0.2-0.2,0.3-0.5,0.3-0.9c0-0.3-0.1-0.6-0.4-0.8l-0.7-0.7
			l1.6-0.2c1-0.1,2-0.2,2.9-0.2h14.2c2.3,0,4.3-0.5,5.8-1.5c0,0,0,0,0,0c0.6-0.4,1.1-0.9,1.5-1.4l9.6-11.3
			C180.5,291.5,180.4,289.1,178.6,287.4z M134.9,316.2l-12.1-11.5l6.5-6.8l12,11.7L134.9,316.2z M177,291.9l-9.6,11.3
			c-0.3,0.4-0.7,0.7-1,0.9c-1.2,0.7-2.7,1.1-4.5,1.1h-14.2c-1.1,0-2.1,0.1-3.2,0.2l-3.5,0.4l-7.4-7.2c0.5-0.8,1.5-2,2.8-3.1
			c2.8-2.3,6.1-3,9.6-2c1.8,0.5,3.8,0.8,5.7,0.8h9.3c1.7,0,2.1,1.5,2.1,2.3c0,0.6-0.2,1.2-0.6,1.6c-0.4,0.4-0.9,0.7-1.6,0.7h-8.1
			c-0.7,0-1.2,0.5-1.2,1.2c0,0.7,0.5,1.2,1.2,1.2h8.1c1.4,0,2.6-0.5,3.4-1.5c0.7-0.8,1.1-1.9,1.1-3l7.7-7.6c1.1-1.1,2.8-0.8,3.8,0.1
			C177.5,289.6,178.1,290.6,177,291.9z"/>
	</g>
	<g>
		<path class="st5" d="M149,300.1c-0.1-0.8-0.7-1.3-1.2-1.1c-0.5,0.2-0.9,1-0.7,1.8l0,0.1c0.1,0.7,0.5,1.1,1,1.1c0.1,0,0.2,0,0.2,0
			C148.8,301.8,149.1,301,149,300.1L149,300.1z"/>
	</g>
	<g>
		<path class="st5" d="M127.9,285h11.5c0.6,0,1.2-0.2,1.7-0.5c0.5,0.3,1.1,0.5,1.7,0.5h11.5c0.6,0,1.2-0.2,1.7-0.5
			c0.5,0.3,1.1,0.5,1.7,0.5h11.5c1.6,0,2.9-1.3,2.9-2.9v-5.4c0-2.4-1.4-4.5-3.4-5.6c1-1.2,1.6-2.7,1.6-4.4c0-3.8-3.1-6.8-6.8-6.8
			c-3.8,0-6.8,3.1-6.8,6.8c0,1.7,0.6,3.2,1.6,4.4c-0.9,0.4-1.6,1.1-2.2,1.9c-0.6-0.8-1.3-1.4-2.2-1.9c1-1.2,1.6-2.7,1.6-4.4
			c0-3.8-3.1-6.8-6.8-6.8s-6.8,3.1-6.8,6.8c0,1.7,0.6,3.2,1.6,4.4c-0.9,0.4-1.6,1.1-2.2,1.9c-0.6-0.8-1.3-1.4-2.2-1.9
			c1-1.2,1.6-2.7,1.6-4.4c0-3.8-3.1-6.8-6.8-6.8c-3.8,0-6.8,3.1-6.8,6.8c0,1.7,0.6,3.2,1.6,4.4c-2,1-3.4,3.1-3.4,5.6v5.4
			C125,283.7,126.3,285,127.9,285z M163.4,262.4c2.5,0,4.5,2,4.5,4.5s-2,4.5-4.5,4.5c-2.5,0-4.5-2-4.5-4.5
			C158.9,264.4,160.9,262.4,163.4,262.4z M160.3,272.9c0.9,0.5,2,0.7,3.1,0.7s2.1-0.3,3.1-0.7c1.8,0.3,3.2,1.9,3.2,3.8v5.4
			c0,0.3-0.2,0.5-0.5,0.5h-11.5c-0.3,0-0.5-0.2-0.5-0.5v-5.4C157.1,274.8,158.5,273.3,160.3,272.9z M148.5,262.4
			c2.5,0,4.5,2,4.5,4.5s-2,4.5-4.5,4.5c-2.5,0-4.5-2-4.5-4.5S146,262.4,148.5,262.4z M145.4,272.9c0.9,0.5,2,0.7,3.1,0.7
			c1.1,0,2.1-0.3,3.1-0.7c1.8,0.3,3.2,1.9,3.2,3.8v5.4c0,0.3-0.2,0.5-0.5,0.5h-11.5c-0.3,0-0.5-0.2-0.5-0.5v-5.4
			C142.2,274.8,143.6,273.3,145.4,272.9z M133.6,262.4c2.5,0,4.5,2,4.5,4.5s-2,4.5-4.5,4.5c-2.5,0-4.5-2-4.5-4.5
			S131.2,262.4,133.6,262.4z M127.4,276.7c0-1.9,1.4-3.5,3.2-3.8c0.9,0.5,2,0.7,3.1,0.7c1.1,0,2.1-0.3,3.1-0.7
			c1.8,0.3,3.2,1.9,3.2,3.8v5.4c0,0.3-0.2,0.5-0.5,0.5h-11.5c-0.3,0-0.5-0.2-0.5-0.5V276.7z"/>
	</g>
</g>
</svg>
