<?xml version="1.0" encoding="utf-8"?>
<!-- Generator: Adobe Illustrator 25.0.0, SVG Export Plug-In . SVG Version: 6.00 Build 0)  -->
<svg version="1.1" id="Layer_1" xmlns="http://www.w3.org/2000/svg" xmlns:xlink="http://www.w3.org/1999/xlink" x="0px" y="0px"
	 viewBox="0 0 101 100" style="enable-background:new 0 0 101 100;" xml:space="preserve">
<style type="text/css">
	.st0{fill:none;}
	.st1{fill-rule:evenodd;clip-rule:evenodd;fill:#FFE808;}
	.st2{fill:#0C2534;}
	.st3{fill-rule:evenodd;clip-rule:evenodd;fill:#205F89;}
	.st4{fill-rule:evenodd;clip-rule:evenodd;fill:#B93128;}
	.st5{fill-rule:evenodd;clip-rule:evenodd;fill:#0C2534;}
</style>
<g>
	<rect y="0" class="st0" width="101" height="100"/>
</g>
<g transform="translate(-5 -956)">
	<g>
		<path class="st1" d="M8.5,1006.5c0-26.5,21.5-48,48-48c26.5,0,48,21.5,48,48s-21.5,48-48,48C30,1054.5,8.5,1033,8.5,1006.5z"/>
		<path class="st2" d="M56.5,1056c-27.3,0-49.5-22.2-49.5-49.5C7,979.2,29.2,957,56.5,957c27.3,0,49.5,22.2,49.5,49.5
			C106,1033.8,83.8,1056,56.5,1056z M56.5,960c-25.6,0-46.5,20.9-46.5,46.5c0,25.6,20.9,46.5,46.5,46.5c25.6,0,46.5-20.9,46.5-46.5
			C103,980.9,82.1,960,56.5,960z"/>
	</g>
	<g>
		<path class="st1" d="M47.4,999c0-8.6,7-15.6,15.6-15.6c8.6,0,15.6,7,15.6,15.6c0,8.6-7,15.6-15.6,15.6
			C54.4,1014.6,47.4,1007.6,47.4,999L47.4,999z M43,999c0,4.7,1.6,9.1,4.4,12.5c0.9,1.2,2,2.2,3.1,3.2c3.4,2.7,7.8,4.4,12.5,4.4
			c11,0,20-9,20-20c0-11-9-20-20-20C52,979,43,988,43,999z"/>
	</g>
	<g>
		<path class="st3" d="M79,998.5c0,8.6-7.2,15.5-16,15.5s-16-6.9-16-15.5S54.2,983,63,983S79,989.9,79,998.5z"/>
	</g>
	<g>
		<path class="st3" d="M50,1014.5c-1.1-1-2.1-2.2-3-3.5l-3,3.5l3,3.5L50,1014.5z"/>
	</g>
	<g>
		<path class="st1" d="M47.3,1017.9l-3.2-3.2c-0.9-0.9-2.3-0.9-3.2,0l-12.3,12.3c-0.9,0.9-0.9,2.3,0,3.2l3.2,3.2
			c0.9,0.9,2.3,0.9,3.2,0l12.3-12.3C48.2,1020.2,48.2,1018.8,47.3,1017.9z"/>
	</g>
	<g>
		<path class="st1" d="M52,999c2.2,3,6.3,5,11,5c-2.9,0-5.2-2.2-5.2-5c0-2.8,2.3-5,5.2-5C58.3,994,54.2,996,52,999z"/>
	</g>
	<g>
		<path class="st4" d="M68,999c0,2.8-2.2,5-5,5s-5-2.2-5-5c0-2.8,2.2-5,5-5S68,996.2,68,999z"/>
	</g>
	<g>
		<path class="st1" d="M68.2,999c0,2.8-2.3,5-5.2,5c4.7,0,8.8-2,11-5c-2.2-3-6.3-5-11-5C65.9,994,68.2,996.2,68.2,999z"/>
	</g>
	<g>
		<path class="st5" d="M62.8,978c-4,0-7.9,1.1-11.3,3.2c-0.5,0.3-0.7,1-0.3,1.5c0.3,0.5,1,0.7,1.5,0.3c3-1.9,6.5-2.9,10.1-2.9
			c10.4,0,18.9,8.5,18.9,18.9c0,10.4-8.5,18.9-18.9,18.9c-10.4,0-18.9-8.5-18.9-18.9c0-3.6,1-7.1,2.9-10.1c0.3-0.5,0.2-1.2-0.3-1.5
			c-0.5-0.3-1.2-0.2-1.5,0.3c-2.1,3.4-3.2,7.3-3.2,11.3c0,4.6,1.5,8.9,4,12.4l-1.9,1.9c-1.2-0.6-2.8-0.4-3.8,0.6l-12,12
			c-1.3,1.3-1.3,3.4,0,4.7l3.1,3.1c0.6,0.6,1.5,1,2.4,1c0.9,0,1.7-0.3,2.4-1l12-12c0.6-0.6,1-1.5,1-2.4c0-0.5-0.1-1-0.3-1.4l1.9-1.9
			c3.5,2.5,7.8,4,12.4,4c11.7,0,21.2-9.5,21.2-21.1C84,987.5,74.5,978,62.8,978z M46.3,1020.4l-12,12c-0.2,0.2-0.5,0.3-0.8,0.3
			s-0.6-0.1-0.8-0.3l-3.1-3.1c-0.4-0.4-0.4-1.1,0-1.6l12-12c0.2-0.2,0.5-0.3,0.8-0.3c0.3,0,0.6,0.1,0.8,0.3l3.1,3.2
			c0.2,0.2,0.3,0.5,0.3,0.8S46.5,1020.2,46.3,1020.4z M47.1,1016.5l-1.6-1.6l1.6-1.6c0.5,0.6,1,1.1,1.6,1.6L47.1,1016.5z"/>
	</g>
	<g>
		<path class="st5" d="M76.4,1006.8c0.5,0.3,1.2,0.1,1.5-0.4c1.3-2.4,2-5.1,2-7.8c0-9.1-7.6-16.5-17-16.5s-17,7.4-17,16.5
			c0,9.1,7.6,16.5,17,16.5c2.8,0,5.6-0.7,8.1-2c0.6-0.3,0.8-1,0.5-1.5c-0.3-0.5-1-0.7-1.5-0.4c-2.1,1.1-4.6,1.7-7,1.7
			c-8.1,0-14.7-6.4-14.7-14.3c0-7.9,6.6-14.3,14.7-14.3c8.1,0,14.7,6.4,14.7,14.3c0,2.4-0.6,4.7-1.8,6.8
			C75.7,1005.8,75.9,1006.5,76.4,1006.8z"/>
	</g>
	<g>
		<path class="st5" d="M49,986c0.2,0,0.5-0.1,0.7-0.4c0.4-0.6,0.4-1.5,0.1-2.1c-0.4-0.6-1-0.7-1.4-0.1l0,0c-0.4,0.6-0.4,1.5-0.1,2.1
			C48.5,985.8,48.7,986,49,986z"/>
	</g>
	<g>
		<path class="st5" d="M74,1011c0.2,0,0.5-0.1,0.6-0.2c0.4-0.4,0.5-1,0.1-1.4c-0.4-0.4-1-0.5-1.4-0.1h0c-0.4,0.4-0.5,1-0.1,1.4
			C73.4,1010.9,73.7,1011,74,1011z"/>
	</g>
	<g>
		<path class="st5" d="M74.8,999.6c0.3-0.4,0.3-0.9,0-1.2c-2.4-3.3-7-5.4-11.8-5.4c-4.8,0-9.3,2.1-11.8,5.4c-0.3,0.4-0.3,0.9,0,1.2
			c2.4,3.3,7,5.4,11.8,5.4C67.8,1005,72.3,1002.9,74.8,999.6z M67,999c0,2.1-1.8,3.8-4,3.8c-2.2,0-4-1.7-4-3.8c0-2.1,1.8-3.8,4-3.8
			C65.2,995.2,67,996.9,67,999z M53.6,999c1-1.1,2.3-2.1,3.9-2.7c-0.4,0.8-0.7,1.7-0.7,2.7s0.2,1.9,0.7,2.7
			C55.9,1001.1,54.6,1000.1,53.6,999z M68.6,1001.7c0.4-0.8,0.7-1.7,0.7-2.7s-0.2-1.9-0.7-2.7c1.5,0.7,2.9,1.6,3.9,2.7
			C71.4,1000.1,70.1,1001.1,68.6,1001.7z"/>
	</g>
	<g>
		<path class="st5" d="M63,1000L63,1000c0.6,0,1-0.4,1-1s-0.4-1-1-1c-0.6,0-1,0.4-1,1S62.4,1000,63,1000z"/>
	</g>
</g>
</svg>
