<?xml version="1.0" encoding="utf-8"?>
<!-- Generator: Adobe Illustrator 25.0.0, SVG Export Plug-In . SVG Version: 6.00 Build 0)  -->
<svg version="1.1" id="Layer_1" xmlns="http://www.w3.org/2000/svg" xmlns:xlink="http://www.w3.org/1999/xlink" x="0px" y="0px"
	 viewBox="0 0 100 100" style="enable-background:new 0 0 100 100;" xml:space="preserve">
<style type="text/css">
	.st0{fill-rule:evenodd;clip-rule:evenodd;fill:#FFE808;}
	.st1{fill:#0C2534;}
	.st2{fill-rule:evenodd;clip-rule:evenodd;fill:#205F89;}
	.st3{fill-rule:evenodd;clip-rule:evenodd;fill:#C7CFE2;}
	.st4{fill-rule:evenodd;clip-rule:evenodd;fill:#B93128;}
	.st5{fill-rule:evenodd;clip-rule:evenodd;fill:#0C2534;}
</style>
<g transform="translate(-117 -227)">
	<g>
		<path class="st0" d="M119.5,277.5c0-26.5,21.5-48,48-48s48,21.5,48,48s-21.5,48-48,48S119.5,304,119.5,277.5z"/>
		<path class="st1" d="M167.5,327c-27.3,0-49.5-22.2-49.5-49.5s22.2-49.5,49.5-49.5s49.5,22.2,49.5,49.5S194.8,327,167.5,327z
			 M167.5,231c-25.6,0-46.5,20.9-46.5,46.5s20.9,46.5,46.5,46.5s46.5-20.9,46.5-46.5S193.1,231,167.5,231z"/>
	</g>
	<g>
		<path class="st0" d="M153.4,289l-3.1-1.5c-0.6-0.3-1-1-1-1.7V283h-5.7v2.8c0,0.7-0.4,1.4-1,1.7l-3.1,1.5c-1,0.5-1.6,1.5-1.6,2.5
			v6.5h17v-6.5C155,290.5,154.4,289.5,153.4,289z"/>
	</g>
	<g>
		<path class="st2" d="M155,291.4c0-1.1-0.6-2.1-1.6-2.6l-3.1-1.5c-0.2-0.1-0.3-0.2-0.5-0.3l-1.1,1.2c-1.3,1.4-3.4,1.4-4.7,0
			l-1.1-1.2c-0.1,0.1-0.3,0.3-0.5,0.3l-3.1,1.5c-1,0.5-1.6,1.5-1.6,2.6v6.6h17v-6.6H155z"/>
	</g>
	<g>
		<path class="st0" d="M146.3,285L146.3,285c-2.2,0-4.1-1.2-5-2.9c-0.7-1.2-0.2-2.6,0.9-3.4c0.2-0.1,0.4-0.3,0.7-0.5
			c0.7-0.6,1.1-1.2,1.3-1.6s0.6-0.6,1.1-0.5c3.3,0.8,5.6,2.5,6.4,3.2c0.2,0.2,0.3,0.4,0.3,0.7C151.8,282.8,149.3,285,146.3,285z"/>
	</g>
	<g>
		<path class="st2" d="M138.6,290c-0.4,0.5-0.6,1-0.6,1.7v6.3h4v-4.6c0-0.6-0.3-1.1-0.8-1.4L138.6,290z"/>
	</g>
	<g>
		<path class="st3" d="M154.4,290c0.4,0.5,0.6,1,0.6,1.7v6.3h-4v-4.6c0-0.6,0.3-1.1,0.8-1.4L154.4,290z"/>
	</g>
	<g>
		<path class="st0" d="M184,284h6v6h-6V284z"/>
	</g>
	<g>
		<path class="st2" d="M193.9,287.3l-4.6-1.3l-2.9,3.4l-2.9-3.4l-4.6,1.3c-1.2,0.4-2.1,1.5-2.1,2.8v7.9h19v-7.9
			C196,288.8,195.2,287.7,193.9,287.3z"/>
	</g>
	<g>
		<path class="st0" d="M187,285L187,285c-3.3,0-6-2.4-6-5.5l0,0c0-1.2,0.5-2.3,1.4-3.1l1-0.9c0.4-0.4,0.9-0.6,1.5-0.5
			c3.2,0.1,6,0.7,7.6,2.1c0.4,0.3,0.6,0.8,0.6,1.3v1.2C193,282.6,190.3,285,187,285z"/>
	</g>
	<g>
		<path class="st2" d="M193,293.2c0-0.7,0.2-1.4,0.7-1.9l1.9-2.3c0.3,0.4,0.4,1,0.4,1.5v7.5h-3L193,293.2L193,293.2z"/>
	</g>
	<g>
		<path class="st4" d="M180.5,287.8l-7.9-2.8l-5.6,1.9l-5.6-1.9l-7.9,2.8c-1.5,0.5-2.5,1.9-2.5,3.5v6.7h32v-6.7
			C183,289.8,182,288.4,180.5,287.8z"/>
	</g>
	<g>
		<path class="st4" d="M181.9,289c0.7,0.7,1.1,1.5,1.1,2.5v6.5h-6v-3c0-1,0.4-1.9,1.2-2.6L181.9,289z"/>
	</g>
	<g>
		<path class="st0" d="M161,278h12v9h-12V278z"/>
	</g>
	<g>
		<path class="st4" d="M167,287.1l-3.2,2.7c-0.4,0.4-1.1,0.3-1.5-0.1L159,286l0.9-1.5c0.3-0.5,0.9-0.6,1.4-0.4L167,287.1z"/>
	</g>
	<g>
		<path class="st4" d="M167,287.1l3.2,2.7c0.4,0.4,1.1,0.3,1.5-0.1l3.3-3.7l-0.9-1.5c-0.3-0.5-0.9-0.6-1.4-0.4L167,287.1z"/>
	</g>
	<g>
		<path class="st0" d="M167,281L167,281c-5,0-9-4.3-9-9.5v-1l1.5-1.1c0.8-0.5,1.2-1.4,1.2-2.4v-3.2c0,0,7.2-2.9,12.6,1.9
			c0,0,0,0.6,0,1.3c0,1,0.5,1.8,1.2,2.4l1.5,1.1v1C176,276.7,172,281,167,281z"/>
	</g>
	<g>
		<path class="st4" d="M152.1,289c-0.7,0.7-1.1,1.5-1.1,2.5v6.5h6v-3c0-1-0.4-1.9-1.2-2.6L152.1,289z"/>
	</g>
	<g>
		<path class="st5" d="M189.6,276.9c0.1,0.1,0.3,0.1,0.4,0.1c0.3,0,0.7-0.2,0.9-0.5c0.2-0.5,0-1.1-0.4-1.3c-2.2-1.1-6.3-1.1-6.5-1.1
			c-0.5,0-1,0.4-1,1c0,0.5,0.4,1,1,1C185,276,188.1,276.1,189.6,276.9z"/>
	</g>
	<g>
		<path class="st5" d="M194.3,287.3l-3.6-1c-0.2,0-0.3-0.2-0.3-0.4v-1.2c0.3-0.2,0.6-0.4,0.8-0.7c1.3-1.2,2-2.9,2-4.7v-1.7l0.4-0.7
			c0.4-0.8,0.6-1.6,0.6-2.5V270c0-0.5-0.4-0.9-0.9-0.9h-8.5c-3.1,0-5.6,2.5-5.6,5.6v0.1c0,0.7,0.2,1.4,0.5,2.1l0.4,0.9v1.4
			c0,2.3,1.1,4.3,2.8,5.5v1.3c0,0.2,0,0.3-0.7,0.5l-1.8,0.5l-5.1-1.9c0-0.2-0.1-0.5-0.2-0.7l-1.6-1.7v-2.9c0.2-0.1,0.3-0.3,0.5-0.4
			c2.1-1.9,3.2-4.7,3.2-7.5v-2.3c0.6-1.4,0.9-2.8,0.9-4.3v-9.4c0-0.5-0.4-0.9-0.9-0.9H164c-4.6,0-8.4,3.8-8.4,8.4v1.9
			c0,1.5,0.3,2.9,0.9,4.3v2c0,3.3,1.5,6.2,3.8,8.2v3l-1.6,1.7c-0.2,0.2-0.3,0.4-0.2,0.7l-5.4,2c-0.4,0.1-0.8,0.3-1.1,0.6l-0.8-0.4
			c2.5-1.1,3.3-2.6,3.4-2.7c0.1-0.2,0.1-0.5,0-0.8c-0.6-1.3-0.7-3.6-0.8-5.5c0-0.6,0-1.2-0.1-1.7c-0.3-4.2-3.5-7.4-7.5-7.4
			s-7.2,3.2-7.5,7.4c0,0.5-0.1,1.1-0.1,1.7c-0.1,1.9-0.1,4.2-0.8,5.5c-0.1,0.2-0.1,0.5,0,0.8c0,0.1,0.8,1.6,3.4,2.7l-2.4,1.2
			c-1.3,0.6-2,1.9-2,3.3v6.5c0,0.5,0.4,0.9,0.9,0.9s0.9-0.4,0.9-0.9v-6.5c0-0.7,0.4-1.4,1.1-1.7l2.9-1.5l1,1c0.7,0.7,1.6,1,2.5,1
			s1.8-0.3,2.5-1l1-1l1,0.5c-0.5,0.7-0.7,1.6-0.7,2.5v6.8c0,0.5,0.4,0.9,0.9,0.9s0.9-0.4,0.9-0.9v-6.8c0-1.2,0.8-2.3,1.9-2.7
			l5.7-2.1l2.4,3.6c0.3,0.5,0.8,0.7,1.3,0.8c0.1,0,0.1,0,0.2,0c0.5,0,0.9-0.2,1.3-0.5l1.4-1.4v9.1c0,0.5,0.4,0.9,0.9,0.9
			s0.9-0.4,0.9-0.9V289l1.4,1.4c0.3,0.3,0.8,0.5,1.3,0.5c0.1,0,0.1,0,0.2,0c0.5-0.1,1-0.3,1.3-0.8l2.4-3.6l5.7,2.1
			c1.1,0.4,1.9,1.5,1.9,2.7v6.8c0,0.5,0.4,0.9,0.9,0.9s0.9-0.4,0.9-0.9v-6.8c0-1.2-0.5-2.4-1.3-3.2l0.2-0.1c0.2-0.1,0.5-0.1,0.8-0.3
			l2.2,2.2v8.1c0,0.5,0.4,0.9,0.9,0.9s0.9-0.4,0.9-0.9v-8l2.2-2.2c0.1,0.1,0.2,0.1,0.4,0.1l3.6,1c0.8,0.2,1.4,1,1.4,1.9v7.3
			c0,0.5,0.4,0.9,0.9,0.9s0.9-0.4,0.9-0.9v-7.3C197,289.2,195.9,287.8,194.3,287.3z M150,285.8v-1c1-0.7,1.8-1.7,2.3-2.9
			c0.1,0.8,0.3,1.5,0.5,2.1C152.5,284.4,151.7,285.2,150,285.8z M140.6,276.6c0.1-1.6,0.7-3,1.8-4.1c1-1.1,2.4-1.7,3.9-1.7
			s2.9,0.6,3.9,1.7s1.7,2.5,1.8,4.1c0,0.5,0.1,1.1,0.1,1.7c0,0.1,0,0.1,0,0.2c-1-1.5-2.4-2.6-4.3-3.2c-1.8-0.6-3.3-0.5-3.3-0.5
			c-0.2,0-0.4,0.1-0.6,0.3l-1.6,1.6c-0.3,0.3-0.3,0.9,0,1.2c0.3,0.3,0.9,0.3,1.2,0l1.3-1.4c1.1,0.1,4.8,0.5,6.2,3.6
			c-0.4,2.3-2.3,4-4.7,4c-2.6,0-4.8-2.1-4.8-4.8c0-0.5-0.4-0.9-0.9-0.9c-0.1,0-0.1,0-0.1,0c0-0.1,0-0.2,0-0.2
			C140.6,277.7,140.6,277.1,140.6,276.6z M139.8,283.9c0.2-0.6,0.4-1.3,0.5-2.1c0.5,1.2,1.3,2.2,2.3,2.9v1.1
			C141,285.2,140.2,284.4,139.8,283.9z M145,288.1l-0.8-0.8c0.1-0.3,0.2-0.6,0.2-0.9v-0.9c0.6,0.2,1.3,0.3,1.9,0.3
			c0.7,0,1.3-0.1,1.9-0.3v0.9c0,0.3,0.1,0.6,0.2,0.9l-0.8,0.8C146.9,288.8,145.7,288.8,145,288.1z M158.5,271.5v-2.2
			c0-0.1,0-0.3-0.1-0.4c-0.6-1.2-0.9-2.4-0.9-3.7v-1.9c0-3.7,3-6.6,6.6-6.6h12.3v8.5c0,1.3-0.3,2.5-0.9,3.7
			c-0.1,0.1-0.1,0.2-0.1,0.4v2.5c0,2.4-1,4.6-2.7,6.2c-0.2,0.2-0.4,0.4-0.7,0.6l0,0c-1.6,1.2-3.6,1.8-5.7,1.7
			C162,280,158.5,276.2,158.5,271.5z M166.3,282.1c0.2,0,0.5,0,0.7,0c1.7,0,3.3-0.4,4.8-1.2v1.6l-4.8,3.2l-4.8-3.2v-1.6
			C163.5,281.6,164.9,282,166.3,282.1z M163.4,289.2L163.4,289.2L163.4,289.2l-2.8-4.1l0.9-0.9l4.1,2.8L163.4,289.2z M170.7,289.2
			L170.7,289.2C170.6,289.2,170.6,289.2,170.7,289.2l-2.3-2.2l4.1-2.8l0.9,0.9L170.7,289.2z M182,279.1v-1.6c0-0.1,0-0.3-0.1-0.4
			l-0.5-1.1c-0.2-0.4-0.3-0.8-0.3-1.3v-0.1c0-2.1,1.7-3.8,3.8-3.8h7.6v3.6c0,0.6-0.1,1.2-0.4,1.7l-0.4,0.9c-0.1,0.1-0.1,0.3-0.1,0.4
			v1.9c0,1.3-0.5,2.5-1.4,3.4s-2.2,1.4-3.5,1.3C184,284,182,281.8,182,279.1z M186.5,285.9c0.1,0,0.1,0,0.2,0c0.7,0,1.3-0.1,1.9-0.3
			v0.4c0,0.2,0,0.3,0.1,0.5l-2,2l-2-2c0-0.2,0.1-0.3,0.1-0.5v-0.4C185.3,285.7,185.9,285.8,186.5,285.9z"/>
	</g>
	<g>
		<path class="st5" d="M192.5,292c-0.3,0-0.5,0.4-0.5,0.8v5.3c0,0.5,0.2,0.8,0.5,0.8s0.5-0.4,0.5-0.8v-5.3
			C193,292.4,192.8,292,192.5,292z"/>
	</g>
	<g>
		<path class="st5" d="M141.5,293c-0.3,0-0.5,0.4-0.5,0.8v4.3c0,0.5,0.2,0.8,0.5,0.8s0.5-0.4,0.5-0.8v-4.3
			C142,293.4,141.8,293,141.5,293z"/>
	</g>
	<g>
		<path class="st5" d="M161.8,265.1L161.8,265.1c1.2-0.2,3.4-0.5,5.8-0.3c2.8,0.2,4.8,0.9,5.9,2c0.3,0.3,0.9,0.3,1.2,0
			s0.3-0.9,0-1.2c-3.3-3.3-10.3-2.7-13.2-2.2c-0.9,0.1-1.6,0.9-1.6,1.8v2c0,0.5,0.4,0.9,0.9,0.9s0.9-0.4,0.9-0.9v-2.1H161.8z"/>
	</g>
	<g>
		<path class="st5" d="M157,294c-0.6,0-1,0.4-1,0.8v3.4c0,0.4,0.4,0.8,1,0.8s1-0.4,1-0.8v-3.4C158,294.4,157.6,294,157,294z"/>
	</g>
	<g>
		<path class="st5" d="M177.5,294c-0.3,0-0.5,0.4-0.5,0.8v3.4c0,0.4,0.2,0.8,0.5,0.8s0.5-0.4,0.5-0.8v-3.4
			C178,294.4,177.8,294,177.5,294z"/>
	</g>
</g>
</svg>
