<?xml version="1.0" encoding="utf-8"?>
<!-- Generator: Adobe Illustrator 25.0.0, SVG Export Plug-In . SVG Version: 6.00 Build 0)  -->
<svg version="1.1" id="Layer_1" xmlns="http://www.w3.org/2000/svg" xmlns:xlink="http://www.w3.org/1999/xlink" x="0px" y="0px"
	 viewBox="0 0 100 100" style="enable-background:new 0 0 100 100;" xml:space="preserve">
<style type="text/css">
	.st0{fill:none;}
	.st1{fill-rule:evenodd;clip-rule:evenodd;fill:#FFE808;}
	.st2{fill:#0C2534;}
	.st3{fill-rule:evenodd;clip-rule:evenodd;fill:#B93128;}
	.st4{fill-rule:evenodd;clip-rule:evenodd;fill:#205F89;}
	.st5{fill-rule:evenodd;clip-rule:evenodd;fill:#0C2534;}
	.st6{fill-rule:evenodd;clip-rule:evenodd;}
</style>
<g>
	<rect y="0" class="st0" width="100" height="100"/>
</g>
<g transform="translate(-85 -428)">
	<g>
		<path class="st1" d="M183.5,478.5c0,26.5-21.5,48-48,48s-48-21.5-48-48s21.5-48,48-48S183.5,452,183.5,478.5z"/>
		<path class="st2" d="M135.5,528c-27.3,0-49.5-22.2-49.5-49.5c0-27.3,22.2-49.5,49.5-49.5c27.3,0,49.5,22.2,49.5,49.5
			C185,505.8,162.8,528,135.5,528z M135.5,432c-25.6,0-46.5,20.9-46.5,46.5c0,25.6,20.9,46.5,46.5,46.5c25.6,0,46.5-20.9,46.5-46.5
			C182,452.9,161.1,432,135.5,432z"/>
	</g>
	<g>
		<path class="st1" d="M156.5,450h-26.1c-3,0-5.5,2.5-5.5,5.6v14.9c0,3.1,2.4,5.6,5.5,5.6h4.4v3.9l3.9-3.9h17.8c3,0,5.5-2.5,5.5-5.6
			v-14.9C162,452.5,159.6,450,156.5,450z"/>
	</g>
	<g>
		<path class="st3" d="M141,459.6v0.9c0,2-1.3,3.6-3,3.6s-3-1.6-3-3.6v-0.9c0-2,1.3-3.6,3-3.6S141,457.6,141,459.6z"/>
	</g>
	<g>
		<path class="st3" d="M141,464H135c-2.2,0-4,1.7-4,3.9v2.1h14v-2.1C145,465.7,143.2,464,141,464z"/>
	</g>
	<g>
		<path class="st4" d="M110.7,491.3l10.4,10.4c3.8,3.8,9.7,4.3,14.1,1.4l3.2-2.2c3-2.1,3.5-6.4,0.9-9l-5.5-5.5c-2-2-5.3-2.3-7.6-0.6
			l-3.6,2.7c-0.8,0.6-1.9,0.5-2.6-0.2l-3.2-3.2l-3.2-3.2c-0.7-0.7-0.8-1.8-0.2-2.6l2.7-3.6c1.7-2.3,1.5-5.6-0.6-7.6l-5.5-5.5
			c-2.6-2.6-6.9-2.2-9,0.9l-2.2,3.2c-3,4.4-2.4,10.3,1.4,14.1L110.7,491.3z"/>
	</g>
	<g>
		<path class="st4" d="M139.2,492.1l-5.6-5.4c-2.1-2-5.4-2.2-7.8-0.5l-1.8,1.3l14.2,13.6l0.2-0.1
			C141.5,498.9,141.9,494.6,139.2,492.1z"/>
	</g>
	<g>
		<path class="st4" d="M114.5,478l1.3-1.9c1.7-2.4,1.5-5.7-0.5-7.8l-5.4-5.6c-2.5-2.7-6.8-2.2-8.8,0.9l-0.2,0.2L114.5,478z"/>
	</g>
	<g>
		<path class="st5" d="M130.8,477.1h3.1v2.5c0,0.5,0.3,1,0.8,1.2c0.2,0.1,0.3,0.1,0.5,0.1c0.3,0,0.7-0.1,0.9-0.4l3.5-3.5h17.4
			c3.8,0,6.8-3,6.8-6.8v-14.6c0-3.7-3.1-6.8-6.8-6.8h-26.3c-3.8,0-6.8,3-6.8,6.8v14.6C124,474.1,127.1,477.1,130.8,477.1z
			 M126.7,455.8c0-2.3,1.9-4.1,4.2-4.1h26.3c2.3,0,4.2,1.8,4.2,4.1v14.6c0,2.3-1.9,4.1-4.2,4.1h-17.9c-0.4,0-0.7,0.1-0.9,0.4
			l-1.6,1.6v-0.6c0-0.7-0.6-1.3-1.3-1.3h-4.5c-2.3,0-4.2-1.8-4.2-4.1V455.8z"/>
	</g>
	<g>
		<path class="st5" d="M131.3,471h13.4c0.7,0,1.3-0.6,1.3-1.3v-2.1c0-2.5-1.7-4.5-4-5.1c0.3-0.6,0.5-1.3,0.5-2.1v-0.8
			c0-2.5-2-4.6-4.5-4.6s-4.5,2.1-4.5,4.6v0.8c0,0.8,0.2,1.5,0.5,2.1c-2.3,0.5-4,2.6-4,5.1v2.1C130,470.4,130.6,471,131.3,471z
			 M136.1,459.6c0-1.1,0.9-2,1.9-2s1.9,0.9,1.9,2v0.8c0,1.1-0.9,2-1.9,2s-1.9-0.9-1.9-2V459.6z M132.6,467.6c0-1.4,1.1-2.6,2.5-2.6
			h5.8c1.4,0,2.5,1.1,2.5,2.6v0.8h-10.8V467.6z"/>
	</g>
	<g>
		<path class="st5" d="M150.3,460h5.4c0.7,0,1.3-0.7,1.3-1.5s-0.6-1.5-1.3-1.5h-5.4c-0.7,0-1.3,0.7-1.3,1.5S149.6,460,150.3,460z"/>
	</g>
	<g>
		<path class="st5" d="M150.3,465h5.4c0.7,0,1.3-0.7,1.3-1.5c0-0.8-0.6-1.5-1.3-1.5h-5.4c-0.7,0-1.3,0.7-1.3,1.5
			C149,464.3,149.6,465,150.3,465z"/>
	</g>
	<g>
		<path class="st5" d="M150.3,470h5.4c0.7,0,1.3-0.4,1.3-1s-0.6-1-1.3-1h-5.4c-0.7,0-1.3,0.4-1.3,1S149.6,470,150.3,470z"/>
	</g>
	<g>
		<path class="st5" d="M163.6,509.7l-3-3c-0.4-0.4-1-0.7-1.6-0.7c-0.6,0-1.2,0.2-1.6,0.7l-2.1,2.1l-2.1-2.2c-0.9-0.9-2.3-0.9-3.2,0
			l-2.1,2.1l-2.2-2.3c-0.9-0.9-2.3-0.9-3.2,0l-1.9,1.9l-2.9-5l1.6-1.1c0,0,0,0,0,0l0.2-0.1c1.8-1.2,2.9-3.1,3.1-5.3
			c0.2-2.1-0.5-4.2-2.1-5.8l-5.5-5.5c-2.5-2.5-6.5-2.8-9.3-0.7l-3.5,2.7c-0.3,0.2-0.6,0.2-0.9-0.1l-6.3-6.3
			c-0.2-0.2-0.3-0.6-0.1-0.9l2.6-3.6c2.1-2.8,1.8-6.9-0.7-9.4l-5.5-5.5c-1.5-1.5-3.6-2.3-5.7-2.1c-2.1,0.2-4,1.4-5.2,3.1l-0.2,0.2
			c0,0,0,0,0,0l-2,3c-3.3,4.9-2.7,11.6,1.5,15.8l6.6,6.7c0.5,0.5,1.4,0.5,1.9,0c0.5-0.5,0.5-1.4,0-1.9l-6.6-6.7
			c-3.3-3.3-3.8-8.5-1.2-12.4l1.1-1.6l11.8,11.9l-0.6,0.8c-1,1.3-0.8,3.2,0.3,4.4l6.3,6.3c1.2,1.2,3,1.3,4.3,0.3l0.9-0.6l11.8,11.9
			l-1.7,1.1c-3.8,2.6-9,2.1-12.3-1.2l-6.6-6.7c-0.5-0.5-1.4-0.5-1.9,0s-0.5,1.4,0,1.9l6.6,6.7c2.4,2.4,5.6,3.6,8.8,3.6
			c2.1,0,4.2-0.5,6.1-1.6l3.1,5.3c0.4,0.6,1,1,1.7,1.1c0.7,0.1,1.4-0.1,1.9-0.7l2-2l2.2,2.3c0.9,0.9,2.3,0.9,3.2,0l2.1-2.1l2.1,2.2
			c0.9,0.9,2.3,0.9,3.2,0l2.1-2.2l2.7,2.7c0.3,0.3,0.6,0.4,0.9,0.4c0.3,0,0.7-0.1,0.9-0.4C164.1,511.1,164.1,510.2,163.6,509.7z
			 M103,464c0.7-0.8,1.7-1.2,2.8-1.3c1.3-0.1,2.6,0.3,3.6,1.3l5.5,5.5c1.6,1.6,1.7,4.1,0.4,5.9l-0.4,0.6L103,464z M127.1,487.3
			c1.8-1.3,4.3-1.1,5.8,0.4l5.5,5.5c0.9,1,1.4,2.3,1.3,3.6c-0.1,1.1-0.6,2-1.3,2.7l-11.8-11.9L127.1,487.3z"/>
	</g>
	<g>
		<path class="st6" d="M110.5,490c-0.4,0-0.8,0.2-1.1,0.4c-0.3,0.3-0.4,0.7-0.4,1.1s0.2,0.8,0.4,1.1c0.3,0.3,0.7,0.4,1.1,0.4
			c0.4,0,0.8-0.2,1.1-0.4c0.3-0.3,0.4-0.7,0.4-1.1s-0.2-0.8-0.4-1.1C111.3,490.2,110.9,490,110.5,490z"/>
	</g>
</g>
</svg>
