<?xml version="1.0" encoding="utf-8"?>
<!-- Generator: Adobe Illustrator 25.0.0, SVG Export Plug-In . SVG Version: 6.00 Build 0)  -->
<svg version="1.1" id="Layer_1" xmlns="http://www.w3.org/2000/svg" xmlns:xlink="http://www.w3.org/1999/xlink" x="0px" y="0px"
	 viewBox="0 0 100 100" style="enable-background:new 0 0 100 100;" xml:space="preserve">
<style type="text/css">
	.st0{fill-rule:evenodd;clip-rule:evenodd;fill:#FFE808;}
	.st1{fill:#0C2534;}
	.st2{fill-rule:evenodd;clip-rule:evenodd;fill:#205F89;}
	.st3{fill-rule:evenodd;clip-rule:evenodd;fill:#B93128;}
	.st4{fill-rule:evenodd;clip-rule:evenodd;fill:#50B4F8;}
	.st5{fill-rule:evenodd;clip-rule:evenodd;fill:#0C2534;}
</style>
<g transform="translate(-35 -428)">
	<g>
		<path class="st0" d="M37.5,478.5c0-26.5,21.5-48,48-48c26.5,0,48,21.5,48,48s-21.5,48-48,48C59,526.5,37.5,505,37.5,478.5z"/>
		<path class="st1" d="M85.5,528C58.2,528,36,505.8,36,478.5c0-27.3,22.2-49.5,49.5-49.5c27.3,0,49.5,22.2,49.5,49.5
			C135,505.8,112.8,528,85.5,528z M85.5,432C59.9,432,39,452.9,39,478.5c0,25.6,20.9,46.5,46.5,46.5c25.6,0,46.5-20.9,46.5-46.5
			C132,452.9,111.1,432,85.5,432z"/>
	</g>
	<g>
		<path class="st0" d="M80,459c1.7,0,3,0,3,0v13c0,0-1.3,0-3,0l0,0V459c-1.7,0-3,0-3,0S78.3,459,80,459z"/>
	</g>
	<g>
		<path class="st0" d="M76,472c-1.7,0-3,0-3,0v-13c0,0,1.3,0,3,0l0,0V472c1.7,0,3,0,3,0S77.7,472,76,472z"/>
	</g>
	<g>
		<path class="st0" d="M82,459c1.7,0,3,0,3,0v13c0,0-1.3,0-3,0l0,0V459c-1.7,0-3,0-3,0S80.3,459,82,459z"/>
	</g>
	<g>
		<path class="st0" d="M75.5,459c1.9,0,3.5,0,3.5,0v13c0,0-1.6,0-3.5,0l0,0V459c-1.9,0-3.5,0-3.5,0S73.6,459,75.5,459z"/>
	</g>
	<g>
		<path class="st0" d="M88,459c1.7,0,3,1.5,3,3.2v9.8l0,0h-3c-1.7,0-3-1.5-3-3.2v-6.5C85,460.5,86.3,459,88,459z"/>
	</g>
	<g>
		<path class="st0" d="M94.5,459c-1.9,0-3.5,1.5-3.5,3.2v9.8h7v-9.8C98,460.5,96.4,459,94.5,459z"/>
	</g>
	<g>
		<path class="st0" d="M91.7,472c-1.4,0-2.6,0.7-3.2,1.9c-0.4,0.7-0.4,1.6-0.1,2.3H72v4.2l5.4,6.3v5.3h18.3v-5.3l5.4-6.3V472H91.7z"
			/>
	</g>
	<g>
		<path class="st2" d="M112.8,462L98,463.1v8.6h3.2v4.3l11.6,1.1c1.8,0,3.2-3.4,3.2-7.5S114.6,462,112.8,462z"/>
	</g>
	<g>
		<path class="st2" d="M88.4,471.6c-1.8,0-3.2-1.4-3.2-3.2c0,1.8-1.4,3.2-3.2,3.2s-3.2-1.4-3.2-3.2c0,1.8-1.4,3.2-3.2,3.2
			c-1.8,0-3.2-1.4-3.2-3.2v-5.4L57.2,462c-1.8,0-3.2,3.4-3.2,7.5s1.4,7.5,3.2,7.5l15.1-1.1h16.3c-0.3-0.8-0.3-1.6,0.1-2.4
			c0.6-1.2,1.9-1.9,3.2-1.9H88.4z"/>
	</g>
	<g>
		<path class="st0" d="M61,469.5c0,4.1-1.6,7.5-3.5,7.5s-3.5-3.4-3.5-7.5s1.6-7.5,3.5-7.5S61,465.4,61,469.5z"/>
	</g>
	<g>
		<path class="st3" d="M76,492h22v4H76V492z"/>
	</g>
	<g>
		<path class="st2" d="M76,496h22v13H76V496z"/>
	</g>
	<g>
		<path class="st4" d="M88,503h2v2h-2V503z"/>
	</g>
	<g>
		<path class="st4" d="M92,503h3v2h-3V503z"/>
	</g>
	<g>
		<path class="st3" d="M66,447l2,4.3l4,1.1l-3,3.2l1,4.3l-4-2.2l-4,2.2l1-4.3l-3-3.2l4-1.1L66,447z"/>
	</g>
	<g>
		<path class="st5" d="M112.7,461.2C112.7,461.2,112.7,461.2,112.7,461.2l-13.9,1c0-2.3-2-4.2-4.3-4.2c-1.2,0-2.4,0.5-3.2,1.5
			c-1.5-1.8-4.2-2-5.9-0.5c-0.2,0.1-0.3,0.3-0.5,0.5c-1.5-1.8-4.2-2-5.9-0.5c-0.2,0.1-0.3,0.3-0.5,0.5c-1.5-1.8-4.2-2-6-0.4
			c-0.9,0.8-1.5,1.9-1.5,3.1l-13.9-1c-2.8,0-4.3,4.3-4.3,8.5c0,4.2,1.4,8.4,4.3,8.5l13.9-1v3.1c0,0.2,0.1,0.5,0.2,0.7l5.1,6.1v3.9
			h-2.1V510h24.5v-19.1h-2.1V487l5.1-6.1c0.2-0.2,0.2-0.4,0.2-0.7v-3.1l10.7,1c2.8,0,4.3-4.3,4.3-8.5
			C117,465.5,115.5,461.2,112.7,461.2z M92.5,462.2c0-1.2,1-2.1,2.1-2.1s2.1,1,2.1,2.1v8.5h-4.3V462.2z M86.1,462.2
			c0-1.2,1-2.1,2.1-2.1s2.1,1,2.1,2.1v8.5h-2.1c-1.2,0-2.1-0.9-2.1-2.1V462.2z M79.7,462.2c0-1.2,1-2.1,2.1-2.1s2.1,1,2.1,2.1v6.4
			c0,1.2-1,2.1-2.1,2.1s-2.1-0.9-2.1-2.1V462.2z M73.3,462.2c0-1.2,1-2.1,2.1-2.1s2.1,1,2.1,2.1v6.4c0,1.2-1,2.1-2.1,2.1
			s-2.1-0.9-2.1-2.1V462.2z M57.3,476c-0.7,0-2.1-2.4-2.1-6.4c0-4,1.4-6.4,2.1-6.4h0.1c0.8,0,2.1,2.4,2.1,6.4
			C59.4,473.6,58,476,57.3,476z M72.1,475l-11.8,0.8c0.9-1.9,1.3-4,1.2-6.1c0-2.1-0.4-4.2-1.2-6.2l10.8,0.8v4.3
			c0,2.3,1.9,4.2,4.2,4.2c1.2,0,2.4-0.5,3.2-1.5c1.5,1.8,4.2,2,5.9,0.5c0.2-0.1,0.3-0.3,0.5-0.5c0.7,0.8,1.7,1.3,2.8,1.4
			c-0.4,0.7-0.6,1.4-0.6,2.2H72.1C72.2,475,72.1,475,72.1,475z M96.7,507.9H76.5v-10.6h20.3V507.9z M96.7,495.1H76.5V493h20.3V495.1
			z M99.9,479.9l-5.1,6.1c-0.2,0.2-0.2,0.4-0.2,0.7v4.2h-16v-4.2c0-0.2-0.1-0.5-0.2-0.7l-5.1-6.1v-2.8h14.5c0.8,1.3,2.2,2.1,3.7,2.1
			h6.4v-2.1h-6.4c-1.2,0-2.1-0.9-2.1-2.1s1-2.1,2.1-2.1h8.5V479.9z M112.8,476l-10.8-1v-3.3c0-0.6-0.5-1.1-1.1-1.1h-2.1v-6.4l13.9-1
			c0.8,0.1,2.1,2.5,2.1,6.4C114.9,473.6,113.5,476,112.8,476z"/>
	</g>
	<g>
		<path class="st5" d="M88,503h2v2h-2V503z"/>
	</g>
	<g>
		<path class="st5" d="M92,503h3v2h-3V503z"/>
	</g>
	<g>
		<path class="st5" d="M78,482.3l2.9,3.9v2.8H83v-3.5l-3.3-4.5L78,482.3z"/>
	</g>
	<g>
		<path class="st5" d="M73,452.1c-0.1-0.4-0.4-0.7-0.7-0.8l-3.6-1l-1.8-3.9c-0.3-0.5-0.9-0.7-1.4-0.4c-0.1,0.1-0.3,0.2-0.4,0.4
			l-1.8,3.9l-3.6,1c-0.5,0.1-0.9,0.7-0.7,1.3c0,0.2,0.1,0.4,0.3,0.5l2.6,2.8l-0.9,3.7c-0.1,0.6,0.2,1.2,0.7,1.3
			c0.2,0.1,0.5,0,0.7-0.1l3.5-2l3.5,2c0.5,0.3,1.1,0.1,1.3-0.5c0.1-0.2,0.1-0.5,0.1-0.8l-0.9-3.7l2.6-2.8
			C73,452.9,73.1,452.5,73,452.1z M68.3,454.9c-0.2,0.3-0.3,0.7-0.3,1l0.5,2l-2-1.1c-0.3-0.2-0.6-0.2-0.9,0l-2,1.1l0.5-2
			c0.1-0.4,0-0.8-0.3-1L62,453l2.3-0.6c0.3-0.1,0.5-0.3,0.7-0.6l1.1-2.4l1.1,2.4c0.1,0.3,0.4,0.5,0.7,0.6L70,453L68.3,454.9z"/>
	</g>
	<g>
		<path class="st5" d="M111.3,465l-8.3,1.1l0.3,2.2l7.5-1c0.3,1.3,0.2,2.7-0.3,4l2,0.7c0.7-2.1,0.7-4.3-0.1-6.4
			C112.2,465.2,111.8,465,111.3,465z"/>
	</g>
	<g>
		<path class="st5" d="M64,471h2v2h-2V471z"/>
	</g>
</g>
</svg>
