<?xml version="1.0" encoding="utf-8"?>
<!-- Generator: Adobe Illustrator 25.0.0, SVG Export Plug-In . SVG Version: 6.00 Build 0)  -->
<svg version="1.1" id="Layer_1" xmlns="http://www.w3.org/2000/svg" xmlns:xlink="http://www.w3.org/1999/xlink" x="0px" y="0px"
	 viewBox="0 0 100 101" style="enable-background:new 0 0 100 101;" xml:space="preserve">
<style type="text/css">
	.st0{fill:none;}
	.st1{fill-rule:evenodd;clip-rule:evenodd;fill:#FFE808;}
	.st2{fill:#0C2534;}
	.st3{fill-rule:evenodd;clip-rule:evenodd;fill:#205F89;}
	.st4{fill-rule:evenodd;clip-rule:evenodd;fill:#B93128;}
	.st5{fill-rule:evenodd;clip-rule:evenodd;fill:#0C2534;}
</style>
<g>
	<rect y="0" class="st0" width="100" height="101"/>
</g>
<g transform="translate(-96 -364)">
	<g>
		<path class="st1" d="M98.5,414.5c0-26.5,21.5-48,48-48s48,21.5,48,48s-21.5,48-48,48S98.5,441,98.5,414.5z"/>
		<path class="st2" d="M146.5,464c-27.3,0-49.5-22.2-49.5-49.5c0-27.3,22.2-49.5,49.5-49.5c27.3,0,49.5,22.2,49.5,49.5
			C196,441.8,173.8,464,146.5,464z M146.5,368c-25.6,0-46.5,20.9-46.5,46.5c0,25.6,20.9,46.5,46.5,46.5c25.6,0,46.5-20.9,46.5-46.5
			C193,388.9,172.1,368,146.5,368z"/>
	</g>
	<g>
		<path class="st3" d="M125,410h6v22h-6V410z"/>
	</g>
	<g>
		<path class="st3" d="M170,403.2l-24.1-16.1c-0.2-0.2-0.5-0.2-0.8,0L121,403.2v1.8h49V403.2z"/>
	</g>
	<g>
		<path class="st1" d="M147,398c0,1.1-0.7,2-1.5,2c-0.8,0-1.5-0.9-1.5-2s0.7-2,1.5-2S147,396.9,147,398z"/>
	</g>
	<g>
		<path class="st4" d="M132.3,411h-8.6c-0.4,0-0.7-0.3-0.7-0.7V406h10v4.3C133,410.7,132.7,411,132.3,411z"/>
	</g>
	<g>
		<path class="st4" d="M132.3,431h-8.6c-0.4,0-0.7,0.3-0.7,0.7v4.3h10v-4.3C133,431.3,132.7,431,132.3,431z"/>
	</g>
	<g>
		<path class="st3" d="M143,410h5v22h-5V410z"/>
	</g>
	<g>
		<path class="st4" d="M149.3,411h-7.7c-0.4,0-0.7-0.3-0.7-0.7V406h9v4.3C150,410.7,149.7,411,149.3,411z"/>
	</g>
	<g>
		<path class="st4" d="M149.3,431h-7.7c-0.4,0-0.7,0.3-0.7,0.7v4.3h9v-4.3C150,431.3,149.7,431,149.3,431z"/>
	</g>
	<g>
		<path class="st3" d="M160,410h6v22h-6V410z"/>
	</g>
	<g>
		<path class="st4" d="M167.3,411h-7.7c-0.4,0-0.7-0.3-0.7-0.7V406h9v4.3C168,410.7,167.7,411,167.3,411z"/>
	</g>
	<g>
		<path class="st4" d="M167.3,431h-7.7c-0.4,0-0.7,0.3-0.7,0.7v4.3h9v-4.3C168,431.3,167.7,431,167.3,431z"/>
	</g>
	<g>
		<path class="st1" d="M171.3,407h-50.7c-0.4,0-0.7-0.3-0.7-0.7v-2.6c0-0.4,0.3-0.7,0.7-0.7h50.7c0.4,0,0.7,0.3,0.7,0.7v2.6
			C172,406.7,171.7,407,171.3,407z"/>
	</g>
	<g>
		<path class="st1" d="M172,440h-52v-4.4c0-0.3,0.3-0.6,0.7-0.6h50.7c0.4,0,0.7,0.3,0.7,0.6L172,440L172,440z"/>
	</g>
	<g>
		<path class="st4" d="M172.3,442h-53.7c-0.4,0-0.7-0.3-0.7-0.7v-2.6c0-0.4,0.3-0.7,0.7-0.7h53.7c0.4,0,0.7,0.3,0.7,0.7v2.6
			C173,441.7,172.7,442,172.3,442z"/>
	</g>
	<g>
		<path class="st5" d="M145.5,401c1.4,0,2.5-1.3,2.5-3s-1.1-3-2.5-3s-2.5,1.3-2.5,3S144.1,401,145.5,401z M145.5,396.9
			c0.5,0,0.9,0.5,0.9,1.1s-0.4,1.1-0.9,1.1s-0.9-0.5-0.9-1.1S145,396.9,145.5,396.9z"/>
	</g>
	<g>
		<path class="st5" d="M173.2,437.6h-1v-2.9c0-0.5-0.4-0.8-0.8-0.8h-2.9V431c0-0.5-0.4-0.8-0.8-0.8h-1v-18.4h1
			c0.5,0,0.8-0.4,0.8-0.8v-2.9h2.9c0.5,0,0.8-0.4,0.8-0.8v-3.7c0-0.5-0.4-0.8-0.8-0.8h-1.6L146,386.1c-0.3-0.2-0.7-0.2-1,0
			l-23.8,16.6h-1.6c-0.5,0-0.8,0.4-0.8,0.8v3.7c0,0.5,0.4,0.8,0.8,0.8h2.9v2.9c0,0.5,0.4,0.8,0.8,0.8h1v18.4h-1
			c-0.5,0-0.8,0.4-0.8,0.8v2.9h-2.9c-0.5,0-0.8,0.4-0.8,0.8v2.9h-1c-0.5,0-0.8,0.4-0.8,0.8v3.7c0,0.5,0.4,0.8,0.8,0.8h55.3
			c0.5,0,0.8-0.4,0.8-0.8v-3.7C174,438,173.6,437.6,173.2,437.6z M166.8,433.9h-7.6v-2h7.6V433.9z M161.1,430.2v-18.4h3.9v18.4
			H161.1z M166.8,410.1h-7.6v-2h7.6V410.1z M158.4,411.8h1v18.4h-1c-0.5,0-0.8,0.4-0.8,0.8v2.9h-6.6V431c0-0.5-0.4-0.8-0.8-0.8h-1
			v-18.4h1c0.5,0,0.8-0.4,0.8-0.8v-2.9h6.6v2.9C157.6,411.4,157.9,411.8,158.4,411.8z M141.7,408.1h7.6v2h-7.6V408.1z M143.6,411.8
			h3.9v18.4h-3.9V411.8z M149.3,431.9v2h-7.6v-2H149.3z M120.5,404.4h1h0l0,0h13.6c0.5,0,0.8-0.4,0.8-0.8c0-0.5-0.4-0.8-0.8-0.8
			h-10.9l21.3-14.8l21.3,14.8h-28.4c-0.5,0-0.8,0.4-0.8,0.8c0,0.5,0.4,0.8,0.8,0.8h31h0h1v2h-50V404.4z M124.2,408.1h7.6v2h-7.6
			V408.1z M129.9,411.8v18.4H126v-18.4H129.9z M124.2,431.9h7.6v2h-7.6V431.9z M132.6,430.2h-1v-18.4h1c0.5,0,0.8-0.4,0.8-0.8v-2.9
			h6.6v2.9c0,0.5,0.4,0.8,0.8,0.8h1v18.4h-1c-0.5,0-0.8,0.4-0.8,0.8v2.9h-6.6V431C133.4,430.6,133.1,430.2,132.6,430.2z
			 M120.5,435.6h50v2h-50V435.6z M172.3,441.3h-53.7v-2h53.7V441.3z"/>
	</g>
</g>
</svg>
