<?xml version="1.0" encoding="utf-8"?>
<!-- Generator: Adobe Illustrator 25.0.0, SVG Export Plug-In . SVG Version: 6.00 Build 0)  -->
<svg version="1.1" id="Layer_1" xmlns="http://www.w3.org/2000/svg" xmlns:xlink="http://www.w3.org/1999/xlink" x="0px" y="0px"
	 viewBox="0 0 100 100" style="enable-background:new 0 0 100 100;" xml:space="preserve">
<style type="text/css">
	.st0{fill:none;}
	.st1{fill-rule:evenodd;clip-rule:evenodd;fill:#FFE808;}
	.st2{fill:#0C2534;}
	.st3{fill-rule:evenodd;clip-rule:evenodd;fill:#205F89;}
	.st4{fill-rule:evenodd;clip-rule:evenodd;fill:#B93128;}
	.st5{fill-rule:evenodd;clip-rule:evenodd;fill:#0C2534;}
</style>
<g>
	<rect y="0" class="st0" width="100" height="100"/>
</g>
<g transform="translate(-87 -79)">
	<g>
		<path class="st1" d="M185.5,129.5c0,26.5-21.5,48-48,48s-48-21.5-48-48s21.5-48,48-48S185.5,103,185.5,129.5z"/>
		<path class="st2" d="M137.5,179c-27.3,0-49.5-22.2-49.5-49.5c0-27.3,22.2-49.5,49.5-49.5c27.3,0,49.5,22.2,49.5,49.5
			C187,156.8,164.8,179,137.5,179z M137.5,83C111.9,83,91,103.9,91,129.5c0,25.6,20.9,46.5,46.5,46.5c25.6,0,46.5-20.9,46.5-46.5
			C184,103.9,163.1,83,137.5,83z"/>
	</g>
	<g>
		<path class="st3" d="M146,156h-18c0-5,4-9,9-9c2.5,0,4.7,1,6.4,2.6C145,151.3,146,153.5,146,156z"/>
	</g>
	<g>
		<path class="st1" d="M128,156h-18c0-2.5,1-4.7,2.6-6.4c1.6-1.6,3.9-2.6,6.4-2.6C124,147,128,151,128,156z"/>
	</g>
	<g>
		<path class="st1" d="M164,156h-18c0-2.5,1-4.7,2.6-6.4c1.6-1.6,3.9-2.6,6.4-2.6s4.7,1,6.4,2.6C163,151.3,164,153.5,164,156z"/>
	</g>
	<g>
		<path class="st4" d="M119,126.6v6.4h-9v-5.1c0-2.3,1.6-4.2,3.9-4.5l2.4-0.4L119,126.6z"/>
	</g>
	<g>
		<path class="st4" d="M129,133h-10v-6.4l2.7-3.6l2.5,0.4c0.4,0.1,0.8,0.2,1.2,0.3v4.6c0,0.7,0.3,1.4,0.8,1.9L129,133z"/>
	</g>
	<g>
		<path class="st3" d="M133.1,130.3l-3.6,3.7l-0.9-0.9l-2.8-2.9c-0.5-0.5-0.8-1.2-0.8-2v-4.6v-0.3c0-2.9,2.1-5.2,4.9-5.5l1.5-0.2
			l1.7,4.4l3.6-1.9l3.6,1.9l1.8-4.6h4.5V109h5.4v0.1v9.2v0.6c0,1.7-0.9,3.2-2.2,4c-0.5,0.3-1,0.5-1.6,0.6l-2.4,0.4v9.3h-3.6v-6.5
			c0-0.5-0.4-0.9-0.9-0.9H134c-0.5,0-0.9,0.4-0.9,0.9V130.3z"/>
	</g>
	<g>
		<path class="st1" d="M135.7,133.4c0-0.7-0.3-1.3-0.7-1.8l-2-2v-3.7c0-0.5,0.4-0.9,0.9-0.9h7.2c0.5,0,0.9,0.4,0.9,0.9v6.4v2.8
			c0,0.5-0.4,0.9-0.9,0.9h-4.5h-3.4c0.7,0,1.3-0.3,1.8-0.8C135.4,134.8,135.7,134.1,135.7,133.4z"/>
	</g>
	<g>
		<path class="st3" d="M137,120l-3.4,2l-1.6-4.7l2.4-0.3L137,120z"/>
	</g>
	<g>
		<path class="st3" d="M142,117l-1.7,5l-3.3-2l2.5-3H142z"/>
	</g>
	<g>
		<path class="st4" d="M151.9,126.6l3.1,6.4h-9v-9.1l2.4-0.4c0.6-0.1,1.1-0.3,1.6-0.6L151.9,126.6z"/>
	</g>
	<g>
		<path class="st4" d="M164,125.6v7.4h-9l3.1-6.7l2.5-5.3c1.8,0.5,3.2,2.2,3.4,4.2L164,125.6z"/>
	</g>
	<g>
		<path class="st3" d="M158,126l-3,7l-3-7H158z"/>
	</g>
	<g>
		<path class="st3" d="M125,112.1c0,1.3-0.6,2.6-1.5,3.6l-0.3,0.3v-1.2c0-0.9-0.6-1.6-1.5-1.8l-1.3-0.3c-1.1-0.2-1.8-1.1-1.8-2.2
			c0,1-0.8,1.9-1.8,2.2l-1.3,0.3c-0.9,0.2-1.5,0.9-1.5,1.8v1.2l-0.3-0.3c-1-1-1.5-2.2-1.5-3.6c0-2.8,2.3-5.1,5.3-5.1h2.5
			c1.4,0,2.8,0.6,3.7,1.5C124.4,109.4,125,110.7,125,112.1z"/>
	</g>
	<g>
		<path class="st4" d="M135.3,105.8c-1.5,0.4-2.6,1.8-2.6,3.5v1.7l-0.3-0.3c-0.9-1-1.4-2.2-1.4-3.6c0-1.4,0.5-2.7,1.4-3.6
			c0.9-0.9,2.1-1.5,3.4-1.5h5.4c0.9,0,1.7,0.8,1.7,1.8v1.6c0,1.2-0.7,2.4-1.7,2.9l-1.1-0.3c-1.5-0.4-2.9-1.2-4.1-2.4L135.3,105.8z"
			/>
	</g>
	<g>
		<path class="st4" d="M163.4,112.9L164,125c-0.2-1.9-1.6-3.5-3.4-4c-0.2,0-0.3-0.1-0.5-0.1l-0.8-0.1c-1-0.1-1.9-0.9-2.2-1.8
			l-0.2-0.7c1.5-0.7,2.6-2.3,2.6-4.1v-1.3c0-0.8-0.6-1.6-1.4-1.8l-1.3-0.3c-0.7-0.2-1.3-0.4-1.9-0.8l-0.4-0.2
			c-0.7-0.5-1.6-0.8-2.4-0.9v-0.1v-2.7c0-0.2,0-0.4-0.1-0.5c0.8-0.2,1.6-0.4,2.5-0.4h0.7C159.6,105,163.3,108.5,163.4,112.9z"/>
	</g>
	<g>
		<path class="st4" d="M120.3,146.9c-0.3,0.1-0.6,0.1-0.9,0.1h-0.9h-0.9c-0.3,0-0.6,0-0.9-0.1c-2.1-0.4-3.7-2.3-3.7-4.5v-0.9
			c0-3,2.5-5.5,5.5-5.5s5.5,2.5,5.5,5.5v0.9C124,144.6,122.4,146.5,120.3,146.9z"/>
	</g>
	<g>
		<path class="st4" d="M138.7,146.9c-0.3,0.1-0.6,0.1-0.8,0.1H137h-0.8c-0.3,0-0.6,0-0.8-0.1c-1.9-0.4-3.3-2.3-3.3-4.5v-0.9
			c0-3,2.2-5.5,5-5.5s5,2.5,5,5.5v0.9C142,144.6,140.6,146.5,138.7,146.9z"/>
	</g>
	<g>
		<path class="st4" d="M157.3,146.9c-0.3,0.1-0.6,0.1-0.9,0.1h-0.9h-0.9c-0.3,0-0.6,0-0.9-0.1c-2.1-0.4-3.7-2.3-3.7-4.5v-0.9
			c0-3,2.5-5.5,5.5-5.5s5.5,2.5,5.5,5.5v0.9C161,144.6,159.4,146.5,157.3,146.9z"/>
	</g>
	<g>
		<path class="st1" d="M116.8,120l2.2,0.5c0.8,0,1.5-0.2,2.2-0.5l0.8,2.3l-3,3.7l-3-3.7L116.8,120z"/>
	</g>
	<g>
		<path class="st1" d="M123,116.5c0,1.8-1,3.4-2.5,4.1c-0.6,0.3-1.3,0.4-2,0.4l-2-0.4l-1.2-0.9c-0.8-0.8-1.3-2-1.3-3.2v-1.2
			c0-0.9,0.6-1.6,1.4-1.8l1.3-0.3c1-0.2,1.8-1.1,1.8-2.2c0,1.1,0.7,2,1.8,2.2l1.3,0.3c0.8,0.2,1.4,0.9,1.4,1.8V116.5z"/>
	</g>
	<g>
		<path class="st1" d="M161,121.1l-2.6,4.9h-6.6l-1.9-3.6c1.4-0.8,2.3-2.2,2.3-3.9V118c0.8,0.6,1.8,0.9,2.8,0.9c0.7,0,1.4-0.2,2-0.4
			l0.2,0.6c0.3,1,1.2,1.7,2.3,1.8l0.8,0.1C160.7,121,160.8,121.1,161,121.1z"/>
	</g>
	<g>
		<path class="st1" d="M160,113.1v1.3c0,1.8-1.1,3.4-2.8,4.1c-0.6,0.3-1.4,0.5-2.2,0.5c-1.1,0-2.2-0.3-3-0.9V109
			c0.9,0.1,1.9,0.4,2.7,0.9l0.4,0.2c0.6,0.4,1.3,0.7,2.1,0.8l1.4,0.3C159.4,111.5,160,112.3,160,113.1z"/>
	</g>
	<g>
		<path class="st1" d="M152,106.5v2.5h-5v-2.5c0-1.4,1.1-2.5,2.5-2.5c0.7,0,1.3,0.3,1.8,0.7c0.3,0.3,0.6,0.8,0.7,1.3
			C152,106.2,152,106.3,152,106.5z"/>
	</g>
	<g>
		<path class="st1" d="M135.3,131.9c0.5,0.5,0.7,1.1,0.7,1.7c0,0.7-0.3,1.3-0.7,1.7c-0.4,0.4-1,0.7-1.7,0.7c-0.6,0-1.3-0.3-1.7-0.7
			l-1.9-1.9l3.4-3.4L135.3,131.9z"/>
	</g>
	<g>
		<path class="st1" d="M134.8,115l2.2,0.4c0.8,0,1.5-0.2,2.2-0.4l0.8,2.3l-3,2.7l-3-2.7L134.8,115z"/>
	</g>
	<g>
		<path class="st1" d="M142,110.5c0,1.8-1.1,3.4-2.8,4.1c-0.6,0.3-1.4,0.4-2.2,0.4l-2.2-0.4l-1.4-0.9c-0.9-0.8-1.5-2-1.5-3.2v-1.7
			c0-1.7,1.2-3.1,3-3.5l1-0.2c1.3,1.2,2.9,2,4.7,2.4l1.3,0.3V110.5z"/>
	</g>
	<g>
		<path class="st5" d="M143.3,135.3v-1.8H165v-7.8c0,0,0,0,0,0h0l-0.6-12.4c-0.2-4.8-4.2-8.6-9-8.6h-0.7c-0.6,0-1.2,0.1-1.8,0.2
			c-0.6-1.2-1.8-2-3.2-2c-2,0-3.6,1.6-3.6,3.6v9.9h-5.7l-0.3-0.9c1.4-1,2.4-2.6,2.4-4.5v-2.2c1.1-0.8,1.8-2,1.8-3.4v-1.6
			c0-1.5-1.2-2.7-2.7-2.7h-5.7c-3.3,0-6,2.7-6,6c0,1.6,0.6,3.1,1.8,4.3l0.1,0.1c0.1,1.7,1,3.2,2.4,4.1l-0.3,1l-3.6,0.4
			c-2.9,0.3-5.2,2.6-5.6,5.4c-0.1,0-0.1,0-0.2,0l-1.9-0.3l-0.3-1c1.3-0.9,2.2-2.4,2.4-4.1l0.1-0.1c1.1-1.1,1.8-2.6,1.8-4.3
			c0-3.3-2.7-6-6-6h-2.4c-3.3,0-6,2.7-6,6c0,1.6,0.6,3.1,1.8,4.3l0.1,0.1c0.1,1.7,1,3.2,2.4,4.1l-0.3,1l-1.9,0.3
			c-2.7,0.4-4.7,2.7-4.7,5.4v6h19.5l2.6,2.6c0.5,0.4,1,0.7,1.6,0.9c-1.2,1.2-2,2.8-2,4.6v0.9c0,1.8,0.9,3.5,2.3,4.5
			c-2.2,1-4,2.8-5,5c-1-2.2-2.8-4-5.1-5c1.4-1,2.3-2.6,2.3-4.5v-0.9c0-3.5-2.8-6.3-6.3-6.3c-3.5,0-6.3,2.8-6.3,6.3v0.9
			c0,1.8,0.9,3.5,2.3,4.5c-3.5,1.5-6,5-6,9.1v0.9h56v-0.9c0-4.1-2.5-7.6-6-9.1c1.4-1,2.3-2.6,2.3-4.5v-0.9c0-3.5-2.8-6.3-6.3-6.3
			c-3.5,0-6.3,2.8-6.3,6.3v0.9c0,1.8,0.9,3.5,2.3,4.5c-2.2,1-4,2.8-5.1,5c-1-2.2-2.8-4-5-5c1.4-1,2.3-2.6,2.3-4.5v-0.9
			c0-1.8-0.7-3.4-1.9-4.5h0.1C142.5,137.1,143.3,136.3,143.3,135.3z M155.1,118.2c-0.6,0-1.3-0.2-1.8-0.5v-7.3
			c0.4,0.1,0.7,0.3,1,0.5l0.3,0.2c0.7,0.4,1.4,0.8,2.1,0.9l1.2,0.3c0.4,0.1,0.7,0.5,0.7,0.9v1.3
			C158.7,116.6,157.1,118.2,155.1,118.2z M153.2,119.6c0.6,0.2,1.2,0.3,1.9,0.3h0c0.5,0,1-0.1,1.4-0.2c0.5,1.2,1.5,2,2.8,2.2l0.1,0
			l-1.7,3.4h-5.2l-1.2-2.4C152.3,122.1,153,121,153.2,119.6z M156.8,127.2l-1.7,3.4l-1.7-3.4H156.8z M149.7,123.8l3.9,7.9h-6.7v-7.3
			l1.7-0.2C149,124.1,149.3,124,149.7,123.8z M156.5,131.7l4.6-9.3c1.2,0.6,2,1.8,2,3.2l0,0v6H156.5z M155.4,106.4
			c3.9,0,7,3,7.2,6.9l0.4,8.2c-0.7-0.6-1.7-1-2.7-1.2l-0.8-0.1c-0.7-0.1-1.2-0.5-1.4-1.2c1.4-1,2.4-2.6,2.4-4.5v-1.3
			c0-1.2-0.8-2.3-2.1-2.6l-1.2-0.3c-0.6-0.1-1.1-0.4-1.6-0.7l-0.3-0.2c-0.6-0.4-1.3-0.7-2-0.9v-1.9c0.5-0.1,1-0.2,1.5-0.2H155.4z
			 M149.6,104.6c1,0,1.8,0.8,1.8,1.8v1.8h-3.6v-1.8C147.8,105.4,148.6,104.6,149.6,104.6z M141.1,118.2l-0.9,2.4l-1.6-0.8l1.6-1.6
			H141.1z M131.7,108.1c-0.1-0.4-0.2-0.7-0.2-1.1c0-2.3,1.9-4.2,4.2-4.2h5.7c0.5,0,0.9,0.4,0.9,0.9v1.6c0,0.8-0.4,1.5-1.1,1.9
			l-0.8-0.2c-1.5-0.4-2.8-1.1-3.9-2.2l-0.4-0.4l-1.4,0.3C133.4,105.3,132.1,106.5,131.7,108.1z M133.4,109.2c0-1.2,0.8-2.3,2.1-2.6
			l0.4-0.1c1.2,1.1,2.7,1.9,4.3,2.3l0.5,0.1v2c0,2-1.6,3.6-3.6,3.6s-3.6-1.6-3.6-3.6V109.2z M137,116.4c0.5,0,0.9-0.1,1.4-0.2
			l0.3,0.8l-1.7,1.7l-1.7-1.7l0.3-0.8C136.1,116.3,136.5,116.4,137,116.4z M134,118.2l1.5,1.5l-1.6,0.8l-0.9-2.2L134,118.2z
			 M126.2,123.1c0-2.3,1.7-4.3,4.1-4.5l0.9-0.1l1.8,4.5l4.1-2l4.1,2l1.9-4.9h4.8V110h3.6v8.7c0,1.8-1.3,3.3-3.1,3.6l-3.2,0.5v8.9
			h-1.8v-5.4c0-1-0.8-1.8-1.8-1.8h-7.2c-1,0-1.8,0.8-1.8,1.8v1.4l-2.1-2.1l-1.3,1.3l3,3l-2.3,2.3l-3.1-3.1c-0.3-0.3-0.5-0.8-0.5-1.3
			V123.1z M113.8,113.9c-0.2-0.5-0.3-1-0.3-1.5c0-2.3,1.9-4.2,4.2-4.2h2.4c2.3,0,4.2,1.9,4.2,4.2c0,0.5-0.1,1-0.3,1.5
			c-0.4-0.7-1-1.3-1.9-1.5l-1.3-0.3c-0.6-0.1-1-0.7-1-1.3V110H118v0.9c0,0.6-0.4,1.2-1,1.3l-1.3,0.3
			C114.8,112.6,114.2,113.2,113.8,113.9z M115.3,115.1c0-0.4,0.3-0.8,0.7-0.9l1.3-0.3c0.6-0.1,1.2-0.4,1.6-0.9
			c0.4,0.4,1,0.7,1.6,0.9l1.3,0.3c0.4,0.1,0.7,0.5,0.7,0.9v1.2c0,2-1.6,3.6-3.6,3.6c-2,0-3.6-1.6-3.6-3.6V115.1z M118.9,121.8
			L118.9,121.8c0.5,0,1-0.1,1.4-0.2l0.3,0.9l-1.7,2.3l-1.7-2.3l0.3-0.9C118,121.7,118.5,121.8,118.9,121.8z M110.8,127.5
			c0-1.8,1.3-3.3,3.1-3.6l1.9-0.3l2.2,2.9v5.1h-7.2V127.5z M119.8,131.7v-5.1l2.2-2.9l1.9,0.3c0.1,0,0.3,0.1,0.4,0.1v3.9
			c0,1,0.4,1.9,1.1,2.6l1.3,1.3H119.8z M131.1,133.5l2.3-2.3l1.3,1.3c0.3,0.3,0.5,0.7,0.5,1.2c0,0.9-0.7,1.7-1.7,1.7
			c-0.4,0-0.9-0.2-1.2-0.5L131.1,133.5z M114.4,141.6c0-2.5,2-4.5,4.5-4.5c2.5,0,4.5,2,4.5,4.5v0.9c0,1.3-0.7,2.5-1.8,3.1v-3.1h-1.8
			v3.6H118v-3.6h-1.8v3.1c-1.1-0.6-1.8-1.8-1.8-3.1V141.6z M110.9,155.2c0.5-4.1,3.9-7.2,8.1-7.2c4.2,0,7.6,3.2,8.1,7.2H110.9z
			 M150.5,141.6c0-2.5,2-4.5,4.5-4.5c2.5,0,4.5,2,4.5,4.5v0.9c0,1.3-0.7,2.5-1.8,3.1v-3.1H156v3.6h-1.8v-3.6h-1.8v3.1
			c-1.1-0.6-1.8-1.8-1.8-3.1V141.6z M155.1,148c4.2,0,7.6,3.2,8.1,7.2H147C147.4,151.1,150.9,148,155.1,148z M145.1,155.2h-16.2
			c0.5-4.1,3.9-7.2,8.1-7.2S144.6,151.1,145.1,155.2z M141.5,141.6v0.9c0,1.3-0.7,2.5-1.8,3.1v-3.1h-1.8v3.6h-1.8v-3.6h-1.8v3.1
			c-1.1-0.6-1.8-1.8-1.8-3.1v-0.9c0-2.5,2-4.5,4.5-4.5S141.5,139.2,141.5,141.6z M136.6,135.3c0.3-0.5,0.4-1.1,0.4-1.7
			c0-0.1,0-0.1,0-0.2h2.7v-1.8h-3.3c-0.1-0.2-0.2-0.3-0.4-0.5l-1.7-1.7v-3.2h7.2v9H136.6z"/>
	</g>
	<g>
		<path class="st5" d="M136,128h4v2h-4V128z"/>
	</g>
</g>
</svg>
