<?xml version="1.0" encoding="utf-8"?>
<!-- Generator: Adobe Illustrator 25.0.0, SVG Export Plug-In . SVG Version: 6.00 Build 0)  -->
<svg version="1.1" id="Layer_1" xmlns="http://www.w3.org/2000/svg" xmlns:xlink="http://www.w3.org/1999/xlink" x="0px" y="0px"
	 viewBox="0 0 100 101" style="enable-background:new 0 0 100 101;" xml:space="preserve">
<style type="text/css">
	.st0{fill-rule:evenodd;clip-rule:evenodd;fill:#FFE808;}
	.st1{fill:#0C2534;}
	.st2{fill-rule:evenodd;clip-rule:evenodd;fill:#205F89;}
	.st3{fill-rule:evenodd;clip-rule:evenodd;fill:#B93128;}
	.st4{fill-rule:evenodd;clip-rule:evenodd;fill:#0C2534;}
</style>
<g transform="translate(-125 -652)">
	<g>
		<path class="st0" d="M127.5,702.5c0-26.5,21.5-48,48-48s48,21.5,48,48s-21.5,48-48,48S127.5,729,127.5,702.5z"/>
		<path class="st1" d="M175.5,752c-27.3,0-49.5-22.2-49.5-49.5s22.2-49.5,49.5-49.5s49.5,22.2,49.5,49.5S202.8,752,175.5,752z
			 M175.5,656c-25.6,0-46.5,20.9-46.5,46.5s20.9,46.5,46.5,46.5s46.5-20.9,46.5-46.5S201.1,656,175.5,656z"/>
	</g>
	<g>
		<path class="st2" d="M169,677h35v25h-35V677z"/>
	</g>
	<g>
		<path class="st0" d="M184,684.5v3.5h-1.7h-8.6c0-1-0.8-1.8-1.7-1.8V681h12V684.5z"/>
	</g>
	<g>
		<path class="st0" d="M193.1,702l4.9,8h-4.1l-4.9-8H193.1z"/>
	</g>
	<g>
		<path class="st0" d="M184,702h4v8h-4V702z"/>
	</g>
	<g>
		<path class="st0" d="M184,702l-5.5,8H174l5.5-8H184z"/>
	</g>
	<g>
		<path class="st3" d="M204,710v6h-9.7c-0.8-1.2-2.1-2-3.5-2s-2.7,0.8-3.5,2h-8.8c-0.8-1.2-2.1-2-3.5-2s-2.7,0.8-3.5,2h-8.8
			c-0.8-1.2-2.1-2-3.5-2s-2.7,0.8-3.5,2H151v-6h5.7h4.4H174h4.4h6.2h3.5h6.2h4.4H204z"/>
	</g>
	<g>
		<path class="st3" d="M167,730h-16c0-1.9,0.8-3.7,2.1-5s3.1-2,5-2h0.9h0.9C163.8,723,167,726.1,167,730z"/>
	</g>
	<g>
		<path class="st3" d="M175.9,723c3.9,0,7.1,3.1,7.1,7h-16c0-1.9,0.8-3.7,2.1-5s3.1-2,5-2h0.9H175.9z"/>
	</g>
	<g>
		<path class="st3" d="M198,730h-15c0-1.9,0.8-3.7,1.9-5c1.2-1.3,2.9-2,4.7-2h0.8h0.8C195,723,198,726.1,198,730z"/>
	</g>
	<g>
		<path class="st2" d="M172.2,686h-3.5H159h-0.9c-3.9,0-7.1,3.1-7.1,6.9v2.6c0,1.4,1.2,2.6,2.7,2.6h0.9v9.9c0,0.6,0.2,1.1,0.6,1.5
			c0.4,0.4,1,0.6,1.6,0.6c1.2,0,2.2-1,2.2-2.1c0,0.6,0.2,1.1,0.6,1.5c0.4,0.4,1,0.6,1.6,0.6c1.2,0,2.2-1,2.2-2.1v-11.6v-6.9h5.3h3.5
			c0.5,0,0.9-0.2,1.2-0.5s0.5-0.7,0.5-1.2C174,686.8,173.2,686,172.2,686z"/>
	</g>
	<g>
		<path class="st0" d="M194.1,715.8c0.6,0.7,0.9,1.7,0.9,2.7c0,2.5-2,4.5-4.5,4.5s-4.5-2-4.5-4.5c0-1,0.3-2,0.9-2.7
			c0.8-1.1,2.1-1.8,3.6-1.8S193.3,714.7,194.1,715.8z"/>
	</g>
	<g>
		<path class="st0" d="M178.1,715.8c0.6,0.7,0.9,1.7,0.9,2.7c0,2.5-2,4.5-4.5,4.5s-4.5-2-4.5-4.5c0-1,0.3-2,0.9-2.7
			c0.8-1.1,2.1-1.8,3.6-1.8S177.3,714.7,178.1,715.8z"/>
	</g>
	<g>
		<path class="st0" d="M162.2,715.8c0.5,0.7,0.8,1.7,0.8,2.7c0,2.5-1.8,4.5-4,4.5s-4-2-4-4.5c0-1,0.3-2,0.8-2.7
			c0.7-1.1,1.9-1.8,3.2-1.8S161.5,714.7,162.2,715.8z"/>
	</g>
	<g>
		<path class="st0" d="M163,681.5c0,2.5-1.8,4.5-4,4.5s-4-2-4-4.5s1.8-4.5,4-4.5S163,679,163,681.5z"/>
	</g>
	<g>
		<path class="st4" d="M205,702.1V676h-37.3v8.7h-4.9c0.8-0.9,1.4-2.1,1.4-3.5c0-2.9-2.4-5.2-5.3-5.2s-5.3,2.3-5.3,5.2
			c0,1.6,0.7,3,1.8,3.9c-3.1,1.1-5.4,4-5.4,7.4v2.6c0,1.9,1.6,3.5,3.5,3.5v9.1c0,0.5,0.1,0.9,0.3,1.3H150v7h3.9
			c-0.2,0.5-0.3,1.1-0.3,1.7c0,1.6,0.7,3,1.8,3.9c-3.1,1.1-5.4,4-5.4,7.4v0.9h16h1.8H182h1.8h16V729c0-3.4-2.2-6.3-5.4-7.4
			c1.1-1,1.8-2.4,1.8-3.9c0-0.6-0.1-1.2-0.3-1.7h9.2v-7h-5.7l-4.3-7L205,702.1L205,702.1z M169.5,677.7h33.7v22.6h-33.7v-10.5h2.7
			c1.2,0,2.1-0.7,2.5-1.7h10.8v-8.7h-14.2v5.2h-1.8V677.7z M163.9,709.1c0.2-0.4,0.3-0.8,0.3-1.3v-17.9h3.5v12.2h10l-4.3,7H163.9z
			 M179.8,702.1h2.4l-4.3,7h-2.4L179.8,702.1z M183.7,703v6.1H180L183.7,703z M185.5,702.1h1.8v7h-1.8V702.1z M189,703l3.8,6.1H189
			V703z M174.7,686.5c-0.3-0.7-0.9-1.3-1.6-1.6v-3.6h10.6v5.2L174.7,686.5L174.7,686.5z M158.9,677.7c2,0,3.5,1.6,3.5,3.5
			s-1.6,3.5-3.5,3.5s-3.5-1.6-3.5-3.5C155.3,679.3,156.9,677.7,158.9,677.7z M155.3,707.8v-15.2h-1.8v4.4c-1,0-1.8-0.8-1.8-1.7v-2.6
			c0-3.4,2.8-6.1,6.2-6.1h14.2c0.5,0,0.9,0.4,0.9,0.9s-0.4,0.9-0.9,0.9h-9.8V708c0,0.7-0.6,1.3-1.3,1.3s-1.3-0.6-1.3-1.3v-12H158
			v11.8c0,0.7-0.6,1.3-1.3,1.3C155.9,709.1,155.3,708.5,155.3,707.8z M158.9,714.3c2,0,3.5,1.6,3.5,3.5s-1.6,3.5-3.5,3.5
			s-3.5-1.6-3.5-3.5C155.3,715.9,156.9,714.3,158.9,714.3z M151.8,728.3c0.4-3,3-5.2,6.1-5.2h1.8c3.1,0,5.7,2.3,6.1,5.2H151.8z
			 M162.4,721.7c1.1-1,1.8-2.4,1.8-3.9c0-0.6-0.1-1.2-0.3-1.7h5.9c-0.2,0.5-0.3,1.1-0.3,1.7c0,1.6,0.7,3,1.8,3.9
			c-1.9,0.7-3.5,2-4.5,3.8C165.9,723.8,164.3,722.4,162.4,721.7z M178.4,717.8c0,1.9-1.6,3.5-3.5,3.5s-3.5-1.6-3.5-3.5
			s1.6-3.5,3.5-3.5S178.4,715.9,178.4,717.8z M167.8,728.3c0.4-3,3-5.2,6.1-5.2h1.8c3.1,0,5.7,2.3,6.1,5.2H167.8z M178.3,721.7
			c1.1-1,1.8-2.4,1.8-3.9c0-0.6-0.1-1.2-0.3-1.7h5.9c-0.2,0.5-0.3,1.1-0.3,1.7c0,1.6,0.7,3,1.8,3.9c-1.9,0.7-3.5,2-4.5,3.8
			C181.9,723.8,180.3,722.4,178.3,721.7z M191.7,723c3.1,0,5.7,2.3,6.1,5.2h-14.1c0.4-3,3-5.2,6.1-5.2H191.7z M190.8,721.3
			c-2,0-3.5-1.6-3.5-3.5s1.6-3.5,3.5-3.5c2,0,3.5,1.6,3.5,3.5C194.4,719.7,192.8,721.3,190.8,721.3z M203.2,714.3h-8.5
			c-1-1.1-2.4-1.7-4-1.7s-3,0.7-4,1.7h-8.1c-1-1.1-2.4-1.7-4-1.7s-3,0.7-4,1.7h-8.1c-1-1.1-2.4-1.7-4-1.7s-3,0.7-4,1.7h-3.1v-3.5
			h51.5v3.5H203.2z M197.2,709.1h-2.4l-4.3-7h2.4L197.2,709.1z"/>
	</g>
	<g>
		<path class="st4" d="M185.2,695.6v1.7h-1.8v-6.9h-1.8v6.9H180v1.7h21v-12h-1.8v10.3h-1.8v-8.6h-1.8v8.6H194v-3.4h-1.8v3.4h-1.8
			v-5.1h-1.8v5.1H187v-1.7H185.2z"/>
	</g>
	<g>
		<path class="st4" d="M187,680h2v1h-2V680z"/>
	</g>
	<g>
		<path class="st4" d="M191,680h10v1h-10V680z"/>
	</g>
	<g>
		<path class="st4" d="M187,683h14v2h-14V683z"/>
	</g>
	<g>
		<path class="st4" d="M171,694h2v1h-2V694z"/>
	</g>
	<g>
		<path class="st4" d="M171,697h2v2h-2V697z"/>
	</g>
</g>
</svg>
