<?xml version="1.0" encoding="utf-8"?>
<!-- Generator: Adobe Illustrator 25.0.0, SVG Export Plug-In . SVG Version: 6.00 Build 0)  -->
<svg version="1.1" id="Layer_1" xmlns="http://www.w3.org/2000/svg" xmlns:xlink="http://www.w3.org/1999/xlink" x="0px" y="0px"
	 viewBox="0 0 101 100" style="enable-background:new 0 0 101 100;" xml:space="preserve">
<style type="text/css">
	.st0{fill-rule:evenodd;clip-rule:evenodd;fill:#FFE808;}
	.st1{fill:#0C2534;}
	.st2{fill-rule:evenodd;clip-rule:evenodd;fill:#B93228;}
	.st3{fill-rule:evenodd;clip-rule:evenodd;fill:#205F89;}
	.st4{fill-rule:evenodd;clip-rule:evenodd;fill:#0C2534;}
	.st5{fill-rule:evenodd;clip-rule:evenodd;fill:#FCE807;}
</style>
<g>
	<path class="st0" d="M3.5,50.5c0-26.5,21.5-48,48-48s48,21.5,48,48s-21.5,48-48,48S3.5,77,3.5,50.5z"/>
	<path class="st1" d="M51.5,100C24.2,100,2,77.8,2,50.5S24.2,1,51.5,1S101,23.2,101,50.5S78.8,100,51.5,100z M51.5,4
		C25.9,4,5,24.9,5,50.5C5,76.1,25.9,97,51.5,97S98,76.1,98,50.5C98,24.9,77.1,4,51.5,4z"/>
</g>
<g>
	<path class="st2" d="M40.3,27.1l6.2,3.1c0.4,0.2,0.6,0.7,0.4,1.2l-3.1,6.2c-0.2,0.4-0.7,0.6-1.2,0.4l-6.2-3.1
		c-0.4-0.2-0.6-0.7-0.4-1.2l3.1-6.2C39.4,27.1,39.9,26.9,40.3,27.1z"/>
</g>
<g>
	<path class="st2" d="M39,27.5c0,0-12.3-5.7-19.6,0.1c-0.3,0.2-0.4,0.5-0.3,0.8c0.1,0.3,0.3,0.5,0.7,0.6c5.7,0.3,11.2,1.7,16.3,4.1
		L39,27.5z"/>
</g>
<g>
	<path class="st2" d="M46.8,31c0,0,11.7,6.3,11.1,16.1c0,0.3-0.2,0.7-0.5,0.8s-0.6,0.1-0.8-0.2c-3.5-4.5-7.8-8.1-12.7-10.6L46.8,31z
		"/>
</g>
<g>
	<path class="st3" d="M44.3,25.2L46,26c0.9,0.4,1.3,1.5,0.8,2.4L46,30l-5-2.4l0.8-1.6C42.3,25.1,43.4,24.7,44.3,25.2z"/>
</g>
<g>
	<path class="st3" d="M37.5,35l4.5,2.2L28.7,63.6c-0.6,1.2-2.1,1.7-3.4,1.1c-1.2-0.6-1.7-2.1-1.1-3.3L37.5,35z"/>
</g>
<g>
	<path class="st4" d="M46,25.3l-1.5-0.7c-1.2-0.6-2.7-0.1-3.3,1.1l-0.4,0.7c-0.5-0.3-1.2-0.2-1.6,0.1c-2.5-1.1-12.9-5.4-19.6,0.5
		c-0.5,0.5-0.8,1.2-0.5,1.9c0.2,0.6,0.7,1,1.4,1c5.2,0.3,10.4,1.7,15.1,4.1c0,0.6,0.4,1.1,0.9,1.4L23.8,61.2
		c-0.8,1.6-0.1,3.6,1.5,4.5c1.6,0.8,3.6,0.2,4.4-1.5l12.7-25.8c0.4,0.2,0.8,0.2,1.2,0.1c0.1,0,0.2-0.1,0.4-0.2
		c4.7,2.4,8.9,5.7,12.2,9.8c0.3,0.4,0.7,0.6,1.2,0.6c0.2,0,0.3,0,0.5-0.1c0.7-0.2,1.1-0.9,1.2-1.6c0.6-8.9-9-14.9-11.4-16.2
		c0-0.1,0-0.3-0.1-0.4c-0.1-0.4-0.4-0.8-0.8-1l0.4-0.7c0.3-0.6,0.3-1.3,0.1-1.9C47,26.1,46.6,25.6,46,25.3L46,25.3z M42.7,26.4
		c0.1-0.2,0.3-0.4,0.5-0.4c0.2-0.1,0.4-0.1,0.6,0l1.5,0.8c0.2,0.1,0.3,0.3,0.4,0.5c0.1,0.2,0,0.4,0,0.6l-0.4,0.7l-2.9-1.5L42.7,26.4
		z M20.7,28.3c5.7-4.9,14.9-1.5,17.6-0.3l-2.2,4.5C31.3,30,26,28.6,20.7,28.3z M28.1,63.4c-0.3,0.5-0.8,0.9-1.4,0.9
		s-1.2-0.2-1.5-0.8c-0.3-0.5-0.4-1.1-0.1-1.7L37.8,36l1.5,0.7l1.5,0.8L28.1,63.4z M43,36.9l-0.7-0.4l-2.2-1.1l-2.9-1.5l2.9-6
		l0.7,0.4l4.4,2.2l0.7,0.4L43,36.9L43,36.9z M57.3,46.9c-3.5-4.2-7.7-7.6-12.5-10l2.2-4.5C49.6,33.9,57.8,39.3,57.3,46.9z"/>
</g>
<g>
	<path class="st5" d="M68.2,69l10.5-12.2l1.3-1.5L75.3,50L65,62.2L68.2,69z"/>
</g>
<g>
	<path class="st5" d="M76,76l9-13.7L82.8,57L73,69.2L76,76z"/>
</g>
<g>
	<path class="st5" d="M55,69l3,7l3-7H55z"/>
</g>
<g>
	<path class="st5" d="M54.9,69.1h6.3L58,76h18l-3.1-6.9l10.2-12.2h-4.4L68.3,69.1l-3.1-6.9L75.4,50H65l-6.6,6.9h-3.6L43.1,69.1
		L40,76h18L54.9,69.1z"/>
</g>
<g>
	<path class="st4" d="M42.3,68.7C42.3,68.7,42.3,68.8,42.3,68.7c-0.1,0.1-0.1,0.2-0.1,0.2l0,0l-3.1,7c-0.1,0.2-0.1,0.5,0.1,0.7
		c0.1,0.2,0.4,0.3,0.7,0.3h18h18c0.3,0,0.5-0.1,0.6-0.3l0,0l0,0l0,0l0,0l9.4-14c0.1-0.2,0.2-0.5,0.1-0.7l-2.3-5.4l0,0l0,0
		c-0.1-0.3-0.4-0.4-0.7-0.4h-2.8l0.2-0.3c0.2-0.3,0.2-0.7,0-1l-4.7-5.4l0,0c-0.1-0.2-0.4-0.3-0.6-0.3H64.9c-0.2,0-0.4,0.1-0.6,0.2
		l-6.4,6.8h-3.2c-0.2,0-0.4,0.1-0.6,0.2L42.3,68.7L42.3,68.7z M41,75.4l2.4-5.4h6.5h4.2l2.4,5.4H41z M66.8,68.4H61h-6.3h-3.5
		l1.9-4.1l0.6-1.3h10.7L66.8,68.4z M57.8,74.3L55.9,70h3.9L57.8,74.3z M59,75.4l2.4-5.4h6.5h4.2l2.4,5.4H59z M76,74.6l-2.4-5.3
		l9.1-11.1l1.7,3.9L76,74.6z M81.2,57.6l-8.9,10.9h-2.7l9.1-10.9H81.2L81.2,57.6z M77.8,56.3L77.8,56.3l-9.6,11.5l-2.4-5.4L75.1,51
		l3.7,4.2L77.8,56.3z M65.2,50.6h8.2l-8.9,10.9h-9.6L65.2,50.6z M55,57.6h1.4l-3.9,4.1l0,0c0,0,0,0.1-0.1,0.1c0,0,0,0.1-0.1,0.1l0,0
		l-2.9,6.5h-4.7L55,57.6z"/>
</g>
</svg>
