<?xml version="1.0" encoding="utf-8"?>
<!-- Generator: Adobe Illustrator 25.0.0, SVG Export Plug-In . SVG Version: 6.00 Build 0)  -->
<svg version="1.1" id="Layer_1" xmlns="http://www.w3.org/2000/svg" xmlns:xlink="http://www.w3.org/1999/xlink" x="0px" y="0px"
	 viewBox="0 0 101 100" style="enable-background:new 0 0 101 100;" xml:space="preserve">
<style type="text/css">
	.st0{fill-rule:evenodd;clip-rule:evenodd;fill:#FFE808;}
	.st1{fill:#0C2534;}
	.st2{fill-rule:evenodd;clip-rule:evenodd;fill:#B93128;}
	.st3{fill-rule:evenodd;clip-rule:evenodd;fill:#205F89;}
	.st4{fill-rule:evenodd;clip-rule:evenodd;fill:#0C2534;}
</style>
<g transform="translate(-11 -372)">
	<g>
		<path class="st0" d="M109.5,422.5c0,26.5-21.5,48-48,48c-26.5,0-48-21.5-48-48s21.5-48,48-48C88,374.5,109.5,396,109.5,422.5z"/>
		<path class="st1" d="M61.5,472C34.2,472,12,449.8,12,422.5c0-27.3,22.2-49.5,49.5-49.5c27.3,0,49.5,22.2,49.5,49.5
			C111,449.8,88.8,472,61.5,472z M61.5,376C35.9,376,15,396.9,15,422.5c0,25.6,20.9,46.5,46.5,46.5c25.6,0,46.5-20.9,46.5-46.5
			C108,396.9,87.1,376,61.5,376z"/>
	</g>
	<g>
		<path class="st2" d="M72.4,395.8c5.9,5.9,5.9,15.5,0,21.5c-5.9,5.9-15.5,5.9-21.5,0c-5.9-5.9-5.9-15.5,0-21.5
			C56.9,389.9,66.5,389.9,72.4,395.8z"/>
	</g>
	<g>
		<path class="st3" d="M52,438.5l-6-6.5l-6,6.5h2.6V450h6.8v-11.5H52z"/>
	</g>
	<g>
		<path class="st3" d="M68,432.4l-6-6.4l-6,6.4h2.6V450h6.8v-17.6H68z"/>
	</g>
	<g>
		<path class="st3" d="M83,426.5l-6-6.5l-6,6.5h2.6V450h6.8v-23.5H83z"/>
	</g>
	<g>
		<path class="st0" d="M69.3,399c4.2,4.2,4.2,11,0,15.2c-4.2,4.2-11,4.2-15.2,0s-4.2-11,0-15.2C58.3,394.8,65.1,394.8,69.3,399z"/>
	</g>
	<g>
		<path class="st4" d="M62,423c8.8,0,16-7.4,16-16.5S70.8,390,62,390s-16,7.4-16,16.5S53.2,423,62,423z M62,391.8
			c7.9,0,14.2,6.6,14.2,14.7s-6.4,14.7-14.2,14.7s-14.2-6.6-14.2-14.7S54.1,391.8,62,391.8z"/>
	</g>
	<g>
		<path class="st4" d="M61.5,418c6.3,0,11.5-5.2,11.5-11.5S67.8,395,61.5,395c-2.9,0-5.6,1.1-7.7,3c-0.4,0.3-0.4,0.9-0.1,1.2
			c0.3,0.4,0.9,0.4,1.2,0.1c1.8-1.6,4.1-2.5,6.5-2.5c5.4,0,9.8,4.4,9.8,9.8s-4.4,9.8-9.8,9.8c-5.4,0-9.8-4.4-9.8-9.8
			c0-1.6,0.4-3.2,1.2-4.6c0.2-0.4,0.1-1-0.4-1.2c-0.4-0.2-1-0.1-1.2,0.4c-0.9,1.7-1.4,3.6-1.4,5.5C50,412.8,55.2,418,61.5,418z"/>
	</g>
	<g>
		<path class="st4" d="M61.4,410.4c-1.3-0.1-1.7-0.9-1.7-1.1c-0.1-0.4-0.4-0.6-0.8-0.6c-0.5,0-0.8,0.4-0.8,0.9c0,0.1,0,0.1,0,0.2h0
			c0,0,0,0,0,0c0,0,0,0.1,0,0.1c0.2,0.4,0.8,1.8,2.6,2.2v1.1c0,0.5,0.4,0.9,0.8,0.9c0.5,0,0.8-0.4,0.8-0.9V412
			c0.8-0.1,1.3-0.5,1.7-0.8c0.6-0.6,1-1.5,1-2.5c0-0.9-0.3-2.9-3.4-3.3c-0.6-0.1-1-0.3-1.3-0.6c-0.2-0.3-0.2-0.6-0.2-0.7
			c0-0.2,0-1.5,1.4-1.5c0.9,0,1.3,0.6,1.4,0.7c0.1,0.3,0.4,0.5,0.8,0.5c0.5,0,0.8-0.4,0.8-0.9c0-0.1,0-0.3-0.1-0.4h0
			c-0.2-0.5-0.9-1.4-2-1.6v-1.2c0-0.5-0.4-0.9-0.8-0.9c-0.5,0-0.8,0.4-0.8,0.9v1.2c-1.6,0.4-2.3,2-2.3,3.1c0,1.2,0.8,2.8,3,3
			c1.9,0.2,1.9,1.2,1.9,1.6c0,0.4-0.1,0.9-0.5,1.2C62.5,410.3,62,410.4,61.4,410.4z"/>
	</g>
	<g>
		<path class="st4" d="M46.7,431.3c-0.2-0.2-0.4-0.3-0.7-0.3c-0.2,0-0.5,0.1-0.7,0.3l-6.1,6.5c-0.2,0.3-0.3,0.6-0.2,1
			c0.1,0.3,0.5,0.5,0.8,0.5h1.8v3.3c0,0.5,0.4,0.9,0.9,0.9s0.9-0.4,0.9-0.9v-4.2c0-0.5-0.4-0.9-0.9-0.9H42l4-4.3l4,4.3h-0.6
			c-0.5,0-0.9,0.4-0.9,0.9v10.8h-5.1v-3c0-0.5-0.4-0.9-0.9-0.9c-0.5,0-0.9,0.4-0.9,0.9v3.9c0,0.5,0.4,0.9,0.9,0.9h6.9
			c0.5,0,0.9-0.4,0.9-0.9v-10.8h1.8c0.4,0,0.7-0.2,0.8-0.5c0.1-0.3,0.1-0.7-0.2-1L46.7,431.3z"/>
	</g>
	<g>
		<path class="st4" d="M62.7,425.3c-0.2-0.2-0.4-0.3-0.7-0.3s-0.5,0.1-0.7,0.3l-6.1,6.5c-0.2,0.3-0.3,0.6-0.2,1
			c0.1,0.3,0.5,0.5,0.8,0.5h1.8v16.8c0,0.5,0.4,0.9,0.9,0.9h6.9c0.5,0,0.9-0.4,0.9-0.9v-16.8h1.8c0.4,0,0.7-0.2,0.8-0.5
			c0.1-0.3,0.1-0.7-0.2-1L62.7,425.3z M65.4,431.5c-0.5,0-0.9,0.4-0.9,0.9v16.8h-5.1v-16.8c0-0.5-0.4-0.9-0.9-0.9H58l4-4.3l4,4.3
			H65.4z"/>
	</g>
	<g>
		<path class="st4" d="M77.7,419.3c-0.2-0.2-0.4-0.3-0.7-0.3c-0.2,0-0.5,0.1-0.7,0.3l-6.1,6.5c-0.2,0.3-0.3,0.6-0.2,1
			c0.1,0.3,0.5,0.5,0.8,0.5h1.8v5.5c0,0.5,0.4,0.9,0.9,0.9c0.5,0,0.9-0.4,0.9-0.9v-6.4c0-0.5-0.4-0.9-0.9-0.9H73l4-4.3l4,4.3h-0.6
			c-0.5,0-0.9,0.4-0.9,0.9v22.8h-5.1v-12.7c0-0.5-0.4-0.9-0.9-0.9s-0.9,0.4-0.9,0.9v13.6c0,0.5,0.4,0.9,0.9,0.9h6.9
			c0.5,0,0.9-0.4,0.9-0.9v-22.8h1.8c0.4,0,0.7-0.2,0.8-0.5c0.1-0.3,0.1-0.7-0.2-1L77.7,419.3z"/>
	</g>
	<g>
		<path class="st4" d="M42,407c0-0.6-0.4-1-0.9-1h-5.2c-0.5,0-0.9,0.4-0.9,1s0.4,1,0.9,1h5.2C41.6,408,42,407.6,42,407z"/>
	</g>
	<g>
		<path class="st4" d="M42.7,414l-2,0.6c-0.5,0.1-0.8,0.6-0.6,0.9c0.2,0.3,0.5,0.5,0.9,0.5c0.1,0,0.2,0,0.4,0l2-0.6
			c0.5-0.1,0.8-0.6,0.6-0.9C43.7,414.1,43.2,413.9,42.7,414z"/>
	</g>
	<g>
		<path class="st4" d="M40.6,399.1l2,0.9c0.1,0.1,0.2,0.1,0.4,0.1c0.4,0,0.8-0.3,0.9-0.7c0.2-0.5-0.1-1.2-0.6-1.4l-2-0.9
			c-0.5-0.2-1.1,0.1-1.3,0.6C39.9,398.2,40.1,398.8,40.6,399.1z"/>
	</g>
	<g>
		<path class="st4" d="M87.1,406h-5.2c-0.5,0-0.9,0.4-0.9,1s0.4,1,0.9,1h5.2c0.5,0,0.9-0.4,0.9-1C88,406.4,87.6,406,87.1,406z"/>
	</g>
	<g>
		<path class="st4" d="M79.6,415.4l2,0.6c0.1,0,0.2,0,0.4,0c0.4,0,0.8-0.2,0.9-0.5c0.2-0.4-0.1-0.8-0.6-0.9l-2-0.6
			c-0.5-0.1-1.1,0-1.3,0.4C78.9,414.8,79.1,415.2,79.6,415.4z"/>
	</g>
	<g>
		<path class="st4" d="M80,400c0.1,0,0.2,0,0.4-0.1l2-0.9c0.5-0.2,0.8-0.8,0.6-1.4c-0.2-0.5-0.8-0.8-1.3-0.6l-2,0.9
			c-0.5,0.2-0.8,0.8-0.6,1.4C79.2,399.7,79.6,400,80,400z"/>
	</g>
</g>
</svg>
