<?xml version="1.0" encoding="utf-8"?>
<!-- Generator: Adobe Illustrator 25.0.0, SVG Export Plug-In . SVG Version: 6.00 Build 0)  -->
<svg version="1.1" id="Layer_1" xmlns="http://www.w3.org/2000/svg" xmlns:xlink="http://www.w3.org/1999/xlink" x="0px" y="0px"
	 viewBox="0 0 100 101" style="enable-background:new 0 0 100 101;" xml:space="preserve">
<style type="text/css">
	.st0{fill-rule:evenodd;clip-rule:evenodd;fill:#FFE808;}
	.st1{fill:#0C2534;}
	.st2{fill-rule:evenodd;clip-rule:evenodd;fill:#205F89;}
	.st3{fill-rule:evenodd;clip-rule:evenodd;fill:#B93128;}
	.st4{fill-rule:evenodd;clip-rule:evenodd;fill:#0C2534;}
</style>
<g transform="translate(35 -689)">
	<g>
		<path class="st0" d="M-32.5,739.5c0-26.5,21.5-48,48-48s48,21.5,48,48s-21.5,48-48,48S-32.5,766-32.5,739.5z"/>
		<path class="st1" d="M15.5,789c-27.3,0-49.5-22.2-49.5-49.5c0-27.3,22.2-49.5,49.5-49.5c27.3,0,49.5,22.2,49.5,49.5
			C65,766.8,42.8,789,15.5,789z M15.5,693c-25.6,0-46.5,20.9-46.5,46.5c0,25.6,20.9,46.5,46.5,46.5c25.6,0,46.5-20.9,46.5-46.5
			C62,713.9,41.1,693,15.5,693z"/>
	</g>
	<g>
		<path class="st0" d="M35.7,735l-0.2-7.6c-0.1-1.7,1.2-3.2,2.9-3.3l2.6,16.5c0,2.1-0.6,4.1-1.8,5.8l-6.4,7.8
			c-0.6,0.7-0.9,1.6-0.8,2.5l0.4,2.4l-9.2-4.4l0-0.1c-0.7-3.5,0.6-7.1,3.4-9.3l0.5-0.4c0.8-0.6,1.4-1.4,1.9-2.4l2.5-5.1
			C32.2,735.8,33.9,734.8,35.7,735z"/>
	</g>
	<g>
		<path class="st2" d="M32.3,758.8l0.7,0.4l-2.7,5.9L18,758.9l2.7-5.9l2.4,1.2L32.3,758.8z"/>
	</g>
	<g>
		<path class="st3" d="M14.5,714c6.4,0,11.5,5.1,11.5,11.5c0,6.4-5.1,11.5-11.5,11.5C8.1,737,3,731.9,3,725.5
			C3,719.2,8.1,714,14.5,714z"/>
	</g>
	<g>
		<path class="st2" d="M-3.2,758.8l9.7-4.5l2.6-1.2l2.9,5.9L-1.1,765l-2.9-5.9L-3.2,758.8z"/>
	</g>
	<g>
		<path class="st0" d="M-5.7,735c1.8-0.2,3.5,0.8,4.3,2.4l2.5,5.1c0.4,0.9,1.1,1.7,1.9,2.4l0.5,0.4c2.8,2.2,4.1,5.8,3.4,9.3l0,0.1
			l-9.2,4.4l0.4-2.4c0.1-0.9-0.2-1.8-0.8-2.5l-6.4-7.8c-1.2-1.7-1.9-3.7-1.8-5.8l2.6-16.5c1.6,0.2,2.9,1.5,2.9,3.2
			c0,0.1,0,0.1,0,0.2L-5.7,735z"/>
	</g>
	<g>
		<path class="st4" d="M39.3,723.8c-0.1-0.5-0.5-0.8-1-0.8c-2.2,0.2-3.8,2.1-3.7,4.3l0.2,6.7c-1.8,0.2-3.4,1.3-4.2,2.9l-2.5,5.2
			c-0.4,0.8-0.9,1.5-1.6,2.1l-0.5,0.4c-2.6,2.1-4.1,5.3-3.9,8.6l-1-0.5c-0.5-0.2-1,0-1.2,0.4l-2.7,5.7c-0.2,0.5,0,1,0.4,1.2
			l12.5,5.9c0.5,0.2,1,0,1.2-0.4l2.7-5.7c0.2-0.5,0-1-0.4-1.2l-0.3-0.2l-0.3-1.9c0-0.7,0.2-1.3,0.6-1.9l6.5-7.8c0,0,0,0,0,0
			c1.3-1.9,2-4.1,2-6.4c0,0,0-0.1,0-0.1L39.3,723.8z M30,763.9l-10.8-5.1l1.9-4l10.8,5.1L30,763.9z M38.5,745.7l-6.5,7.8
			c-0.7,0.9-1.1,2-1,3.2c0,0,0,0.1,0,0.1l0.1,0.7l-7.2-3.4c-0.5-3.1,0.7-6.1,3.1-8.1l0.5-0.4c0.9-0.7,1.6-1.7,2.2-2.7l2.5-5.2
			c0.6-1.3,2-2,3.4-1.9c0.1,0,0.1,0,0.2,0l-3.6,7.5c-0.1,0.3-0.1,0.6,0.1,0.9c0.2,0.3,0.5,0.4,0.8,0.4c0.3,0,0.6-0.2,0.8-0.5
			l4.1-8.5c0.2-0.5,0-1-0.4-1.2c-0.3-0.1-0.6-0.2-0.9-0.3l-0.2-6.9c0,0,0,0,0,0c0-0.9,0.4-1.7,1.2-2.2l2.5,15.5
			C40.2,742.4,39.6,744.2,38.5,745.7L38.5,745.7z"/>
	</g>
	<g>
		<path class="st4" d="M-10,746.9l6.5,7.8c0.4,0.5,0.7,1.2,0.6,1.9l-0.3,1.9l-0.3,0.2c-0.5,0.2-0.7,0.8-0.4,1.2l2.7,5.7
			c0.2,0.5,0.8,0.6,1.2,0.4l12.5-5.9c0.5-0.2,0.7-0.8,0.4-1.2l-2.7-5.7c-0.2-0.5-0.8-0.6-1.2-0.4l-1,0.5c0.2-3.3-1.3-6.5-3.9-8.6
			l-0.5-0.4c-0.7-0.6-1.3-1.3-1.6-2.1l-2.5-5.2c-0.8-1.6-2.4-2.7-4.2-2.9l0.2-6.7c0-0.1,0-0.1,0-0.2c0-2.1-1.6-3.9-3.7-4.1
			c-0.5,0-0.9,0.3-1,0.8l-2.6,16.6c0,0,0,0.1,0,0.1C-12,742.8-11.3,745-10,746.9C-10,746.9-10,746.9-10,746.9z M10.9,758.7L0,763.9
			l-1.9-4l10.8-5.1L10.9,758.7z M-7.7,725.1c0.8,0.4,1.3,1.2,1.2,2c0,0,0,0.1,0,0.1v0l-0.2,6.9c-0.3,0.1-0.6,0.2-0.9,0.3
			c-0.5,0.2-0.7,0.8-0.4,1.2l4.1,8.5c0.1,0.3,0.4,0.5,0.8,0.5c0.3,0,0.6-0.1,0.8-0.4c0.2-0.3,0.2-0.6,0.1-0.9l-3.6-7.5
			c0.1,0,0.1,0,0.2,0c1.4-0.1,2.8,0.6,3.4,1.9l2.5,5.2c0.5,1,1.2,2,2.2,2.7l0.5,0.4c2.4,1.9,3.6,5,3.1,8.1l-7.2,3.4l0.1-0.7
			c0,0,0-0.1,0-0.1c0.1-1.2-0.3-2.3-1-3.2l-6.5-7.8c-1.1-1.5-1.7-3.3-1.6-5.2L-7.7,725.1z"/>
	</g>
	<g>
		<path class="st4" d="M14.5,738c6.9,0,12.5-5.6,12.5-12.5c0-6.9-5.6-12.5-12.5-12.5C7.6,713,2,718.6,2,725.5
			C2,732.4,7.6,738,14.5,738z M14.5,714.8c5.9,0,10.7,4.8,10.7,10.7c0,5.9-4.8,10.7-10.7,10.7c-5.9,0-10.7-4.8-10.7-10.7
			C3.8,719.6,8.6,714.8,14.5,714.8z"/>
	</g>
	<g>
		<path class="st4" d="M14,728h5.1c0.5,0,0.9-0.4,0.9-1c0-0.5-0.4-1-0.9-1h-4.3V720c0-0.5-0.4-1-0.9-1c-0.5,0-0.9,0.4-0.9,1v7.1
			C13,727.6,13.5,728,14,728z"/>
	</g>
</g>
</svg>
