<?xml version="1.0" encoding="utf-8"?>
<!-- Generator: Adobe Illustrator 25.0.0, SVG Export Plug-In . SVG Version: 6.00 Build 0)  -->
<svg version="1.1" id="Layer_1" xmlns="http://www.w3.org/2000/svg" xmlns:xlink="http://www.w3.org/1999/xlink" x="0px" y="0px"
	 viewBox="0 0 101 100" style="enable-background:new 0 0 101 100;" xml:space="preserve">
<style type="text/css">
	.st0{fill:none;}
	.st1{fill-rule:evenodd;clip-rule:evenodd;fill:#FFE808;}
	.st2{fill:#0C2534;}
	.st3{fill-rule:evenodd;clip-rule:evenodd;fill:#0C2534;}
	.st4{fill-rule:evenodd;clip-rule:evenodd;fill:#205F89;}
	.st5{fill-rule:evenodd;clip-rule:evenodd;fill:#B93128;}
</style>
<g>
	<rect y="0" class="st0" width="101" height="100"/>
</g>
<g transform="translate(27 -970)">
	<g>
		<path class="st1" d="M-24.5,1020.5c0-26.5,21.5-48,48-48s48,21.5,48,48s-21.5,48-48,48S-24.5,1047-24.5,1020.5z"/>
		<path class="st2" d="M23.5,1070c-27.3,0-49.5-22.2-49.5-49.5c0-27.3,22.2-49.5,49.5-49.5c27.3,0,49.5,22.2,49.5,49.5
			C73,1047.8,50.8,1070,23.5,1070z M23.5,974c-25.6,0-46.5,20.9-46.5,46.5c0,25.6,20.9,46.5,46.5,46.5c25.6,0,46.5-20.9,46.5-46.5
			C70,994.9,49.1,974,23.5,974z"/>
	</g>
	<g>
		<path class="st3" d="M56,1000.8c-0.1-0.2-0.2-0.4-0.4-0.4l-4.5-1.9l-7.5-7.3c-0.4-0.4-0.9-0.6-1.5-0.7L30.3,989
			c-1.6-0.2-3,0.8-3.2,2.3c-0.2,1.4,0.7,2.8,2.1,3.2l7.1,1.8c-0.1,0.1-0.1,0.2-0.1,0.3c-0.4,0.9-0.1,2,0.6,2.7l4.3,4.2
			c0.4,0.4,0.9,0.6,1.4,0.7l4.6,0.7l4,2.8c0.1,0.1,0.3,0.1,0.4,0.1c0.1,0,0.1,0,0.2,0c0.2,0,0.4-0.2,0.5-0.3l3.7-6.2
			C56,1001.3,56,1001,56,1000.8L56,1000.8z"/>
	</g>
	<g>
		<path class="st4" d="M51.2,1006l-2.9-2.1l1.2-2c0.2-0.3,0.1-0.8-0.2-1c-0.3-0.2-0.8-0.1-1,0.2l-1.3,2.1l-4.2-0.7
			c-0.2,0-0.4-0.1-0.6-0.3l-4.2-4.3c-0.3-0.3-0.4-0.7-0.3-1.1l0-0.1c0-0.1,0.2-0.5,0.5-0.6c0.1,0,0.1,0,0.2,0c0.2,0,0.6,0.1,0.9,0.3
			c0.4,0.2,0.8,0.6,1.1,0.9c0.2,0.2,0.3,0.3,0.4,0.4c0.3,0.3,0.8,0.2,1-0.1c0.3-0.3,0.2-0.8-0.1-1c-0.1-0.1-0.3-0.2-0.4-0.4
			c-0.4-0.4-0.9-0.8-1.3-1.1c-0.8-0.5-1.6-0.7-2.3-0.5l-7.9-2.1c-0.7-0.2-1.1-0.8-1-1.5c0.1-0.7,0.8-1.2,1.5-1.1l11.5,1.5
			c0.2,0,0.4,0.1,0.6,0.3l7.4,7.6c0.1,0.1,0.1,0.1,0.2,0.2l3.7,1.6L51.2,1006z"/>
	</g>
	<g>
		<path class="st3" d="M27.5,1039c-0.2,0-0.4-0.1-0.5-0.2l-4.8-4.9c-0.2-0.2-0.3-0.5-0.2-0.8c0.1-0.3,0.4-0.4,0.7-0.4h1.7v-8.9
			c0-0.4,0.3-0.7,0.7-0.7h4.8c0.4,0,0.7,0.3,0.7,0.7v8.9h1.7c0.3,0,0.5,0.2,0.7,0.4c0.1,0.3,0,0.6-0.2,0.8l-4.8,4.9
			C27.9,1038.9,27.7,1039,27.5,1039L27.5,1039z"/>
	</g>
	<g>
		<path class="st4" d="M24,1033.8l3.5,3.2l3.5-3.2h-0.8c-0.4,0-0.8-0.3-0.8-0.7v-9h-3.8v9c0,0.4-0.4,0.7-0.8,0.7H24z"/>
	</g>
	<g>
		<path class="st3" d="M43.9,1022.8c-0.1-0.2-0.4-0.4-0.6-0.4h-9.3c-0.4,0-0.7,0.3-0.7,0.8c0,0.4,0.3,0.8,0.7,0.8h3.4l-3.4,13.6
			l-6.4,6.4l-6.5-6.4l-3.4-13.6h3c0.4,0,0.7-0.3,0.7-0.8c0-0.4-0.3-0.8-0.7-0.8H5.7v-26.7c0-0.4-0.3-0.7-0.7-0.7h-5.2
			c-0.4,0-0.7,0.3-0.7,0.7v56.5c0,0.4,0.3,0.8,0.7,0.8h5.2c0.4,0,0.7-0.3,0.7-0.8V1024h5.5c4.1,9,6.9,18.5,8.2,28.4
			c0,0.3,0.2,0.5,0.5,0.6c0.3,0.1,0.6,0,0.8-0.1l3.3-3l3,3c0.3,0.3,0.7,0.3,1,0l3.1-3l3.3,3c0.1,0.1,0.3,0.2,0.5,0.2
			c0.1,0,0.2,0,0.3-0.1c0.3-0.1,0.4-0.3,0.5-0.6c1.3-10,4.1-19.7,8.4-28.8C44,1023.3,44,1023.1,43.9,1022.8L43.9,1022.8z"/>
	</g>
	<g>
		<path class="st4" d="M1,997h3v54H1V997z"/>
	</g>
	<g>
		<path class="st1" d="M37.9,1027l1.1,4.1c-1,2.6-1.9,5.2-2.7,7.9l-1.3-1.2L37.9,1027z"/>
	</g>
	<g>
		<path class="st1" d="M35.3,1044l-3.3-2.6l2.4-2.4l1.6,1.7C35.7,1041.8,35.5,1042.9,35.3,1044L35.3,1044z"/>
	</g>
	<g>
		<path class="st1" d="M31.2,1042l2.8,3l-2.8,3l-2.2-3L31.2,1042z"/>
	</g>
	<g>
		<path class="st1" d="M23.4,1048l-3.4-3l3.4-3l2.6,3L23.4,1048z"/>
	</g>
	<g>
		<path class="st1" d="M19,1040.7l1.6-1.7l2.4,2.4l-3.3,2.6C19.5,1042.9,19.3,1041.8,19,1040.7z"/>
	</g>
	<g>
		<path class="st1" d="M18.7,1039c-0.8-2.7-1.7-5.3-2.7-7.9l1.1-4.1l2.9,10.8L18.7,1039z"/>
	</g>
	<g>
		<path class="st1" d="M16,1024l-1.1,5c-0.6-1.7-1.2-3.3-1.9-5H16z"/>
	</g>
	<g>
		<path class="st1" d="M20,1047l3,2.1l-2.3,1.9C20.5,1049.7,20.3,1048.3,20,1047z"/>
	</g>
	<g>
		<path class="st1" d="M27.5,1051l-2.5-2.4l2.5-2.6l2.5,2.6L27.5,1051z"/>
	</g>
	<g>
		<path class="st1" d="M34.3,1051l-2.3-1.9l3-2.1C34.7,1048.3,34.5,1049.7,34.3,1051z"/>
	</g>
	<g>
		<path class="st1" d="M40.1,1029l-1.1-5h3C41.3,1025.7,40.7,1027.3,40.1,1029z"/>
	</g>
	<g>
		<path class="st3" d="M39,1009.5c0,6.3-5.1,11.5-11.5,11.5s-11.5-5.2-11.5-11.5S21.1,998,27.5,998S39,1003.2,39,1009.5z"/>
	</g>
	<g>
		<path class="st5" d="M27,1010v10c-2.3-0.2-4.4-1.1-6-2.5c1.9-2.1,2.9-4.8,3.1-7.5H27L27,1010z"/>
	</g>
	<g>
		<path class="st5" d="M28,1010h2.9c0.2,2.7,1.2,5.3,3.1,7.5c-1.6,1.4-3.7,2.3-6,2.5V1010z"/>
	</g>
	<g>
		<path class="st5" d="M28,1009v-9c2.3,0.2,4.4,1,6,2.2c-1.9,1.9-2.9,4.3-3.1,6.8H28L28,1009z"/>
	</g>
	<g>
		<path class="st5" d="M27,1009h-2.9c-0.2-2.4-1.2-4.8-3.1-6.8c1.6-1.3,3.7-2.1,6-2.2V1009z"/>
	</g>
	<g>
		<path class="st5" d="M19.5,1016c-1.4-1.6-2.3-3.7-2.5-6h5C21.8,1012.2,21,1014.3,19.5,1016z"/>
	</g>
	<g>
		<path class="st5" d="M35.5,1016c-1.5-1.7-2.3-3.8-2.5-6h5C37.8,1012.3,36.9,1014.4,35.5,1016z"/>
	</g>
	<g>
		<path class="st5" d="M38,1009h-5c0.2-2.2,1-4.3,2.5-6C36.9,1004.6,37.8,1006.7,38,1009z"/>
	</g>
	<g>
		<path class="st5" d="M19.5,1003c1.5,1.7,2.3,3.8,2.5,6h-5C17.2,1006.7,18.1,1004.6,19.5,1003z"/>
	</g>
</g>
</svg>
