<?xml version="1.0" encoding="utf-8"?>
<!-- Generator: Adobe Illustrator 25.0.0, SVG Export Plug-In . SVG Version: 6.00 Build 0)  -->
<svg version="1.1" id="Layer_1" xmlns="http://www.w3.org/2000/svg" xmlns:xlink="http://www.w3.org/1999/xlink" x="0px" y="0px"
	 viewBox="0 0 101 101" style="enable-background:new 0 0 101 101;" xml:space="preserve">
<style type="text/css">
	.st0{fill-rule:evenodd;clip-rule:evenodd;fill:#FFE808;}
	.st1{fill:#0C2534;}
	.st2{fill-rule:evenodd;clip-rule:evenodd;fill:#205F89;}
	.st3{fill-rule:evenodd;clip-rule:evenodd;fill:#B93128;}
	.st4{fill-rule:evenodd;clip-rule:evenodd;fill:#0C2534;}
</style>
<g transform="translate(-40 -318)">
	<g>
		<path class="st0" d="M42.5,369.5c0-26.5,21.5-48,48-48c26.5,0,48,21.5,48,48s-21.5,48-48,48C64,417.5,42.5,396,42.5,369.5z"/>
		<path class="st1" d="M90.5,419C63.2,419,41,396.8,41,369.5c0-27.3,22.2-49.5,49.5-49.5c27.3,0,49.5,22.2,49.5,49.5
			C140,396.8,117.8,419,90.5,419z M90.5,323C64.9,323,44,343.9,44,369.5c0,25.6,20.9,46.5,46.5,46.5c25.6,0,46.5-20.9,46.5-46.5
			C137,343.9,116.1,323,90.5,323z"/>
	</g>
	<g>
		<path class="st2" d="M79.8,343H101v34H71v-25.5L79.8,343z"/>
	</g>
	<g>
		<path class="st2" d="M80,349.4v1.6h-9l9-8V349.4z"/>
	</g>
	<g>
		<path class="st0" d="M97,353v15c0-0.7-0.2-1.3-0.6-1.8c-0.4-0.5-0.9-0.7-1.5-0.7c-0.3,0-0.6,0.1-0.9,0.2V353H97z"/>
	</g>
	<g>
		<path class="st0" d="M87,360h3v9h-3V360z"/>
	</g>
	<g>
		<path class="st0" d="M83,355v14h-2c-0.2-0.6-0.6-1.2-1-1.7V355H83z"/>
	</g>
	<g>
		<path class="st2" d="M69.2,394H65v-8.5c0-4.4,3.3-8.1,7.6-8.5c0,1.9,1.5,3.4,3.4,3.4c1.9,0,3.4-1.5,3.4-3.4c0-0.1,0-0.3,0-0.4
			c2.3-0.4,4.5-1.6,6.2-3.3l4.8-4.9l2.7-2.7c0.2-0.2,0.4-0.4,0.7-0.5c0.3-0.1,0.6-0.2,1-0.2c0.7,0,1.3,0.3,1.7,0.7
			c0.4,0.4,0.7,1,0.7,1.7c0,0.6-0.3,1.3-0.7,1.7l-7.7,7.8l-5.2,5.3c-0.4,0.5-0.7,1.1-0.7,1.7V394H69.2z"/>
	</g>
	<g>
		<path class="st0" d="M75.5,377.4c0.6,0,1.1-0.1,1.6-0.2l1.3-0.1c0.2,0,0.4-0.1,0.5-0.1c0,0.1,0,0.3,0,0.4c0,2-1.6,3.6-3.5,3.6
			c-1.9,0-3.5-1.6-3.5-3.6c0.3,0,0.6,0,0.9,0l1.6-0.1C74.8,377.4,75.2,377.4,75.5,377.4z"/>
	</g>
	<g>
		<path class="st0" d="M81.4,368.5c0.4,0.8,0.6,1.7,0.6,2.6c0,2.8-1.9,5.1-4.4,5.8L75,377c-2.9-0.5-5-3-5-6c0-1.7,0.7-3.1,1.7-4.2
			c1.1-1.1,2.6-1.8,4.3-1.8s3.2,0.7,4.3,1.8C80.7,367.3,81.1,367.8,81.4,368.5z"/>
	</g>
	<g>
		<path class="st3" d="M116,369v6h-8v-3v-3H116z"/>
	</g>
	<g>
		<path class="st3" d="M116,357v6h-8v-3v-3H116z"/>
	</g>
	<g>
		<path class="st3" d="M116,344v7h-8v-3.5V344H116z"/>
	</g>
	<g>
		<path class="st4" d="M117,352.3v-8.5h-10.3v3.4h-3.4v12h-1.7V342H79.9l-9,9v15.5c-1.1,1.2-1.7,2.8-1.7,4.5c0,2.1,1,4,2.5,5.3
			c-4.3,0.8-7.7,4.6-7.7,9.2v9.4h19.7v-11c0-0.4,0.2-0.8,0.5-1.1l5-5h12.5v-17.1h1.7v12h3.4v3.4H117v-8.5h-10.3v3.4H105v-10.3h1.7
			v3.4H117v-8.5h-10.3v3.4H105v-10.3h1.7v3.4H117z M108.5,345.4h6.8v5.1h-6.8V345.4z M79.4,344.9v5.6h-5.6L79.4,344.9z M70.8,371.1
			c0-2.8,2.3-5.1,5.1-5.1c2.8,0,5.1,2.3,5.1,5.1c0,2.8-2.3,5.1-5.1,5.1C73.1,376.2,70.8,373.9,70.8,371.1z M78.5,377.4
			c-0.2,1.2-1.2,2.2-2.5,2.2s-2.3-1-2.5-2.2c0.8,0.3,1.6,0.5,2.5,0.5C76.9,377.9,77.7,377.7,78.5,377.4z M82.9,381.7
			c-0.6,0.6-1,1.4-1,2.3v9.3H70V383h-1.7v10.3h-2.6v-7.7c0-3.7,2.6-6.8,6.1-7.5c0.5,1.9,2.1,3.3,4.1,3.3c2.3,0,4.1-1.8,4.2-4
			c2.3-0.6,4.4-1.7,6-3.4l4.6-4.6l0.5-0.5l2.5-2.5c0.3-0.3,0.7-0.5,1.1-0.5c0.9,0,1.6,0.7,1.6,1.6c0,0.4-0.2,0.8-0.5,1.1L82.9,381.7
			z M89.6,367.6h-1.7v-6.8h1.7V367.6z M94.8,364.2V354h1.7v10.7c-0.5-0.3-1-0.4-1.6-0.4C94.9,364.2,94.8,364.2,94.8,364.2z
			 M99.9,376.2h-9l6.4-6.4c0.6-0.6,1-1.4,1-2.3v-15.2h-5.1v12.6c-0.2,0.1-0.3,0.2-0.5,0.4l-1.3,1.3v-7.3h-5.1v10.3h2.2l-3.4,3.4
			c-1,1-2.3,1.8-3.6,2.4c0.9-1.1,1.4-2.6,1.4-4.1c0-0.6-0.1-1.2-0.2-1.7h1.9V354h-5.1v11.2c-1-0.6-2.2-0.9-3.4-0.9
			c-1.2,0-2.4,0.3-3.4,0.9v-12.9h8.5v-8.5h18.8V376.2z M81.1,366.6v-10.9h1.7v12h-0.9C81.7,367.3,81.4,366.9,81.1,366.6z
			 M108.5,369.4h6.8v5.1h-6.8V369.4z M108.5,357.4h6.8v5.1h-6.8V357.4z"/>
	</g>
	<g>
		<path class="st4" d="M110,347h4v2h-4V347z"/>
	</g>
	<g>
		<path class="st4" d="M110,359h4v2h-4V359z"/>
	</g>
	<g>
		<path class="st4" d="M110,371h4v2h-4V371z"/>
	</g>
	<g>
		<path class="st4" d="M96,345h2v2h-2V345z"/>
	</g>
	<g>
		<path class="st4" d="M93,345h2v2h-2V345z"/>
	</g>
	<g>
		<path class="st4" d="M83,345h8v2h-8V345z"/>
	</g>
	<g>
		<path class="st4" d="M83,349h15v1H83V349z"/>
	</g>
	<g>
		<path class="st4" d="M74,354h2v2h-2V354z"/>
	</g>
	<g>
		<path class="st4" d="M74,357h2v2h-2V357z"/>
	</g>
	<g>
		<path class="st4" d="M74,361h2v2h-2V361z"/>
	</g>
</g>
</svg>
