<?xml version="1.0" encoding="utf-8"?>
<!-- Generator: Adobe Illustrator 25.0.0, SVG Export Plug-In . SVG Version: 6.00 Build 0)  -->
<svg version="1.1" id="Layer_1" xmlns="http://www.w3.org/2000/svg" xmlns:xlink="http://www.w3.org/1999/xlink" x="0px" y="0px"
	 viewBox="0 0 101 101" style="enable-background:new 0 0 101 101;" xml:space="preserve">
<style type="text/css">
	.st0{fill:none;}
	.st1{fill-rule:evenodd;clip-rule:evenodd;fill:#FFE808;}
	.st2{fill:#0C2534;}
	.st3{fill-rule:evenodd;clip-rule:evenodd;fill:#205F89;}
	.st4{fill-rule:evenodd;clip-rule:evenodd;fill:#0C2534;}
	.st5{fill-rule:evenodd;clip-rule:evenodd;fill:#231F20;}
	.st6{fill-rule:evenodd;clip-rule:evenodd;fill:#B93128;}
</style>
<g>
	<rect y="0" class="st0" width="101" height="101"/>
</g>
<g transform="translate(37 -318)">
	<g>
		<path class="st1" d="M-33.5,369.5c0-26.5,21.5-48,48-48s48,21.5,48,48s-21.5,48-48,48S-33.5,396-33.5,369.5z"/>
		<path class="st2" d="M14.5,419c-27.3,0-49.5-22.2-49.5-49.5c0-27.3,22.2-49.5,49.5-49.5c27.3,0,49.5,22.2,49.5,49.5
			C64,396.8,41.8,419,14.5,419z M14.5,323c-25.6,0-46.5,20.9-46.5,46.5c0,25.6,20.9,46.5,46.5,46.5c25.6,0,46.5-20.9,46.5-46.5
			C61,343.9,40.1,323,14.5,323z"/>
	</g>
	<g>
		<path class="st3" d="M14.1,377L14.1,377c0-0.2,0-0.3,0-0.5c0-0.1,0-0.2,0-0.3c0-0.2,0-0.3,0-0.4c0-0.1,0-0.2,0-0.3
			c0-0.1,0-0.2,0.1-0.2c0.2-0.5,0.4-0.8,1-0.8c0.1,0,0.1,0,0.2,0c0.2,0.1,0.3,0.2,0.4,0.3c0,0.1,0.1,0.1,0.1,0.2l-0.9-2.1l-0.9-2.1
			c-0.2-0.5,0-1.1,0.5-1.4c0.1,0,0.1,0,0.2-0.1c-1.5-0.9-3.3-0.9-4.8,0c-0.9-1.4-2.4-2.3-4.1-2.3H3.7c-2.3,0-4.5,0.9-6.1,2.6
			c0.2,0.2,0.3,0.4,0.3,0.7v0c0,0.1,0,0.3-0.1,0.4l-1.8,4.2c0.1-0.3,0.4-0.4,0.7-0.5c1.2-0.1,1.2,1.5,1.2,2.8c0,0.1,0,0.2,0,0.3
			c0,0.1,0,0.2,0,0.3l0,0c0.1-0.1,0.2-0.1,0.4-0.1c1.5,0.3,6,0.9,9-2.9c0.2-0.2,0.4-0.2,0.6-0.1c0,0,0,0,0,0c0.7,0.7,2.5,2,5.9,2.1
			C14,376.9,14,376.9,14.1,377z"/>
	</g>
	<g>
		<path class="st3" d="M23.7,403.7L23.7,403.7c1.9-0.8,2.8-2.9,2-4.8l0,0l-5.9-14.6c-0.1-0.2-0.4-0.4-0.6-0.2l-5.9,2.4
			c-0.2,0.1-0.4,0.4-0.3,0.6l5.9,14.6C19.7,403.6,21.8,404.5,23.7,403.7L23.7,403.7z"/>
	</g>
	<g>
		<path class="st3" d="M-12.5,403.7L-12.5,403.7c-2-0.8-3-2.9-2.2-4.8l0,0l6.3-14.6c0.1-0.2,0.4-0.4,0.6-0.2l6.4,2.4
			c0.3,0.1,0.4,0.4,0.3,0.6l-6.3,14.6C-8.2,403.6-10.5,404.5-12.5,403.7L-12.5,403.7z"/>
	</g>
	<g>
		<path class="st3" d="M18.3,401.9l-2.5-6.4L13,395l-1.9,5.9c-0.2,0.4-0.6,0.6-0.9,0.4c-0.1,0-0.2-0.1-0.3-0.2l-2.5-3.2l0,0
			c-0.1,0.3-0.4,0.5-0.7,0.5H3.9c-0.3,0-0.5-0.1-0.7-0.4L0.9,401c-0.3,0.3-0.7,0.4-1,0.1c-0.1-0.1-0.2-0.2-0.2-0.3l-1.9-5.9
			l-3.3,0.6l-2.4,6.3c-0.5,1.3-1.7,2.2-3,2.4l6.1-0.5c0.3,0,0.6,0.2,0.6,0.6c0,0,0,0,0,0.1v3.9c0,0.4,0.3,0.7,0.7,0.7l0,0h17.9
			c0.4,0,0.7-0.3,0.7-0.7l0,0v-3.9c0-0.3,0.3-0.6,0.6-0.6c0,0,0,0,0.1,0l5.3,0.5C19.8,403.9,18.8,403.1,18.3,401.9z"/>
	</g>
	<g>
		<path class="st1" d="M13,386.8c-0.1-0.3,0-0.5,0.3-0.6l0,0h0l-0.2-0.6l-0.3-0.9c-0.1-0.3,0-0.5,0.3-0.6l0,0
			c-0.1-0.4-0.3-0.8-0.3-1.2c0-0.2-0.1-0.4-0.1-0.6l0,0c0-0.1,0-0.2,0-0.3c0-0.3,0-0.5,0.1-0.8c0-0.1,0-0.2,0.1-0.3
			c0.1-0.3,0.2-0.5,0.3-0.8c0.1-0.3,0.3-0.7,0.4-1.1c0-0.1,0.1-0.2,0.1-0.2c0.1-0.3,0.2-0.6,0.3-0.9c0.1-0.3,0.2-0.7,0.2-1
			c0-0.2,0-0.3,0-0.5c0,0,0,0,0,0c0,0-0.1,0-0.1,0c-3.4-0.1-5.2-1.5-5.9-2.2c-0.2-0.2-0.4-0.2-0.6,0c0,0,0,0,0,0c-3,3.9-7.5,3.4-9,3
			c-0.1,0-0.3,0-0.3,0.1c0.1,0.9,0.6,2,0.9,2.8c0.2,0.4,0.3,0.8,0.3,1.2c0,0.1,0,0.2,0,0.2c0,0.1,0,0.1,0,0.2c0,0.2,0,0.3,0,0.5l0,0
			c0,0.4-0.1,0.8-0.2,1.2c-0.1,0.2-0.1,0.4-0.2,0.6l0,0c0.3,0.1,0.4,0.4,0.3,0.6l0,0l-0.6,1.5h0c0.2,0.1,0.3,0.4,0.3,0.6l-0.3,1.1
			c1.3,3.1,4.3,5.1,7.6,5.2l0,0c3.2,0,6.1-1.9,7.5-4.9L13,386.8z"/>
	</g>
	<g>
		<path class="st3" d="M12.3,384.1l5.4-2c0.3-0.1,0.5,0,0.6,0.2l0.6,1.4l-6.4,2.4l-0.6-1.4C11.9,384.4,12.1,384.2,12.3,384.1
			L12.3,384.1z"/>
	</g>
	<g>
		<path class="st3" d="M13,394.9l-1.7,5.7c-0.1,0.4-0.5,0.5-0.8,0.4c-0.1,0-0.2-0.1-0.3-0.2L8,397.6l1.6-3.6L13,394.9z"/>
	</g>
	<g>
		<path class="st3" d="M0.1,400.6c0.2,0.4,0.6,0.5,1,0.4c0.1,0,0.2-0.1,0.3-0.2l2.6-3c0,0,0-0.1-0.1-0.1L2.2,394l0,0l-4.2,0.9l0,0
			L0.1,400.6z"/>
	</g>
	<g>
		<path class="st3" d="M-1.3,384.1l-5.4-2c-0.3-0.1-0.5,0-0.6,0.2l-0.6,1.4l6.4,2.4l0.6-1.4C-0.9,384.4-1.1,384.2-1.3,384.1
			L-1.3,384.1z"/>
	</g>
	<g>
		<path class="st1" d="M12.4,380.3c0.4-0.9,1-2.2,1-3.1c0.1-1.4-0.1-3.1,1.3-3.1c0.3,0,0.6,0.2,0.8,0.5l-1.9-4.1
			c-0.3-0.5,0-1.1,0.6-1.4c0.5-0.2,1.2,0,1.4,0.4l2.5,4c0.8,1.5,1,3.2,0.5,4.8l-1,2.8c-0.1,0.3-0.1,0.6,0,0.9l-5.3,2
			c-0.2-0.5-0.4-1.1-0.4-1.7l0,0C12,381.6,12.1,380.9,12.4,380.3z"/>
	</g>
	<g>
		<path class="st1" d="M5.9,392.9L5.9,392.9c-1.3,0-2.7-0.3-3.9-0.8v2.2l1.7,3.3c0.1,0.3,0.4,0.4,0.8,0.4h2.9c0.3,0,0.6-0.2,0.8-0.4
			l1.9-3.3V392C8.7,392.6,7.3,392.9,5.9,392.9z"/>
	</g>
	<g>
		<path class="st1" d="M-1.4,380.3c-0.4-0.9-0.9-2.2-0.9-3.1c-0.1-1.4,0.1-3.1-1.1-3.1c-0.3,0-0.5,0.2-0.7,0.5l1.6-4.1
			c0.2-0.5,0-1.1-0.5-1.4c-0.5-0.2-1,0-1.2,0.4l-2.2,4c-0.7,1.5-0.9,3.2-0.4,4.8l0.8,2.8c0.1,0.3,0.1,0.6,0,0.9l4.5,2
			c0.2-0.5,0.3-1.1,0.4-1.7l0,0C-1,381.6-1.1,380.9-1.4,380.3z"/>
	</g>
	<g>
		<path class="st4" d="M16.1,368c-0.3,0-0.5-0.2-0.5-0.5c0-0.1,0-0.2,0.1-0.3l1.8-2l-1.9-0.1c-0.3,0-0.5-0.2-0.5-0.5
			c0-0.1,0-0.2,0.1-0.2l2.8-4.2c0.1-0.2,0.5-0.3,0.7-0.2c0.3,0.1,0.3,0.4,0.2,0.6c0,0,0,0,0,0l-2.3,3.5l2.1,0.1
			c0.3,0,0.5,0.2,0.5,0.5c0,0.1,0,0.2-0.1,0.3l-2.4,2.8C16.4,367.9,16.2,368,16.1,368z"/>
	</g>
	<g>
		<path class="st4" d="M12.6,367c-0.3,0-0.5-0.2-0.5-0.5c0-0.1,0-0.1,0-0.2l0.6-1.7l-1.2,0.3c-0.2,0.1-0.5-0.1-0.6-0.3
			c0-0.1,0-0.2,0-0.2l0.9-4c0.1-0.3,0.3-0.4,0.5-0.4c0.3,0.1,0.4,0.3,0.4,0.6v0l-0.7,3.2l1.3-0.4c0.2-0.1,0.5,0.1,0.6,0.3
			c0,0.1,0,0.2,0,0.3l-0.9,2.6C13,366.9,12.8,367,12.6,367z"/>
	</g>
	<g>
		<path class="st4" d="M19.5,371c-0.3,0-0.5-0.2-0.5-0.5c0-0.2,0.1-0.4,0.3-0.4l1.5-0.6l-1.1-0.7c-0.2-0.1-0.3-0.4-0.2-0.7
			c0-0.1,0.1-0.1,0.2-0.2l3.5-1.9c0.2-0.1,0.5,0,0.7,0.2c0.1,0.2,0,0.5-0.2,0.6l-2.7,1.5l1.1,0.7c0.2,0.1,0.3,0.4,0.2,0.7
			c-0.1,0.1-0.1,0.2-0.2,0.2l-2.4,1C19.6,371,19.6,371,19.5,371z"/>
	</g>
	<g>
		<path class="st4" d="M0,378c-0.7,0-1.5-0.1-2.2-0.2c-0.2,0.2-0.5,0.1-0.7-0.1c0-0.1-0.1-0.1-0.1-0.2v0c0-0.1,0-0.3,0-0.4
			c0-0.1,0-0.2,0-0.3v-0.3c0-0.7,0-1.7-0.4-2c-0.1-0.1-0.2-0.1-0.4-0.1c-0.1,0-0.2,0-0.3,0.3c-0.1,0.2-0.4,0.3-0.7,0.2
			c-0.2-0.1-0.3-0.4-0.2-0.6l1.8-4.2c0-0.1,0-0.1,0-0.2c0,0,0,0,0,0c0,0,0-0.1,0-0.1c0-0.1-0.1-0.2-0.1-0.3c-0.2-0.2-0.2-0.5,0-0.7
			c1.7-1.7,4-2.7,6.5-2.7h2.4c1.7,0,3.2,0.8,4.2,2.2c1.6-0.8,3.4-0.7,4.9,0.2c0.2,0.1,0.3,0.4,0.2,0.7c-0.1,0.1-0.2,0.2-0.3,0.2
			c0,0-0.1,0-0.1,0c-0.1,0.1-0.3,0.2-0.3,0.3c0,0,0,0.1,0,0.1c0,0.1,0,0.2,0,0.3l1.8,4.2c0.1,0.3,0,0.5-0.3,0.6
			c-0.2,0.1-0.5,0-0.6-0.2c0,0,0-0.1-0.1-0.1c0-0.1-0.1-0.1-0.2-0.1c0,0,0,0-0.1,0c-0.3,0-0.4,0.1-0.5,0.4c0,0.1,0,0.1,0,0.2
			c0,0.1,0,0.2,0,0.2c0,0.1,0,0.3,0,0.4c0,0.1,0,0.2,0,0.3c0,0.2,0,0.3,0,0.5c0,0.2-0.1,0.3-0.2,0.4c-0.1,0.1-0.3,0.1-0.4,0.1
			c-3.5-0.1-5.4-1.4-6.3-2.3C5,377.4,2.1,378,0,378z M-2.1,376.8L-2.1,376.8c1.6,0.3,5.7,0.8,8.5-2.8c0.3-0.4,0.9-0.5,1.3-0.2
			c0,0,0.1,0,0.1,0.1c0.6,0.5,2.2,1.8,5.3,2c0-0.1,0-0.2,0-0.3c0-0.2,0-0.3,0-0.5c0-0.1,0-0.2,0.1-0.3c0-0.1,0-0.2,0.1-0.3
			c0.3-0.8,0.8-1.1,1.3-1.1l-1.3-3c-0.2-0.5-0.1-1.1,0.2-1.5c-1.2-0.4-2.5-0.3-3.6,0.4c-0.2,0.1-0.5,0.1-0.7-0.2l0,0
			c-0.8-1.3-2.1-2.1-3.7-2.1H3.2c-2,0-4,0.8-5.5,2.2c0,0.1,0.1,0.2,0.1,0.3c0,0.1,0.1,0.2,0.1,0.3c0,0,0,0,0,0.1
			c0,0.2,0,0.4-0.1,0.6l-1.3,3c0.3,0,0.6,0.2,0.8,0.3c0.6,0.6,0.6,1.6,0.7,2.6v0.3C-2.1,376.8-2.1,376.8-2.1,376.8z"/>
	</g>
	<g>
		<path class="st4" d="M5.5,393c-3.5,0-6.6-2-8-5.2c0-0.1-0.1-0.2,0-0.3l0.3-1v0c-0.1,0-0.2-0.1-0.3-0.2c-0.1-0.1-0.1-0.2,0-0.4
			l0.6-1.4c-0.2-0.1-0.3-0.4-0.3-0.6c0.1-0.2,0.1-0.3,0.2-0.5c0.1-0.3,0.2-0.7,0.2-1c0-0.1,0-0.3,0-0.4c0,0,0-0.1,0-0.1
			c0-0.1,0-0.1,0-0.2c-0.1-0.4-0.2-0.7-0.3-1c-0.4-0.8-0.8-1.9-1-2.8c0-0.2,0-0.3,0.2-0.5c0.2-0.2,0.5-0.2,0.7-0.2
			c1.6,0.3,5.7,0.7,8.5-2.7c0.3-0.4,0.9-0.5,1.3-0.2c0,0,0.1,0,0.1,0.1c0.6,0.6,2.3,1.9,5.6,2c0.1,0,0.2,0,0.3,0
			c0.2,0.1,0.3,0.2,0.3,0.5v0c0,0.2,0,0.3,0,0.5c0,0.3-0.1,0.7-0.2,1c-0.1,0.3-0.2,0.6-0.3,0.9c0,0.1-0.1,0.2-0.1,0.2
			c-0.1,0.3-0.3,0.7-0.4,1c-0.1,0.2-0.2,0.4-0.2,0.6c0,0.1,0,0.2,0,0.2c0,0.2-0.1,0.5-0.1,0.7c0,0.1,0,0.2,0,0.2
			c0,0.2,0,0.3,0.1,0.5c0.1,0.3,0.2,0.7,0.3,1c0.1,0.2,0,0.5-0.3,0.6l0.6,1.4c0.1,0.2,0,0.5-0.3,0.6l0,0v0l0.4,1.2
			c0,0.1,0,0.2,0,0.4C12,391.1,8.9,393,5.5,393z M-1.5,387.6c1.8,3.8,6.4,5.5,10.3,3.8c1.6-0.7,3-2,3.7-3.5l-0.4-1
			c-0.1-0.3-0.1-0.7,0.1-0.9l-0.5-1.1c-0.1-0.3-0.1-0.7,0.1-1c-0.1-0.3-0.2-0.6-0.2-0.9c0-0.2-0.1-0.4-0.1-0.6c0-0.1,0-0.2,0-0.3
			c0-0.3,0-0.6,0.1-0.9c0-0.1,0-0.2,0.1-0.3c0.1-0.3,0.2-0.6,0.3-0.8c0.2-0.3,0.3-0.7,0.4-1c0-0.1,0.1-0.1,0.1-0.2
			c0.1-0.3,0.2-0.6,0.3-0.8c0.1-0.3,0.1-0.6,0.2-0.8c0,0,0-0.1,0-0.1c-3.2-0.2-5-1.4-5.9-2.2c-3,3.7-7.4,3.4-9.1,3.1
			c0.2,0.7,0.5,1.4,0.8,2.1c0.2,0.4,0.3,0.8,0.4,1.3c0,0.1,0,0.2,0,0.2c0,0.1,0,0.1,0,0.2c0,0.2,0,0.4,0,0.5c0,0.4-0.1,0.8-0.2,1.2
			c0,0.1-0.1,0.2-0.1,0.3c0.1,0.2,0.2,0.4,0.2,0.6c0,0.1,0,0.2-0.1,0.4l-0.5,1.1c0.2,0.3,0.3,0.6,0.1,0.9L-1.5,387.6z"/>
	</g>
	<g>
		<path class="st4" d="M22.5,405c-1.8,0-3.4-1.1-4.1-2.7l-6.3-15.4c-0.2-0.5,0-1.1,0.5-1.3l6.4-2.6c0.5-0.2,1.1,0,1.3,0.5l6.3,15.4
			c0.9,2.2-0.2,4.8-2.4,5.7l0,0C23.7,404.9,23.1,405,22.5,405z M23.9,403.8l0.2,0.5L23.9,403.8c1.8-0.7,2.6-2.7,1.9-4.4l0,0
			L19.4,384l-6.4,2.6l6.3,15.4C20.1,403.6,22.1,404.5,23.9,403.8L23.9,403.8z"/>
	</g>
	<g>
		<path class="st4" d="M13.2,387c-0.2,0-0.4-0.1-0.5-0.3l-0.6-1.7c-0.2-0.6,0-1.2,0.5-1.5l0,0l5.4-2.5c0.5-0.2,1.1,0,1.3,0.6
			l0.6,1.7c0.1,0.3,0,0.6-0.3,0.7l-6.3,2.9C13.3,387,13.2,387,13.2,387z M13,384.6L13,384.6l0.4,1.1l5.4-2.5l-0.4-1.1L13,384.6
			L13,384.6z"/>
	</g>
	<g>
		<path class="st4" d="M12.8,384c-0.2,0-0.3-0.1-0.4-0.3c-0.2-0.6-0.3-1.2-0.4-1.8c0-0.8,0.1-1.6,0.4-2.3l0,0
			c0.5-1.3,0.8-2.3,0.9-2.9c0-0.2,0-0.4,0-0.6c0-1,0-2.1,0.6-2.6c0.2-0.2,0.5-0.3,0.8-0.3l-1.2-3c-0.3-0.8,0-1.7,0.8-2
			c0.7-0.3,1.5,0,1.8,0.7l2.2,4c0,0,0,0,0,0c0.8,1.6,1,3.4,0.4,5.2l-0.8,2.8c0,0.2,0,0.5,0,0.7c0,0.2-0.1,0.4-0.3,0.5l-4.6,2
			C12.9,384,12.9,384,12.8,384z M14.8,374.1c-0.1,0-0.2,0-0.3,0.1c-0.3,0.3-0.3,1.2-0.3,1.9c0,0.2,0,0.4,0,0.6
			c0,0.9-0.5,2.3-0.9,3.3l0,0c-0.2,0.6-0.3,1.2-0.3,1.8c0,0.4,0.1,0.7,0.2,1.1l3.8-1.7c0-0.2,0-0.5,0.1-0.7c0,0,0,0,0,0l0.8-2.8
			c0.4-1.5,0.3-3.1-0.4-4.4l-2.2-4c-0.1-0.3-0.5-0.4-0.7-0.2c-0.2,0.1-0.3,0.4-0.2,0.7l1.7,4.2c0.1,0.2,0,0.5-0.2,0.6
			c-0.2,0.1-0.4,0-0.6-0.2C15,374.1,14.9,374.1,14.8,374.1C14.9,374.1,14.8,374.1,14.8,374.1z M12.8,379.8L12.8,379.8z"/>
	</g>
	<g>
		<path class="st5" d="M16.3,378L16.3,378c-0.4,0-0.7-0.3-0.7-0.5c0-0.5,0-1.9-0.5-2.7c-0.2-0.3-0.1-0.6,0.3-0.7
			c0.4-0.1,0.8,0,0.9,0.2c0.8,1.1,0.7,3.1,0.7,3.2C16.9,377.8,16.6,378,16.3,378z"/>
	</g>
	<g>
		<path class="st5" d="M10.8,402c-0.4,0-0.7-0.2-1-0.4l-2.7-3.1C7,398.3,7,398.1,7,397.9l1.9-3.6c0.1-0.2,0.4-0.3,0.6-0.3l4.1,0.9
			c0.3,0.1,0.5,0.3,0.4,0.6c0,0,0,0,0,0l-2,5.7c0,0,0,0,0,0c-0.2,0.4-0.5,0.7-1,0.7C10.9,402,10.8,402,10.8,402z M8.1,398.1l2.5,2.9
			c0.1,0.1,0.2,0.1,0.3,0c0,0,0-0.1,0.1-0.1l1.8-5.2L9.7,395L8.1,398.1z"/>
	</g>
	<g>
		<path class="st5" d="M0.8,402c-0.1,0-0.1,0-0.2,0c-0.4-0.1-0.7-0.3-0.9-0.7c0,0,0,0,0,0l-1.8-5.7c-0.1-0.3,0.1-0.5,0.3-0.6
			c0,0,0,0,0,0l3.6-0.9c0.2-0.1,0.4,0.1,0.5,0.3l1.5,3.6c0,0,0,0,0,0c0.1,0.2,0.1,0.4,0,0.6l-2.2,3C1.5,401.8,1.1,402,0.8,402z
			 M0.6,400.9c0.1,0.1,0.2,0.2,0.3,0.1c0,0,0.1,0,0.1-0.1l2.1-2.8l-1.3-3.1l-2.7,0.7L0.6,400.9z"/>
	</g>
	<g>
		<path class="st4" d="M7.2,399H4.6c-0.5,0-0.9-0.3-1.1-0.8L2,394.4c0-0.1,0-0.1,0-0.2v-2.6c0-0.3,0.2-0.5,0.5-0.5
			c0.1,0,0.1,0,0.2,0.1c1,0.6,2.1,0.9,3.2,0.9c1.2,0,2.4-0.3,3.4-1c0.2-0.1,0.5,0,0.6,0.2c0,0.1,0.1,0.2,0.1,0.2v2.7
			c0,0.1,0,0.2,0,0.2l-1.7,3.8C8.1,398.7,7.7,399,7.2,399z M2.9,394.1l1.5,3.7c0.1,0.1,0.1,0.2,0.3,0.2h2.6c0.1,0,0.2-0.1,0.3-0.2
			l1.6-3.7v-1.8c-1,0.5-2.1,0.8-3.2,0.8c-1,0-2-0.2-3-0.6V394.1z"/>
	</g>
	<g>
		<path class="st4" d="M-10.9,405c-2.3,0-4.2-2-4.1-4.4c0-0.6,0.1-1.1,0.3-1.6l5.9-15.4c0.2-0.5,0.7-0.7,1.2-0.5l0,0l6,2.6
			c0.5,0.2,0.7,0.8,0.5,1.3l0,0L-7,402.3C-7.6,403.9-9.2,405-10.9,405z M-7.9,384l-5.9,15.4c-0.7,1.7,0.1,3.7,1.7,4.4l0,0l0,0
			c1.7,0.7,3.5-0.1,4.2-1.8l5.9-15.4L-7.9,384z"/>
	</g>
	<g>
		<path class="st5" d="M-2,387c-0.1,0-0.1,0-0.2,0l-5.5-2.9c-0.2-0.1-0.3-0.4-0.2-0.7l0.5-1.6c0.2-0.6,0.7-0.8,1.1-0.6l4.7,2.5l0,0
			c0.4,0.2,0.7,0.9,0.5,1.4l-0.5,1.6C-1.6,386.9-1.8,387-2,387L-2,387z M-7,383.2l4.7,2.5l0.4-1.1l-4.7-2.5L-7,383.2z"/>
	</g>
	<g>
		<path class="st4" d="M-1.8,384c-0.1,0-0.1,0-0.2,0l-4.6-2c-0.2-0.1-0.3-0.3-0.3-0.5c0-0.3,0-0.5,0-0.7l-0.8-2.8
			c-0.5-1.7-0.3-3.6,0.4-5.2c0,0,0,0,0,0l2.2-4c0.4-0.7,1.3-1,2-0.6c0.6,0.4,0.9,1.2,0.6,1.9l-1.2,3c0.3,0,0.6,0.2,0.8,0.3
			c0.6,0.6,0.6,1.6,0.6,2.6c0,0.2,0,0.4,0,0.6c0,0.6,0.3,1.6,0.9,2.9c0.3,0.7,0.4,1.5,0.4,2.3c0,0.6-0.2,1.3-0.4,1.8
			C-1.5,383.9-1.6,384-1.8,384L-1.8,384z M-5.9,381.2l3.8,1.7c0.1-0.3,0.2-0.7,0.2-1.1c0-0.6-0.1-1.3-0.3-1.8l0,0
			c-0.4-1-0.9-2.3-0.9-3.3c0-0.2,0-0.4,0-0.6c0-0.7,0-1.7-0.3-1.9c-0.1-0.1-0.2-0.1-0.3-0.1c-0.1,0-0.2,0-0.3,0.3
			c-0.1,0.2-0.4,0.3-0.6,0.2c-0.2-0.1-0.3-0.4-0.2-0.6l1.7-4.2c0.1-0.3,0-0.6-0.3-0.7c-0.3-0.1-0.5,0-0.7,0.2l-2.2,4
			c-0.7,1.4-0.8,2.9-0.4,4.4l0.8,2.8c0,0,0,0,0,0C-5.9,380.7-5.9,381-5.9,381.2L-5.9,381.2z"/>
	</g>
	<g>
		<path class="st5" d="M-4.6,378c-0.2,0-0.3-0.2-0.3-0.5c0-0.1-0.1-2.1,0.3-3.2c0.1-0.3,0.3-0.4,0.5-0.2c0.2,0.1,0.2,0.4,0.2,0.7
			c-0.3,0.7-0.3,2.2-0.3,2.7C-4.3,377.7-4.4,378-4.6,378L-4.6,378z"/>
	</g>
	<g>
		<path class="st5" d="M-10.6,405c-0.2,0-0.4-0.2-0.4-0.5c0-0.3,0.2-0.5,0.4-0.5c0,0,0.1,0,0.1,0h0c0.2,0,0.4,0.2,0.5,0.5
			c0,0.3-0.2,0.5-0.4,0.5H-10.6C-10.6,405-10.6,405-10.6,405z"/>
	</g>
	<g>
		<path class="st4" d="M14.9,409H-3.1c-0.6,0-1.2-0.5-1.2-1.1v-3.7c0-0.1-0.1-0.1-0.1-0.1l0,0l-6.2,0.5c-0.3,0-0.5-0.2-0.5-0.4
			c0-0.2,0.2-0.5,0.4-0.5c1.2-0.1,2.2-0.9,2.7-2l2.4-5.9c0.1-0.1,0.2-0.3,0.4-0.3l3.3-0.6c0.2,0,0.5,0.1,0.5,0.3l1.9,5.4
			c0.1,0.1,0.2,0.1,0.3,0.1c0,0,0.1,0,0.1-0.1l2.4-2.9c0.2-0.2,0.5-0.2,0.7-0.1c0,0,0.1,0.1,0.1,0.1c0.1,0.1,0.2,0.1,0.3,0.1h2.8
			c0.1,0,0.2-0.1,0.3-0.2c0.1-0.2,0.4-0.3,0.6-0.2c0.1,0,0.1,0.1,0.2,0.1l2.5,3c0.1,0.1,0.2,0.1,0.3,0c0,0,0-0.1,0.1-0.1l1.9-5.4
			c0.1-0.2,0.3-0.4,0.5-0.3l2.9,0.5c0.2,0,0.3,0.1,0.4,0.3l2.5,5.9c0.4,1,1.3,1.7,2.3,1.9c0.3,0.1,0.4,0.3,0.4,0.6
			c-0.1,0.2-0.3,0.4-0.5,0.4l-5.3-0.4c-0.1,0-0.1,0-0.1,0.1l0,0v3.7C16,408.5,15.5,409,14.9,409z M-4.3,403.2c0.6,0,1.1,0.5,1.1,1
			l0,0v3.7c0,0.1,0.1,0.2,0.2,0.2h17.9c0.1,0,0.2-0.1,0.2-0.2v-3.7c0-0.6,0.5-1,1.1-1c0,0,0.1,0,0.1,0l3.1,0.3
			c-0.4-0.4-0.7-0.9-0.9-1.4l0,0l-2.4-5.7l-2.2-0.4l-1.8,5.1c0,0,0,0,0,0c-0.3,0.6-0.9,0.9-1.5,0.6c-0.2-0.1-0.3-0.2-0.5-0.3
			l-2.1-2.6C7.7,399,7.5,399,7.3,399H4.5c-0.2,0-0.4-0.1-0.6-0.1l-2.1,2.5c-0.4,0.5-1.2,0.6-1.7,0.2c-0.2-0.1-0.3-0.3-0.3-0.5
			c0,0,0,0,0,0L-2,396l-2.6,0.5l-2.3,5.6c-0.2,0.5-0.6,1-1,1.4L-4.3,403.2C-4.4,403.2-4.3,403.2-4.3,403.2z"/>
	</g>
	<g>
		<path class="st6" d="M3,388.8c0,0.1,0.1,0.2,0.2,0.2c0,0,0,0,0,0c0.9-0.3,1.8-0.4,2.7-0.5c0.9,0,1.9,0.2,2.7,0.5
			c0.1,0,0.2,0,0.2-0.1c0,0,0,0,0,0c0.1-0.6,0.1-2.2-1-3.1c-1.1-0.9-2.8-0.9-3.9,0C2.9,386.7,3,388.2,3,388.8z"/>
	</g>
	<g>
		<path class="st5" d="M6,384c0.9,0,1.9,0.3,2.6,0.8c1.5,1.1,1.4,2.9,1.4,3.6c0,0.4-0.4,0.6-0.8,0.6c0,0-0.1,0-0.1,0
			c-1-0.3-2-0.4-3-0.4c-1,0-2,0.2-3,0.4c-0.4,0.1-0.8-0.1-0.9-0.4c0,0,0-0.1,0-0.1l0,0c-0.1-0.7-0.1-2.5,1.4-3.6
			C4.1,384.3,5.1,384,6,384z M8.9,388c0-0.7-0.1-1.8-1-2.5c-1.1-0.8-2.7-0.8-3.8,0c-0.9,0.7-1.1,1.8-1,2.5c1-0.2,1.9-0.4,3-0.4
			C7,387.6,8,387.7,8.9,388L8.9,388z"/>
	</g>
	<g>
		<path class="st4" d="M9.6,382c0,0-0.1,0-0.1,0l-1.3-0.5c-0.2-0.1-0.3-0.3-0.2-0.4c0-0.1,0.1-0.1,0.1-0.2l1.3-0.9
			c0.2-0.1,0.4-0.1,0.5,0.1c0.1,0.2,0.1,0.4-0.1,0.5c0,0,0,0,0,0l-0.7,0.5l0.6,0.2c0.2,0.1,0.3,0.3,0.2,0.4
			C9.9,381.9,9.8,382,9.6,382L9.6,382z"/>
	</g>
	<g>
		<path class="st4" d="M1.5,382c-0.3,0-0.5-0.1-0.5-0.3c0-0.2,0.1-0.3,0.4-0.3l0.9-0.2l-1.1-0.5c-0.3-0.1-0.3-0.3-0.1-0.5
			c0.2-0.2,0.5-0.2,0.7-0.1c0,0,0,0,0,0l1.9,0.8c0.2,0.1,0.3,0.3,0.1,0.5c-0.1,0.1-0.1,0.1-0.3,0.1L1.7,382C1.7,382,1.6,382,1.5,382
			z"/>
	</g>
	<g>
		<path class="st4" d="M5.5,402c-0.1,0-0.3-0.1-0.4-0.1c0,0,0,0-0.1-0.1c0-0.1-0.1-0.1-0.1-0.2c0,0,0-0.1,0-0.1
			c0-0.1,0.1-0.3,0.1-0.4c0.1-0.1,0.3-0.2,0.5-0.1c0,0,0.1,0,0.1,0c0,0,0.1,0,0.1,0s0.1,0,0.1,0.1c0.1,0.1,0.1,0.2,0.1,0.4
			c0,0,0,0.1,0,0.1c0,0,0,0.1,0,0.1c0,0,0,0.1,0,0.1c0,0,0,0.1-0.1,0.1s-0.1,0-0.1,0.1c0,0-0.1,0-0.1,0C5.7,402,5.6,402,5.5,402
			C5.6,402,5.6,402,5.5,402z"/>
	</g>
	<g>
		<path class="st4" d="M5.5,405c-0.1,0-0.3-0.1-0.4-0.1c0,0,0,0-0.1-0.1c0,0,0-0.1,0-0.1c0,0,0-0.1,0-0.1c0,0,0-0.1,0-0.1
			c0-0.1,0.1-0.3,0.1-0.4c0.1-0.1,0.3-0.2,0.5-0.1c0,0,0.1,0,0.1,0c0,0,0.1,0,0.1,0s0.1,0,0.1,0.1c0.1,0.1,0.1,0.2,0.1,0.4
			c0,0,0,0.1,0,0.1c0,0,0,0.1,0,0.1c0,0,0,0.1,0,0.1c0,0.1-0.1,0.1-0.1,0.1c0,0-0.1,0-0.1,0C5.7,405,5.6,405,5.5,405
			C5.6,405,5.5,405,5.5,405z"/>
	</g>
	<g>
		<path class="st6" d="M32.5,377c6.9,0,12.5-5.6,12.5-12.5c0-6.9-5.7-12.4-12.6-12.4H6.6c-4.8,0-8.7-3.8-8.8-8.5
			c0-4.8,3.9-8.7,8.7-8.7h9.9c0.4,0,0.7,0.3,0.7,0.7v1.7c0,0.6,0.7,0.9,1.2,0.6l5.8-4.3c0.4-0.3,0.4-0.9,0-1.1l-5.8-4.3
			c-0.5-0.4-1.2,0-1.2,0.6v1.7c0,0.4-0.3,0.7-0.7,0.7H6.6c-6.9,0-12.6,5.5-12.6,12.4c0,6.9,5.6,12.5,12.5,12.5h25.9
			c4.8,0,8.7,3.8,8.8,8.5c0,4.8-3.9,8.7-8.7,8.7H21.9c-0.5,0-1,0.4-1,1v1.9c0,0.5,0.4,1,1,1H32.5z"/>
	</g>
	<g>
		<path class="st4" d="M32.4,351.1H6.6c-4.3,0-7.9-3.5-7.9-7.8c0-2.1,0.8-4.1,2.3-5.6c1.5-1.5,3.5-2.3,5.6-2.3h9.8v3
			c0,0.3,0.2,0.6,0.5,0.8c0.3,0.1,0.7,0.1,0.9-0.1l7.7-5.8c0.2-0.2,0.4-0.4,0.4-0.7s-0.1-0.5-0.4-0.7l-7.7-5.8
			c-0.3-0.2-0.6-0.2-0.9-0.1c-0.3,0.1-0.5,0.5-0.5,0.8v3H6.6c-7.5,0-13.6,6-13.6,13.4c0,3.6,1.4,7,3.9,9.5c2.5,2.5,5.9,4,9.5,4h18.7
			c0.5,0,0.9-0.4,0.9-0.9c0-0.5-0.4-0.9-0.9-0.9H6.4c-3.1,0-6.1-1.2-8.3-3.4c-2.2-2.2-3.4-5.2-3.4-8.3c0-6.4,5.3-11.6,11.8-11.6
			h10.5c0.5,0,0.9-0.4,0.9-0.9v-2.1l5.4,4l-5.4,4v-2.1c0-0.5-0.4-0.9-0.9-0.9H6.4c-2.6,0-5,1-6.8,2.8c-1.8,1.8-2.8,4.2-2.8,6.8
			c0,5.2,4.4,9.5,9.7,9.5h25.9c6.5,0,11.8,5.2,11.8,11.6c0,3.1-1.2,6.1-3.4,8.3c-2.2,2.2-5.2,3.4-8.3,3.4H21.9c-0.1,0-0.1,0-0.1-0.1
			v-1.9c0-0.1,0-0.1,0.1-0.1h10.6c2.6,0,5-1,6.8-2.8c1.8-1.8,2.8-4.2,2.8-6.8c0-5.2-4.4-9.5-9.7-9.5h-3.8c-0.5,0-0.9,0.4-0.9,0.9
			c0,0.5,0.4,0.9,0.9,0.9h3.8c4.3,0,7.9,3.5,7.9,7.8c0,2.1-0.8,4.1-2.3,5.6s-3.5,2.3-5.6,2.3H21.9c-1,0-1.8,0.8-1.8,1.8v1.9
			c0,1,0.8,1.8,1.8,1.8h10.6c3.6,0,7-1.4,9.5-4c2.5-2.5,3.9-5.9,3.9-9.5C46,357.1,39.9,351.1,32.4,351.1z"/>
	</g>
</g>
</svg>
