<?xml version="1.0" encoding="utf-8"?>
<!-- Generator: Adobe Illustrator 25.0.0, SVG Export Plug-In . SVG Version: 6.00 Build 0)  -->
<svg version="1.1" id="Layer_1" xmlns="http://www.w3.org/2000/svg" xmlns:xlink="http://www.w3.org/1999/xlink" x="0px" y="0px"
	 viewBox="0 0 100 101" style="enable-background:new 0 0 100 101;" xml:space="preserve">
<style type="text/css">
	.st0{fill:none;}
	.st1{fill-rule:evenodd;clip-rule:evenodd;fill:#FFE808;}
	.st2{fill:#0C2534;}
	.st3{fill-rule:evenodd;clip-rule:evenodd;fill:#205F89;}
	.st4{fill-rule:evenodd;clip-rule:evenodd;fill:#B93128;}
	.st5{fill-rule:evenodd;clip-rule:evenodd;fill:#0C2534;}
</style>
<g>
	<rect y="0" class="st0" width="100" height="101"/>
</g>
<g transform="translate(-91 -270)">
	<g>
		<path class="st1" d="M93.5,320.5c0-26.5,21.5-48,48-48s48,21.5,48,48s-21.5,48-48,48S93.5,347,93.5,320.5z"/>
		<path class="st2" d="M141.5,370c-27.3,0-49.5-22.2-49.5-49.5c0-27.3,22.2-49.5,49.5-49.5c27.3,0,49.5,22.2,49.5,49.5
			C191,347.8,168.8,370,141.5,370z M141.5,274c-25.6,0-46.5,20.9-46.5,46.5c0,25.6,20.9,46.5,46.5,46.5c25.6,0,46.5-20.9,46.5-46.5
			C188,294.9,167.1,274,141.5,274z"/>
	</g>
	<g>
		<path class="st3" d="M162.7,345h-24.5c-1.8,0-3.3-1.5-3.3-3.3v-36.4c0-1.8,1.5-3.3,3.3-3.3h24.5c1.8,0,3.3,1.5,3.3,3.3v36.4
			C166,343.5,164.5,345,162.7,345z"/>
	</g>
	<g>
		<path class="st1" d="M162,306.8v28.6h-6.4v6.5h-16.8c-0.4,0-0.8-0.4-0.8-0.8v-19.5l1,0.9c0.4,0.4,0.9,0.6,1.5,0.6h0.1
			c1.2,0,2.2-1,2.2-2.3c0-0.6-0.3-1.2-0.7-1.7l-4.1-3.8v-8.6c0-0.4,0.4-0.8,0.8-0.8h2.4c0,0.9,0.7,1.6,1.6,1.6h14.4
			c0.9,0,1.6-0.7,1.6-1.6h2.4C161.6,306,162,306.4,162,306.8z"/>
	</g>
	<g>
		<path class="st4" d="M159,302.3v3.1c0,0.9-0.7,1.6-1.6,1.6h-14.7c-0.9,0-1.6-0.7-1.6-1.6v-3.1c0-0.9,0.7-1.6,1.6-1.6h1.6l0-0.1
			c0.2-1.3,1-2.5,2-3.3c1-0.8,2.3-1.3,3.7-1.3c2.8,0,5.3,2,5.7,4.7l0,0.1h1.6C158.3,300.7,159,301.4,159,302.3z M151.6,300.7
			c0-0.9-0.7-1.6-1.6-1.6s-1.6,0.7-1.6,1.6c0,0.9,0.7,1.6,1.6,1.6S151.6,301.6,151.6,300.7z"/>
	</g>
	<g>
		<path class="st4" d="M162,335l-1.1,1.3L156,342v-7H162z"/>
	</g>
	<g>
		<path class="st4" d="M143.6,335.4c0.3,0.3,0.4,0.6,0.4,1.1c0,0.8-0.7,1.5-1.5,1.5s-1.5-0.7-1.5-1.5s0.7-1.5,1.5-1.5
			C142.9,335,143.3,335.2,143.6,335.4z"/>
	</g>
	<g>
		<path class="st4" d="M159,330c0,1.1-0.7,2-1.5,2s-1.5-0.9-1.5-2s0.7-2,1.5-2S159,328.9,159,330z"/>
	</g>
	<g>
		<path class="st4" d="M126,324v18.5c0,1.4-1.1,2.5-2.5,2.5c-0.7,0-1.3-0.3-1.8-0.7c-0.5-0.5-0.7-1.1-0.7-1.8v-16V324H126z"/>
	</g>
	<g>
		<path class="st4" d="M131,324v18.5c0,0.7-0.3,1.3-0.7,1.8c-0.4,0.5-1.1,0.7-1.8,0.7c-1.4,0-2.5-1.1-2.5-2.5V324H131z"/>
	</g>
	<g>
		<path class="st3" d="M130.8,315.7v8.8h-4.9h-4.9v2.4h-0.8c-1.8,0-3.2-1.4-3.2-3.2v-6.4c0-2.8,1.8-5.1,4.3-6v0l2.7,5.3l2,3.9l2-3.9
			l2.8-5.6v0c1.5,0.2,2.9,0.7,4.1,1.5v0c0.4,0.3,0.8,0.6,1.2,0.9l2.1,1.9l4.1,3.8c0.5,0.4,0.7,1,0.7,1.6c0,1.2-1,2.2-2.3,2.2h-0.1
			c-0.6,0-1.1-0.2-1.5-0.6l-1-0.9l-3.2-2.9l-3.2-2.9H130.8z"/>
	</g>
	<g>
		<path class="st1" d="M127.2,311l0.8,5.3l-2,3.7l-2-3.7l0.8-5.3h1.2H127.2z"/>
	</g>
	<g>
		<path class="st4" d="M123.5,311h1.5l-0.9,5l-3.1-4.6v0C121.8,311.1,122.6,311,123.5,311z"/>
	</g>
	<g>
		<path class="st4" d="M129.6,311c0.5,0,1,0,1.4,0.1v0l-3.1,4.9l-0.9-5H129.6z"/>
	</g>
	<g>
		<path class="st1" d="M131,306c0,2.8-2.2,5-5,5s-5-2.2-5-5s2.2-5,5-5S131,303.2,131,306z"/>
	</g>
	<g>
		<path class="st5" d="M162,301.6h-2.6c-0.3-1-1.2-1.6-2.3-1.6h-1c-0.8-2.9-3.3-4.9-6.3-4.9c-3,0-5.5,2-6.3,4.9h-1
			c-1.1,0-1.9,0.7-2.3,1.6h-2.6c-2.2,0-4,1.8-4,4.1v5.2c-1.3-0.6-2.7-1-4.1-1.1c1.1-1,1.7-2.5,1.7-4.1c0-3.2-2.5-5.8-5.6-5.8
			c-3.1,0-5.6,2.6-5.6,5.8c0,1.7,0.7,3.2,1.9,4.2c-3.3,0.7-5.9,3.7-5.9,7.3v6.6c0,2.3,1.8,4.1,4,4.1v14.8c0,1.8,1.4,3.3,3.2,3.3
			c1,0,1.8-0.4,2.4-1.1c0.6,0.7,1.5,1.1,2.4,1.1c1.8,0,3.2-1.5,3.2-3.3v-26l2.4,2.2v23c0,2.3,1.8,4.1,4,4.1H162c2.2,0,4-1.8,4-4.1
			v-36.2C166,303.4,164.2,301.6,162,301.6z M161.2,334.5h-6.5v6.6h-16.1v-17.8c0.5,0.3,1.1,0.5,1.7,0.5h0.1c1.7,0,3-1.4,3-3.1
			c0-0.9-0.4-1.7-1-2.3l-3.9-3.6v-8.3h1.8c0.3,1,1.2,1.6,2.3,1.6h14.5c1.1,0,1.9-0.7,2.3-1.6h1.8V334.5z M160,336.1l-3.7,3.8v-3.8
			H160z M141.8,302.4c0-0.5,0.4-0.8,0.8-0.8h1.6l0.7-0.1l0.1-0.7c0.4-2.4,2.4-4.2,4.8-4.2s4.4,1.8,4.8,4.2l0.1,0.8h2.3
			c0.4,0,0.8,0.4,0.8,0.8v3.3c0,0.5-0.4,0.8-0.8,0.8h-14.5c-0.4,0-0.8-0.4-0.8-0.8V302.4z M135.4,305.7c0-1.4,1.1-2.5,2.4-2.5h2.4
			v1.6h-1.6c-0.9,0-1.6,0.7-1.6,1.6v6.8l-0.7-0.7c-0.3-0.3-0.6-0.5-0.9-0.7V305.7z M122.2,311.6c0.3-0.1,0.7-0.1,1.1-0.1h0.3
			l-0.3,2.3L122.2,311.6z M125.2,311.5h0.9l0.7,4.9l-1.1,2.3l-1.1-2.3L125.2,311.5z M128.1,313.8l-0.3-2.3h1.4c0,0,0,0,0,0
			L128.1,313.8z M121.6,305.7c0-2.3,1.8-4.1,4-4.1c2.2,0,4,1.8,4,4.1c0,2.3-1.8,4.1-4,4.1C123.5,309.8,121.6,308,121.6,305.7z
			 M123.3,344.4c-0.9,0-1.6-0.7-1.6-1.6v-17.3h3.2v17.3C124.9,343.6,124.1,344.4,123.3,344.4z M128.1,344.4c-0.9,0-1.6-0.7-1.6-1.6
			v-17.3h3.2v17.3C129.7,343.6,129,344.4,128.1,344.4z M129.7,314.7v9h-8.1v-9H120v11.5c-1.3,0-2.4-1.1-2.4-2.5v-6.6
			c0-2.2,1.2-4.1,3-5.1l5,10.2l5.2-10.7c1.6,0.3,3,1.1,4.2,2.2l6.2,5.8c0.3,0.3,0.5,0.7,0.5,1.1c0,0.8-0.6,1.5-1.4,1.5h-0.1
			c-0.4,0-0.7-0.1-1-0.4l-7.7-7H129.7z M164.4,341.9c0,1.4-1.1,2.5-2.4,2.5h-24.2c-1.3,0-2.4-1.1-2.4-2.5v-21.5l1.6,1.5v19.2
			c0,0.9,0.7,1.6,1.6,1.6h17.3l6.9-7.1v-29.1c0-0.9-0.7-1.6-1.6-1.6h-1.6v-1.6h2.4c1.3,0,2.4,1.1,2.4,2.5V341.9z"/>
	</g>
	<g>
		<path class="st5" d="M144,303h1v2h-1V303z"/>
	</g>
	<g>
		<path class="st5" d="M155,303h2v2h-2V303z"/>
	</g>
	<g>
		<path class="st5" d="M150.5,303c1.4,0,2.5-1.1,2.5-2.5s-1.1-2.5-2.5-2.5s-2.5,1.1-2.5,2.5S149.1,303,150.5,303z M150.5,299.7
			c0.5,0,0.8,0.4,0.8,0.8s-0.4,0.8-0.8,0.8s-0.8-0.4-0.8-0.8S150,299.7,150.5,299.7z"/>
	</g>
	<g>
		<path class="st5" d="M157.5,328c-1.4,0-2.5,1.1-2.5,2.5s1.1,2.5,2.5,2.5s2.5-1.1,2.5-2.5S158.9,328,157.5,328z M157.5,331.3
			c-0.5,0-0.8-0.4-0.8-0.8s0.4-0.8,0.8-0.8s0.8,0.4,0.8,0.8S158,331.3,157.5,331.3z"/>
	</g>
	<g>
		<path class="st5" d="M142.1,331l1.9-1.9l1.9,1.9l1.1-1.1l-1.9-1.9l1.9-1.9l-1.1-1.1l-1.9,1.9l-1.9-1.9l-1.1,1.1l1.9,1.9l-1.9,1.9
			L142.1,331z"/>
	</g>
	<g>
		<path class="st5" d="M158.9,319l-1.9,1.9l-1.9-1.9l-1.1,1.1l1.9,1.9l-1.9,1.9l1.1,1.1l1.9-1.9l1.9,1.9l1.1-1.1l-1.9-1.9l1.9-1.9
			L158.9,319z"/>
	</g>
	<g>
		<path class="st5" d="M145.9,315l1.1-1.1l-1.9-1.9l1.9-1.9l-1.1-1.1l-1.9,1.9l-1.9-1.9l-1.1,1.1l1.9,1.9l-1.9,1.9l1.1,1.1l1.9-1.9
			L145.9,315z"/>
	</g>
	<g>
		<path class="st5" d="M155,316.8V311h-5.8v1.6h3l-4.4,4.3c-0.7,0.7-1.1,1.7-1.1,2.7c0,1,0.4,2,1.1,2.7l2.4,2.4
			c0.4,0.4,0.6,1,0.6,1.5c0,0.6-0.2,1.1-0.6,1.5l-6.6,6.5c-0.3-0.2-0.7-0.2-1.1-0.2c-1.4,0-2.5,1.1-2.5,2.5c0,1.4,1.1,2.5,2.5,2.5
			s2.5-1.1,2.5-2.5c0-0.4-0.1-0.7-0.3-1.1l6.6-6.5c0.7-0.7,1.1-1.7,1.1-2.7c0-1-0.4-2-1.1-2.7l-2.4-2.4c-0.4-0.4-0.6-1-0.6-1.5
			s0.2-1.1,0.6-1.5l4.4-4.3v3H155z M142.5,337.4c-0.5,0-0.8-0.4-0.8-0.8c0-0.5,0.4-0.8,0.8-0.8s0.8,0.4,0.8,0.8
			C143.3,337,143,337.4,142.5,337.4z"/>
	</g>
	<g>
		<path class="st5" d="M161,337h2v2h-2V337z"/>
	</g>
	<g>
		<path class="st5" d="M161,341h2v1h-2V341z"/>
	</g>
</g>
</svg>
