<?xml version="1.0" encoding="utf-8"?>
<!-- Generator: Adobe Illustrator 25.0.0, SVG Export Plug-In . SVG Version: 6.00 Build 0)  -->
<svg version="1.1" id="Layer_1" xmlns="http://www.w3.org/2000/svg" xmlns:xlink="http://www.w3.org/1999/xlink" x="0px" y="0px"
	 viewBox="0 0 101 100" style="enable-background:new 0 0 101 100;" xml:space="preserve">
<style type="text/css">
	.st0{fill:none;}
	.st1{fill-rule:evenodd;clip-rule:evenodd;fill:#FFE808;}
	.st2{fill:#0C2534;}
	.st3{fill-rule:evenodd;clip-rule:evenodd;fill:#205F89;}
	.st4{fill-rule:evenodd;clip-rule:evenodd;fill:#B93128;}
	.st5{fill-rule:evenodd;clip-rule:evenodd;fill:#0C2534;}
</style>
<g>
	<rect y="0" class="st0" width="101" height="100"/>
</g>
<g transform="translate(-95 -452)">
	<g>
		<path class="st1" d="M97.5,502.5c0-26.5,21.5-48,48-48s48,21.5,48,48s-21.5,48-48,48S97.5,529,97.5,502.5z"/>
		<path class="st2" d="M145.5,552c-27.3,0-49.5-22.2-49.5-49.5c0-27.3,22.2-49.5,49.5-49.5c27.3,0,49.5,22.2,49.5,49.5
			C195,529.8,172.8,552,145.5,552z M145.5,456c-25.6,0-46.5,20.9-46.5,46.5c0,25.6,20.9,46.5,46.5,46.5c25.6,0,46.5-20.9,46.5-46.5
			C192,476.9,171.1,456,145.5,456z"/>
	</g>
	<g>
		<path class="st3" d="M137.8,489h14.4c1,0,1.8,0.8,1.8,1.9v21.3c0,1-0.8,1.9-1.8,1.9h-14.4c-1,0-1.8-0.8-1.8-1.9v-21.3
			C136,489.8,136.8,489,137.8,489z"/>
	</g>
	<g>
		<path class="st4" d="M171,515.2v0.8h-4v-4h0.8L171,515.2z"/>
	</g>
	<g>
		<path class="st1" d="M158,512h8.7v4.4h4.3V528h-13V512z"/>
	</g>
	<g>
		<path class="st1" d="M124,524h3v4h-3V524z"/>
	</g>
	<g>
		<path class="st4" d="M119,522h13v0.7c0,0.7-0.8,1.3-1.9,1.3h-9.3c-1,0-1.9-0.6-1.9-1.3V522z"/>
	</g>
	<g>
		<path class="st3" d="M132,517v5h-13v-5c0-1.1,0.8-2,1.9-2h9.3C131.2,515,132,515.9,132,517z"/>
	</g>
	<g>
		<path class="st4" d="M134,476v5h-15v-3.3h8.4l1.9-1.7H134z"/>
	</g>
	<g>
		<path class="st1" d="M119,489v-8h15v8H119z"/>
	</g>
	<g>
		<path class="st3" d="M168.3,480.5c1.5,0,2.7,1.2,2.7,2.7c0,1.5-1.2,2.7-2.7,2.7h-11.6c-1.1,0-2.1-0.7-2.5-1.7
			c-0.4-1-0.2-2.2,0.6-3c0.8-0.8,1.9-1,2.9-0.6c0.3-1.2,1.4-2,2.6-2c0,0,0.1,0,0.1,0c0.4-1.8,2.1-2.9,3.9-2.7
			c1.8,0.2,3.1,1.8,3.1,3.6c0,0.4-0.1,0.8-0.2,1.2C167.6,480.6,167.9,480.5,168.3,480.5z"/>
	</g>
	<g>
		<path class="st1" d="M147,509c0,1.1-0.9,2-2,2s-2-0.9-2-2s0.9-2,2-2S147,507.9,147,509z"/>
	</g>
	<g>
		<path class="st5" d="M145.5,506c-1.4,0-2.5,1.3-2.5,3s1.1,3,2.5,3s2.5-1.3,2.5-3S146.9,506,145.5,506z M145.5,510
			c-0.5,0-0.8-0.4-0.8-1s0.4-1,0.8-1s0.8,0.4,0.8,1S146,510,145.5,510z"/>
	</g>
	<g>
		<path class="st5" d="M139,492h13v2h-13V492z"/>
	</g>
	<g>
		<path class="st5" d="M139,496h13v1h-13V496z"/>
	</g>
	<g>
		<path class="st5" d="M139,499h13v2h-13V499z"/>
	</g>
	<g>
		<path class="st5" d="M122,484h4v2h-4V484z"/>
	</g>
	<g>
		<path class="st5" d="M168.2,511.3c-0.2-0.2-0.4-0.3-0.6-0.3h-2.6v-1.8c0-1.5-1.2-2.7-2.6-2.7h-7.1v-10.8h7.1
			c1.5,0,2.6-1.2,2.6-2.7v-6.3h3.5c2,0,3.5-1.6,3.5-3.6s-1.6-3.6-3.5-3.6c0-2.1-1.5-4-3.5-4.4c-2.1-0.4-4.1,0.7-4.9,2.6
			c-1.1,0.2-2,0.8-2.5,1.8c-0.2,0-0.3,0-0.5,0c-2,0-3.5,1.6-3.5,3.6s1.6,3.6,3.5,3.6h6.2v6.3c0,0.5-0.4,0.9-0.9,0.9h-7.1v-2.7
			c0-1.5-1.2-2.7-2.6-2.7h-14.1c-1.5,0-2.6,1.2-2.6,2.7v2.6l-7.9,0.1c-0.2,0-0.5-0.1-0.6-0.3c-0.2-0.2-0.3-0.4-0.3-0.6v-2.7h7.1
			c0.5,0,0.9-0.4,0.9-0.9v-13.5c0-0.5-0.4-0.9-0.9-0.9h-4.4c-0.2,0-0.5,0.1-0.6,0.3l-1.5,1.5h-7.6c-0.5,0-0.9,0.4-0.9,0.9v11.7
			c0,0.5,0.4,0.9,0.9,0.9h5.3v2.7c0,1.5,1.2,2.7,2.7,2.7h0l7.9-0.1v10.9h-8c-1.5,0-2.7,1.2-2.7,2.7v5.4h-3.5c-1.5,0-2.7,1.2-2.7,2.7
			v5.4c0,1.5,1.2,2.7,2.7,2.7h1.8v1.8h-1.8v1.8h8.8v-1.8h-1.8v-1.8h1.8c1.5,0,2.6-1.2,2.6-2.7v-5.4c0-1.5-1.2-2.7-2.6-2.7h-3.5v-5.4
			c0-0.5,0.4-0.9,0.9-0.9h8v3.6c0,1.5,1.2,2.7,2.6,2.7h14.1c1.5,0,2.6-1.2,2.6-2.7v-3.6h7.1c0.5,0,0.9,0.4,0.9,0.9v1.8h-5.3
			c-0.5,0-0.9,0.4-0.9,0.9v16.2c0,0.5,0.4,0.9,0.9,0.9h13.2c0.5,0,0.9-0.4,0.9-0.9v-12.6c0-0.2-0.1-0.5-0.3-0.6L168.2,511.3z
			 M155.2,483.1c0-0.6,0.3-1.2,0.8-1.5c0.5-0.3,1.1-0.4,1.6-0.2c0.2,0.1,0.5,0.1,0.7,0c0.2-0.1,0.4-0.3,0.5-0.6
			c0.2-0.8,0.9-1.3,1.6-1.3c0,0,0.1,0,0.1,0c0.4,0,0.8-0.3,0.9-0.7c0.3-1.3,1.6-2.2,2.9-2c1.3,0.2,2.3,1.3,2.3,2.7
			c0,0.3-0.1,0.6-0.2,0.9c-0.1,0.3,0,0.7,0.2,1c0.3,0.2,0.6,0.3,1,0.2c0.7-0.3,1.4-0.2,2,0.3c0.5,0.5,0.7,1.3,0.4,2
			c-0.3,0.7-0.9,1.1-1.6,1.1H157C156,484.9,155.2,484.1,155.2,483.1z M127.8,478.6c0.2,0,0.5-0.1,0.6-0.3l1.5-1.5h3.2v3.6h-12.4
			v-1.8H127.8z M120.8,482.2h12.4v6.3h-12.4V482.2z M126.9,527.2h-1.8v-1.8h1.8V527.2z M130.5,523.6h-8.8c-0.5,0-0.9-0.4-0.9-0.9
			h10.6C131.4,523.2,131,523.6,130.5,523.6z M131.4,517.3v3.6h-10.6v-3.6c0-0.5,0.4-0.9,0.9-0.9h8.8
			C131,516.4,131.4,516.8,131.4,517.3z M153.4,511.9c0,0.5-0.4,0.9-0.9,0.9h-14.1c-0.5,0-0.9-0.4-0.9-0.9v-20.7
			c0-0.5,0.4-0.9,0.9-0.9h14.1c0.5,0,0.9,0.4,0.9,0.9V511.9z M169.9,515.5h-2.3v-2.3L169.9,515.5z M158.8,527.2v-14.4h7.1v3.6
			c0,0.5,0.4,0.9,0.9,0.9h3.5v9.9H158.8z"/>
	</g>
</g>
</svg>
