<?xml version="1.0" encoding="utf-8"?>
<!-- Generator: Adobe Illustrator 25.0.0, SVG Export Plug-In . SVG Version: 6.00 Build 0)  -->
<svg version="1.1" id="Layer_1" xmlns="http://www.w3.org/2000/svg" xmlns:xlink="http://www.w3.org/1999/xlink" x="0px" y="0px"
	 viewBox="0 0 100 101" style="enable-background:new 0 0 100 101;" xml:space="preserve">
<style type="text/css">
	.st0{fill-rule:evenodd;clip-rule:evenodd;fill:#FFE808;}
	.st1{fill:#0C2534;}
	.st2{fill-rule:evenodd;clip-rule:evenodd;fill:#205F89;}
	.st3{fill-rule:evenodd;clip-rule:evenodd;fill:#B93128;}
	.st4{fill-rule:evenodd;clip-rule:evenodd;fill:#0C2534;}
</style>
<g transform="translate(-105 -534)">
	<g>
		<path class="st0" d="M107.5,584.5c0-26.5,21.5-48,48-48s48,21.5,48,48s-21.5,48-48,48S107.5,611,107.5,584.5z"/>
		<path class="st1" d="M155.5,634c-27.3,0-49.5-22.2-49.5-49.5c0-27.3,22.2-49.5,49.5-49.5c27.3,0,49.5,22.2,49.5,49.5
			C205,611.8,182.8,634,155.5,634z M155.5,538c-25.6,0-46.5,20.9-46.5,46.5c0,25.6,20.9,46.5,46.5,46.5c25.6,0,46.5-20.9,46.5-46.5
			C202,558.9,181.1,538,155.5,538z"/>
	</g>
	<g>
		<path class="st0" d="M182,589c0,15.5-12.3,28-27.5,28S127,604.5,127,589s12.3-28,27.5-28S182,573.5,182,589z"/>
	</g>
	<g>
		<path class="st2" d="M176,589c0,11.6-9.4,21-21,21s-21-9.4-21-21s9.4-21,21-21S176,577.4,176,589z"/>
	</g>
	<g>
		<path class="st3" d="M158,589.5c0,1.9-1.6,3.5-3.5,3.5s-3.5-1.6-3.5-3.5s1.6-3.5,3.5-3.5S158,587.6,158,589.5z"/>
	</g>
	<g>
		<path class="st2" d="M150,552h10v5h-10V552z"/>
	</g>
	<g>
		<path class="st3" d="M170.3,566L170.3,566l3.7-5.7l-4.4-2.3l-3.6,5.7l0.1,0C167.5,564.4,169,565.1,170.3,566z"/>
	</g>
	<g>
		<path class="st3" d="M139.2,566c1.2-0.9,2.4-1.6,3.8-2.2l0,0l-3.1-5.7l-3.9,2.3L139.2,566L139.2,566z"/>
	</g>
	<g>
		<path class="st2" d="M152,557v5h0.1c0.8-0.1,1.6-0.1,2.4-0.1s1.6,0,2.4,0.1h0.1v-5H152z"/>
	</g>
	<g>
		<path class="st4" d="M128.6,594.8c-3.3-14.3,5.5-28.5,19.8-31.8c10.6-2.5,21.6,1.8,27.8,10.8c0.3,0.4,0.9,0.6,1.4,0.2
			c0.4-0.3,0.6-0.9,0.2-1.4c-1.8-2.6-4-4.8-6.5-6.7l2.8-4.9c0.3-0.5,0.1-1.1-0.4-1.3l-4-2.3c-0.5-0.3-1.1-0.1-1.3,0.4l-2.8,4.9
			c-2.5-1.1-5.2-1.8-8-2.1v-3h2c0.5,0,1-0.4,1-1V552c0-0.5-0.4-1-1-1c0,0,0,0,0,0h-10.5c-0.5,0-1,0.4-1,1v0v4.6c0,0.5,0.4,1,1,1h2v3
			c-2.7,0.3-5.4,1-8,2.1l-2.8-4.9c-0.3-0.5-0.9-0.6-1.3-0.4c0,0,0,0,0,0l-4,2.3c-0.5,0.3-0.6,0.9-0.4,1.3l2.8,4.9
			c-9.1,6.7-13.4,18.3-10.8,29.3c0.1,0.4,0.5,0.8,0.9,0.8c0.1,0,0.2,0,0.2,0C128.4,595.9,128.8,595.3,128.6,594.8
			C128.6,594.8,128.6,594.8,128.6,594.8z M169.7,559.6l2.3,1.3l-2.3,3.9c-0.7-0.5-1.5-0.9-2.3-1.3L169.7,559.6z M150.2,553h8.5v2.6
			h-8.5V553z M153.1,557.5h2.6v2.8c-0.4,0-0.9,0-1.3,0c-0.4,0-0.9,0-1.3,0V557.5z M136.9,560.9l2.3-1.3l2.3,3.9
			c-0.8,0.4-1.5,0.8-2.3,1.3L136.9,560.9z"/>
	</g>
	<g>
		<path class="st4" d="M180.3,576.6c-0.2-0.5-0.8-0.7-1.3-0.5c-0.5,0.2-0.7,0.8-0.5,1.3c6.2,13.5,0.5,29.7-12.7,36
			c-11.1,5.3-24.4,2.2-32.1-7.6c-0.3-0.4-1-0.5-1.4-0.1c-0.4,0.3-0.5,0.9-0.1,1.4c9.8,12.5,27.8,14.6,40.1,4.5
			C182.6,603.2,185.9,588.7,180.3,576.6L180.3,576.6z"/>
	</g>
	<g>
		<path class="st4" d="M129.8,599.5c-0.2-0.5-0.8-0.7-1.3-0.5c-0.5,0.2-0.7,0.7-0.5,1.2c0.3,0.8,0.7,1.5,1.1,2.2
			c0.2,0.4,0.8,0.6,1.3,0.4c0.5-0.2,0.7-0.8,0.4-1.2c0,0,0,0,0,0C130.5,601,130.2,600.3,129.8,599.5z"/>
	</g>
	<g>
		<path class="st4" d="M174,577.9C174,577.9,173.9,577.8,174,577.9c-2-3.3-4.7-6-7.9-7.9c0,0-0.1,0-0.1-0.1c0,0-0.1,0-0.1,0
			c-6.8-3.9-15.2-3.9-21.9,0.1c0,0-0.1,0-0.1,0c0,0-0.1,0-0.1,0.1c-3.2,1.9-5.9,4.6-7.8,7.8c0,0.1-0.1,0.1-0.1,0.2
			c-3.9,6.8-3.9,15.2,0.1,21.9c0,0,0,0.1,0,0.1c0,0,0,0,0,0.1c1.9,3.2,4.6,5.9,7.8,7.8c0,0,0.1,0,0.1,0.1c0,0,0.1,0,0.1,0
			c6.8,3.9,15.2,3.9,22-0.1c0,0,0.1,0,0.1,0c0,0,0,0,0.1-0.1c3.2-1.9,5.9-4.6,7.8-7.8c0,0,0,0,0-0.1c0,0,0-0.1,0-0.1
			C178,593.1,178,584.8,174,577.9C174,577.9,174,577.9,174,577.9z M166,605.8l-1.2-2.1c-0.3-0.5-0.9-0.6-1.3-0.3
			c-0.5,0.3-0.6,0.9-0.3,1.3l1.2,2.1c-2.6,1.4-5.4,2.1-8.3,2.3v-2.5c0-0.5-0.4-1-1-1s-1,0.4-1,1v2.5c-2.9-0.1-5.7-0.9-8.2-2.2
			l1.2-2.1c0.3-0.5,0.1-1.1-0.4-1.3c-0.5-0.3-1-0.1-1.3,0.3l-1.2,2.1c-2.4-1.5-4.4-3.5-5.9-5.9l2.1-1.2c0.5-0.3,0.6-0.9,0.3-1.3
			c-0.3-0.5-0.9-0.6-1.3-0.3l-2.1,1.2c-1.4-2.6-2.1-5.4-2.3-8.3h2.5c0.5,0,1-0.4,1-1c0-0.5-0.4-1-1-1H135c0.1-2.9,0.9-5.7,2.2-8.2
			l2.1,1.2c0.5,0.3,1.1,0.1,1.3-0.4c0.2-0.5,0.1-1-0.3-1.3l-2.1-1.2c1.5-2.4,3.5-4.4,5.9-5.9l1.2,2.1c0.3,0.5,0.9,0.6,1.3,0.3
			c0.5-0.3,0.6-0.9,0.3-1.3l-1.2-2.1c2.6-1.4,5.4-2.1,8.3-2.3v2.5c0,0.5,0.4,1,1,1s1-0.4,1-1V569c2.9,0.1,5.7,0.9,8.2,2.2l-1.2,2.1
			c-0.3,0.5-0.1,1.1,0.3,1.3c0.5,0.3,1.1,0.1,1.3-0.3c0,0,0,0,0,0l1.2-2.1c2.4,1.5,4.4,3.5,5.9,5.9l-2.1,1.2
			c-0.5,0.3-0.6,0.9-0.4,1.3s0.9,0.6,1.3,0.4c0,0,0,0,0,0l2.1-1.2c1.4,2.6,2.1,5.4,2.3,8.3h-2.5c-0.5,0-1,0.4-1,1c0,0.5,0.4,1,1,1
			h2.5c-0.1,2.9-0.9,5.7-2.2,8.2l-2.1-1.2c-0.5-0.3-1.1-0.1-1.3,0.4c-0.3,0.5-0.1,1.1,0.4,1.3l2.1,1.2
			C170.3,602.2,168.3,604.2,166,605.8z"/>
	</g>
	<g>
		<path class="st4" d="M170,589.3c0-0.6-0.5-1-1-1h-9.8c-0.4-1.8-1.8-3.1-3.5-3.5V575c0-0.6-0.5-1-1-1c-0.6,0-1,0.5-1,1v9.8
			c-2.5,0.6-4.1,3-3.5,5.5c0.6,2.5,3,4.1,5.6,3.5c1.8-0.4,3.1-1.8,3.5-3.5h9.8C169.5,590.4,170,589.9,170,589.3z M154.6,592
			c-1.4,0-2.6-1.2-2.6-2.6c0-1.4,1.2-2.6,2.6-2.6c1.4,0,2.6,1.2,2.6,2.6v0C157.3,590.8,156.1,592,154.6,592z"/>
	</g>
</g>
</svg>
