<?xml version="1.0" encoding="utf-8"?>
<!-- Generator: Adobe Illustrator 25.0.0, SVG Export Plug-In . SVG Version: 6.00 Build 0)  -->
<svg version="1.1" id="Layer_1" xmlns="http://www.w3.org/2000/svg" xmlns:xlink="http://www.w3.org/1999/xlink" x="0px" y="0px"
	 viewBox="0 0 101 100" style="enable-background:new 0 0 101 100;" xml:space="preserve">
<style type="text/css">
	.st0{fill-rule:evenodd;clip-rule:evenodd;fill:#FFE808;}
	.st1{fill:#0C2534;}
	.st2{fill-rule:evenodd;clip-rule:evenodd;fill:#B93128;}
	.st3{fill-rule:evenodd;clip-rule:evenodd;fill:#205F89;}
	.st4{fill-rule:evenodd;clip-rule:evenodd;}
</style>
<g transform="translate(50 -928)">
	<g>
		<path class="st0" d="M-47.5,978.5c0-26.5,21.5-48,48-48s48,21.5,48,48s-21.5,48-48,48S-47.5,1005-47.5,978.5z"/>
		<path class="st1" d="M0.5,1028c-27.3,0-49.5-22.2-49.5-49.5c0-27.3,22.2-49.5,49.5-49.5c27.3,0,49.5,22.2,49.5,49.5
			C50,1005.8,27.8,1028,0.5,1028z M0.5,932c-25.6,0-46.5,20.9-46.5,46.5c0,25.6,20.9,46.5,46.5,46.5c25.6,0,46.5-20.9,46.5-46.5
			C47,952.9,26.1,932,0.5,932z"/>
	</g>
	<g>
		<path class="st2" d="M-12,983v21.1c0,1.6-1.3,2.9-3,2.9c-0.8,0-1.6-0.3-2.1-0.8c-0.5-0.5-0.9-1.2-0.9-2v-17.3v-0.7
			c0-0.8,0.3-1.5,0.9-2l1.1-1.1H-12z"/>
	</g>
	<g>
		<path class="st2" d="M-16,983l-1.1,1.1c-0.6,0.5-0.9,1.3-0.9,2v0.7v17.3c0,0.8-0.3,1.5-0.9,2c-0.5,0.5-1.3,0.8-2.1,0.8
			c-1.7,0-3-1.3-3-2.9v-18.2V983H-16z"/>
	</g>
	<g>
		<path class="st3" d="M-12.2,973.7c-0.6,1.3-1,2.8-1,4.4c0,1.6,0.4,3,1,4.4v0.6h-3.9h-7.9v3h-2c-1.6,0-3-1.3-3-3v-10
			c0-3,1.2-5.8,3.2-7.8c0.9-0.9,2-1.7,3.2-2.2c0.4,2.9,1.3,5.6,2.7,8.1c0.3,0.6,0.7,1.2,1,1.7l0.7,1.1l0.8-1.2
			c0.4-0.5,0.7-1.1,1-1.7v0c1.4-2.5,2.3-5.3,2.7-8.1c2.6,1.2,4.7,3.4,5.7,6.2C-9.8,970.2-11.3,971.7-12.2,973.7z"/>
	</g>
	<g>
		<path class="st0" d="M-19,962l-0.8,9c-1.7-2.5-2.7-5.2-3.2-8.1C-21.8,962.4-20.4,962.1-19,962z"/>
	</g>
	<g>
		<path class="st3" d="M22,970c4.4,0,8,3.4,8,7.6c0,2.1-0.9,4.1-2.4,5.4c-0.9-2.1-3-3.5-5.6-3.5c1.7,0,3-1.3,3-2.8
			c0-1.6-1.3-2.8-3-2.8s-3,1.3-3,2.8c0,1.6,1.3,2.8,3,2.8c-2.5,0-4.7,1.5-5.6,3.5c-1.5-1.4-2.4-3.3-2.4-5.4
			C14,973.4,17.6,970,22,970z"/>
	</g>
	<g>
		<path class="st2" d="M21.5,980c2.5,0,4.6,1.5,5.5,3.8c-1.4,1.4-3.4,2.2-5.5,2.2s-4.1-0.9-5.5-2.2C16.9,981.5,19,980,21.5,980z"/>
	</g>
	<g>
		<path class="st0" d="M25,977c0,1.7-1.3,3-3,3s-3-1.3-3-3s1.3-3,3-3S25,975.3,25,977z"/>
	</g>
	<g>
		<path class="st3" d="M14,949c4.4,0,8,3.4,8,7.6c0,2.1-0.9,4.1-2.4,5.4c-0.9-2.1-3-3.5-5.6-3.5c1.7,0,3-1.3,3-2.8
			c0-1.6-1.3-2.8-3-2.8s-3,1.3-3,2.8c0,1.6,1.3,2.8,3,2.8c-2.5,0-4.7,1.5-5.6,3.5c-1.5-1.4-2.4-3.3-2.4-5.4C6,952.4,9.6,949,14,949z
			"/>
	</g>
	<g>
		<path class="st3" d="M14,992c4.4,0,8,3.4,8,7.6c0,2.1-0.9,4.1-2.4,5.4c-0.9-2.1-3-3.5-5.6-3.5c1.7,0,3-1.3,3-2.8
			c0-1.6-1.3-2.8-3-2.8s-3,1.3-3,2.8c0,1.6,1.3,2.8,3,2.8c-2.5,0-4.7,1.5-5.6,3.5c-1.5-1.4-2.4-3.3-2.4-5.4c0-3.1,1.9-5.7,4.7-6.9
			C11.7,992.2,12.8,992,14,992z"/>
	</g>
	<g>
		<path class="st2" d="M14,958c2.3,0,4.2,1.5,5,3.8c-1.3,1.4-3.1,2.2-5,2.2c-1.1,0-2.1-0.2-3-0.7c-0.8-0.4-1.4-0.9-2-1.5
			C9.8,959.5,11.7,958,14,958z"/>
	</g>
	<g>
		<path class="st2" d="M14,1001c2.3,0,4.2,1.5,5,3.8c-1.3,1.4-3.1,2.2-5,2.2s-3.7-0.9-5-2.2C9.8,1002.5,11.7,1001,14,1001z"/>
	</g>
	<g>
		<path class="st0" d="M17,955c0,1.7-1.3,3-3,3s-3-1.3-3-3s1.3-3,3-3S17,953.3,17,955z"/>
	</g>
	<g>
		<path class="st0" d="M17,998c0,1.7-1.3,3-3,3s-3-1.3-3-3s1.3-3,3-3S17,996.3,17,998z"/>
	</g>
	<g>
		<path class="st0" d="M3.2,970.9c1.7,1.8,2.8,4.3,2.8,7.1s-1.1,5.3-2.8,7.1s-4.1,2.9-6.7,2.9c-3.8,0-7-2.3-8.6-5.6
			c-0.6-1.3-0.9-2.8-0.9-4.4s0.3-3,0.9-4.4c0.9-1.9,2.3-3.5,4.1-4.5c1.3-0.8,2.8-1.2,4.5-1.2C-0.9,968,1.5,969.1,3.2,970.9z"/>
	</g>
	<g>
		<path class="st0" d="M-11,955.5c0,3.6-3.1,6.5-7,6.5s-7-2.9-7-6.5s3.1-6.5,7-6.5S-11,951.9-11,955.5z"/>
	</g>
	<g>
		<path class="st0" d="M-14,962.9L-14,962.9c-0.4,2.8-1.2,5.6-2.4,8.1l-0.6-9C-15.9,962.1-14.9,962.4-14,962.9z"/>
	</g>
	<g>
		<path class="st2" d="M-16.7,962.1l0.7,9.1v0c-0.4,0.6-0.7,1.1-1.1,1.7L-18,974l-0.8-1.1c-0.4-0.6-0.8-1.2-1.2-1.8l0.7-9.1
			c0.4,0,0.8-0.1,1.3-0.1S-17.1,962-16.7,962.1z"/>
	</g>
	<g>
		<path class="st4" d="M7.3,979h6c0.5,4.3,4.2,7.7,8.8,7.7c4.9,0,8.9-3.9,8.9-8.7s-4-8.7-8.9-8.7c-4.5,0-8.3,3.4-8.8,7.7h-6
			c-0.2-2.2-1.1-4.2-2.5-5.8l6.4-6.3c0.9,0.3,1.9,0.5,3,0.5c4.9,0,8.9-3.9,8.9-8.7s-4-8.7-8.9-8.7c-4.9,0-8.9,3.9-8.9,8.7
			c0,3,1.6,5.7,4,7.3l-5.9,5.8c-1.9-1.5-4.3-2.5-6.9-2.5c-1.5,0-2.8,0.3-4.1,0.8c-1.3-2.7-3.7-4.8-6.5-5.9c2.2-1.4,3.7-3.8,3.7-6.6
			c0-4.3-3.5-7.7-7.9-7.7c-4.3,0-7.9,3.5-7.9,7.7c0,2.8,1.5,5.2,3.7,6.6c-4.5,1.7-7.7,5.9-7.7,10.9v9.7c0,2.1,1.8,3.9,3.9,3.9h1
			v17.4c0,2.1,1.8,3.9,3.9,3.9c1.2,0,2.2-0.5,3-1.3c0.7,0.8,1.8,1.3,3,1.3c2.2,0,3.9-1.7,3.9-3.9v-18.8c2,2.1,4.8,3.4,7.9,3.4
			c2.6,0,5-0.9,6.9-2.5l5.9,5.8c-2.4,1.6-4,4.2-4,7.3c0,4.8,4,8.7,8.9,8.7c4.9,0,8.9-3.9,8.9-8.7c0-4.8-4-8.7-8.9-8.7
			c-1.1,0-2.1,0.2-3,0.5l-6.4-6.3C6.2,983.2,7.1,981.2,7.3,979z M10,962c0.9-1.5,2.5-2.4,4.3-2.4s3.4,0.9,4.3,2.4
			c-1.2,0.9-2.6,1.5-4.3,1.5S11.2,962.9,10,962z M12.3,955.7c0-1.1,0.9-1.9,2-1.9s2,0.9,2,1.9c0,1.1-0.9,1.9-2,1.9
			S12.3,956.8,12.3,955.7z M14.3,949.9c3.8,0,6.9,3,6.9,6.8c0,1.4-0.5,2.8-1.3,3.9c-0.7-1-1.6-1.8-2.7-2.3c0.6-0.7,1-1.6,1-2.6
			c0-2.1-1.8-3.9-3.9-3.9s-3.9,1.7-3.9,3.9c0,1,0.4,1.9,1,2.6c-1.1,0.5-2,1.3-2.7,2.3c-0.8-1.1-1.3-2.4-1.3-3.9
			C7.4,953,10.5,949.9,14.3,949.9z M10,1004.6c0.9-1.5,2.5-2.4,4.3-2.4s3.4,0.9,4.3,2.4c-1.2,0.9-2.6,1.5-4.3,1.5
			S11.2,1005.5,10,1004.6z M12.3,998.3c0-1.1,0.9-1.9,2-1.9s2,0.9,2,1.9c0,1.1-0.9,1.9-2,1.9S12.3,999.4,12.3,998.3z M21.2,999.3
			c0,1.4-0.5,2.8-1.3,3.9c-0.7-1-1.6-1.8-2.7-2.3c0.6-0.7,1-1.6,1-2.6c0-2.1-1.8-3.9-3.9-3.9s-3.9,1.7-3.9,3.9c0,1,0.4,1.9,1,2.6
			c-1.1,0.5-2,1.3-2.7,2.3c-0.8-1.1-1.3-2.4-1.3-3.9c0-3.7,3.1-6.8,6.9-6.8C18.1,992.5,21.2,995.6,21.2,999.3z M17.9,983.3
			c0.9-1.5,2.5-2.4,4.3-2.4c1.8,0,3.4,0.9,4.3,2.4c-1.2,0.9-2.6,1.5-4.3,1.5S19.1,984.2,17.9,983.3z M20.2,977c0-1.1,0.9-1.9,2-1.9
			c1.1,0,2,0.9,2,1.9c0,1.1-0.9,1.9-2,1.9C21.1,979,20.2,978.1,20.2,977z M22.1,971.2c3.8,0,6.9,3,6.9,6.8c0,1.4-0.5,2.8-1.3,3.9
			c-0.7-1-1.6-1.8-2.7-2.3c0.6-0.7,1-1.6,1-2.6c0-2.1-1.8-3.9-3.9-3.9c-2.2,0-3.9,1.7-3.9,3.9c0,1,0.4,1.9,1,2.6
			c-1.1,0.5-2,1.3-2.7,2.3c-0.8-1.1-1.3-2.4-1.3-3.9C15.3,974.3,18.3,971.2,22.1,971.2z M-21.6,964.1c0.4-0.1,0.8-0.3,1.2-0.3
			l-0.3,3.7C-21,966.3-21.3,965.2-21.6,964.1z M-18.4,963.5c0.1,0,0.1,0,0.2,0c0.1,0,0.1,0,0.2,0l0.6,7.7c-0.2,0.4-0.5,0.8-0.8,1.2
			c-0.3-0.4-0.5-0.8-0.8-1.2L-18.4,963.5z M-15.7,967.5l-0.3-3.7c0.4,0.1,0.8,0.2,1.2,0.4C-15,965.2-15.3,966.4-15.7,967.5z
			 M-24.1,955.7c0-3.2,2.6-5.8,5.9-5.8c3.3,0,5.9,2.6,5.9,5.8c0,3.2-2.6,5.8-5.9,5.8C-21.4,961.5-24.1,958.9-24.1,955.7z
			 M-26.1,984.8c-1.1,0-2-0.9-2-1.9v-9.7c0-3.5,1.9-6.5,4.6-8.2c0.6,3.1,1.9,6,3.6,8.6l1.6,2.3l1.6-2.3c1.7-2.6,3-5.5,3.6-8.6
			c1.6,1,2.9,2.4,3.7,4.1c-0.7,0.5-1.4,1-2,1.7v-2.4h-2v5.3c-0.6,1.3-1,2.8-1,4.4c0,1.4,0.3,2.7,0.8,3.9h-9.6v-13.5h-2v16.5H-26.1z
			 M-21.1,1006.1c-1.1,0-2-0.9-2-1.9v-20.3h4.6c-0.4,0.6-0.7,1.4-0.7,2.2v0.7v17.4C-19.2,1005.2-20.1,1006.1-21.1,1006.1z
			 M-15.2,1006.1c-1.1,0-2-0.9-2-1.9v-17.4V986c0-0.5,0.2-1,0.6-1.4l0.8-0.8h2.5v20.3C-13.3,1005.2-14.2,1006.1-15.2,1006.1z
			 M-3.4,986.7c-4.9,0-8.9-3.9-8.9-8.7s4-8.7,8.9-8.7s8.9,3.9,8.9,8.7S1.4,986.7-3.4,986.7z"/>
	</g>
	<g>
		<path class="st4" d="M-2.6,975c0.5,0,0.9,0.4,0.9,1H0c0-1.7-1.2-3-2.6-3v-2h-1.8v2H-7v3c0,1.7,1.2,3,2.6,3h1.8
			c0.5,0,0.9,0.4,0.9,1v1h-2.6c-0.5,0-0.9-0.4-0.9-1H-7c0,1.7,1.2,3,2.6,3v2h1.8v-2H0v-3c0-1.7-1.2-3-2.6-3h-1.8
			c-0.5,0-0.9-0.4-0.9-1v-1H-2.6z"/>
	</g>
</g>
</svg>
