<?xml version="1.0" encoding="utf-8"?>
<!-- Generator: Adobe Illustrator 25.0.0, SVG Export Plug-In . SVG Version: 6.00 Build 0)  -->
<svg version="1.1" id="Layer_1" xmlns="http://www.w3.org/2000/svg" xmlns:xlink="http://www.w3.org/1999/xlink" x="0px" y="0px"
	 viewBox="0 0 101 101" style="enable-background:new 0 0 101 101;" xml:space="preserve">
<style type="text/css">
	.st0{fill-rule:evenodd;clip-rule:evenodd;fill:#FFE808;}
	.st1{fill:#0C2534;}
	.st2{fill-rule:evenodd;clip-rule:evenodd;fill:#B93128;}
	.st3{fill-rule:evenodd;clip-rule:evenodd;fill:#205F89;}
	.st4{fill-rule:evenodd;clip-rule:evenodd;fill:#0C2534;}
</style>
<g transform="translate(-319 -549)">
	<g>
		<path class="st0" d="M322.5,599.5c0-26.5,21.5-48,48-48s48,21.5,48,48s-21.5,48-48,48S322.5,626,322.5,599.5z"/>
		<path class="st1" d="M370.5,649c-27.3,0-49.5-22.2-49.5-49.5s22.2-49.5,49.5-49.5s49.5,22.2,49.5,49.5S397.8,649,370.5,649z
			 M370.5,553c-25.6,0-46.5,20.9-46.5,46.5s20.9,46.5,46.5,46.5s46.5-20.9,46.5-46.5S396.1,553,370.5,553z"/>
	</g>
	<g>
		<path class="st2" d="M397,616.8l-5.5,7.2l-5.5-7.2h2.8V606h5.5v10.8H397z"/>
	</g>
	<g>
		<path class="st2" d="M357,616.8l-5,7.2l-5-7.2h2.5V606h5v10.8H357z"/>
	</g>
	<g>
		<path class="st0" d="M345,578h53v25h-53V578z"/>
	</g>
	<g>
		<path class="st3" d="M365.4,599.5V597c1.6,1.5,3.7,2.5,6.1,2.5s4.5-1,6.1-2.5v2.5v3.5v17.5h4.4l-9,9.9c-0.4,0.4-0.9,0.6-1.5,0.6
			s-1.1-0.2-1.5-0.6l-9-9.9h4.4V603V599.5z"/>
	</g>
	<g>
		<path class="st0" d="M362.8,590c0,2.5,1.1,4.8,2.8,6.4v2.6h-12c0-3-2.5-5.4-5.5-5.4v-7.2c3.1,0,5.5-2.4,5.5-5.4H372
			C366.9,581,362.8,585,362.8,590z"/>
	</g>
	<g>
		<path class="st0" d="M378.2,596.4c1.6-1.6,2.7-3.9,2.7-6.4c0-5-4-9-8.8-9h17.7c0,3,2.4,5.4,5.3,5.4v7.2c-2.9,0-5.3,2.4-5.3,5.4
			h-11.5v-2.6H378.2z"/>
	</g>
	<g>
		<path class="st0" d="M395,581v6c-3.3,0-6-2.7-6-6H395z"/>
	</g>
	<g>
		<path class="st0" d="M395,594v5h-6C389,596.2,391.7,594,395,594z"/>
	</g>
	<g>
		<path class="st0" d="M348,581v6c3.3,0,6-2.7,6-6H348z"/>
	</g>
	<g>
		<path class="st0" d="M348,594v5h6C354,596.2,351.3,594,348,594z"/>
	</g>
	<g>
		<path class="st0" d="M372,581c5,0,9,4,9,9c0,2.5-1,4.8-2.7,6.4c-1.6,1.6-3.8,2.6-6.3,2.6s-4.7-1-6.3-2.6c-1.7-1.6-2.7-3.9-2.7-6.4
			C363,585,367,581,372,581z"/>
	</g>
	<g>
		<path class="st4" d="M370.6,593.3c-0.5,0-0.9-0.4-0.9-0.9H368c0,1.5,1.2,2.8,2.6,2.8v1.9h1.8v-1.9h2.6v-2.8c0-1.5-1.2-2.8-2.6-2.8
			h-1.8c-0.5,0-0.9-0.4-0.9-0.9v-0.9h2.6c0.5,0,0.9,0.4,0.9,0.9h1.8c0-1.5-1.2-2.8-2.6-2.8V584h-1.8v1.9H368v2.8
			c0,1.5,1.2,2.8,2.6,2.8h1.8c0.5,0,0.9,0.4,0.9,0.9v0.9L370.6,593.3L370.6,593.3z"/>
	</g>
	<g>
		<path class="st4" d="M372.4,609.4c0.5,0,0.9,0.4,0.9,0.9h1.8c0-1.4-1.2-2.6-2.6-2.6V606h-1.8v1.7H368v2.6c0,1.4,1.2,2.6,2.6,2.6
			h1.8c0.5,0,0.9,0.4,0.9,0.9v0.9h-2.6c-0.5,0-0.9-0.4-0.9-0.9H368c0,1.4,1.2,2.6,2.6,2.6v1.7h1.8v-1.7h2.6v-2.6
			c0-1.4-1.2-2.6-2.6-2.6h-1.8c-0.5,0-0.9-0.4-0.9-0.9v-0.9L372.4,609.4L372.4,609.4z"/>
	</g>
	<g>
		<path class="st4" d="M344,577v26.6h20.4v16h-5.6l10.5,11.5c0.5,0.6,1.3,0.9,2.1,0.9s1.6-0.3,2.1-0.9l10.5-11.5h-5.6v-16H399V577
			H344z M349.3,594.8c1.7,0.4,3.1,1.7,3.5,3.5h-3.5V594.8z M354.6,598.3c-0.4-2.7-2.5-4.9-5.3-5.3v-5.5c2.7-0.4,4.9-2.5,5.3-5.3
			h11.3c-2.5,1.8-4.2,4.7-4.2,8c0,2.6,1,4.9,2.7,6.7v1.3L354.6,598.3L354.6,598.3z M349.3,585.8v-3.5h3.5
			C352.4,584.1,351.1,585.4,349.3,585.8z M393.7,585.8c-1.7-0.4-3.1-1.7-3.5-3.5h3.5V585.8z M388.4,582.3c0.4,2.7,2.5,4.9,5.3,5.3
			v5.5c-2.7,0.4-4.9,2.5-5.3,5.3h-9.8V597c1.6-1.7,2.7-4.1,2.7-6.7c0-3.3-1.7-6.2-4.2-8H388.4z M393.7,594.8v3.5h-3.5
			C390.6,596.6,391.9,595.2,393.7,594.8z M379.5,590.3c0,4.4-3.6,8-8,8s-8-3.6-8-8s3.6-8,8-8S379.5,585.9,379.5,590.3z M380.1,621.4
			l-7.8,8.5c-0.4,0.5-1.2,0.5-1.7,0l-7.8-8.5h3.3v-22.9c1.5,1,3.4,1.6,5.3,1.6s3.8-0.6,5.3-1.6v22.9H380.1z M397.2,601.8h-18.6V600
			h16.9v-19.5h-47.9V600h16.9v1.8h-18.6v-23.1h51.5v23.1H397.2z"/>
	</g>
	<g>
		<path class="st4" d="M355.5,616.6V606h-7v10.6H345l7,9.4l7-9.4H355.5z M352,623.1l-3.5-4.7h1.8v-10.6h3.5v10.6h1.8L352,623.1z"/>
	</g>
	<g>
		<path class="st4" d="M394.5,606h-7v10.6H384l7,9.4l7-9.4h-3.5V606z M391,623.1l-3.5-4.7h1.8v-10.6h3.5v10.6h1.8L391,623.1z"/>
	</g>
</g>
</svg>
