<?xml version="1.0" encoding="utf-8"?>
<!-- Generator: Adobe Illustrator 25.0.0, SVG Export Plug-In . SVG Version: 6.00 Build 0)  -->
<svg version="1.1" id="Layer_1" xmlns="http://www.w3.org/2000/svg" xmlns:xlink="http://www.w3.org/1999/xlink" x="0px" y="0px"
	 viewBox="0 0 100 101" style="enable-background:new 0 0 100 101;" xml:space="preserve">
<style type="text/css">
	.st0{fill:none;}
	.st1{fill-rule:evenodd;clip-rule:evenodd;fill:#FFE808;}
	.st2{fill:#0C2534;}
	.st3{fill-rule:evenodd;clip-rule:evenodd;fill:#B93128;}
	.st4{fill-rule:evenodd;clip-rule:evenodd;fill:#FFD4BE;}
	.st5{fill-rule:evenodd;clip-rule:evenodd;fill:#205F89;}
	.st6{fill-rule:evenodd;clip-rule:evenodd;fill:#0C2534;}
	.st7{fill-rule:evenodd;clip-rule:evenodd;}
</style>
<g>
	<rect y="0" class="st0" width="100" height="101"/>
</g>
<path class="st1" d="M2.5,51.5c0-26.5,21.5-48,48-48c26.5,0,48,21.5,48,48s-21.5,48-48,48C24,99.5,2.5,78,2.5,51.5z"/>
<path class="st2" d="M50.5,101C23.2,101,1,78.8,1,51.5C1,24.2,23.2,2,50.5,2C77.8,2,100,24.2,100,51.5C100,78.8,77.8,101,50.5,101z
	 M50.5,5C24.9,5,4,25.9,4,51.5C4,77.1,24.9,98,50.5,98C76.1,98,97,77.1,97,51.5C97,25.9,76.1,5,50.5,5z"/>
<g>
	<path class="st3" d="M61,38c0,5.5-4.5,10-10,10c-0.5,0-1,0-1.5-0.1c0,0,0,0,0,0c0.1,0,0.2-0.1,0.4-0.1c1-0.4,1.7-1.5,1.7-2.6
		c0-0.8-0.3-1.5-0.8-2c-0.5-0.5-1.2-0.8-2-0.8H42c-0.6-1.3-1-2.7-1-4.3c0-0.1,0-0.2,0-0.3c0,0,0,0,0,0c0-0.1,0-0.3,0-0.4
		c0.1-1.5,0.6-3,1.4-4.4c0.2-0.4,0.5-0.7,0.7-1.1c0.1-0.1,0.2-0.3,0.3-0.4C45.3,29.3,48,28,51,28C56.5,28,61,32.5,61,38z"/>
</g>
<g>
	<path class="st4" d="M70,51h-8.2l-9.1,3.8c-1.6,0.7-2.3,2.5-1.7,4.1l0,0.1c0.7,1.6,2.5,2.4,4.1,1.8c2.6-1,6-2.3,6-2.3l-8.7,3.4
		c-1.8,0.7-3.8,0.9-5.8,0.4l-8.9-2.1c-1.6-0.4-3.3,0.7-3.6,2.3c-0.3,1.6,0.6,3.1,2.2,3.5l10.7,2.7c2,0.5,4.1,0.4,6.1-0.4l13.8-5.4
		H70V51z"/>
</g>
<g>
	<path class="st1" d="M70,51h-8.2l-9.1,3.8c-1.6,0.7-2.3,2.5-1.7,4.1l0,0.1c0.7,1.6,2.5,2.4,4.1,1.8c2.6-1,6-2.3,6-2.3l-8.7,3.4
		c-1.8,0.7-3.8,0.9-5.8,0.4l-8.9-2.1c-1.6-0.4-3.3,0.7-3.6,2.3c-0.3,1.6,0.6,3.1,2.2,3.5l10.7,2.7c2,0.5,4.1,0.4,6.1-0.4l13.8-5.4
		H70V51z"/>
</g>
<g>
	<path class="st5" d="M70,49h7v15h-7V49z"/>
</g>
<g>
	<path class="st5" d="M20,34h7v15h-7V34z"/>
</g>
<g>
	<path class="st1" d="M52,45.1c0,1.2-0.7,2.2-1.7,2.7c-0.1,0.1-0.2,0.1-0.4,0.1C49.6,48,49.4,48,49.1,48H27V34.9h1.5
		c0.7,0,1.3-0.2,1.9-0.5l7.5-4.9c1.4-0.7,3.2-0.6,4.5,0.4l1.5,1.1c-1.5,1.7-2.5,4-2.6,6.5h-0.7c-0.6,0-1.2,0.3-1.6,0.7
		c-0.4,0.4-0.7,1-0.7,1.7c0,1.3,1,2.3,2.3,2.3h8.5c0.8,0,1.5,0.3,2.1,0.9C51.7,43.5,52,44.3,52,45.1z"/>
</g>
<g>
	<path class="st4" d="M41,38c0.1-0.3,0.5-0.7,1-1C41.5,37.3,41.1,37.7,41,38z"/>
</g>
<g>
	<path class="st6" d="M76.8,47h-6.9c-0.6,0-1.2,0.5-1.2,1.2v1h-7.3c-0.2,0-0.3,0-0.4,0.1l-9.3,3.9c-1.1,0.5-1.9,1.3-2.4,2.4
		c-0.4,1.1-0.4,2.3,0,3.4l0,0.1c0.3,0.6,0.7,1.2,1.1,1.6c-1.4,0.4-2.9,0.4-4.3,0.1l-9.1-2.1c-1.1-0.3-2.3-0.1-3.2,0.6
		c-1,0.6-1.6,1.6-1.9,2.7c-0.5,2.2,0.9,4.4,3.1,5l10.9,2.8c0.9,0.2,1.9,0.4,2.8,0.4c1.4,0,2.8-0.3,4.1-0.8l13.8-5.5h2v0.6
		c0,0.6,0.5,1.2,1.2,1.2h6.9c0.6,0,1.2-0.5,1.2-1.2V48.2C78,47.5,77.5,47,76.8,47z M66.6,61.4c-0.1,0-0.3,0-0.4,0.1l-14,5.6
		c-1.8,0.7-3.6,0.8-5.5,0.3l-10.9-2.8c-1-0.3-1.6-1.2-1.4-2.2c0.1-0.5,0.4-0.9,0.8-1.2c0.3-0.2,0.7-0.3,1-0.3c0.1,0,0.3,0,0.4,0
		l9.1,2.1c2.2,0.5,4.5,0.3,6.6-0.5l2.6-1c0.1,0,0.1,0,0.2-0.1c2.3-0.9,5.3-2.1,6-2.3l0.1,0c0.6-0.2,0.9-0.9,0.7-1.5
		c-0.2-0.6-0.9-0.9-1.5-0.7c0,0,0,0-0.1,0.1l-6.1,2.4c-1,0.3-2.1-0.2-2.6-1.2l0-0.1c-0.2-0.5-0.2-1.1,0-1.6c0.2-0.5,0.6-0.9,1.1-1.1
		l9.1-3.8h7v9.9H66.6z M75.7,63.2h-4.6V49.4h4.6V63.2z"/>
</g>
<g>
	<path class="st6" d="M30.3,46.6h-2.1V36.2h0.3c0.9,0,1.7-0.2,2.5-0.6c0,0,0.1,0,0.1-0.1l7.5-4.7c1-0.5,2.3-0.4,3.2,0.3l0.5,0.4
		c0,0-0.1,0.1-0.1,0.1c-0.1,0.2-0.3,0.4-0.4,0.6c-0.8,1.3-1.3,2.7-1.5,4.2c-0.8,0.1-1.5,0.4-2.1,1c-0.7,0.6-1,1.5-1,2.4
		c0,1.8,1.6,3.3,3.5,3.3h8.6c0.5,0,0.9,0.2,1.3,0.5c0.3,0.3,0.5,0.8,0.5,1.2c0,0.7-0.4,1.3-1.1,1.6c-0.1,0-0.1,0.1-0.2,0.1
		c0,0,0,0,0,0c-0.2,0-0.3,0.1-0.5,0.1h-9.7c-0.6,0-1.2,0.5-1.2,1.1c0,0.6,0.5,1.1,1.2,1.1h9.7c0.3,0,0.6,0,0.9-0.1
		c0.5,0.1,1,0.1,1.5,0.1c6.3,0,11.4-4.9,11.4-10.9S57.9,27,51.6,27c-2.9,0-5.7,1.1-7.8,2.9l-0.7-0.5c-1.6-1.2-3.9-1.4-5.7-0.5
		c0,0-0.1,0-0.1,0.1l-7.5,4.7C29.4,33.9,29,34,28.5,34h-0.3v-0.4c0-0.6-0.5-1.1-1.2-1.1h-6.9c-0.6,0-1.2,0.5-1.2,1.1v15.3
		c0,0.6,0.5,1.1,1.2,1.1H27c0.6,0,1.2-0.5,1.2-1.1v-0.1h2.1c0.6,0,1.2-0.5,1.2-1.1C31.4,47.1,30.9,46.6,30.3,46.6z M39.5,39.9
		c0-0.3,0.1-0.6,0.3-0.8c0.1-0.1,0.3-0.2,0.4-0.3c0.1,0.7,0.2,1.5,0.4,2.2C40,41,39.5,40.5,39.5,39.9z M60.7,37.9
		c0,4.3-3.3,8-7.7,8.6c0.2-0.5,0.4-1.1,0.4-1.6c0-0.7-0.2-1.3-0.5-1.9c0.5-0.1,1-0.3,1.3-0.7c0.5-0.4,0.7-1,0.7-1.6v-1.6
		c0-1.3-1.1-2.3-2.4-2.3h-1.7c-0.1,0-0.1,0-0.1-0.1v-1.5c0-0.1,0-0.1,0.1-0.1h0.8h0h0h0.8c0.1,0,0.1,0,0.1,0.1
		c0,0.6,0.5,1.1,1.2,1.1c0.6,0,1.2-0.5,1.2-1.1c0-1.2-0.9-2.2-2.1-2.3v-0.4c0-0.6-0.5-1.1-1.2-1.1s-1.2,0.5-1.2,1.1v0.4
		c-1.2,0.1-2.1,1.1-2.1,2.3v1.5c0,1.3,1.1,2.3,2.4,2.3h1.7c0.1,0,0.1,0,0.1,0.1v1.6c0,0,0,0.1,0,0.1c0,0,0,0-0.1,0h-1.7
		c-0.1,0-0.1,0-0.1-0.1v-0.2c0-0.6-0.5-1.1-1.2-1.1c-0.6,0-1.2,0.5-1.2,1.1v0.2c0,0.1,0,0.2,0,0.3h-5.2c-0.4-1-0.6-2-0.6-3.1
		c0-1.6,0.5-3.3,1.4-4.6c0.3-0.4,0.6-0.8,0.9-1.1c1.7-1.9,4.2-2.9,6.8-2.9C56.6,29.2,60.7,33.1,60.7,37.9z M25.9,47.8h-4.5v-13h4.5
		V47.8z"/>
</g>
<g>
	<path class="st7" d="M35.8,47.4c-0.2-0.4-0.7-0.5-1.1-0.4c-0.4,0.1-0.7,0.5-0.7,0.9c0,0.4,0.2,0.8,0.6,1c0.4,0.2,0.8,0.1,1.1-0.2
		C36,48.4,36.1,47.8,35.8,47.4z"/>
</g>
</svg>
