<?xml version="1.0" encoding="utf-8"?>
<!-- Generator: Adobe Illustrator 25.0.0, SVG Export Plug-In . SVG Version: 6.00 Build 0)  -->
<svg version="1.1" id="Layer_1" xmlns="http://www.w3.org/2000/svg" xmlns:xlink="http://www.w3.org/1999/xlink" x="0px" y="0px"
	 viewBox="0 0 100 100" style="enable-background:new 0 0 100 100;" xml:space="preserve">
<style type="text/css">
	.st0{fill:none;}
	.st1{fill-rule:evenodd;clip-rule:evenodd;fill:#FFE808;}
	.st2{fill:#0C2534;}
	.st3{fill-rule:evenodd;clip-rule:evenodd;fill:#205F89;}
	.st4{fill-rule:evenodd;clip-rule:evenodd;fill:#E0E0E0;}
	.st5{fill-rule:evenodd;clip-rule:evenodd;fill:#B93128;}
	.st6{fill-rule:evenodd;clip-rule:evenodd;fill:#0C2534;}
</style>
<g>
	<rect y="0" class="st0" width="100" height="100"/>
</g>
<g transform="translate(-55 -229)">
	<g>
		<path class="st1" d="M57.5,279.5c0-26.5,21.5-48,48-48c26.5,0,48,21.5,48,48s-21.5,48-48,48C79,327.5,57.5,306,57.5,279.5z"/>
		<path class="st2" d="M105.5,329C78.2,329,56,306.8,56,279.5c0-27.3,22.2-49.5,49.5-49.5c27.3,0,49.5,22.2,49.5,49.5
			C155,306.8,132.8,329,105.5,329z M105.5,233C79.9,233,59,253.9,59,279.5c0,25.6,20.9,46.5,46.5,46.5c25.6,0,46.5-20.9,46.5-46.5
			C152,253.9,131.1,233,105.5,233z"/>
	</g>
	<g>
		<path class="st3" d="M90,263.2l15,14.8l15-14.8l-5.8-8.2H95.8L90,263.2z"/>
	</g>
	<g>
		<path class="st4" d="M80,262h6v2h-6V262z"/>
	</g>
	<g>
		<path class="st4" d="M89.6,257.4l-0.9,1.4l-5-3.3l0.9-1.4L89.6,257.4z"/>
	</g>
	<g>
		<path class="st4" d="M89.7,268.8l-5,3.4l-0.9-1.4l5-3.4L89.7,268.8z"/>
	</g>
	<g>
		<path class="st4" d="M124,262h6v2h-6V262z"/>
	</g>
	<g>
		<path class="st4" d="M126.6,255.4l-5,3.4l-0.9-1.4l5-3.4L126.6,255.4z"/>
	</g>
	<g>
		<path class="st4" d="M126.3,270.8l-0.9,1.4l-5-3.3l0.9-1.4L126.3,270.8z"/>
	</g>
	<g>
		<path class="st1" d="M127.9,282.9c-0.8-0.6-2-0.6-2.8,0l-12,8.2H99.2c-1.2,0-2.1-0.9-2.1-2.1c0-1.1,0.9-2.1,2.1-2.1h6.3
			c2.5,0,4.6-1.7,5-4.1l0.1-0.8H95.7c-0.7,0-1.5,0.2-2.1,0.7l-7.7,5.9l6.9,12.4l21.8-4.1l13.2-9.2c0.7-0.5,1.1-1.2,1.1-2V285
			C129,284.1,128.6,283.4,127.9,282.9z"/>
	</g>
	<g>
		<path class="st5" d="M90.8,303l3.2-1.6L85.9,285l-4.9,3.3V303H90.8z"/>
	</g>
	<g>
		<path class="st3" d="M88,298.5c0,0.8-0.9,1.5-2,1.5s-2-0.7-2-1.5s0.9-1.5,2-1.5S88,297.7,88,298.5z"/>
	</g>
	<g>
		<path class="st6" d="M80,262h6v2h-6V262z"/>
	</g>
	<g>
		<path class="st6" d="M89.6,257.4l-0.9,1.4l-5-3.3l0.9-1.4L89.6,257.4z"/>
	</g>
	<g>
		<path class="st6" d="M89.7,268.8l-5,3.4l-0.9-1.4l5-3.4L89.7,268.8z"/>
	</g>
	<g>
		<path class="st6" d="M124,262h6v2h-6V262z"/>
	</g>
	<g>
		<path class="st6" d="M126.6,255.4l-5,3.4l-0.9-1.4l5-3.4L126.6,255.4z"/>
	</g>
	<g>
		<path class="st6" d="M126.3,270.8l-0.9,1.4l-5-3.3l0.9-1.4L126.3,270.8z"/>
	</g>
	<g>
		<path class="st6" d="M128.5,282.1c-1.1-0.7-2.6-0.7-3.7,0l-11.7,8H99.6c-0.7,0-1.2-0.6-1.2-1.2c0-0.7,0.6-1.2,1.2-1.2h6.2
			c2.8,0,5.3-2,5.8-4.8l0.1-0.8c0.1-0.4-0.2-0.9-0.7-0.9c-0.1,0-0.1,0-0.2,0H96.1c-0.9,0-1.8,0.3-2.6,0.8l-6.1,4.7l-0.9-1.8
			c-0.1-0.2-0.3-0.4-0.5-0.5c-0.2-0.1-0.5,0-0.7,0.1l-5,3.3c-0.2,0.2-0.4,0.4-0.4,0.7v14.8c0,0.5,0.4,0.8,0.8,0.8h10
			c0.1,0,0.3,0,0.4-0.1l3.3-1.6c0.4-0.2,0.5-0.6,0.4-1l20.2-3.8c0.1,0,0.2-0.1,0.3-0.1l13.1-9.1c0.9-0.6,1.4-1.6,1.4-2.7v-0.7
			C130,283.7,129.4,282.7,128.5,282.1z M90.6,302.4h-9v-13.5l3.8-2.5l7.5,14.8L90.6,302.4z M128.3,285.5c0,0.5-0.3,1-0.7,1.3l-13,9
			l-20.5,3.9l-5.9-11.7l6.4-4.9c0.4-0.3,1-0.5,1.5-0.5h13.8c-0.4,1.9-2.1,3.3-4.1,3.3h-6.2c-1.6,0-2.9,1.3-2.9,2.9
			c0,1.6,1.3,2.9,2.9,2.9h13.7c0.2,0,0.3-0.1,0.5-0.1l12-8.1c0.8-0.5,1.8-0.3,2.3,0.5c0.2,0.2,0.3,0.5,0.3,0.8V285.5z"/>
	</g>
	<g>
		<path class="st6" d="M83,298.5c0,1.4,1.1,2.5,2.5,2.5s2.5-1.1,2.5-2.5s-1.1-2.5-2.5-2.5l0,0C84.1,296,83,297.1,83,298.5z
			 M85.5,297.7c0.5,0,0.8,0.4,0.8,0.8s-0.4,0.8-0.8,0.8s-0.8-0.4-0.8-0.8S85,297.7,85.5,297.7z"/>
	</g>
	<g>
		<path class="st6" d="M114.3,254H95.7c-0.3,0-0.5,0.1-0.7,0.4l-5.9,8.4c-0.2,0.3-0.2,0.8,0.1,1.1l15.2,15h0.1
			c0.1,0.1,0.1,0.1,0.2,0.1h0.1c0.2,0.1,0.4,0.1,0.6,0h0.1c0.1,0,0.1-0.1,0.2-0.1h0.1l15.2-15c0.3-0.3,0.3-0.7,0.1-1.1l-5.9-8.4
			C114.8,254.1,114.5,254,114.3,254z M100.7,262.4l4.3-6.1l4.3,6.1H100.7z M109.7,264l-4.7,11.9l-4.7-11.9H109.7z M106.6,255.7h6.4
			l-2.3,5.8L106.6,255.7z M99.3,261.4l-2.3-5.8h6.4L99.3,261.4z M97.9,262.4h-6.4l4.1-5.8L97.9,262.4z M98.5,264l4.2,10.8L91.9,264
			H98.5z M111.5,264h6.7l-10.9,10.8L111.5,264z M112.1,262.4l2.3-5.8l4.1,5.8H112.1z"/>
	</g>
</g>
</svg>
