<?xml version="1.0" encoding="utf-8"?>
<!-- Generator: Adobe Illustrator 25.0.0, SVG Export Plug-In . SVG Version: 6.00 Build 0)  -->
<svg version="1.1" id="Layer_1" xmlns="http://www.w3.org/2000/svg" xmlns:xlink="http://www.w3.org/1999/xlink" x="0px" y="0px"
	 viewBox="0 0 100 100" style="enable-background:new 0 0 100 100;" xml:space="preserve">
<style type="text/css">
	.st0{fill:none;}
	.st1{fill-rule:evenodd;clip-rule:evenodd;fill:#FFE808;}
	.st2{fill:#0C2534;}
	.st3{fill-rule:evenodd;clip-rule:evenodd;fill:#205F89;}
	.st4{fill-rule:evenodd;clip-rule:evenodd;fill:#B93128;}
	.st5{fill-rule:evenodd;clip-rule:evenodd;fill:#0C2534;}
</style>
<g>
	<rect y="0" class="st0" width="100" height="100"/>
</g>
<g transform="translate(-52 -714)">
	<g>
		<path class="st1" d="M54.5,764.5c0-26.5,21.5-48,48-48c26.5,0,48,21.5,48,48s-21.5,48-48,48C76,812.5,54.5,791,54.5,764.5z"/>
		<path class="st2" d="M102.5,814C75.2,814,53,791.8,53,764.5c0-27.3,22.2-49.5,49.5-49.5c27.3,0,49.5,22.2,49.5,49.5
			C152,791.8,129.8,814,102.5,814z M102.5,718C76.9,718,56,738.9,56,764.5c0,25.6,20.9,46.5,46.5,46.5c25.6,0,46.5-20.9,46.5-46.5
			C149,738.9,128.1,718,102.5,718z"/>
	</g>
	<g>
		<path class="st3" d="M92.1,793h30.7c1.2,0,2.3-1,2.3-2.2v-42.6L114.7,738H81.3c-1.2,0-2.3,1-2.3,2.2v50.5c0,1.2,1,2.2,2.3,2.2
			H92.1z"/>
	</g>
	<g>
		<path class="st3" d="M115,738v7.8c0,1.2,1,2.2,2.2,2.2h7.8L115,738z"/>
	</g>
	<g>
		<path class="st4" d="M87.5,746c7.5,0,13.5,6.3,13.5,14s-6,14-13.5,14C80,774,74,767.7,74,760h13.5L87.5,746L87.5,746z"/>
	</g>
	<g>
		<path class="st1" d="M88,760v-14c3.5,0,6.7,1.6,9,4.1L88,760z"/>
	</g>
	<g>
		<path class="st1" d="M84,742v14H70C70,748.3,76.3,742,84,742z"/>
	</g>
	<g>
		<path class="st4" d="M120,775.5c0,1.4-0.9,2.5-2,2.5s-2-1.1-2-2.5s0.9-2.5,2-2.5S120,774.1,120,775.5z"/>
	</g>
	<g>
		<path class="st1" d="M109,786c0,1.1-0.9,2-2,2s-2-0.9-2-2s0.9-2,2-2S109,784.9,109,786z"/>
	</g>
	<g>
		<path class="st4" d="M100,777.5c0,1.4-0.9,2.5-2,2.5s-2-1.1-2-2.5s0.9-2.5,2-2.5S100,776.1,100,777.5z"/>
	</g>
	<g>
		<path class="st1" d="M92,786c0,1.1-1.1,2-2.5,2s-2.5-0.9-2.5-2s1.1-2,2.5-2S92,784.9,92,786z"/>
	</g>
	<g>
		<path class="st5" d="M125.7,746.6l-10.1-10.3c-0.2-0.2-0.5-0.3-0.8-0.3H81.7c-1.8,0-3.3,1.5-3.3,3.4v2.2
			c-5.5,2.2-9.4,7.6-9.4,13.9c0,0.6,0.5,1.1,1.1,1.1h13.6c0.6,0,1.1-0.5,1.1-1.1v-13.8c0-0.6-0.5-1.1-1.1-1.1
			c-1.1,0-2.1,0.1-3.1,0.3v-1.5c0-0.6,0.5-1.1,1.1-1.1h32v6.9c0,1.9,1.5,3.4,3.3,3.4h6.8v42c0,0.6-0.5,1.1-1.1,1.1h-41
			c-0.6,0-1.1-0.5-1.1-1.1v-9.7c0-0.6-0.5-1.1-1.1-1.1c-0.6,0-1.1,0.5-1.1,1.1v9.7c0,1.9,1.5,3.4,3.3,3.4h41c1.8,0,3.3-1.5,3.3-3.4
			v-43.2C126,747.1,125.9,746.9,125.7,746.6z M82.6,754.4H71.3c0.5-6.1,5.3-11,11.3-11.5L82.6,754.4L82.6,754.4z M115.9,745.2v-5.3
			l6.3,6.4H117C116.4,746.3,115.9,745.8,115.9,745.2z"/>
	</g>
	<g>
		<path class="st5" d="M78.3,776.3c-0.2,0.2-0.3,0.4-0.3,0.7s0.1,0.5,0.3,0.7c0.2,0.2,0.4,0.3,0.7,0.3s0.5-0.1,0.7-0.3
			c0.2-0.2,0.3-0.4,0.3-0.7s-0.1-0.5-0.3-0.7c-0.2-0.2-0.4-0.3-0.7-0.3S78.5,776.1,78.3,776.3z"/>
	</g>
	<g>
		<path class="st5" d="M103,760c0-8.3-6.7-15-15-15c-0.6,0-1.1,0.5-1.1,1.1v12.7H74.1c-0.6,0-1.1,0.5-1.1,1.1c0,8.3,6.7,15,15,15
			C96.3,775,103,768.3,103,760z M96.2,750.2l-7,7v-9.9C91.8,747.6,94.2,748.6,96.2,750.2z M75.3,761.1H88c0.3,0,0.6-0.1,0.8-0.3
			c0,0,0,0,0,0l9-9c1.8,2.2,3,5.1,3,8.2c0,7-5.7,12.7-12.7,12.7C81.4,772.7,75.9,767.6,75.3,761.1z"/>
	</g>
	<g>
		<path class="st5" d="M101.2,777.8c0-1.9-1.5-3.5-3.3-3.5s-3.3,1.5-3.3,3.5c0,0.5,0.1,1,0.3,1.4l-4.1,4.2c-0.4-0.2-0.9-0.3-1.4-0.3
			c-1.8,0-3.3,1.5-3.3,3.5c0,1.9,1.5,3.5,3.3,3.5c1.8,0,3.3-1.5,3.3-3.5c0-0.5-0.1-1-0.3-1.5l4.1-4.2c0.4,0.2,0.9,0.4,1.5,0.4
			c0.6,0,1.2-0.2,1.7-0.5l4.1,4.3c-0.2,0.5-0.3,1-0.3,1.5c0,1.9,1.5,3.5,3.3,3.5c1.8,0,3.3-1.5,3.3-3.5c0-0.5-0.1-1-0.3-1.5l6.4-6.6
			c0.5,0.3,1,0.4,1.6,0.4c1.8,0,3.3-1.5,3.3-3.5c0-1.9-1.5-3.5-3.3-3.5c-1.8,0-3.3,1.5-3.3,3.5c0,0.5,0.1,0.9,0.3,1.3l-6.4,6.6
			c-0.4-0.2-0.9-0.3-1.5-0.3c-0.5,0-1,0.1-1.4,0.3L101,779C101.2,778.6,101.2,778.2,101.2,777.8z M89.3,787.7
			c-0.6,0-1.1-0.5-1.1-1.2s0.5-1.2,1.1-1.2c0.3,0,0.6,0.1,0.8,0.3c0,0,0,0,0,0c0,0,0,0,0,0c0.2,0.2,0.3,0.5,0.3,0.8
			C90.5,787.2,90,787.7,89.3,787.7z M97.9,778.9c-0.6,0-1.1-0.5-1.1-1.2s0.5-1.2,1.1-1.2s1.1,0.5,1.1,1.2S98.5,778.9,97.9,778.9z
			 M117.7,774.3c0.6,0,1.1,0.5,1.1,1.2s-0.5,1.2-1.1,1.2c-0.6,0-1.1-0.5-1.1-1.2S117,774.3,117.7,774.3z M107.8,786.5
			c0,0.6-0.5,1.2-1.1,1.2c-0.6,0-1.1-0.5-1.1-1.2s0.5-1.2,1.1-1.2C107.3,785.4,107.8,785.9,107.8,786.5z"/>
	</g>
	<g>
		<path class="st5" d="M106.2,765h6.5c0.7,0,1.2-0.4,1.2-1s-0.6-1-1.2-1h-6.5c-0.7,0-1.2,0.4-1.2,1S105.6,765,106.2,765z"/>
	</g>
	<g>
		<path class="st5" d="M116.4,763.3c-0.3,0.2-0.4,0.4-0.4,0.7s0.2,0.5,0.4,0.7c0.3,0.2,0.7,0.3,1.1,0.3c0.4,0,0.8-0.1,1.1-0.3
			c0.3-0.2,0.4-0.4,0.4-0.7s-0.2-0.5-0.4-0.7c-0.3-0.2-0.7-0.3-1.1-0.3S116.7,763.1,116.4,763.3z"/>
	</g>
	<g>
		<path class="st5" d="M106.1,754h13.7c0.6,0,1.1-0.4,1.1-1s-0.5-1-1.1-1h-13.7c-0.6,0-1.1,0.4-1.1,1S105.5,754,106.1,754z"/>
	</g>
	<g>
		<path class="st5" d="M106.1,760h13.7c0.6,0,1.1-0.7,1.1-1.5s-0.5-1.5-1.1-1.5h-13.7c-0.6,0-1.1,0.7-1.1,1.5S105.5,760,106.1,760z"
			/>
	</g>
</g>
</svg>
