<?xml version="1.0" encoding="utf-8"?>
<!-- Generator: Adobe Illustrator 25.0.0, SVG Export Plug-In . SVG Version: 6.00 Build 0)  -->
<svg version="1.1" id="Layer_1" xmlns="http://www.w3.org/2000/svg" xmlns:xlink="http://www.w3.org/1999/xlink" x="0px" y="0px"
	 viewBox="0 0 101 101" style="enable-background:new 0 0 101 101;" xml:space="preserve">
<style type="text/css">
	.st0{fill:none;}
	.st1{fill-rule:evenodd;clip-rule:evenodd;fill:#FFE808;}
	.st2{fill:#0C2534;}
	.st3{fill-rule:evenodd;clip-rule:evenodd;fill:#B93128;}
	.st4{fill-rule:evenodd;clip-rule:evenodd;fill:#205F89;}
	.st5{fill-rule:evenodd;clip-rule:evenodd;fill:#F8EC7D;}
	.st6{fill-rule:evenodd;clip-rule:evenodd;fill:#0C2534;}
</style>
<g>
	<rect y="0" class="st0" width="101" height="101"/>
</g>
<g transform="translate(67 -220)">
	<g>
		<path class="st1" d="M-64.5,270.5c0-26.5,21.5-48,48-48s48,21.5,48,48s-21.5,48-48,48S-64.5,297-64.5,270.5z"/>
		<path class="st2" d="M-16.5,320c-27.3,0-49.5-22.2-49.5-49.5c0-27.3,22.2-49.5,49.5-49.5c27.3,0,49.5,22.2,49.5,49.5
			C33,297.8,10.8,320-16.5,320z M-16.5,224c-25.6,0-46.5,20.9-46.5,46.5c0,25.6,20.9,46.5,46.5,46.5C9.1,317,30,296.1,30,270.5
			C30,244.9,9.1,224-16.5,224z"/>
	</g>
	<g>
		<path class="st1" d="M-6.1,267.3l0.9-0.4l5.5-2.7l0.7-0.3c1.4-0.7,3.2-0.3,4,1l-13,8.1c-1.8,0.8-3.7,1-5.6,0.7l-7.5-1.2
			c-0.7-0.2-1.4-0.1-2,0.2l-4,2.3l-2.8-8.4l0,0c0.9-0.1,1.7-0.5,2.4-1l1.2-1c2.5-1.7,5.8-2,8.6-0.8l0.5,0.2c0.8,0.4,1.7,0.5,2.6,0.5
			h5C-7.9,264.5-6.4,265.7-6.1,267.3z"/>
	</g>
	<g>
		<path class="st1" d="M1,264.1L1,264.1l-5.8,2.5l-1,0.4c-0.1-0.7-0.6-1.4-1.3-1.8l3.7-1.6l0.9-0.4C-1.2,262.7,0.3,263.2,1,264.1z"
			/>
	</g>
	<g>
		<path class="st1" d="M-4,263L-4,263l-3.4,2c-0.7-0.6-1.5-0.9-2.4-0.9H-11l2.9-1.6C-6.8,261.7-5.1,261.9-4,263z"/>
	</g>
	<g>
		<path class="st3" d="M-9.7,250.8c0.5,0.7,0.7,1.5,0.7,2.3v5.9h-14v-5.9c0-2.2,1.8-4,4.1-4.1c1.2,1.6,3.5,1.9,5.1,0.7
			c0.2-0.2,0.5-0.4,0.7-0.6c0,0,0.1-0.1,0.1-0.1C-11.7,249.1-10.4,249.8-9.7,250.8z"/>
	</g>
	<g>
		<path class="st3" d="M-12,242.6v1.8c0,2-1.8,3.6-4,3.6s-4-1.6-4-3.6v-1.8c0-2,1.8-3.6,4-3.6S-12,240.6-12,242.6z"/>
	</g>
	<g>
		<path class="st4" d="M-27.3,275.1l1.3,3.9h-9l-2-15h6l0.9,2.6L-27.3,275.1z M-29.8,276.4c0-0.6-0.5-1.1-1.2-1.1
			c-0.7,0-1.2,0.5-1.2,1.1c0,0.6,0.5,1.1,1.2,1.1C-30.3,277.5-29.8,277-29.8,276.4L-29.8,276.4z"/>
	</g>
	<g>
		<path class="st5" d="M-30,276.5c0,0.8-0.4,1.5-1,1.5s-1-0.7-1-1.5s0.4-1.5,1-1.5S-30,275.7-30,276.5z"/>
	</g>
	<g>
		<path class="st6" d="M1.2,263.4l-0.2,0.1c-0.9-1-2.4-1.4-3.6-0.9l0,0l-0.5,0.3c-1.3-1-3.1-1.2-4.5-0.4l-2.8,1.4h-3.7
			c-0.8,0-1.6-0.2-2.3-0.5l-0.5-0.2c-3-1.4-6.5-1-9.2,0.8c0,0,0,0,0,0l-1.2,1c-0.5,0.4-1,0.7-1.6,0.9l-0.7-2.2
			c-0.1-0.2-0.3-0.4-0.5-0.4h-6c-0.3,0-0.6,0.2-0.6,0.5c0,0,0,0,0,0.1l2,15.5c0,0.3,0.3,0.5,0.6,0.5h9c0.3,0,0.6-0.2,0.6-0.5
			c0-0.1,0-0.1,0-0.1l-1.2-3.7l3.7-2.2c0.5-0.3,1.1-0.3,1.6-0.2c0,0,0,0,0,0l7.5,1.3c2,0.3,4.1,0.1,6-0.8c0,0,0,0,0.1,0l13-8.4
			c0.2-0.2,0.3-0.5,0.2-0.7C4.9,263,2.8,262.5,1.2,263.4z M-2.2,263.5c0.7-0.3,1.5-0.1,2.1,0.4l-4.9,2.5l-0.3,0.1
			c-0.2-0.4-0.4-0.8-0.7-1.2L-2.2,263.5z M-7.2,263.4L-7.2,263.4c0.9-0.5,2-0.5,2.9,0l-2.5,1.3c-0.5-0.3-1-0.6-1.6-0.7L-7.2,263.4z
			 M-34,278.9l-1.9-14.5h5l4.7,14.5H-34z M-7.8,272.8c-1.6,0.8-3.5,1-5.3,0.7l-7.5-1.3c-0.8-0.2-1.7-0.1-2.4,0.3c0,0,0,0,0,0
			l-3.4,2.1l-2.4-7.6c0.8-0.2,1.5-0.6,2-1.1l1.2-1c2.3-1.6,5.4-1.9,8-0.7l0.5,0.2c0.9,0.4,1.8,0.6,2.8,0.6h5c1.5,0,2.8,1,3.1,2.4
			l-3.6-0.2c-1.3-0.1-2.6,0-3.9,0.2c-0.3,0-0.5,0.3-0.5,0.6c0,0.3,0.3,0.5,0.6,0.5h0c1.2-0.2,2.5-0.2,3.7-0.2l4.3,0.2c0,0,0,0,0,0
			c0.3,0,0.6-0.2,0.6-0.5c0-0.1,0-0.2,0-0.3l0.6-0.3l6.2-3.1c1-0.5,2.2-0.3,2.9,0.4L-7.8,272.8z"/>
	</g>
	<g>
		<path class="st6" d="M-33,276.5c0,0.8,0.9,1.5,2,1.5c1.1,0,2-0.7,2-1.5s-0.9-1.5-2-1.5C-32.1,275-33,275.7-33,276.5z M-31,276
			c0.4,0,0.7,0.2,0.7,0.5s-0.3,0.5-0.7,0.5s-0.7-0.2-0.7-0.5S-31.4,276-31,276z"/>
	</g>
	<g>
		<path class="st6" d="M-12,244.9v-1.8c0-2.3-1.8-4.1-4-4.1s-4,1.8-4,4.1v1.8c0,2.3,1.8,4.1,4,4.1S-12,247.2-12,244.9z M-19,244.9
			v-1.8c0-1.7,1.3-3,2.9-3s2.9,1.4,2.9,3v1.8c0,1.7-1.3,3-2.9,3C-17.6,247.9-19,246.6-19,244.9z"/>
	</g>
	<g>
		<path class="st6" d="M-8,257.1v-3.5c0-0.7-0.2-1.4-0.5-2.1l-0.6-0.9c-0.8-0.9-2-1.5-3.3-1.6c0,0,0,0,0,0c-0.3,0-0.4,0.2-0.6,0.3
			c-1.1,1.3-3,1.4-4.3,0.4c-0.2-0.2-0.4-0.3-0.5-0.5c-0.1-0.1-0.3-0.2-0.5-0.2c-1.4,0-2.6,0.6-3.5,1.6c0,0,0,0-0.1,0
			c-0.2,0.3-0.5,0.6-0.6,0.9c0,0,0,0,0,0c-0.3,0.6-0.5,1.4-0.5,2.1v3.5c0,0,0,0.3,0,0.3c0,0.1,0,0.8,0,0.8v1.3
			c0,0.3,0.3,0.5,0.6,0.5h13.9c0.3,0,0.6-0.2,0.6-0.5v-1.3V257.1z M-9.1,258.9h-12.7v-5.3c0-1.8,1.4-3.3,3.3-3.5l0,0
			c1.5,1.7,4.2,1.9,5.9,0.4c0.2-0.1,0.3-0.3,0.4-0.4c1,0.1,1.9,0.7,2.5,1.5c0,0,0,0,0,0c0.4,0.6,0.6,1.3,0.6,1.9L-9.1,258.9
			L-9.1,258.9z"/>
	</g>
	<g>
		<path class="st1" d="M-26.7,294.6c0.4,0.6,0.7,1.3,0.7,2v5.3h-13v-5.3c0-2,1.7-3.6,3.8-3.7c1.1,1.4,3.2,1.7,4.7,0.7
			c0.2-0.2,0.4-0.3,0.6-0.5c0,0,0.1-0.1,0.1-0.1C-28.5,293.1-27.4,293.7-26.7,294.6z"/>
	</g>
	<g>
		<path class="st1" d="M-29,286.2v1.6c0,1.8-1.6,3.2-3.5,3.2s-3.5-1.4-3.5-3.2v-1.6c0-1.8,1.6-3.2,3.5-3.2S-29,284.4-29,286.2z"/>
	</g>
	<g>
		<path class="st6" d="M-29,287.9v-1.8c0-2.3-1.8-4.1-4-4.1s-4,1.8-4,4.1v1.8c0,2.3,1.8,4.1,4,4.1S-29,290.2-29,287.9z M-36,287.9
			v-1.8c0-1.7,1.3-3,2.9-3c1.6,0,2.9,1.3,2.9,3v1.8c0,1.7-1.3,3-2.9,3C-34.6,290.9-36,289.6-36,287.9z"/>
	</g>
	<g>
		<path class="st6" d="M-26,299.4v-3.2c0-0.7-0.2-1.3-0.5-1.9l-0.6-0.8c-0.8-0.9-1.9-1.4-3.1-1.4c0,0,0,0,0,0
			c-0.3,0-0.4,0.2-0.5,0.3c-1,1.1-2.8,1.3-4,0.4c-0.2-0.1-0.3-0.3-0.5-0.5c-0.1-0.1-0.3-0.2-0.4-0.2c-1.3,0-2.4,0.6-3.3,1.5
			c0,0,0,0-0.1,0c-0.2,0.3-0.4,0.5-0.6,0.8c0,0,0,0,0,0c-0.3,0.6-0.5,1.2-0.5,1.9v3.2c0,0,0,0.2,0,0.3s0,0.7,0,0.7v1.1
			c0,0.3,0.2,0.5,0.5,0.5h12.9c0.3,0,0.5-0.2,0.5-0.5v-1.1V299.4z M-27.1,301h-11.9v-4.8c0-1.6,1.3-3,3.1-3.2l0,0
			c1.4,1.5,3.9,1.7,5.5,0.4c0.1-0.1,0.3-0.2,0.4-0.4c1,0.1,1.8,0.6,2.4,1.4c0,0,0,0,0,0c0.4,0.5,0.6,1.1,0.6,1.8L-27.1,301
			L-27.1,301z"/>
	</g>
	<g>
		<path class="st4" d="M-15.7,294.6c0.4,0.6,0.7,1.3,0.7,2v5.3h-13v-5.3c0-2,1.7-3.6,3.8-3.7c1.1,1.4,3.2,1.7,4.7,0.7
			c0.2-0.2,0.4-0.3,0.6-0.5c0,0,0.1-0.1,0.1-0.1C-17.5,293.1-16.3,293.7-15.7,294.6z"/>
	</g>
	<g>
		<path class="st4" d="M-18,286.2v1.6c0,1.8-1.6,3.2-3.5,3.2s-3.5-1.4-3.5-3.2v-1.6c0-1.8,1.6-3.2,3.5-3.2S-18,284.4-18,286.2z"/>
	</g>
	<g>
		<path class="st6" d="M-17,287.9v-1.8c0-2.3-1.8-4.1-4-4.1s-4,1.8-4,4.1v1.8c0,2.3,1.8,4.1,4,4.1S-17,290.2-17,287.9z M-23.9,287.9
			v-1.8c0-1.7,1.3-3,2.9-3s2.9,1.3,2.9,3v1.8c0,1.7-1.3,3-2.9,3C-22.6,290.9-23.9,289.6-23.9,287.9z"/>
	</g>
	<g>
		<path class="st6" d="M-14,299.4v-3.2c0-0.7-0.2-1.3-0.5-1.9l-0.6-0.8c-0.8-0.9-1.9-1.4-3.1-1.5c0,0,0,0,0,0
			c-0.3,0-0.4,0.2-0.5,0.3c-1,1.1-2.8,1.3-4,0.4c-0.2-0.1-0.3-0.3-0.5-0.5c-0.1-0.1-0.3-0.2-0.4-0.2c-1.3,0-2.4,0.6-3.3,1.5
			c0,0,0,0-0.1,0c-0.2,0.3-0.4,0.5-0.6,0.8c0,0,0,0,0,0c-0.3,0.6-0.5,1.2-0.5,1.9v3.2c0,0,0,0.2,0,0.3s0,0.7,0,0.7v1.1
			c0,0.3,0.2,0.5,0.5,0.5h12.9c0.3,0,0.5-0.2,0.5-0.5v-1.1V299.4z M-15.1,301H-27v-4.8c0-1.6,1.3-3,3.1-3.2l0,0
			c1.4,1.5,3.9,1.7,5.5,0.4c0.1-0.1,0.3-0.2,0.4-0.4c1,0.1,1.8,0.6,2.4,1.4c0,0,0,0,0,0c0.4,0.5,0.6,1.1,0.6,1.8L-15.1,301
			L-15.1,301z"/>
	</g>
	<g>
		<path class="st3" d="M-4.7,294.6c0.4,0.6,0.7,1.3,0.7,2v5.3h-13v-5.3c0-2,1.7-3.6,3.8-3.7c1.1,1.4,3.2,1.7,4.7,0.7
			c0.2-0.2,0.4-0.3,0.6-0.5c0,0,0.1-0.1,0.1-0.1C-6.5,293.1-5.3,293.7-4.7,294.6z"/>
	</g>
	<g>
		<path class="st3" d="M-7,286.2v1.6c0,1.8-1.6,3.2-3.5,3.2s-3.5-1.4-3.5-3.2v-1.6c0-1.8,1.6-3.2,3.5-3.2S-7,284.4-7,286.2z"/>
	</g>
	<g>
		<path class="st6" d="M-7,287.9v-1.8c0-2.3-1.8-4.1-4-4.1c-2.2,0-4,1.8-4,4.1v1.8c0,2.3,1.8,4.1,4,4.1C-8.8,292-7,290.2-7,287.9z
			 M-13.9,287.9v-1.8c0-1.7,1.3-3,2.9-3c1.6,0,2.9,1.3,2.9,3v1.8c0,1.7-1.3,3-2.9,3C-12.6,290.9-13.9,289.6-13.9,287.9z"/>
	</g>
	<g>
		<path class="st6" d="M-4,299.4v-3.2c0-0.7-0.2-1.3-0.5-1.9l-0.6-0.8c-0.8-0.9-1.9-1.4-3.1-1.5c0,0,0,0,0,0c-0.3,0-0.4,0.2-0.5,0.3
			c-1,1.1-2.8,1.3-4,0.4c-0.2-0.1-0.3-0.3-0.5-0.5c-0.1-0.1-0.3-0.2-0.4-0.2c-1.3,0-2.4,0.6-3.3,1.5c0,0,0,0-0.1,0
			c-0.2,0.3-0.4,0.5-0.6,0.8c0,0,0,0,0,0c-0.3,0.6-0.5,1.2-0.5,1.9v3.2c0,0,0,0.2,0,0.3s0,0.7,0,0.7v1.1c0,0.3,0.2,0.5,0.5,0.5h12.9
			c0.3,0,0.5-0.2,0.5-0.5v-1.1L-4,299.4L-4,299.4z M-5.1,301H-17v-4.8c0-1.6,1.3-3,3.1-3.2l0,0c1.4,1.5,3.9,1.7,5.5,0.4
			c0.1-0.1,0.3-0.2,0.4-0.4c1,0.1,1.8,0.6,2.4,1.4c0,0,0,0,0,0c0.4,0.5,0.6,1.1,0.6,1.8L-5.1,301L-5.1,301z"/>
	</g>
	<g>
		<path class="st1" d="M5.3,294.6c0.4,0.6,0.7,1.3,0.7,2v5.3H-7v-5.3c0-2,1.7-3.6,3.8-3.7c1.1,1.4,3.2,1.7,4.7,0.7
			c0.2-0.2,0.4-0.3,0.6-0.5c0,0,0.1-0.1,0.1-0.1C3.5,293.1,4.6,293.7,5.3,294.6z"/>
	</g>
	<g>
		<path class="st1" d="M3,286.2v1.6c0,1.8-1.6,3.2-3.5,3.2c-1.9,0-3.5-1.4-3.5-3.2v-1.6c0-1.8,1.6-3.2,3.5-3.2
			C1.4,283,3,284.4,3,286.2z"/>
	</g>
	<g>
		<path class="st6" d="M4,287.9v-1.8c0-2.3-1.8-4.1-4-4.1c-2.2,0-4,1.8-4,4.1v1.8c0,2.3,1.8,4.1,4,4.1C2.2,292,4,290.2,4,287.9z
			 M-3,287.9v-1.8c0-1.7,1.3-3,2.9-3s2.9,1.3,2.9,3v1.8c0,1.7-1.3,3-2.9,3C-1.6,290.9-3,289.6-3,287.9z"/>
	</g>
	<g>
		<path class="st6" d="M7,299.4v-3.2c0-0.7-0.2-1.3-0.5-1.9l-0.6-0.8c-0.8-0.9-1.9-1.4-3.1-1.5c0,0,0,0,0,0c-0.3,0-0.4,0.2-0.5,0.3
			c-1,1.1-2.8,1.3-4,0.4c-0.2-0.1-0.3-0.3-0.5-0.5c-0.1-0.1-0.3-0.2-0.4-0.2c-1.3,0-2.4,0.6-3.3,1.5c0,0,0,0-0.1,0
			c-0.2,0.3-0.4,0.5-0.6,0.8c0,0,0,0,0,0c-0.3,0.6-0.5,1.2-0.5,1.9v3.2c0,0,0,0.2,0,0.3s0,0.7,0,0.7v1.1c0,0.3,0.2,0.5,0.5,0.5H6.5
			c0.3,0,0.5-0.2,0.5-0.5v-1.1L7,299.4L7,299.4z M5.9,301H-6v-4.8c0-1.6,1.3-3,3.1-3.2l0,0c1.4,1.5,3.9,1.7,5.5,0.4
			c0.1-0.1,0.3-0.2,0.4-0.4c1,0.1,1.8,0.6,2.4,1.4c0,0,0,0,0,0c0.4,0.5,0.6,1.1,0.6,1.8L5.9,301L5.9,301z"/>
	</g>
	<g>
		<path class="st6" d="M-4.7,239.8c0.4,0,0.7-0.3,0.7-0.7v-0.5c0-1.1-0.8-2-1.8-2.1v-0.8c0-0.4-0.3-0.7-0.7-0.7s-0.7,0.3-0.7,0.7
			v0.8c-1,0.2-1.8,1.2-1.8,2.3c0,1.3,1,2.4,2.3,2.4h0.5c0.5,0,0.9,0.4,0.9,1c0,0.5-0.4,1-0.9,1H-7c-0.4,0-0.7-0.3-0.7-0.7
			c0-0.4-0.3-0.7-0.7-0.7S-9,242-9,242.4c0,1.1,0.8,2,1.8,2.1v0.8c0,0.4,0.3,0.7,0.7,0.7c0.4,0,0.7-0.3,0.7-0.7v-0.8
			c1-0.2,1.8-1.2,1.8-2.3c0-1.3-1-2.4-2.3-2.4h-0.5c-0.5,0-0.9-0.4-0.9-1c0-0.5,0.4-1,0.9-1H-6c0.4,0,0.7,0.3,0.7,0.7v0.5
			C-5.3,239.4-5,239.8-4.7,239.8z"/>
	</g>
</g>
</svg>
