<?xml version="1.0" encoding="utf-8"?>
<!-- Generator: Adobe Illustrator 25.0.0, SVG Export Plug-In . SVG Version: 6.00 Build 0)  -->
<svg version="1.1" id="Layer_1" xmlns="http://www.w3.org/2000/svg" xmlns:xlink="http://www.w3.org/1999/xlink" x="0px" y="0px"
	 viewBox="0 0 100 100" style="enable-background:new 0 0 100 100;" xml:space="preserve">
<style type="text/css">
	.st0{fill:none;}
	.st1{fill-rule:evenodd;clip-rule:evenodd;fill:#FFE808;}
	.st2{fill:#0C2534;}
	.st3{fill-rule:evenodd;clip-rule:evenodd;fill:#205F89;}
	.st4{fill-rule:evenodd;clip-rule:evenodd;fill:#B93128;}
	.st5{fill-rule:evenodd;clip-rule:evenodd;fill:#0C2534;}
</style>
<g>
	<rect y="0" class="st0" width="100" height="100"/>
</g>
<g transform="translate(-104 -896)">
	<g>
		<path class="st1" d="M106.5,946.5c0-26.5,21.5-48,48-48s48,21.5,48,48s-21.5,48-48,48S106.5,973,106.5,946.5z"/>
		<path class="st2" d="M154.5,996c-27.3,0-49.5-22.2-49.5-49.5c0-27.3,22.2-49.5,49.5-49.5c27.3,0,49.5,22.2,49.5,49.5
			C204,973.8,181.8,996,154.5,996z M154.5,900c-25.6,0-46.5,20.9-46.5,46.5c0,25.6,20.9,46.5,46.5,46.5c25.6,0,46.5-20.9,46.5-46.5
			C201,920.9,180.1,900,154.5,900z"/>
	</g>
	<g>
		<path class="st1" d="M200,946c0,25.4-20.6,46-46,46s-46-20.6-46-46s20.6-46,46-46S200,920.6,200,946z"/>
	</g>
	<g>
		<path class="st3" d="M171,930c-1.4-1.3-3.6-1.3-5,0l-11,10.7c2.5,0.7,4.3,2.8,4.4,5.3l11.6-11.3C172.4,933.4,172.3,931.3,171,930z
			"/>
	</g>
	<g>
		<path class="st4" d="M148.2,945.8c0-2.5,1.6-4.6,3.8-5.4l-20.5-18.5c-1.4-1.2-3.5-1.1-4.7,0.3c-1.2,1.4-1.1,3.5,0.3,4.8l21.1,19.1
			C148.2,945.9,148.2,945.9,148.2,945.8z"/>
	</g>
	<g>
		<path class="st1" d="M160,946c0,3.3-2.7,6-6,6s-6-2.7-6-6s2.7-6,6-6S160,942.7,160,946z"/>
	</g>
	<g>
		<path class="st5" d="M156,910.4v-4.9c0-0.9-0.9-1.6-2-1.6s-2,0.7-2,1.6v4.9c0,0.9,0.9,1.6,2,1.6S156,911.3,156,910.4z"/>
	</g>
	<g>
		<path class="st5" d="M152,980.8v5.5c0,1,0.9,1.8,2,1.8s2-0.8,2-1.8v-5.5c0-1-0.9-1.8-2-1.8S152,979.8,152,980.8z"/>
	</g>
	<g>
		<path class="st5" d="M194.2,948c1,0,1.8-0.9,1.8-2s-0.8-2-1.8-2h-5.5c-1,0-1.8,0.9-1.8,2s0.8,2,1.8,2H194.2z"/>
	</g>
	<g>
		<path class="st5" d="M113.6,944c-0.9,0-1.6,0.9-1.6,2s0.7,2,1.6,2h4.9c0.9,0,1.6-0.9,1.6-2s-0.7-2-1.6-2H113.6z"/>
	</g>
	<g>
		<path class="st5" d="M176.3,966.6c0.7,0.6,1.8,0.5,2.4-0.2c0.6-0.7,0.5-1.7-0.2-2.3l-18.1-15c0.4-0.9,0.7-1.8,0.8-2.8l10.6-10.6
			c1.9-1.8,1.9-5.1,0-7c-1.9-1.9-5.2-1.9-7.1,0l-9.8,9.8c-0.8-0.1-1.7-0.1-2.4,0.1l-19.9-17.5c-2-1.8-5.3-1.6-7.1,0.4
			c-1.8,2-1.7,5.2,0.4,7l9.6,8.4c0.7,0.6,1.7,0.5,2.4-0.1c0.6-0.7,0.6-1.7-0.1-2.3l-9.6-8.4c-0.7-0.6-0.7-1.6-0.1-2.3
			c0.6-0.7,1.7-0.7,2.4-0.1l18.9,16.6c-0.9,0.7-1.6,1.6-2,2.6l-4.5-3.9c-0.7-0.6-1.7-0.5-2.4,0.1c-0.6,0.7-0.6,1.7,0.1,2.3l6.1,5.4
			c0.5,3.5,3.6,6.3,7.3,6.3c1.7,0,3.2-0.5,4.4-1.5L176.3,966.6z M166.9,931.1c0.6-0.6,1.7-0.6,2.4,0c0.7,0.6,0.7,1.7,0,2.3l-9,9
			c-0.5-1-1.3-1.8-2.2-2.5L166.9,931.1z M153.7,949.8c-2.2,0-4-1.8-4-4c0-2.2,1.8-4,4-4c2.2,0,4,1.8,4,4
			C157.7,948,155.9,949.8,153.7,949.8z"/>
	</g>
</g>
</svg>
