<?xml version="1.0" encoding="utf-8"?>
<!-- Generator: Adobe Illustrator 25.0.0, SVG Export Plug-In . SVG Version: 6.00 Build 0)  -->
<svg version="1.1" id="Layer_1" xmlns="http://www.w3.org/2000/svg" xmlns:xlink="http://www.w3.org/1999/xlink" x="0px" y="0px"
	 viewBox="0 0 100 100" style="enable-background:new 0 0 100 100;" xml:space="preserve">
<style type="text/css">
	.st0{fill-rule:evenodd;clip-rule:evenodd;fill:#FFE808;}
	.st1{fill:#0C2534;}
	.st2{fill-rule:evenodd;clip-rule:evenodd;fill:#205F89;}
	.st3{fill-rule:evenodd;clip-rule:evenodd;fill:#B93128;}
	.st4{fill-rule:evenodd;clip-rule:evenodd;fill:#0C2534;}
	.st5{fill-rule:evenodd;clip-rule:evenodd;}
</style>
<g transform="translate(-57 -970)">
	<g>
		<path class="st0" d="M59.5,1020.5c0-26.5,21.5-48,48-48c26.5,0,48,21.5,48,48s-21.5,48-48,48C81,1068.5,59.5,1047,59.5,1020.5z"/>
		<path class="st1" d="M107.5,1070c-27.3,0-49.5-22.2-49.5-49.5c0-27.3,22.2-49.5,49.5-49.5c27.3,0,49.5,22.2,49.5,49.5
			C157,1047.8,134.8,1070,107.5,1070z M107.5,974c-25.6,0-46.5,20.9-46.5,46.5c0,25.6,20.9,46.5,46.5,46.5
			c25.6,0,46.5-20.9,46.5-46.5C154,994.9,133.1,974,107.5,974z"/>
	</g>
	<g>
		<path class="st0" d="M88,1031h2v14h-2V1031z"/>
	</g>
	<g>
		<path class="st2" d="M95.4,1044.3l10.6,5.6c0.4,0.2,0.8,0.1,1.2-0.1l21.2-13.1c0.4-0.2,0.6-0.7,0.6-1.1c0-0.4-0.2-0.8-0.4-1
			c-0.3-0.2-0.6-0.3-1-0.3l-18,3.3l0.8,0.8c0.7,0.7,1.1,1.7,1.1,2.8c0,2.2-1.7,3.9-3.7,3.9c-1,0-1.9-0.4-2.6-1.2l-5-5.3l1.4-1.4
			l5,5.3c0.3,0.3,0.8,0.6,1.3,0.6c1,0,1.8-0.8,1.8-1.9c0-0.5-0.2-0.8-0.5-1.2l-7.7-8H92v12.4h2.9
			C95.1,1044.4,95.2,1044.3,95.4,1044.3z"/>
	</g>
	<g>
		<path class="st3" d="M109.3,1019.7l-0.6,0.6c-0.4,0.4-1,0.4-1.4,0l-0.6-0.6c-0.4-0.4-1-0.7-1.6-0.7c-0.6,0-1.1,0.2-1.6,0.7
			c-0.4,0.4-0.6,0.9-0.6,1.5s0.2,1.1,0.6,1.5l4.4,4.4l4.4-4.4c0.4-0.4,0.6-0.9,0.6-1.5s-0.2-1.1-0.6-1.5
			C111.5,1018.8,110.1,1018.8,109.3,1019.7z"/>
	</g>
	<g>
		<path class="st0" d="M125,1002h2v14h-2V1002z"/>
	</g>
	<g>
		<path class="st2" d="M119.6,1002.8l-10.6-5.6c-0.4-0.2-0.8-0.2-1.2,0l-21.2,12.5c-0.4,0.2-0.6,0.6-0.6,1.1c0,0.4,0.2,0.7,0.4,0.9
			c0.3,0.2,0.6,0.3,1,0.3l18-3.2l-0.8-0.8c-0.7-0.7-1.1-1.7-1.1-2.7c0-2.1,1.7-3.8,3.7-3.8c1,0,1.9,0.4,2.6,1.1l5,5.1l-1.4,1.4
			l-5-5.1c-0.3-0.3-0.8-0.5-1.3-0.5c-1,0-1.8,0.8-1.8,1.8c0,0.5,0.2,1.2,0.5,1.5l7.7,8.1h9.3v-11.8h-2.9
			C119.9,1003.2,119.8,1002.8,119.6,1002.8z"/>
	</g>
	<g>
		<path class="st4" d="M127.2,1033.1l-19.5,3.4l-5.5-5.4c-0.2-0.2-0.4-0.1-0.7-0.1h-9.8c0-1-0.4-1-1-1h-3.9H80v2h5.9v13.7H80v2h6.9
			h3.9c0.5,0,1-1,1-1h2.7l10.5,5.1c0.5,0.2,0.9,0.3,1.4,0.3c0.6,0,1.1-0.2,1.6-0.5l21.4-12.5c1-0.6,1.6-1.6,1.6-2.8
			c0-1-0.4-1.8-1.1-2.5C129.1,1033.2,128.2,1033,127.2,1033.1z M89.8,1045.7h-2V1032h2V1045.7z M128.4,1037.3l-21.4,12.5
			c-0.4,0.2-0.8,0.2-1.2,0l-10.7-5.2c-0.1-0.1-0.3,0-0.4,0h-2.9v-11.7h9.4l7.7,7.6c0.3,0.3,0.5,0.7,0.5,1.2c0,1-0.8,1.8-1.8,1.8
			c-0.5,0-0.9-0.2-1.3-0.5l-5.1-5.1l-1.4,1.4l5.1,5.1c0.7,0.7,1.7,1.1,2.7,1.1c2.1,0,3.8-1.7,3.8-3.8c0-1-0.4-1.9-1.1-2.7l-0.8-0.8
			l18.1-3.1c0.4-0.1,0.7,0,1,0.3c0.3,0.2,0.4,0.6,0.4,1C129,1036.7,128.8,1037.1,128.4,1037.3z"/>
	</g>
	<g>
		<path class="st4" d="M135,1002v-2h-6.2c-0.8,0-0.4,0-0.7,0h-3.9c-0.5,0-1,0-1,1h-2.7l-10.5-5.6c-1-0.5-2.1-0.6-3-0.1L85.6,1008
			c-1,0.6-1.6,1.6-1.6,2.8c0,1,0.4,1.8,1.1,2.5c0.6,0.5,1.3,0.8,2.1,0.8c0.2,0,0.4,0,0.6,0l19.4-3.4l5.5,5.9
			c0.2,0.2,0.4,0.6,0.7,0.6h9.8c0,0,0.4,1,1,1h3.2c0.2,0,0.4,0,0.7,0h6.9v-2h-5.9v-14H135z M113.8,1015l-7.7-8.2
			c-0.3-0.3-0.5-1-0.5-1.4c0-1,0.8-1.9,1.8-1.9c0.5,0,0.9,0.1,1.3,0.5l5.1,5.1l1.4-1.4l-5.1-5.2c-0.7-0.7-1.7-1.1-2.7-1.1
			c-2.1,0-3.8,1.7-3.8,3.8c0,1,0.4,2,1.1,2.7l0.8,0.8l-18.1,3.2c-0.4,0.1-0.7,0-1-0.3c-0.3-0.2-0.4-0.6-0.4-1c0-0.4,0.2-0.9,0.6-1.1
			l21.4-12.7c0.4-0.2,0.8-0.2,1.2,0l10.7,5.7c0.1,0.1,0.3,0.4,0.4,0.4h2.9v12H113.8z M125.2,1002h2v14h-2V1002z"/>
	</g>
	<g>
		<path class="st5" d="M108,1018c-1.6-1.4-4.2-1.4-5.8,0.1c-0.8,0.8-1.2,1.8-1.2,2.9c0,1.1,0.4,2.1,1.2,2.9l5.1,4.8
			c0.2,0.2,0.4,0.3,0.7,0.3s0.5-0.1,0.7-0.3l5.1-4.8c0.8-0.8,1.2-1.8,1.2-2.9c0-1.1-0.4-2.1-1.2-2.9l0,0
			C112.2,1016.7,109.6,1016.6,108,1018z M112.4,1022.5l-4.4,4.2l-4.4-4.2c-0.4-0.4-0.6-0.9-0.6-1.4c0-0.5,0.2-1,0.6-1.4
			c0.4-0.4,1-0.6,1.6-0.6c0.6,0,1.1,0.2,1.6,0.6l0.6,0.5c0.4,0.4,1,0.4,1.4,0l0.6-0.5c0.9-0.8,2.3-0.8,3.1,0
			c0.4,0.4,0.6,0.9,0.6,1.4C113,1021.6,112.8,1022.1,112.4,1022.5z"/>
	</g>
	<g>
		<path class="st5" d="M92,1020.5l2.4,0.5c0.1-0.8,0.3-1.5,0.6-2.2l-2.3-0.8C92.4,1018.8,92.2,1019.7,92,1020.5z"/>
	</g>
	<g>
		<path class="st5" d="M92,1026.5c0.2,0.8,0.4,1.7,0.7,2.5l2.3-0.8c-0.3-0.7-0.5-1.4-0.6-2.2L92,1026.5z"/>
	</g>
	<g>
		<path class="st5" d="M96,1015.2l-1.2-1.2c-0.3,0.7-0.6,1.3-0.8,2l1.3,1C95.5,1016.4,95.7,1015.8,96,1015.2z"/>
	</g>
	<g>
		<path class="st5" d="M92,1022.9c0,0.4,0,0.7,0,1.1l2-0.1c0-0.3,0-0.6,0-1c0-0.3,0-0.5,0-0.8l-2-0.1C92,1022.3,92,1022.6,92,1022.9
			z"/>
	</g>
	<g>
		<path class="st5" d="M119,1030.8l1.8,1.2c0.4-0.7,0.8-1.3,1.2-2l-2-1C119.7,1029.6,119.4,1030.2,119,1030.8z"/>
	</g>
	<g>
		<path class="st5" d="M121,1018.5c0.2,0.5,0.3,1,0.4,1.5l1.6-0.3c-0.1-0.6-0.3-1.1-0.5-1.7L121,1018.5z"/>
	</g>
	<g>
		<path class="st5" d="M121,1027.5l1.6,0.5c0.2-0.6,0.3-1.1,0.4-1.7l-1.6-0.3C121.3,1026.5,121.2,1027,121,1027.5z"/>
	</g>
	<g>
		<path class="st5" d="M123,1023.1c0-0.4,0-0.7,0-1.1l-2,0.1c0,0.3,0,0.6,0,1c0,0.3,0,0.5,0,0.8l2,0.1
			C123,1023.7,123,1023.4,123,1023.1z"/>
	</g>
</g>
</svg>
