<?xml version="1.0" encoding="utf-8"?>
<!-- Generator: Adobe Illustrator 25.0.0, SVG Export Plug-In . SVG Version: 6.00 Build 0)  -->
<svg version="1.1" id="Layer_1" xmlns="http://www.w3.org/2000/svg" xmlns:xlink="http://www.w3.org/1999/xlink" x="0px" y="0px"
	 viewBox="0 0 100 101" style="enable-background:new 0 0 100 101;" xml:space="preserve">
<style type="text/css">
	.st0{fill:none;}
	.st1{fill-rule:evenodd;clip-rule:evenodd;fill:#FFE808;}
	.st2{fill:#0C2534;}
	.st3{fill-rule:evenodd;clip-rule:evenodd;fill:#205F89;}
	.st4{fill-rule:evenodd;clip-rule:evenodd;fill:#B93128;}
	.st5{fill-rule:evenodd;clip-rule:evenodd;fill:#0C2534;}
</style>
<g>
	<rect y="0" class="st0" width="100" height="101"/>
</g>
<g transform="translate(-91 -780)">
	<g>
		<path class="st1" d="M93.5,830.5c0-26.5,21.5-48,48-48s48,21.5,48,48s-21.5,48-48,48S93.5,857,93.5,830.5z"/>
		<path class="st2" d="M141.5,880c-27.3,0-49.5-22.2-49.5-49.5c0-27.3,22.2-49.5,49.5-49.5c27.3,0,49.5,22.2,49.5,49.5
			C191,857.8,168.8,880,141.5,880z M141.5,784c-25.6,0-46.5,20.9-46.5,46.5c0,25.6,20.9,46.5,46.5,46.5c25.6,0,46.5-20.9,46.5-46.5
			C188,804.9,167.1,784,141.5,784z"/>
	</g>
	<g>
		<path class="st1" d="M164.8,859.8c0.4,0.7,0.3,1.5-0.1,2.2c-0.4,0.7-1.2,1.1-2.1,1.1h-24.8c-1.1,0-2-0.6-2.3-1.5
			c-0.8-2.1-2.6-5.9-5.6-7.1c-3.5,1.2-7.1,2.1-10.7,2.9c-1.8,0.3-3.5-0.6-4-2.2c-1-2.8,0.4-3.5-0.1-5.2c-0.3-1.1-1.5-1.4-2.4-2
			c-0.8-0.5,0.6-2.1,0.6-2.1s-1.4-1-2-1.4c-0.5-0.4,0.2-1.1,0.9-2.4c0.3-0.6,0.4-1.2,0.2-1.8c-0.2-1.2-2.2-1.7-3.2-2.3
			c-2.1-1.4-2.2-1.7,3.2-7c1.1-1.2,1.8-2.7,2-4.2c0.1-0.5,0.7-1.1,0.7-1.7c0-1.6-2.6-2.3-2.8-3.8c-0.2-1.2,1.5-3.4,2.1-5.6
			c0.3-1.3,0.7-2.6,1.2-3.9c1-2.6,2.6-4.9,4.7-6.9c3-2.9,7.2-4.2,11.4-5.1c15.5-3.2,23.2-1.5,32.1,4.9c3.3,2.3,5.8,5.4,6.9,9.1
			c0.9,3,1.3,6.1,1.2,9.2c-0.1,8.2-5.9,11.1-8.4,16.4c-1.6,3.3-2.2,6.9-1.7,10.4C162.2,853.1,163.2,856.5,164.8,859.8L164.8,859.8z"
			/>
	</g>
	<g>
		<path class="st3" d="M164,821.3c0,1.5-0.6,2.9-1.6,3.9h0c-0.5,2.5-2.1,4.6-4.5,5.8c0.7,0.9,1.2,1.9,1.6,3c0.1,0.2,0.1,0.5,0.1,0.7
			c0,0.9-0.6,1.8-1.5,2.1c-0.1,0.1-0.3,0.1-0.5,0.1v0c-0.9,0.2-1.9-0.2-2.5-0.8c-0.8-0.9-1.8-1.5-3-1.8c-0.2-0.1-0.4-0.1-0.6-0.2
			c-3.3-1.1-4.3-2.3-4.5-4.2h-0.1c-1.3,0-2.6-0.2-3.8-0.7c-1.5,1.6-3.7,2.3-6,1.9c-2.2-0.4-4-1.9-4.8-3.8h0
			c-2.6,0.9-5.5,0.5-7.8-0.9c-2.3-1.5-3.6-3.9-3.6-6.5c0-1.7,0.6-3.4,1.7-4.7c-0.1-0.4-0.2-0.7-0.2-1.1c0-1.6,1.2-3.1,3-3.4
			c0-0.1,0-0.3,0-0.4c0-2.5,2.2-4.5,4.8-4.5c0.7,0,1.4,0.1,2.1,0.4c1.3-2,3.6-3.2,6.1-3.2c1.7,0,3.4,0.6,4.6,1.6
			c0.7-1.1,2.1-1.7,3.4-1.6c1.4,0.1,2.6,0.9,3.1,2.1c0.3,0,0.7-0.1,1-0.1c4.6,0,8.5,3.3,8.9,7.6h0c1.3,0,2.5,0.7,3.2,1.7
			c0.7,1.1,0.7,2.4,0,3.4C163.6,818.8,164,820.1,164,821.3z"/>
	</g>
	<g>
		<path class="st3" d="M160,863h-5.3c-2.4-6.4-4.6-13.4-3.3-20.5c0.5-2.7,1.5-5.6,0.3-8.5c0.2,0.1,0.4,0.1,0.6,0.2
			c1.1,0.3,2.1,1,2.9,1.9c0.6,0.7,1.5,1,2.4,0.9c-0.1,1.9-0.4,3.8-0.9,5.6C155.4,849.6,157.6,856.6,160,863z"/>
	</g>
	<g>
		<path class="st4" d="M150,815c-0.7-0.1-1.3,0.3-1.4,0.9c-0.2,1.1-1,2.1-2,2.8c-2,1.2-4.8,0.9-6.4-0.6c-0.5-0.4-1.2-0.5-1.7-0.1
			c-0.5,0.4-0.5,1.1-0.1,1.5c1,1,2.4,1.7,3.9,2c-0.7,0.9-1.8,1.4-3,1.4c-0.7,0-1.2,0.5-1.2,1.1c0,0.6,0.5,1.1,1.2,1.1
			c2.5,0,4.8-1.4,5.7-3.5c3-0.4,5.4-2.5,6-5.2c0.1-0.3,0-0.6-0.2-0.8C150.6,815.2,150.3,815.1,150,815z"/>
	</g>
	<g>
		<path class="st4" d="M140,812.1c0-0.6-0.6-1.1-1.2-1.1c-3.2,0-5.7,2.2-5.8,4.9c0,0.6,0.6,1.1,1.2,1.1s1.2-0.5,1.2-1.1
			c0-1.5,1.5-2.8,3.2-2.8C139.4,813.1,140,812.7,140,812.1z"/>
	</g>
	<g>
		<path class="st5" d="M113.5,826.5c-0.2,1.3-0.8,2.6-1.7,3.6c-3.8,3.8-4.9,5.1-4.8,6.4c0.1,1.3,1.7,2.3,3.1,2.9
			c0.5,0.2,1.4,0.7,1.5,1c0.1,0.4,0,0.8-0.1,1.1c-0.7,1.3-2,2.7-0.6,3.7c0.3,0.2,0.7,0.5,1.1,0.8c-0.3,0.5-0.4,1.1-0.4,1.6
			c0.1,0.8,0.8,1.1,1.6,1.6c1.1,0.6,1.4,0.7,1,2.1c-1,3.9,1.5,7.7,5.5,6.9c3.5-0.8,6.9-1.7,10.3-2.8c1.7,0.9,3.3,3.2,4.4,6.2
			c0.5,1.4,1.9,2.3,3.5,2.3h24.6c1.3,0,2.4-0.6,3.1-1.6c0.7-1,0.7-2.2,0.2-3.3c-1.5-3.1-2.5-6.4-2.8-9.8c-0.4-3.3,0.1-6.7,1.6-9.8
			c2.4-5.1,8.3-8.2,8.5-16.8c0.2-9.8-3.2-15.2-8.6-19.1c-9.6-6.9-17.9-8.2-32.9-5c-4.1,0.9-8.7,2.2-12,5.4c-2.2,2.1-3.8,4.6-4.9,7.3
			c-0.5,1.2-0.8,2.4-1.1,3.7c-0.3,1-0.7,2-1.2,3c-1.3,2.7-1.7,3.8,0.8,5.8C115,825.3,113.8,824.9,113.5,826.5z M151.3,829.4
			c-0.1-0.3-0.3-0.5-0.6-0.7c-0.3-0.1-0.6-0.2-0.9-0.1c-2,0.6-4.2,0.5-6.2-0.2c-0.5-0.2-1,0-1.4,0.3c-1.8,1.9-4.8,2.2-7,0.7
			c-2.2-1.5-2.8-4.2-1.4-6.3c0.3-0.5,0.2-1.2-0.4-1.5c-0.6-0.3-1.3-0.1-1.7,0.4c-0.3,0.5-0.5,0.9-0.7,1.4c-1,0-1.7-0.8-1.7-1.7
			c0-0.3-0.1-0.6-0.4-0.8c-0.2-0.2-0.5-0.3-0.9-0.3c-2.3,0-1.3,4.6,2.6,5c0,0.4,0,0.7,0.1,1.1c-2.7,0.5-5.5-0.4-7.3-2.3
			c-1.8-2-2.2-4.7-1.1-7c0.3,0.3,0.6,0.5,0.9,0.7c0.6,0.3,1.3,0.1,1.7-0.4c0.3-0.5,0.2-1.2-0.4-1.5c-1-0.5-1.5-1.6-1.1-2.6
			c0.3-1,1.3-1.7,2.5-1.7c0.8,0,1.6,0.4,2.1,0.9c0.3,0.3,0.7,0.5,1.1,0.4c0.4,0,0.8-0.3,1-0.7c0.2-0.4,0.1-0.8-0.1-1.1
			c-0.8-1-2.1-1.7-3.5-1.8c0.4-1.7,2.2-2.9,4.1-2.6c-0.1,0.2-0.2,0.5-0.3,0.7c-0.1,0.6,0.3,1.2,0.9,1.3c0.6,0.1,1.3-0.2,1.5-0.8
			c0.5-1.7,1.8-3.1,3.6-3.7c1.8-0.6,3.8-0.4,5.4,0.5c-0.2,0.5-0.3,1-0.3,1.5c0,0.6,0.5,1.1,1.2,1.1c0.7,0,1.2-0.5,1.2-1.1
			c0-0.8,0.5-1.6,1.3-2c0.8-0.4,1.8-0.4,2.6,0c0.8,0.4,1.3,1.2,1.3,2c0,0.6,0.5,1.1,1.2,1.1c0.7,0,1.2-0.5,1.2-1.1
			c0-0.1,0-0.2,0-0.3c3.5,0.2,6.4,2.5,7.2,5.6c-0.6,0.2-1.1,0.4-1.6,0.7c-0.5,0.4-0.6,1.1-0.2,1.6c0.4,0.5,1.2,0.6,1.7,0.2
			c0.8-0.5,1.8-0.6,2.7-0.2c0.9,0.4,1.4,1.2,1.4,2.1c0,0.9-0.6,1.7-1.5,2.1c-0.6,0.3-0.9,0.9-0.6,1.5c0.3,0.6,1,0.8,1.6,0.5
			c0.3-0.1,0.6-0.3,0.9-0.5c0.7,1.9,0,4.1-1.8,5.4c-1.8,1.2-4.3,1.3-6.1,0.1c0.9-1.2,1-2.7,0.3-3.9c-0.3-0.6-1-0.8-1.6-0.5
			c-0.6,0.3-0.8,0.9-0.5,1.5c0.4,0.7,0.2,1.6-0.6,2.1c-0.4,0.3-1,0.3-1.5,0.2c-0.5-0.1-0.9-0.4-1.2-0.8c-0.2-0.4-0.6-0.6-1-0.6
			c-0.4,0-0.9,0.2-1.1,0.5c-0.2,0.3-0.3,0.8-0.1,1.1c1,1.8,3.3,2.6,5.3,1.9c1.9,1.5,4.6,2,7.1,1.4c-1.2,1.5-3,2.5-5,2.8
			c-0.7,0.1-1.1,0.7-1,1.3c0.1,0.6,0.7,1,1.4,0.9c0.7-0.1,1.5-0.3,2.2-0.6c0.4,0.6,0.7,1.3,0.9,1.9c0.2,0.6-0.1,1.2-0.7,1.4
			c-0.6,0.3-1.3,0.1-1.7-0.4c-0.9-1-2.2-1.8-3.6-2.2c-2.6-0.8-3.7-1.5-4.1-2.3c0.6-0.1,1.3-0.2,1.9-0.4
			C151.1,830.6,151.5,830,151.3,829.4L151.3,829.4z M153.5,836.3c0.3,0.2,0.7,0.5,0.9,0.8c0.6,0.6,1.3,1,2.2,1.2
			c-0.5,4.4-3.6,8.8,2.1,23.5h-3C148.9,844.5,154.1,842.4,153.5,836.3L153.5,836.3z M113.8,821c0.1-0.7,0.4-1.5,0.8-2.1
			c0.6-1.1,1-2.2,1.3-3.4c0.3-1.1,0.6-2.3,1-3.4c1-2.4,2.4-4.7,4.4-6.5c2.9-2.8,6.8-3.9,10.7-4.7c15.9-3.4,22.9-1.1,30.8,4.6
			c3.1,2.1,5.4,5.1,6.4,8.5c0.9,2.9,1.3,5.9,1.2,8.8c-0.1,7.8-5.6,10.4-8.3,15.9c-1.6,3.4-2.3,7.2-1.8,11c0.4,3.6,1.4,7.2,3.1,10.5
			c0.2,0.3,0.2,0.8-0.1,1.1c-0.2,0.3-0.6,0.5-1,0.5h-1.1c-6.1-15.4-2.6-18.7-2.3-23.8c1.6-0.8,2.4-2.5,1.9-4.1
			c-0.3-0.8-0.6-1.6-1.1-2.3c2.1-1.4,3.5-3.4,4.1-5.7c2.1-2.3,2.4-5.5,0.7-8c0.5-1.2,0.4-2.6-0.3-3.8c-0.7-1.2-1.9-2-3.4-2.3
			c-0.9-4.6-5.4-7.9-10.5-7.7c-0.8-1.1-2.1-1.9-3.6-2.1c-1.5-0.2-2.9,0.3-4,1.2c-3.7-2.2-8.6-1.4-11.2,1.8c-1.8-0.5-3.7-0.2-5.2,0.8
			c-1.5,1-2.5,2.5-2.6,4.2c-2.2,0.9-3.5,3-3,5.2c-2.2,3.1-2.2,7.2,0.2,10.2c2.3,3,6.5,4.5,10.4,3.6c1.1,1.9,3.1,3.3,5.5,3.6
			c2.4,0.4,4.8-0.3,6.5-1.8c0.8,0.2,1.7,0.4,2.6,0.5c0.5,1.8,1.9,3,4.7,4c0.5,1.9,0.4,3.9-0.2,5.8c-1.7,7.4-0.3,13.3,2.6,20.8h-15.4
			c-0.5,0-1-0.3-1.2-0.8c-0.8-2.4-2.2-4.5-4-6.4c1.3-0.4,2.4-0.8,2.8-0.9c5.2-1.5,7.8-3.7,7.8-6.5c0-0.3-0.1-0.6-0.4-0.8
			c-0.2-0.2-0.6-0.3-0.9-0.3c-0.7,0-1.2,0.5-1.2,1.1c0.1,2.7-5.3,4-8.1,4.9c-4.5,1.5-9,2.8-13.6,3.9c-1.1,0.2-2.2-0.5-2.5-1.5
			c-1-2.5,0.6-2.9,0-5c-0.4-1.3-1.4-1.8-2.5-2.4c0.4-0.7,0.8-0.9,0.7-1.5s-0.5-0.7-2-1.8c0.9-1.1,1.3-2.5,1.1-3.9
			c-0.4-1.8-2.8-2.4-3.7-3c-0.3-0.2-0.6-0.4-0.8-0.6c0-0.6,2.7-3.3,4.2-4.7c1.3-1.3,2.1-3,2.3-4.8c0.4-0.6,0.6-1.2,0.7-1.9
			C116.6,822.8,114,821.9,113.8,821z"/>
	</g>
</g>
</svg>
