<?xml version="1.0" encoding="utf-8"?>
<!-- Generator: Adobe Illustrator 25.0.0, SVG Export Plug-In . SVG Version: 6.00 Build 0)  -->
<svg version="1.1" id="Layer_1" xmlns="http://www.w3.org/2000/svg" xmlns:xlink="http://www.w3.org/1999/xlink" x="0px" y="0px"
	 viewBox="0 0 100 101" style="enable-background:new 0 0 100 101;" xml:space="preserve">
<style type="text/css">
	.st0{fill:none;}
	.st1{fill-rule:evenodd;clip-rule:evenodd;fill:#FFE808;}
	.st2{fill:#0C2534;}
	.st3{fill-rule:evenodd;clip-rule:evenodd;fill:#205F89;}
	.st4{fill-rule:evenodd;clip-rule:evenodd;fill:#B93128;}
	.st5{fill-rule:evenodd;clip-rule:evenodd;fill:#FFFFFF;}
	.st6{fill-rule:evenodd;clip-rule:evenodd;}
	.st7{fill-rule:evenodd;clip-rule:evenodd;fill:#C9BFC8;}
	.st8{fill-rule:evenodd;clip-rule:evenodd;fill:#0C2534;}
</style>
<g>
	<rect y="0" class="st0" width="100" height="101"/>
</g>
<g transform="translate(-95 -181)">
	<g>
		<path class="st1" d="M97.5,232.5c0-26.5,21.5-48,48-48s48,21.5,48,48s-21.5,48-48,48S97.5,259,97.5,232.5z"/>
		<path class="st2" d="M145.5,282c-27.3,0-49.5-22.2-49.5-49.5c0-27.3,22.2-49.5,49.5-49.5c27.3,0,49.5,22.2,49.5,49.5
			C195,259.8,172.8,282,145.5,282z M145.5,186c-25.6,0-46.5,20.9-46.5,46.5c0,25.6,20.9,46.5,46.5,46.5c25.6,0,46.5-20.9,46.5-46.5
			C192,206.9,171.1,186,145.5,186z"/>
	</g>
	<g>
		<path class="st3" d="M122,215.5c0-4.2,3.4-7.6,7.6-7.5c4.1,0.1,7.4,3.4,7.4,7.5c0,2.3-1,4.3-2.6,5.7c-0.2,0.1-0.1,0.4,0,0.5
			l1.4,0.8c0.2,0.1,0.1,0.5-0.1,0.5l-6.4,0C125.3,222.9,122,219.6,122,215.5z"/>
	</g>
	<g>
		<path class="st4" d="M158,235h-17c-4.2,0-6.6-4.9-3.9-8.2l0.2-0.2c1.2-1.4,1.8-3.2,1.8-5.1v-3.3c0-5.7,4.7-10.3,10.4-10.3
			c5.7,0,10.4,4.6,10.4,10.3v3.4c0,1.9,0.7,3.7,1.9,5.1C164.6,230.1,162.2,235,158,235z"/>
	</g>
	<g>
		<path class="st3" d="M167,243v11h-35v-10.9c0-2.5,1.5-4.7,3.9-5.7l5.6-2.4l1.9-0.8c1.4-0.6,2.4-2,2.4-3.5V230h7.4v0.7
			c0,1.5,0.9,2.9,2.4,3.5l7.6,3.2C165.5,238.4,167,240.6,167,243z"/>
	</g>
	<g>
		<path class="st1" d="M141.4,237.9c1.9,0.6,4.7,1.2,8.1,1.1c3.2-0.1,5.8-0.7,7.6-1.3l0.9-2.2l-2.8-1.2c-1.4-0.6-2.4-2.1-2.4-3.6
			V230h-7.3v0.7c0,1.6-0.9,3-2.3,3.6l-2.2,1L141.4,237.9z"/>
	</g>
	<g>
		<path class="st4" d="M163.1,237.4L157,235h0v19h10v-11C167,240.6,165.5,238.4,163.1,237.4z"/>
	</g>
	<g>
		<path class="st4" d="M142,235v19h-10v-10.9c0-2.5,1.6-4.7,4.1-5.7L142,235z"/>
	</g>
	<g>
		<path class="st5" d="M151.8,229h-1.5c-0.7,0-1.2-0.7-1.2-1.5s0.6-1.5,1.2-1.5h1.5c0.7,0,1.2,0.7,1.2,1.5S152.4,229,151.8,229z"/>
	</g>
	<g>
		<path class="st6" d="M149.7,227c-0.4,0-0.7,0.2-0.7,0.5s0.3,0.5,0.7,0.5h1.7c0.4,0,0.7-0.2,0.7-0.5s-0.3-0.5-0.7-0.5H149.7z"/>
	</g>
	<g>
		<path class="st6" d="M150,243c0,0.6-0.2,1-0.5,1s-0.5-0.4-0.5-1s0.2-1,0.5-1S150,242.4,150,243z"/>
	</g>
	<g>
		<path class="st1" d="M157,219.2v6.3c0,3.6-2.8,6.5-6.3,6.5h-2.3c-3.5,0-6.3-2.9-6.3-6.5v-6.3c0-2.3,1.8-4.2,4.1-4.2h6.8
			C155.2,215,157,216.9,157,219.2z"/>
	</g>
	<g>
		<path class="st3" d="M151.8,229h-1.5c-0.7,0-1.2-0.7-1.2-1.5s0.6-1.5,1.2-1.5h1.5c0.7,0,1.2,0.7,1.2,1.5S152.4,229,151.8,229z"/>
	</g>
	<g>
		<path class="st4" d="M151,214.1c0.2-2,2.1-3.4,3.9-4.1c3,1.9,5.1,5.2,5.1,9.1v0.7c-0.2,0-0.3,0.1-0.5,0.1c-1,0.2-1.9,0.1-2.5,0
			C153.2,219.4,150.8,216.5,151,214.1z"/>
	</g>
	<g>
		<path class="st4" d="M149.6,208c2.4,0,4.6,0.8,6.4,2.1c-0.9,1.5-2.9,4.4-6.7,6.6c-2.8,1.6-5.5,2.2-7.2,2.4H139v-0.8
			C139,212.6,143.8,208,149.6,208z"/>
	</g>
	<g>
		<path class="st3" d="M160.8,254h-21.6l-1.2-11.5c-0.1-0.8,0.5-1.5,1.3-1.5h21.3c0.8,0,1.4,0.7,1.3,1.5L160.8,254z"/>
	</g>
	<g>
		<path class="st7" d="M168.3,255h-46.6c-0.4,0-0.7-0.2-0.7-0.5s0.3-0.5,0.7-0.5h46.6c0.4,0,0.7,0.2,0.7,0.5S168.7,255,168.3,255z"
			/>
	</g>
	<g>
		<path class="st4" d="M152,248c0,1.1-0.9,2-2,2s-2-0.9-2-2s0.9-2,2-2S152,246.9,152,248z"/>
	</g>
	<g>
		<path class="st8" d="M132,216.7c0.4,0,0.7-0.3,0.7-0.7c0-0.4-0.3-0.7-0.7-0.7c-0.4,0-0.7,0.3-0.7,0.7
			C131.3,216.4,131.6,216.7,132,216.7z M126.3,216.7c0.4,0,0.7-0.3,0.7-0.7c0-0.4-0.3-0.7-0.7-0.7c-0.4,0-0.7,0.3-0.7,0.7
			C125.6,216.4,126,216.7,126.3,216.7z M129.2,216.7c0.4,0,0.7-0.3,0.7-0.7c0-0.4-0.3-0.7-0.7-0.7c-0.4,0-0.7,0.3-0.7,0.7
			C128.5,216.4,128.8,216.7,129.2,216.7z M129,224C129,224,129,224,129,224l6.4,0l0,0c0.4,0,0.8-0.3,0.9-0.7
			c0.1-0.4-0.1-0.8-0.4-1.1l-1-0.6c1.6-1.5,2.4-3.6,2.4-5.7c0-4.3-3.6-7.9-8-7.9c-4.6-0.1-8.3,3.5-8.3,8
			C121,220.2,124.6,223.9,129,224z M124.4,211.3c1.3-1.3,3-1.9,4.8-1.9c3.6,0.1,6.6,3,6.6,6.6c0,1.9-0.8,3.8-2.3,5
			c-0.2,0.2-0.4,0.5-0.3,0.9c0,0.3,0.2,0.6,0.5,0.8l0,0l-4.7,0c-3.7-0.1-6.6-3-6.6-6.6C122.4,214.2,123.1,212.5,124.4,211.3z
			 M168.3,253.6h-0.7v-10.3c0-2.7-1.6-5.1-4.1-6.2l-3.7-1.6c0.9-0.3,1.7-0.8,2.4-1.5c1-1,1.6-2.4,1.6-3.9c0-1.3-0.5-2.5-1.3-3.6
			c-1.1-1.3-1.7-2.9-1.7-4.6v-3.3c0-2.9-1.1-5.6-3.2-7.6c-2.1-2-4.9-3.2-7.8-3.2c-6.1,0-11,4.9-11,10.8v3.2c0,1.7-0.7,3.4-1.8,4.7
			c-1.4,1.7-1.7,3.9-0.8,5.9c0.7,1.5,2,2.5,3.5,3l-3.7,1.6c-2.6,1.1-4.2,3.5-4.2,6.3v8.1c0,0.4,0.3,0.7,0.7,0.7
			c0.4,0,0.7-0.3,0.7-0.7v-8.1c0-2.2,1.3-4.1,3.4-5l4.6-2v1.6v0v2.6h-2.1c-0.6,0-1.2,0.2-1.6,0.7c-0.4,0.4-0.6,1-0.5,1.6l1.2,10.7
			h-16.2c-0.4,0-0.7,0.3-0.7,0.7c0,0.4,0.3,0.7,0.7,0.7h17h0h22.5h0h0h7.1c0.4,0,0.7-0.3,0.7-0.7C169,253.9,168.7,253.6,168.3,253.6
			z M161.3,227.6c0.7,0.8,1,1.7,1,2.7c0,1.1-0.4,2.1-1.2,2.9c-0.8,0.8-1.9,1.3-3.1,1.3h-0.9l-1.2-0.5c-1.1-0.4-1.8-1.4-1.9-2.5
			c2.2-1.1,3.6-3.4,3.6-6v-5.2c0.2,0,0.4,0,0.6,0c0.3,0,0.7,0,1-0.1v1.8C159.2,224.1,160,226.1,161.3,227.6z M149.8,238.5
			c-2.5,0-5-0.3-7.4-0.9v-1.6l0.2-0.1c0,0,0,0,0,0l1.3-0.5c1.4-0.6,2.4-1.8,2.7-3.2c0.6,0.2,1.3,0.3,1.9,0.3h2.3
			c0.7,0,1.3-0.1,1.9-0.3c0.3,1.4,1.3,2.6,2.7,3.2l1.3,0.6c0,0,0,0,0,0l0.1,0v1.6C154.5,238.1,152.1,238.4,149.8,238.5z
			 M156.8,238.8v1.8h-14.4V239c2.3,0.6,4.6,0.9,7,0.9c0.2,0,0.3,0,0.5,0C152.2,239.8,154.5,239.5,156.8,238.8z M159.2,218.9
			c-1.9,0.3-4.1-0.3-5.6-1.4c-0.3-0.2-0.7-0.2-1,0.1c-0.2,0.3-0.2,0.7,0.1,1c1,0.7,2.2,1.3,3.5,1.5v3.7c-0.3,0.8-0.7,1.4-1.6,2.1
			c-0.4,0.3-0.7,0.5-1.2,0.7c-0.3-0.7-1-1.1-1.8-1.1H150c-1.1,0-2.1,0.9-2.1,2c0,1.1,0.9,2,2.1,2h1.6c1,0,1.8-0.6,2-1.5
			c0.9-0.4,2.5-1.6,2.5-1.6c-0.5,2.5-2.7,4.4-5.4,4.4h-2.3c-3,0-5.5-2.4-5.5-5.4v-5.3c2.4-0.4,4.6-1.2,6.7-2.4
			c3.2-1.8,5.2-4.2,6.4-6.1C158.1,213.6,159.3,216.2,159.2,218.9z M152.3,227.6c0,0.4-0.3,0.6-0.7,0.6H150c-0.4,0-0.7-0.3-0.7-0.6
			c0-0.4,0.3-0.6,0.7-0.6h1.6C152,227,152.3,227.3,152.3,227.6L152.3,227.6z M140,218.8c0-5.2,4.3-9.4,9.6-9.4
			c1.9,0,3.7,0.5,5.3,1.5c-1.1,1.8-3,4-6,5.8c-2,1.2-4.3,1.9-6.7,2.2h0c0,0,0,0,0,0c0,0,0,0,0,0L140,218.8L140,218.8z M137.2,232.1
			c-0.7-1.5-0.5-3.2,0.6-4.5c1.3-1.6,2.2-3.5,2.2-5.6v-1.7h1.5v5.2c0,2.6,1.5,4.8,3.7,6c-0.1,1.1-0.9,2.1-1.9,2.5l-1.1,0.5h-1
			C139.4,234.5,137.9,233.6,137.2,232.1z M161.7,242.8l-1.2,10.9h-21.2l-1.2-10.9c0-0.2,0-0.4,0.2-0.5c0.1-0.1,0.3-0.2,0.5-0.2H161
			c0.2,0,0.4,0.1,0.5,0.2C161.7,242.4,161.7,242.6,161.7,242.8z M166.2,253.6h-4.2l1.2-10.7c0.1-0.6-0.1-1.2-0.5-1.6
			c-0.4-0.4-1-0.7-1.6-0.7h-2.8v-2.7c0,0,0,0,0,0v-1.5l4.7,2c2,0.9,3.3,2.8,3.3,5V253.6z M149.9,245.2c-1.5,0-2.7,1.2-2.7,2.6
			c0,1.4,1.2,2.6,2.7,2.6c1.5,0,2.7-1.2,2.7-2.6C152.6,246.4,151.4,245.2,149.9,245.2z M149.9,249.1c-0.7,0-1.3-0.6-1.3-1.2
			s0.6-1.2,1.3-1.2s1.3,0.6,1.3,1.2S150.6,249.1,149.9,249.1z"/>
	</g>
</g>
</svg>
