<?xml version="1.0" encoding="utf-8"?>
<!-- Generator: Adobe Illustrator 25.0.0, SVG Export Plug-In . SVG Version: 6.00 Build 0)  -->
<svg version="1.1" id="Layer_1" xmlns="http://www.w3.org/2000/svg" xmlns:xlink="http://www.w3.org/1999/xlink" x="0px" y="0px"
	 viewBox="0 0 100 100" style="enable-background:new 0 0 100 100;" xml:space="preserve">
<style type="text/css">
	.st0{fill:none;}
	.st1{fill-rule:evenodd;clip-rule:evenodd;fill:#FFE808;}
	.st2{fill:#0C2534;}
	.st3{fill:#FFE808;}
	.st4{enable-background:new    ;}
	.st5{fill:#B93128;}
	.st6{fill:#205F89;}
</style>
<g>
	<rect y="0" class="st0" width="100" height="100"/>
	<g>
		<path class="st1" d="M2.5,50.5c0-26.5,21.5-48,48-48c26.5,0,48,21.5,48,48s-21.5,48-48,48C24,98.5,2.5,77,2.5,50.5z"/>
		<path class="st2" d="M50.5,100C23.2,100,1,77.8,1,50.5C1,23.2,23.2,1,50.5,1C77.8,1,100,23.2,100,50.5C100,77.8,77.8,100,50.5,100
			z M50.5,4C24.9,4,4,24.9,4,50.5C4,76.1,24.9,97,50.5,97C76.1,97,97,76.1,97,50.5C97,24.9,76.1,4,50.5,4z"/>
	</g>
	<rect x="15" y="20" class="st0" width="67" height="65"/>
	<g>
		<g>
			<g>
				<path class="st3" d="M71.4,60.1l-1.7-13.6l-3.1,0.4l0,0l-6.1-3.4c-0.6-0.4-1.4-0.5-2.1-0.5l-9.6,0.9c-1.2,0.1-2.2,0.8-2.8,1.8
					l-6.8,11.6c-0.5,0.9-0.1,2,0.8,2.3l0.3,0.1c0.5,0.2,1.1,0.3,1.6,0.4L41,60.9l-1.7,1.5l-4.9,4.2c-0.9,0.8-1,2.1-0.2,2.9l0.5,0.6
					c1,1.1,2.7,1.2,3.8,0.3l1.9,2.1c0.6,0.7,1.5,1,2.3,0.9c0.5-0.1,1-0.3,1.4-0.6l1.9,2.1c0.6,0.7,1.5,1,2.3,0.9
					c0.5-0.1,1-0.3,1.4-0.6l1,0.9c1,1.1,2.7,1.2,3.8,0.3L56,75l11.6-9l0,0l4.6,0L71.4,60.1z"/>
				<path class="st2" d="M52.8,77.8c-1,0-2-0.4-2.7-1.2l-0.4-0.4c-0.4,0.2-0.8,0.3-1.3,0.4c-1.2,0.1-2.4-0.3-3.2-1.2L44,73.9
					c-0.4,0.2-0.7,0.3-1.2,0.3c-1.2,0.1-2.4-0.3-3.1-1.2l-1.3-1.5c-1.4,0.7-3.2,0.4-4.3-0.9l-0.5-0.6c-0.5-0.6-0.8-1.4-0.7-2.2
					s0.4-1.5,1-2.1l6.1-5.2l-0.3-0.1c-0.7-0.3-1.2-0.8-1.5-1.5c-0.2-0.7-0.2-1.5,0.2-2.1l6.8-11.6c0.7-1.3,2.1-2.1,3.5-2.3l9.6-0.9
					c0.9-0.1,1.9,0.1,2.7,0.6l5.8,3.3l2.8-0.3c0.5-0.1,1,0.3,1,0.8L73,65.9c0,0.3,0,0.5-0.2,0.7c-0.2,0.2-0.4,0.3-0.7,0.3l-4.2,0
					l-11.3,8.8l-1.3,1.2C54.5,77.5,53.7,77.8,52.8,77.8z M49.8,74.2c0.2,0,0.4,0.1,0.6,0.2l1,0.9c0,0,0.1,0.1,0.1,0.1
					c0.6,0.7,1.8,0.8,2.5,0.2l1.4-1.2l11.6-9c0.2-0.1,0.4-0.2,0.6-0.2l3.5,0l-2.2-17.5l-2.2,0.3c-0.2,0-0.4,0-0.6-0.1l-6-3.4
					c-0.5-0.3-1-0.4-1.6-0.3l-9.6,0.9c-0.9,0.1-1.7,0.6-2.1,1.4L40,57.8c-0.1,0.2-0.1,0.5-0.1,0.6c0,0.1,0.1,0.3,0.4,0.4l0.3,0.1
					c0.4,0.2,0.9,0.3,1.4,0.3c0.4,0,0.7,0.3,0.8,0.6c0.1,0.4,0,0.7-0.3,1l-2.6,2.2L35,67.3c-0.2,0.2-0.4,0.5-0.4,0.8
					c0,0.3,0.1,0.6,0.3,0.8l0.5,0.6c0.6,0.7,1.8,0.8,2.5,0.2c0.4-0.3,1-0.3,1.3,0.1l1.9,2.1c0.4,0.4,1,0.7,1.5,0.6
					c0.3,0,0.7-0.2,0.9-0.4c0.2-0.2,0.4-0.2,0.7-0.2c0.2,0,0.5,0.1,0.6,0.3l1.9,2.1c0.4,0.4,1,0.7,1.5,0.6c0.3,0,0.7-0.2,0.9-0.4
					C49.4,74.3,49.6,74.2,49.8,74.2z"/>
			</g>
			<g>
				<path class="st3" d="M66.4,62.5L66.4,62.5l-11.6,9l-1.4,1.2c-1.1,1-2.8,0.9-3.8-0.3l-1-0.9c-0.4,0.4-0.9,0.6-1.4,0.6
					c-0.9,0.1-1.7-0.2-2.3-0.9L43,69.2c-0.4,0.4-0.9,0.6-1.4,0.6c-0.9,0.1-1.7-0.2-2.3-0.9l-1.9-2.1c-1,0.8-2.3,0.9-3.3,0.2
					c-0.5,0.8-0.5,1.8,0.2,2.5l0.5,0.6c1,1.1,2.7,1.2,3.8,0.3l1.9,2.1c0.6,0.7,1.5,1,2.3,0.9c0.5-0.1,1-0.3,1.4-0.6l1.9,2.1
					c0.6,0.7,1.5,1,2.3,0.9c0.5-0.1,1-0.3,1.4-0.6l1,0.9c1,1.1,2.7,1.2,3.8,0.3L56,75l11.6-9l0,0l4.6,0l-0.5-4.1L66.4,62.5z"/>
				<path class="st2" d="M52.8,77.8c-1,0-2-0.4-2.7-1.2l-0.4-0.4c-0.4,0.2-0.8,0.3-1.3,0.4c-1.2,0.1-2.4-0.3-3.2-1.2L44,73.9
					c-0.4,0.2-0.7,0.3-1.2,0.3c-1.2,0.2-2.4-0.3-3.2-1.2l-1.3-1.5c-1.4,0.7-3.2,0.4-4.3-0.9l-0.5-0.6c-0.9-1-1-2.5-0.2-3.6
					c0.1-0.2,0.4-0.4,0.6-0.4c0.2,0,0.5,0,0.7,0.2c0.7,0.5,1.6,0.4,2.2-0.1c0.4-0.3,1-0.3,1.3,0.1l1.9,2.1c0.4,0.4,1,0.7,1.5,0.6
					c0.3,0,0.7-0.2,0.9-0.4c0.2-0.2,0.4-0.2,0.7-0.2c0.2,0,0.5,0.1,0.6,0.3l1.9,2.1c0.4,0.4,1,0.7,1.5,0.6c0.3,0,0.7-0.2,0.9-0.4
					c0.3-0.3,0.9-0.3,1.2,0l1,0.9c0,0,0.1,0.1,0.1,0.1c0.3,0.4,0.7,0.6,1.2,0.6c0.5,0,0.9-0.1,1.3-0.4l1.4-1.2l11.6-9
					c0.1-0.1,0.3-0.2,0.5-0.2l5.2-0.6c0.5-0.1,1,0.3,1,0.8l0.5,4.1c0,0.3,0,0.5-0.2,0.7c-0.2,0.2-0.4,0.3-0.7,0.3l-4.2,0l-11.3,8.8
					l-1.3,1.2C54.5,77.5,53.7,77.8,52.8,77.8z M49.8,74.2c0.2,0,0.4,0.1,0.6,0.2l1,0.9c0,0,0.1,0.1,0.1,0.1c0.6,0.7,1.8,0.8,2.5,0.2
					l1.4-1.2l11.6-9c0.2-0.1,0.4-0.2,0.6-0.2l3.5,0l-0.3-2.2l-4,0.5l-11.4,8.9l-1.3,1.2c-0.7,0.6-1.7,0.9-2.6,0.9
					c-0.9-0.1-1.8-0.5-2.4-1.2l-0.4-0.4c-0.4,0.2-0.8,0.3-1.3,0.4c-0.6,0.1-1.2,0-1.8-0.2l1.2,1.3c0.4,0.4,1,0.7,1.5,0.6
					c0.4,0,0.7-0.2,0.9-0.4C49.4,74.3,49.6,74.2,49.8,74.2z M39.9,70.5l1.2,1.3c0.4,0.4,1,0.7,1.5,0.6c0.3,0,0.7-0.2,0.9-0.4
					c0.1-0.1,0.3-0.2,0.5-0.2l-1.2-1.4c-0.4,0.2-0.7,0.3-1.2,0.3C41.1,70.8,40.5,70.8,39.9,70.5z M34.7,68.3c0,0.2,0.1,0.4,0.3,0.6
					l0.5,0.6c0.6,0.7,1.7,0.8,2.5,0.2c0.2-0.1,0.3-0.2,0.5-0.2L37.2,68C36.4,68.4,35.5,68.5,34.7,68.3z"/>
			</g>
		</g>
		<g>
			<g>
				<path class="st3" d="M68.5,68.4l-6.2-5.3l-1.7-1.5l-1.2-1.1L54.1,56l0.6-5.2c0.2-1.8-0.9-3.4-2.6-3.9l-11.5-3.2
					c-1.2-0.3-2.5,0.2-3.1,1.4L36,47.9l-6.2-0.4L28.1,61l-0.7,5.9l6.1,0.4l0,0l12.7,10.9l1.4,1.2c1.1,1,2.8,0.8,3.8-0.3l1.8-2.1
					c0.4,0.4,0.9,0.6,1.4,0.6c0.9,0.1,1.7-0.2,2.3-0.9l1.8-2.1c0.4,0.4,0.9,0.6,1.4,0.6c0.9,0.1,1.7-0.2,2.3-0.9l1.9-2.1
					c1.1,1,2.8,0.8,3.8-0.3l0.5-0.6C69.5,70.5,69.4,69.2,68.5,68.4z"/>
				<path class="st2" d="M49.3,81c-0.9,0-1.7-0.3-2.3-0.9L33.2,68.2l-5.8-0.4c-0.3,0-0.5-0.1-0.6-0.3c-0.2-0.2-0.2-0.4-0.2-0.7
					l2.3-19.5c0.1-0.5,0.5-0.9,1-0.8l5.6,0.4l1.2-2.3c0.8-1.5,2.5-2.3,4.2-1.8L52.3,46c2.2,0.6,3.5,2.6,3.3,4.9L55,55.6l14.1,12.1
					c1.3,1.1,1.4,3,0.3,4.2l-0.5,0.6c-1.1,1.3-2.9,1.6-4.3,0.9l-1.3,1.5c-0.8,0.9-2,1.4-3.1,1.2c-0.4,0-0.8-0.2-1.2-0.3l-1.3,1.5
					c-0.8,0.9-2,1.4-3.1,1.2c-0.4,0-0.8-0.2-1.2-0.3l-1.3,1.5c-0.6,0.7-1.5,1.2-2.5,1.2C49.5,81,49.4,81,49.3,81z M28.5,66.1
					l5.1,0.3c0.2,0,0.4,0.1,0.6,0.2l14.1,12.1c0.4,0.3,0.8,0.5,1.3,0.4c0.5,0,0.9-0.2,1.2-0.6l1.8-2.1c0.2-0.2,0.4-0.3,0.6-0.3
					c0.2,0,0.5,0.1,0.7,0.2c0.3,0.2,0.6,0.4,0.9,0.4c0.6,0.1,1.2-0.2,1.5-0.6l1.8-2.1c0.2-0.2,0.4-0.3,0.6-0.3
					c0.2,0,0.5,0.1,0.7,0.2c0.3,0.2,0.6,0.4,0.9,0.4c0.6,0.1,1.2-0.2,1.5-0.6l1.9-2.1c0.3-0.4,0.9-0.4,1.3-0.1
					c0.7,0.6,1.8,0.6,2.5-0.2l0.5-0.6c0.4-0.5,0.4-1.2-0.1-1.6l0,0L53.5,56.6c-0.2-0.2-0.3-0.5-0.3-0.8l0.6-5.2
					c0.2-1.3-0.7-2.5-1.9-2.9l-11.5-3.2c-0.8-0.2-1.7,0.2-2,0.9l-1.5,2.8c-0.2,0.3-0.5,0.5-0.9,0.5l-5.4-0.4L28.5,66.1z"/>
			</g>
		</g>
		<g>
			<g>
				<g>
					<path class="st3" d="M33.8,67.3l-0.7,1c-0.8,1.1-0.6,2.6,0.5,3.4l0,0c1.1,0.8,2.6,0.6,3.4-0.5l0.7-1c0.8-1.1,0.6-2.6-0.5-3.4
						l0,0C36.1,66.1,34.6,66.3,33.8,67.3z"/>
					<path class="st2" d="M35,73.1c-0.7,0-1.4-0.2-2-0.7c-0.7-0.5-1.2-1.3-1.3-2.2c-0.1-0.9,0.1-1.7,0.6-2.5l0.7-1l0,0
						c1.1-1.5,3.2-1.7,4.6-0.6c0.7,0.5,1.2,1.3,1.3,2.2c0.1,0.9-0.1,1.7-0.6,2.5l-0.7,1c-0.5,0.7-1.3,1.2-2.2,1.3
						C35.3,73.1,35.2,73.1,35,73.1z M34.6,67.9l-0.7,1c-0.2,0.3-0.3,0.7-0.3,1.1c0.1,0.4,0.3,0.7,0.6,1c0.3,0.2,0.7,0.3,1.1,0.3
						c0.4-0.1,0.7-0.3,1-0.6l0.7-1c0.2-0.3,0.3-0.7,0.3-1.1c-0.1-0.4-0.3-0.7-0.6-1C36,67.1,35.1,67.2,34.6,67.9L34.6,67.9z"/>
				</g>
				<g>
					<path class="st3" d="M38.3,69.4l-1.4,1.8c-0.8,1.1-0.6,2.6,0.5,3.4l0,0c1.1,0.8,2.6,0.6,3.4-0.5l1.4-1.8
						c0.8-1.1,0.6-2.6-0.5-3.4l0,0C40.6,68.1,39.1,68.3,38.3,69.4z"/>
					<path class="st2" d="M38.8,76c-0.7,0-1.4-0.2-2-0.7c-1.5-1.1-1.7-3.2-0.6-4.6l1.4-1.8l0.7,0.6l-0.7-0.6
						c1.1-1.5,3.2-1.7,4.6-0.6c0.7,0.5,1.2,1.3,1.3,2.2c0.1,0.9-0.1,1.7-0.6,2.5l-1.4,1.8C40.8,75.5,39.8,76,38.8,76z M40.2,69.3
						c-0.4,0-0.9,0.2-1.2,0.6l-1.4,1.8c-0.2,0.3-0.3,0.7-0.3,1.1c0.1,0.4,0.3,0.7,0.6,1c0.7,0.5,1.6,0.4,2.1-0.3l1.4-1.8
						c0.2-0.3,0.3-0.7,0.3-1.1c-0.1-0.4-0.3-0.7-0.6-1C40.8,69.4,40.5,69.3,40.2,69.3z"/>
				</g>
				<g>
					<path class="st3" d="M42.6,71.6l-1.9,2.5c-0.8,1.1-0.6,2.6,0.5,3.4l0,0c1.1,0.8,2.6,0.6,3.4-0.5l1.9-2.5
						c0.8-1.1,0.6-2.6-0.5-3.4l0,0C44.9,70.3,43.4,70.5,42.6,71.6z"/>
					<path class="st2" d="M42.7,78.9c-0.7,0-1.4-0.2-2-0.7c-0.7-0.5-1.2-1.3-1.3-2.2c-0.1-0.9,0.1-1.7,0.6-2.5l1.9-2.5
						c0.5-0.7,1.3-1.2,2.2-1.3c0.9-0.1,1.7,0.1,2.5,0.6c1.5,1.1,1.7,3.2,0.6,4.6l-1.9,2.5C44.7,78.4,43.7,78.9,42.7,78.9z
						 M44.6,71.6c-0.1,0-0.1,0-0.2,0c-0.4,0.1-0.7,0.3-1,0.6l0,0l-1.9,2.5c-0.5,0.7-0.4,1.6,0.3,2.1c0.7,0.5,1.6,0.4,2.1-0.3
						l1.9-2.5c0.2-0.3,0.3-0.7,0.3-1.1c-0.1-0.4-0.3-0.7-0.6-1C45.2,71.7,44.9,71.6,44.6,71.6z"/>
				</g>
				<g>
					<path class="st3" d="M46.6,74.4l-2,2.6C43.8,78,44,79.5,45,80.3l0,0c1.1,0.8,2.6,0.6,3.4-0.5l2-2.6c0.8-1.1,0.6-2.6-0.5-3.4
						l0,0C48.9,73.1,47.4,73.3,46.6,74.4z"/>
					<path class="st2" d="M46.5,81.7c-0.7,0-1.4-0.2-2-0.7c-1.5-1.1-1.7-3.2-0.6-4.6l2-2.6l0,0c1.1-1.5,3.2-1.7,4.6-0.6
						c1.5,1.1,1.7,3.2,0.6,4.6l-2,2.6C48.5,81.3,47.5,81.7,46.5,81.7z M47.3,74.9l-2,2.6c-0.5,0.7-0.4,1.6,0.3,2.1
						c0.7,0.5,1.6,0.4,2.1-0.3l2-2.6c0.2-0.3,0.3-0.7,0.3-1.1c-0.1-0.4-0.3-0.7-0.6-1C48.7,74.1,47.8,74.3,47.3,74.9L47.3,74.9z"/>
				</g>
			</g>
		</g>
		<g>
			<path class="st3" d="M66.6,46.9l-6.1-3.4c-0.6-0.4-1.4-0.5-2.1-0.5l-9.6,0.9c-1.2,0.1-2.2,0.8-2.8,1.8l-6.8,11.6
				c-0.5,0.9-0.1,2,0.8,2.3l0.3,0.1c2.5,0.9,5.3,0.1,6.9-2l2.6-3.4c0,0,6.2,7.2,13.1-1.2"/>
			<path class="st2" d="M42.4,61.1c-0.8,0-1.7-0.1-2.5-0.5l-0.3-0.1c-0.7-0.3-1.2-0.8-1.5-1.5c-0.2-0.7-0.2-1.5,0.2-2.1l6.8-11.6
				c0.7-1.3,2.1-2.1,3.5-2.3l9.6-0.9c0.9-0.1,1.9,0.1,2.7,0.6l6.1,3.4l-0.9,1.6L60,44.3c-0.5-0.3-1-0.4-1.6-0.3l-9.6,0.9
				c-0.9,0.1-1.7,0.6-2.1,1.4L40,57.8c-0.1,0.2-0.1,0.5-0.1,0.6c0,0.1,0.1,0.3,0.4,0.4l0.3,0.1c2.1,0.8,4.5,0.1,5.8-1.7l2.6-3.4
				c0.2-0.2,0.4-0.4,0.7-0.4c0.3,0,0.5,0.1,0.7,0.3c0,0,2.3,2.6,5.4,2.6c2.1,0,4.2-1.3,6.2-3.7l1.4,1.2c-2.4,2.9-4.9,4.4-7.6,4.4
				c0,0-0.1,0-0.1,0c-2.7,0-4.8-1.5-5.9-2.4l-2,2.6C46.5,60.1,44.5,61.1,42.4,61.1z"/>
		</g>
		<g class="st4">
			<path class="st5" d="M79.3,42.1L82.5,68L75,68.9c-1.4,0.2-2.7-0.8-2.9-2.2l-2.6-20.7c-0.2-1.4,0.8-2.7,2.2-2.9L79.3,42.1z"/>
		</g>
		<g class="st4">
			<path class="st5" d="M74.9,66c-1.4,0.2-2.8-0.8-3.1-2.2l0.4,2.8c0.2,1.4,1.5,2.4,2.9,2.2l7.4-0.9l-0.4-2.9L74.9,66z"/>
		</g>
		<g class="st4">
			<path class="st6" d="M21.7,42.1L18.5,68l7.4,0.9c1.4,0.2,2.7-0.8,2.9-2.2l2.6-20.7c0.2-1.4-0.8-2.7-2.2-2.9L21.7,42.1z"/>
		</g>
		<g class="st4">
			<path class="st6" d="M26.2,65.9L18.9,65l-0.4,3l7.4,0.9c1.4,0.2,2.7-0.8,2.9-2.2l0.3-2.2C28.5,65.4,27.4,66,26.2,65.9z"/>
		</g>
		<g class="st4">
			<g>
				<path class="st2" d="M50.5,73.1c-0.8-0.6-1.7-0.8-2.6-0.6c-0.1-0.9-0.6-1.6-1.3-2.1c-0.7-0.5-1.6-0.8-2.5-0.7
					c-0.2,0-0.4,0.1-0.6,0.2c-0.2-0.7-0.6-1.3-1.2-1.7c-1-0.7-2.2-0.9-3.3-0.4c-0.2-0.6-0.6-1.2-1.2-1.6c-0.7-0.5-1.6-0.8-2.5-0.7
					c-0.7,0.1-1.4,0.4-1.9,0.9l-3.5-0.2L32,48.6l3.9,0.3c0,0,0,0,0.1,0c0.4,0,0.7-0.2,0.9-0.5l1.5-2.8c0.4-0.7,1.2-1.1,2-0.9
					l2.2,0.6c0.5,0.1,1-0.2,1.2-0.7c0.1-0.5-0.2-1-0.7-1.2l-2.2-0.6c-1.7-0.5-3.4,0.3-4.2,1.8l-1.2,2.3l-3.1-0.2l0.1-0.6
					c0.2-1.9-1.1-3.7-3.1-3.9l-7.4-0.9c-0.5-0.1-1,0.3-1.1,0.8c-0.1,0.5,0.3,1,0.8,1.1L29,44c0.4,0.1,0.8,0.3,1.1,0.6
					c0.3,0.3,0.4,0.8,0.3,1.2l-2.6,20.7c-0.1,0.9-0.9,1.5-1.8,1.4L18.7,67c-0.5-0.1-1,0.3-1.1,0.8c-0.1,0.5,0.3,1,0.8,1.1l7.4,0.9
					c0.1,0,0.3,0,0.4,0c1.3,0,2.5-0.7,3.1-1.8l2.6,0.2c-0.3,0.6-0.4,1.3-0.3,2c0.1,0.9,0.6,1.7,1.3,2.2c0.6,0.4,1.3,0.7,2,0.7
					c0.2,0,0.3,0,0.5,0c0,0,0,0,0,0c0,0,0,0,0,0c0.1,0.9,0.6,1.7,1.3,2.2c0.6,0.5,1.3,0.7,2,0.7c0.2,0,0.3,0,0.5,0
					c0.1,0.9,0.6,1.7,1.3,2.3c0.6,0.5,1.3,0.7,2,0.7c0.2,0,0.3,0,0.5,0c0,0,0,0,0,0c0.1,0.9,0.6,1.7,1.3,2.2c0.6,0.4,1.3,0.7,2,0.7
					c0.2,0,0.3,0,0.5,0c0.9-0.1,1.7-0.6,2.2-1.3l2-2.6C52.3,76.4,52,74.2,50.5,73.1z M35.2,71.2c-0.4,0.1-0.8,0-1.1-0.3
					c-0.3-0.2-0.5-0.6-0.6-0.9c-0.1-0.4,0-0.8,0.3-1.1l0.7-1c0.2-0.3,0.6-0.5,0.9-0.6c0.4-0.1,0.8,0,1.1,0.3
					c0.3,0.2,0.5,0.6,0.6,0.9c0.1,0.4,0,0.8-0.3,1.1l-0.7,1C35.9,70.9,35.6,71.1,35.2,71.2z M38,73.8c-0.3-0.2-0.5-0.6-0.6-0.9
					c-0.1-0.4,0-0.8,0.3-1.1l0.7-1c0,0,0,0,0,0l0.6-0.9c0.3-0.4,0.7-0.6,1.1-0.6c0.3,0,0.6,0.1,0.9,0.3c0.6,0.5,0.8,1.4,0.3,2
					L40,73.5C39.5,74.1,38.6,74.3,38,73.8z M41.8,76.7c-0.3-0.2-0.5-0.6-0.6-0.9c-0.1-0.4,0-0.8,0.3-1.1c0,0,0,0,0,0l1.4-1.8l0,0
					l0.5-0.7c0.2-0.3,0.6-0.5,0.9-0.6c0.4-0.1,0.8,0,1.1,0.3c0.6,0.5,0.8,1.4,0.3,2l-1.9,2.5c0,0,0,0,0,0
					C43.3,77,42.4,77.2,41.8,76.7z M49.6,76.7l-2,2.6c-0.2,0.3-0.6,0.5-0.9,0.6c-0.4,0.1-0.8,0-1.1-0.3c-0.3-0.2-0.5-0.6-0.6-0.9
					c-0.1-0.4,0-0.8,0.3-1.1l1.9-2.5c0,0,0,0,0,0l0.1-0.1c0.2-0.3,0.6-0.5,0.9-0.6c0.4-0.1,0.8,0,1.1,0.3C50,75.1,50.1,76,49.6,76.7
					z"/>
			</g>
			<g>
				<path class="st2" d="M83.4,67.8c-0.1-0.5-0.5-0.9-1.1-0.8l-7.4,0.9c-0.9,0.1-1.7-0.5-1.8-1.4L73,65.9l0,0l0-0.1l-2.5-20
					c-0.1-0.4,0.1-0.8,0.3-1.2c0.3-0.3,0.6-0.6,1.1-0.6l7.4-0.9c0.5-0.1,0.9-0.5,0.8-1.1c-0.1-0.5-0.5-0.9-1.1-0.8l-7.4,0.9
					c-1.8,0.2-3.1,1.8-3.1,3.6l-1.9,0.2L61,42.7c-0.8-0.5-1.8-0.7-2.7-0.6c0,0,0,0,0,0l-1.7,0.2c-0.5,0-0.9,0.5-0.9,1
					c0,0.5,0.5,0.9,1,0.9l1.8-0.2c0.5-0.1,1.1,0.1,1.6,0.3l6,3.4c0.2,0.1,0.4,0.2,0.6,0.2l2.2-0.3l1.6,13l0.6,4.5l-3.5,0
					c-0.2,0-0.5,0.1-0.6,0.2l-0.3,0.2L57.9,58c2-0.6,3.9-2,5.7-4.1c0.3-0.4,0.3-1-0.1-1.4c-0.4-0.3-1-0.3-1.4,0.1
					c-2,2.4-4.1,3.7-6.2,3.7c-3.1,0.1-5.4-2.5-5.4-2.5c-0.2-0.2-0.5-0.3-0.8-0.3c-0.3,0-0.6,0.1-0.7,0.4l-2.6,3.4
					c-1.4,1.8-3.7,2.4-5.8,1.6l-0.3-0.1c-0.2-0.1-0.3-0.3-0.4-0.4s-0.1-0.3,0-0.5l6.8-11.6c0.4-0.8,1.2-1.2,2.1-1.3l4-0.4
					c0.5,0,0.9-0.5,0.9-1s-0.5-0.9-1-0.9l-4,0.4c-1.5,0.1-2.8,1-3.6,2.3l-6.8,11.6c-0.4,0.7-0.5,1.4-0.2,2.2
					c0.3,0.7,0.8,1.3,1.5,1.5l0.3,0.1c0.8,0.3,1.7,0.5,2.5,0.5c2.1,0,4.2-1,5.5-2.7l1.9-2.5c1,0.9,3,2.2,5.4,2.4l12.6,10.9
					c0.2,0.2,0.4,0.5,0.4,0.8c0,0.3-0.1,0.6-0.3,0.8l-0.5,0.6c-0.6,0.7-1.7,0.8-2.4,0.2c0,0-0.1-0.1-0.1-0.1l-3.3-2.8
					c-0.4-0.3-1-0.3-1.4,0.1c-0.3,0.4-0.3,1,0.1,1.4l2.7,2.3l-1.2,1.4c-0.4,0.4-0.9,0.7-1.5,0.6c-0.3,0-0.7-0.2-0.9-0.4c0,0,0,0,0,0
					l-3-2.6c-0.4-0.3-1-0.3-1.4,0.1c-0.3,0.4-0.3,1,0.1,1.4l2.3,2l-1.2,1.4c-0.4,0.4-0.9,0.7-1.5,0.6c-0.5-0.1-1,0.3-1.1,0.8
					c-0.1,0.5,0.3,1,0.8,1.1c0.1,0,0.3,0,0.4,0c1.1,0,2.1-0.5,2.8-1.3l1.3-1.5c0.4,0.2,0.7,0.3,1.1,0.3c1.2,0.1,2.4-0.3,3.2-1.2
					l1.3-1.5c1.4,0.7,3.2,0.4,4.3-0.9l0.5-0.6c0.5-0.6,0.8-1.4,0.7-2.2c-0.1-0.8-0.4-1.6-1-2.1L68.4,67l2.9,0
					c0.3,1.7,1.8,2.9,3.5,2.9c0.1,0,0.3,0,0.4,0l7.4-0.9C83.1,68.9,83.5,68.4,83.4,67.8z"/>
			</g>
		</g>
	</g>
	<g>
		<circle class="st3" cx="49.9" cy="25.3" r="8.7"/>
		<circle class="st3" cx="49.9" cy="25.3" r="6.1"/>
		<path class="st2" d="M49.9,15.8c-5.3,0-9.5,4.3-9.5,9.5s4.3,9.5,9.5,9.5s9.5-4.3,9.5-9.5S55.2,15.8,49.9,15.8z M49.9,33.2
			c-4.4,0-7.9-3.5-7.9-7.9s3.5-7.9,7.9-7.9s7.9,3.5,7.9,7.9S54.3,33.2,49.9,33.2z"/>
		<path class="st2" d="M50.7,20.5v-0.9c0-0.5-0.4-0.8-0.8-0.8s-0.8,0.4-0.8,0.8v0.9c-1.3,0.3-2.3,1.4-2.3,2.8c0,1.5,1.3,2.8,2.8,2.8
			h0.6c0.6,0,1.2,0.5,1.2,1.2c0,0.6-0.5,1.2-1.2,1.2h-0.9c-0.5,0-0.9-0.4-0.9-0.9c0-0.5-0.4-0.8-0.8-0.8c-0.5,0-0.8,0.4-0.8,0.8
			c0,1.3,1,2.4,2.3,2.5V31c0,0.5,0.4,0.8,0.8,0.8c0.5,0,0.8-0.4,0.8-0.8V30c1.3-0.3,2.3-1.4,2.3-2.8c0-1.5-1.3-2.8-2.8-2.8h-0.6
			c-0.6,0-1.2-0.5-1.2-1.2c0-0.6,0.5-1.2,1.2-1.2h0.9c0.5,0,0.9,0.4,0.9,0.9v0.6c0,0.5,0.4,0.8,0.8,0.8s0.8-0.4,0.8-0.8V23
			C53,21.7,52,20.7,50.7,20.5z"/>
	</g>
	<g>
		<path class="st2" d="M20.8,34.2c-0.3,0-0.6-0.2-0.8-0.4c-0.3-0.5-0.2-1.1,0.3-1.4l11.8-7.9c0.1-0.1,0.3-0.1,0.4-0.2l6.5-0.9
			c0.5-0.1,1.1,0.3,1.1,0.9c0.1,0.5-0.3,1.1-0.9,1.1L33,26.3L21.4,34C21.2,34.2,21,34.2,20.8,34.2z"/>
	</g>
	<g>
		<path class="st2" d="M66.6,24.4h-5.9c-0.6,0-1-0.4-1-1s0.4-1,1-1h5.5l5.3-4.3c0.4-0.4,1.1-0.3,1.4,0.1c0.4,0.4,0.3,1.1-0.1,1.4
			l-5.5,4.6C67,24.3,66.8,24.4,66.6,24.4z"/>
	</g>
	<polygon class="st2" points="69.6,16.3 74.6,16.4 74.5,21.3 69.6,16.3 	"/>
</g>
</svg>
