<?xml version="1.0" encoding="utf-8"?>
<!-- Generator: Adobe Illustrator 25.0.0, SVG Export Plug-In . SVG Version: 6.00 Build 0)  -->
<svg version="1.1" id="Layer_1" xmlns="http://www.w3.org/2000/svg" xmlns:xlink="http://www.w3.org/1999/xlink" x="0px" y="0px"
	 viewBox="0 0 103 104" style="enable-background:new 0 0 103 104;" xml:space="preserve">
<style type="text/css">
	.st0{fill:none;}
	.st1{fill-rule:evenodd;clip-rule:evenodd;fill:#FFE808;}
	.st2{fill-rule:evenodd;clip-rule:evenodd;fill:#205F89;}
	.st3{fill-rule:evenodd;clip-rule:evenodd;fill:#B93128;}
	.st4{fill-rule:evenodd;clip-rule:evenodd;fill:#0C2534;}
</style>
<rect y="0" class="st0" width="103" height="104"/>
<g transform="translate(-54 -831)">
	<path class="st1" d="M148,886c0,25.4-20.6,46-46,46c-25.4,0-46-20.6-46-46s20.6-46,46-46C127.4,840,148,860.6,148,886z"/>
	<path class="st2" d="M110.7,849c20.6,4.9,33.3,25.5,28.4,46c-4.9,20.6-25.5,33.3-46,28.4c-20.6-4.9-33.3-25.5-28.4-46
		S90.1,844.2,110.7,849z"/>
	<path class="st2" d="M108.9,856.6c16.4,3.9,26.5,20.3,22.6,36.7c-3.9,16.4-20.3,26.5-36.7,22.6c-16.4-3.9-26.5-20.3-22.6-36.7
		C76.1,862.9,92.5,852.7,108.9,856.6z"/>
	<path class="st2" d="M102,909c-12.7,0-23-10.3-23-23s10.3-23,23-23c12.7,0,23,10.3,23,23v0C125,898.7,114.7,909,102,909z"/>
	<path class="st1" d="M102,901c-8.3,0-15-6.7-15-15s6.7-15,15-15c8.3,0,15,6.7,15,15v0C117,894.3,110.3,901,102,901z"/>
	<path class="st1" d="M144.3,840.1c1-1,1.8-1.8,1.8-1.8l3.7,3.7c0,0-0.8,0.8-1.8,1.8l-42.4,42.4l-3.7-3.7c-1,1-1.8,1.8-1.8,1.8
		s0.8-0.8,1.8-1.8L144.3,840.1z"/>
	<path class="st3" d="M148.2,839.8l-1.4-6.8l-6.8,6.8l1.4,6.8l6.8,1.4l6.8-6.8L148.2,839.8z"/>
	<path class="st4" d="M139.4,912.3c-0.7-0.5-1.6-0.4-2.1,0.3l0,0c-0.6,0.9-1.2,1.8-1.9,2.6c-0.5,0.7-0.5,1.7,0.2,2.3
		c0.6,0.6,1.6,0.5,2.1-0.2c0.7-0.9,1.4-1.8,2-2.8C140.2,913.9,140.1,912.9,139.4,912.3L139.4,912.3z"/>
	<path class="st4" d="M156.9,840.2c-0.2-0.5-0.6-0.9-1.2-1.1L150,838l-1.2-5.8c-0.2-0.8-1-1.4-1.8-1.2c-0.3,0.1-0.6,0.2-0.8,0.4
		l-6.8,6.8c-0.4,0.4-0.5,0.9-0.4,1.4l0.6,2.9l-7,7c-20.2-17-50.4-14.4-67.5,5.9c-17,20.2-14.4,50.4,5.8,67.5
		c18.7,15.7,46.1,14.8,63.8-2c0.6-0.6,0.6-1.5,0.1-2.2c-0.6-0.6-1.5-0.6-2.1-0.1c0,0,0,0,0,0c-17.9,17.1-46.3,16.4-63.4-1.6
		C52.3,899.1,53,870.7,71,853.6c16.5-15.7,42.1-16.5,59.6-2l-3.4,3.4c-17.2-14-42.5-11.4-56.4,5.8c-14,17.2-11.4,42.5,5.8,56.4
		s42.5,11.4,56.4-5.8c12-14.7,12-35.9,0-50.6l3.4-3.4c11.9,14.3,13.7,34.6,4.5,50.8c-0.4,0.7-0.2,1.7,0.6,2.1s1.7,0.2,2.1-0.6
		c9.9-17.4,7.9-39.1-5-54.4l7-7l2.9,0.6c0.1,0,0.2,0,0.3,0c0.4,0,0.8-0.2,1.1-0.4l6.8-6.8C156.9,841.3,157.1,840.8,156.9,840.2z
		 M146.4,835.6l0.7,3.2l-4.2,4.2l-0.1-0.3v0l-0.6-2.9L146.4,835.6z M138.9,886.1c0,20.5-16.5,37.1-37,37.1
		c-20.5,0-37.1-16.5-37.1-37c0-20.5,16.5-37.1,37-37.1c8.4,0,16.6,2.8,23.2,8.1l-3.4,3.4c-14.1-10.9-34.4-8.3-45.3,5.8
		s-8.3,34.4,5.8,45.3c14.1,10.9,34.4,8.3,45.3-5.8c9-11.6,9-27.8,0-39.4l3.4-3.4C136,869.6,138.9,877.7,138.9,886.1z M110.3,871.8
		c-7.9-4.7-18.1-2.1-22.8,5.8c-4.7,7.9-2.1,18.1,5.8,22.8c7.9,4.7,18.1,2.1,22.8-5.8c3.1-5.2,3.1-11.7,0-16.9l3.5-3.5
		c2.4,3.5,3.7,7.7,3.6,11.9c0,11.8-9.6,21.4-21.4,21.4c-11.8,0-21.4-9.6-21.4-21.4c0-11.8,9.6-21.4,21.4-21.4
		c4.2,0,8.4,1.3,11.9,3.6L110.3,871.8z M115.9,866.2c-11.1-7.8-26.3-5.2-34.2,5.8c-7.8,11-5.2,26.3,5.8,34.2
		c11,7.8,26.3,5.2,34.2-5.8c6-8.5,6-19.8,0-28.3l3.4-3.4c9.7,12.9,7.1,31.3-5.8,40.9s-31.3,7.1-40.9-5.8
		c-9.7-12.9-7.1-31.3,5.8-40.9c10.4-7.8,24.7-7.8,35.1,0L115.9,866.2z M104.5,885c-0.4,0.4-1.1,0.4-1.5,0c-0.4-0.4-0.4-1.1,0-1.5
		l1.3-1.3c0.6-0.6,0.6-1.6,0-2.2c-0.6-0.6-1.6-0.6-2.2,0l-1.3,1.3c-1.6,1.6-1.6,4.2,0,5.8c1.6,1.6,4.2,1.6,5.8,0l7.3-7.3
		c1,1.9,1.5,4,1.5,6.2c0,7.5-6.1,13.5-13.6,13.5c-7.5,0-13.5-6.1-13.5-13.6c0-7.5,6.1-13.5,13.5-13.5c2.2,0,4.3,0.5,6.2,1.5
		l-1.4,1.4c-0.6,0.6-0.6,1.6,0,2.2c0.6,0.6,1.6,0.6,2.2,0l2.8-2.8l28.8-28.8l0.1,0.3c0.1,0.6,0.6,1.1,1.2,1.2l0.3,0.1L104.5,885z
		 M148.2,845.8l-2.9-0.6h0l-0.3-0.1l4.2-4.2l3.2,0.7L148.2,845.8z"/>
</g>
</svg>
