<?xml version="1.0" encoding="utf-8"?>
<!-- Generator: Adobe Illustrator 25.0.0, SVG Export Plug-In . SVG Version: 6.00 Build 0)  -->
<svg version="1.1" id="Layer_1" xmlns="http://www.w3.org/2000/svg" xmlns:xlink="http://www.w3.org/1999/xlink" x="0px" y="0px"
	 viewBox="0 0 101 101" style="enable-background:new 0 0 101 101;" xml:space="preserve">
<style type="text/css">
	.st0{fill:none;}
	.st1{fill-rule:evenodd;clip-rule:evenodd;fill:#FFE808;}
	.st2{fill:#0C2534;}
	.st3{fill-rule:evenodd;clip-rule:evenodd;fill:#205F89;}
	.st4{fill-rule:evenodd;clip-rule:evenodd;fill:#B93128;}
	.st5{fill-rule:evenodd;clip-rule:evenodd;fill:#0C2534;}
</style>
<g>
	<rect y="0" class="st0" width="101" height="101"/>
</g>
<g transform="translate(-125 -765)">
	<g>
		<path class="st1" d="M127.5,816.5c0-26.5,21.5-48,48-48s48,21.5,48,48s-21.5,48-48,48S127.5,843,127.5,816.5z"/>
		<path class="st2" d="M175.5,866c-27.3,0-49.5-22.2-49.5-49.5c0-27.3,22.2-49.5,49.5-49.5c27.3,0,49.5,22.2,49.5,49.5
			C225,843.8,202.8,866,175.5,866z M175.5,770c-25.6,0-46.5,20.9-46.5,46.5c0,25.6,20.9,46.5,46.5,46.5c25.6,0,46.5-20.9,46.5-46.5
			C222,790.9,201.1,770,175.5,770z"/>
	</g>
	<g>
		<path class="st1" d="M162.8,823l-6.8,11.8l8.2-1.7l2.9,7.9l8-13.7L162.8,823z"/>
	</g>
	<g>
		<path class="st1" d="M187.2,823l-12.2,4.3l8,13.7l2.9-7.9l8.2,1.7L187.2,823z"/>
	</g>
	<g>
		<path class="st3" d="M175,790c-10.5,0-19,8.5-19,19s8.5,19,19,19c10.5,0,19-8.5,19-19C194,798.5,185.5,790,175,790z"/>
	</g>
	<g>
		<path class="st4" d="M184,805.9l-4.5,4.6l1,6.5l-5.6-3l-5.6,3l1-6.5l-4.5-4.6l6.2-1l2.8-5.9l2.8,5.9L184,805.9z"/>
	</g>
	<g>
		<path class="st5" d="M159,808.5c0,8.5,7.2,15.5,16,15.5s16-7,16-15.5s-7.2-15.5-16-15.5S159,800,159,808.5z M175,795.1
			c7.6,0,13.9,6,13.9,13.4s-6.2,13.4-13.9,13.4s-13.9-6-13.9-13.4S167.4,795.1,175,795.1z"/>
	</g>
	<g>
		<path class="st5" d="M165.3,806.7l4.1,4.2l-0.9,5.9c-0.1,0.4,0.1,0.8,0.4,1.1c0.3,0.2,0.7,0.3,1.1,0.1l5.1-2.7l5.1,2.7
			c0.3,0.2,0.8,0.2,1.1-0.1c0.3-0.2,0.5-0.7,0.4-1.1l-0.9-5.9l4.1-4.2c0.3-0.3,0.4-0.7,0.3-1.1c-0.1-0.4-0.4-0.7-0.8-0.7l-5.6-0.9
			l-2.5-5.3c-0.2-0.4-0.5-0.6-0.9-0.6s-0.8,0.2-0.9,0.6l-2.5,5.3l-5.6,0.9c-0.4,0.1-0.7,0.3-0.8,0.7
			C164.9,806,165,806.4,165.3,806.7z M172.4,806c0.3-0.1,0.6-0.3,0.8-0.6l1.9-3.9l1.9,3.9c0.2,0.3,0.4,0.5,0.8,0.6l4.1,0.6l-3,3
			c-0.2,0.2-0.4,0.6-0.3,1l0.7,4.3l-3.7-2c-0.2-0.1-0.3-0.1-0.5-0.1c-0.2,0-0.3,0-0.5,0.1l-3.7,2l0.7-4.3c0.1-0.4-0.1-0.7-0.3-1
			l-3-3L172.4,806z"/>
	</g>
	<g>
		<path class="st5" d="M176,789.5c0,0.8-0.4,1.5-1,1.5s-1-0.7-1-1.5s0.4-1.5,1-1.5S176,788.7,176,789.5z"/>
	</g>
	<g>
		<path class="st5" d="M170,789c-8.9,2.3-15,10.4-15,19.6c0,5.8,2.4,11.2,6.6,15l-6.3,11.3c-0.2,0.4-0.2,0.8,0.1,1.2
			c0.2,0.3,0.7,0.5,1.1,0.4l7.2-1.5l2.5,7.2c0.1,0.4,0.5,0.7,0.9,0.7c0.4,0,0.8-0.2,1-0.5l7-12.4l7,12.4c0.2,0.3,0.5,0.5,0.9,0.5
			c0,0,0.1,0,0.1,0c0.4,0,0.8-0.3,0.9-0.7l2.5-7.2l7.2,1.5c0.4,0.1,0.8-0.1,1.1-0.4c0.2-0.3,0.3-0.8,0.1-1.2l-6.3-11.3
			c4.2-3.8,6.6-9.3,6.6-15c0-9.3-6.2-17.3-15-19.6c-0.6-0.1-1.1,0.2-1.3,0.8c-0.1,0.6,0.2,1.2,0.8,1.3c7.9,2,13.5,9.3,13.5,17.6
			c0,10.1-8.1,18.1-17.9,18.1c-9.8,0-17.9-8-17.9-18.1c0-8.3,5.5-15.5,13.5-17.6c0.6-0.1,0.9-0.7,0.8-1.3
			C171.2,789.2,170.6,788.9,170,789z M167.3,839.4l-2.1-5.9c-0.2-0.5-0.7-0.8-1.2-0.7l-5.8,1.2l5-9c2.9,2.2,6.4,3.5,10,3.8
			L167.3,839.4z M186,832.8c-0.5-0.1-1,0.2-1.2,0.7l-2.1,5.9l-5.9-10.5c3.6-0.3,7.1-1.6,10-3.8l5,9L186,832.8z"/>
	</g>
</g>
</svg>
