<?xml version="1.0" encoding="utf-8"?>
<!-- Generator: Adobe Illustrator 25.0.0, SVG Export Plug-In . SVG Version: 6.00 Build 0)  -->
<svg version="1.1" id="Layer_1" xmlns="http://www.w3.org/2000/svg" xmlns:xlink="http://www.w3.org/1999/xlink" x="0px" y="0px"
	 viewBox="0 0 100 101" style="enable-background:new 0 0 100 101;" xml:space="preserve">
<style type="text/css">
	.st0{fill:none;}
	.st1{fill-rule:evenodd;clip-rule:evenodd;fill:#FFE808;}
	.st2{fill:#0C2534;}
	.st3{fill-rule:evenodd;clip-rule:evenodd;fill:#B93128;}
	.st4{fill-rule:evenodd;clip-rule:evenodd;fill:#205F89;}
	.st5{fill-rule:evenodd;clip-rule:evenodd;fill:#0C2534;}
</style>
<g>
	<rect y="0" class="st0" width="100" height="101"/>
</g>
<g transform="translate(-21 -864)">
	<g>
		<path class="st1" d="M23.5,914.5c0-26.5,21.5-48,48-48c26.5,0,48,21.5,48,48s-21.5,48-48,48C45,962.5,23.5,941,23.5,914.5z"/>
		<path class="st2" d="M71.5,964C44.2,964,22,941.8,22,914.5c0-27.3,22.2-49.5,49.5-49.5c27.3,0,49.5,22.2,49.5,49.5
			C121,941.8,98.8,964,71.5,964z M71.5,868C45.9,868,25,888.9,25,914.5c0,25.6,20.9,46.5,46.5,46.5c25.6,0,46.5-20.9,46.5-46.5
			C118,888.9,97.1,868,71.5,868z"/>
	</g>
	<g>
		<path class="st1" d="M97,897c0,5-3.8,9-8.5,9s-8.5-4-8.5-9s3.8-9,8.5-9S97,892,97,897z"/>
	</g>
	<g>
		<path class="st3" d="M62,897c0,5-3.8,9-8.5,9s-8.5-4-8.5-9s3.8-9,8.5-9S62,892,62,897z"/>
	</g>
	<g>
		<path class="st1" d="M70.5,924c-3.6,0-6.5-2.9-6.5-6.6v-4.9c0-3.6,2.9-6.6,6.5-6.6s6.5,2.9,6.5,6.6v4.9
			C77,921.1,74.1,924,70.5,924z"/>
	</g>
	<g>
		<path class="st3" d="M70.5,906c-3.6,0-6.5,3.1-6.5,6.9v1.1h1.1c2,0,3.8-0.6,5.4-1.7c1.6,1.1,3.5,1.7,5.4,1.7H77v-1.1
			C77,909.1,74.1,906,70.5,906z"/>
	</g>
	<g>
		<path class="st4" d="M77.4,924H64.6c-5.3,0-9.6,4.4-9.6,9.8v6.2h32v-6.2C87,928.4,82.7,924,77.4,924z"/>
	</g>
	<g>
		<path class="st1" d="M77,924l-6.5,16L64,924H77z"/>
	</g>
	<g>
		<path class="st5" d="M98,896.9c0-5.4-4.5-9.9-10-9.9s-10,4.4-10,9.9c0,5.1,3.9,9.3,8.9,9.8v10.2h-4.5c-0.6,0-1.1,0.5-1.1,1.1
			c0,0.6,0.5,1.1,1.1,1.1H88c0.6,0,1.1-0.5,1.1-1.1v-11.2C94.1,906.2,98,902,98,896.9z M88,904.6c-4.3,0-7.8-3.5-7.8-7.7
			s3.5-7.7,7.8-7.7s7.8,3.5,7.8,7.7S92.3,904.6,88,904.6z"/>
	</g>
	<g>
		<path class="st5" d="M90.2,894.3l-3,3.1l-1.4-1.5c-0.4-0.4-1.1-0.4-1.5,0c-0.4,0.4-0.4,1.1,0,1.5l2.2,2.2c0.2,0.2,0.5,0.3,0.7,0.3
			c0.3,0,0.5-0.1,0.7-0.3l3.8-3.9c0.4-0.4,0.4-1.1,0-1.5C91.3,893.9,90.6,893.9,90.2,894.3z"/>
	</g>
	<g>
		<path class="st5" d="M56.7,893.3c-0.4-0.4-1-0.4-1.4,0l-1.8,2.1l-1.8-2.1c-0.4-0.4-1-0.4-1.4,0c-0.4,0.4-0.4,1.1,0,1.6l1.8,2.1
			l-1.8,2.1c-0.4,0.4-0.4,1.1,0,1.6c0.2,0.2,0.4,0.3,0.7,0.3c0.2,0,0.5-0.1,0.7-0.3l1.8-2.1l1.8,2.1c0.2,0.2,0.4,0.3,0.7,0.3
			c0.2,0,0.5-0.1,0.7-0.3c0.4-0.4,0.4-1.1,0-1.6l-1.8-2.1l1.8-2.1C57.1,894.5,57.1,893.8,56.7,893.3z"/>
	</g>
	<g>
		<path class="st5" d="M77.1,922.9h-1.4c1.4-1.4,2.3-3.3,2.3-5.5v-4.8c0-4.2-3.4-7.6-7.6-7.6s-7.6,3.4-7.6,7.6v4.8
			c0,2.2,0.9,4.1,2.3,5.5h-1.4c-6,0-10.9,4.9-10.9,10.9v6.2c0,0.6,0.5,1.1,1.1,1.1h32.9c0.6,0,1.1-0.5,1.1-1.1v-6.2
			C88,927.8,83.1,922.9,77.1,922.9z M70.5,928.6c0.6,0,1.1-0.5,1.1-1.1V925h4l-5,12.2l-5-12.2h4v2.5
			C69.4,928.1,69.9,928.6,70.5,928.6z M70.5,907.1c3,0,5.5,2.5,5.5,5.5v0h0c-1.7,0-3.4-0.5-4.9-1.5c-0.4-0.2-0.8-0.2-1.2,0
			c-1.5,1-3.2,1.5-4.9,1.5h0v0C65,909.6,67.5,907.1,70.5,907.1z M65,917.4v-2.7h0c1.9,0,3.8-0.5,5.5-1.5c1.7,1,3.5,1.5,5.5,1.5h0
			v2.7c0,3-2.5,5.5-5.5,5.5S65,920.4,65,917.4z M55.1,933.8c0-4.6,3.6-8.4,8.1-8.7l5.7,13.9H55.1V933.8z M85.9,938.9H72.1l5.7-13.9
			c4.5,0.4,8.1,4.1,8.1,8.7V938.9z"/>
	</g>
	<g>
		<path class="st5" d="M59,919c0.6,0,1.1-0.5,1-1.1c0-0.6-0.5-1-1.1-1h-4.3c0,0,0,0,0,0v-10.1c2.9-0.3,5.6-2,7.1-4.6
			c0.3-0.5,0.2-1.2-0.3-1.5c-0.5-0.3-1.1-0.2-1.4,0.3c-1.4,2.3-3.8,3.7-6.4,3.7c-4.2,0-7.5-3.5-7.5-7.7s3.4-7.7,7.5-7.7
			c2.6,0,5,1.4,6.4,3.7c0.3,0.5,1,0.7,1.4,0.3c0.5-0.3,0.6-1,0.3-1.5c-1.8-2.9-4.8-4.7-8.2-4.7c-5.3,0-9.6,4.4-9.6,9.9
			c0,5.1,3.8,9.3,8.6,9.8v11.2c0,0.6,0.5,1.1,1.1,1.1H59z"/>
	</g>
	<g>
		<path class="st5" d="M61,897c0,0.3,0.1,0.5,0.3,0.7c0.2,0.2,0.4,0.3,0.7,0.3s0.5-0.1,0.7-0.3c0.2-0.2,0.3-0.4,0.3-0.7
			s-0.1-0.5-0.3-0.7c-0.2-0.2-0.4-0.3-0.7-0.3s-0.5,0.1-0.7,0.3C61.1,896.5,61,896.7,61,897z"/>
	</g>
</g>
</svg>
