<?xml version="1.0" encoding="utf-8"?>
<!-- Generator: Adobe Illustrator 25.0.0, SVG Export Plug-In . SVG Version: 6.00 Build 0)  -->
<svg version="1.1" id="Layer_1" xmlns="http://www.w3.org/2000/svg" xmlns:xlink="http://www.w3.org/1999/xlink" x="0px" y="0px"
	 viewBox="0 0 100 101" style="enable-background:new 0 0 100 101;" xml:space="preserve">
<style type="text/css">
	.st0{fill:none;}
	.st1{fill-rule:evenodd;clip-rule:evenodd;fill:#FFE808;}
	.st2{fill:#0C2534;}
	.st3{fill-rule:evenodd;clip-rule:evenodd;fill:#B93128;}
	.st4{fill-rule:evenodd;clip-rule:evenodd;fill:#205F89;}
	.st5{fill-rule:evenodd;clip-rule:evenodd;fill:#0C2534;}
</style>
<g>
	<rect y="0" class="st0" width="100" height="101"/>
</g>
<g transform="translate(-98 -343)">
	<g>
		<path class="st1" d="M100.5,393.5c0-26.5,21.5-48,48-48s48,21.5,48,48s-21.5,48-48,48S100.5,420,100.5,393.5z"/>
		<path class="st2" d="M148.5,443c-27.3,0-49.5-22.2-49.5-49.5c0-27.3,22.2-49.5,49.5-49.5c27.3,0,49.5,22.2,49.5,49.5
			C198,420.8,175.8,443,148.5,443z M148.5,347c-25.6,0-46.5,20.9-46.5,46.5c0,25.6,20.9,46.5,46.5,46.5c25.6,0,46.5-20.9,46.5-46.5
			C195,367.9,174.1,347,148.5,347z"/>
	</g>
	<g>
		<path class="st3" d="M137,394h16v6h-16V394z"/>
	</g>
	<g>
		<path class="st4" d="M135,400h19v19h-19V400z"/>
	</g>
	<g>
		<path class="st1" d="M155,379.3v4.6c0,1.6-0.6,3.1-1.6,4.3l-1.5,1.8v4h-7.1H138v-4l-1.3-1.2c-1-0.9-1.6-2.3-1.6-3.6V373l0,0
			c2.1,0,3.8,1.7,3.8,3.7v2.6H155z"/>
	</g>
	<g>
		<path class="st3" d="M135,375h-14v3.7h2.9v3.3h2.6v-3.3h2.1v3.3h2.6v-3.3h3.8V375z"/>
	</g>
	<g>
		<path class="st3" d="M166.4,368c-4.2,0-7.7,3.1-8.5,7.3H155v3.4h2.9c0.8,4.2,4.3,7.3,8.5,7.3c4.8,0,8.6-4,8.6-9
			S171.1,368,166.4,368z M166.4,382.6c-3,0-5.4-2.5-5.4-5.6s2.4-5.6,5.4-5.6c3,0,5.4,2.5,5.4,5.6S169.4,382.6,166.4,382.6z"/>
	</g>
	<g>
		<path class="st1" d="M141,381L141,381c-1.1,0-2-0.9-2-1.9v-7.2c0-1.1,0.9-1.9,2-1.9l0,0c1.1,0,2,0.9,2,1.9v7.2
			C143,380.1,142.1,381,141,381z"/>
	</g>
	<g>
		<path class="st1" d="M149,381L149,381c-1.1,0-2-0.9-2-1.9v-7.2c0-1.1,0.9-1.9,2-1.9l0,0c1.1,0,2,0.9,2,1.9v7.2
			C151,380.1,150.1,381,149,381z"/>
	</g>
	<g>
		<path class="st1" d="M153,381L153,381c-1.1,0-2-0.9-2-1.9v-5.2c0-1.1,0.9-1.9,2-1.9l0,0c1.1,0,2,0.9,2,1.9v5.2
			C155,380.1,154.1,381,153,381z"/>
	</g>
	<g>
		<path class="st1" d="M145,381L145,381c-1.1,0-2-0.9-2-1.9v-8.1c0-1.1,0.9-1.9,2-1.9l0,0c1.1,0,2,0.9,2,1.9v8.1
			C147,380.1,146.1,381,145,381z"/>
	</g>
	<g>
		<path class="st5" d="M152,403.5c0,0.8-0.7,1.5-1.5,1.5s-1.5-0.7-1.5-1.5s0.7-1.5,1.5-1.5S152,402.7,152,403.5z"/>
	</g>
	<g>
		<path class="st5" d="M166.5,371c-0.5,0-0.8,0.3-0.8,0.8c0,0.4,0.4,0.8,0.8,0.8c2.7,0,4.8,2,4.8,4.5s-2.2,4.5-4.8,4.5
			s-4.8-2-4.8-4.5c0-1.7,1.1-3.3,2.7-4c0.4-0.2,0.6-0.6,0.4-1c-0.2-0.4-0.7-0.5-1.1-0.4c-2.2,1-3.7,3.1-3.7,5.4c0,3.3,2.9,6,6.5,6
			s6.5-2.7,6.5-6S170.1,371,166.5,371z"/>
	</g>
	<g>
		<path class="st5" d="M166.3,367c-4.4,0-8.2,3-9.4,7.2h-1.5v-0.7c0-1.5-1.2-2.8-2.8-2.8c-0.4,0-0.8,0.1-1.2,0.3
			c-0.2-1.3-1.4-2.3-2.7-2.3c-0.6,0-1.1,0.2-1.5,0.4c-0.5-0.8-1.4-1.3-2.4-1.3s-1.9,0.5-2.4,1.3c-0.4-0.3-0.9-0.4-1.5-0.4
			c-1.5,0-2.8,1.2-2.8,2.8v1.6c-0.8-0.6-1.8-1-2.8-1c-0.5,0-0.8,0.4-0.8,0.8v1.3h-13.9c-0.5,0-0.8,0.4-0.8,0.8v3.4
			c0,0.5,0.4,0.8,0.8,0.8h2.2v2.2c0,0.5,0.4,0.8,0.8,0.8h2.7c0.5,0,0.8-0.4,0.8-0.8v-2.2h0.6v2.2c0,0.5,0.4,0.8,0.8,0.8h2.7
			c0.5,0,0.8-0.4,0.8-0.8v-2.2h2.3v5.6c0,1.6,0.7,3.1,1.8,4.2l1,0.9v2.7h-0.5c-0.5,0-0.8,0.4-0.8,0.8v4.9h-0.7
			c-0.5,0-0.8,0.4-0.8,0.8v4.6c0,0.5,0.4,0.8,0.8,0.8c0.5,0,0.8-0.4,0.8-0.8V400h0.7h15.7h0.7v17.4h-17.1v-10.8
			c0-0.5-0.4-0.8-0.8-0.8c-0.5,0-0.8,0.4-0.8,0.8v11.7c0,0.5,0.4,0.8,0.8,0.8h18.8c0.5,0,0.8-0.4,0.8-0.8v-19c0-0.5-0.4-0.8-0.8-0.8
			h-0.7v-4.9c0-0.5-0.4-0.8-0.8-0.8h-0.3v-2.8l1.3-1.6c1.1-1.3,1.7-3,1.7-4.8v-4.3h1.5c1.1,4.2,5,7.2,9.4,7.2c5.3,0,9.7-4.4,9.7-9.7
			S171.7,367,166.3,367z M152.7,372.4c0.6,0,1.1,0.5,1.1,1.1v1.4c0,0.1,0,0.1,0,0.2v3.4c0,0.1,0,0.1,0,0.2v0.2
			c0,0.6-0.5,1.1-1.1,1.1c-0.6,0-1.1-0.5-1.1-1.1v-5.3C151.6,372.9,152.1,372.4,152.7,372.4z M148.9,370.4c0.6,0,1.1,0.5,1.1,1.1v2
			v5.3c0,0.6-0.5,1.1-1.1,1.1c-0.6,0-1.1-0.5-1.1-1.1v-7.2C147.8,370.9,148.2,370.4,148.9,370.4z M143.9,370.6
			c0-0.6,0.5-1.1,1.1-1.1s1.1,0.5,1.1,1.1v0.9v7.2c0,0.6-0.5,1.1-1.1,1.1s-1.1-0.5-1.1-1.1v-7.2V370.6z M143.1,380.7
			C143.1,380.7,143.1,380.7,143.1,380.7C143.1,380.7,143.1,380.7,143.1,380.7C143,380.7,143.1,380.7,143.1,380.7z M140,371.5
			c0-0.6,0.5-1.1,1.1-1.1c0.6,0,1.1,0.5,1.1,1.1v7.2c0,0.6-0.5,1.1-1.1,1.1c-0.6,0-1.1-0.5-1.1-1.1V371.5z M131.6,377.6
			c-0.5,0-0.8,0.4-0.8,0.8v2.2h-1.1v-2.2c0-0.5-0.4-0.8-0.8-0.8h-2.3c-0.5,0-0.8,0.4-0.8,0.8v2.2h-1.1v-2.2c0-0.5-0.4-0.8-0.8-0.8
			h-2.2v-1.7h13.1v1.7H131.6z M137.9,398.3v-4.1h0.5h6.5h7v4.1H137.9z M152.5,387.2l-1.4,1.8c-0.1,0.1-0.2,0.3-0.2,0.5v3.1h-6h-5.7
			v-3.1c0-0.2-0.1-0.4-0.3-0.6l-1.3-1.2c-0.8-0.8-1.3-1.8-1.3-3v-11c1.1,0.4,2,1.4,2,2.7v4c0,0.4,0.3,0.8,0.7,0.8
			c0.1,0,7.2,0.8,7.2,5.6c0,0.5,0.4,0.8,0.8,0.8c0.5,0,0.8-0.4,0.8-0.8c0-2.3-1.2-4.1-3.4-5.5c0.2,0,0.3,0,0.5,0
			c0.8,0,1.4-0.3,1.9-0.8c0.5,0.5,1.2,0.8,1.9,0.8c0.8,0,1.4-0.3,1.9-0.8c0.5,0.5,1.2,0.8,1.9,0.8c0.4,0,0.8-0.1,1.1-0.2v2.3
			C153.8,384.9,153.4,386.2,152.5,387.2z M166.3,384.8c-3.9,0-7.2-2.7-7.9-6.5c-0.1-0.4-0.4-0.7-0.8-0.7h-2.1v-1.7h2.1
			c0.4,0,0.7-0.3,0.8-0.7c0.7-3.8,4-6.5,7.9-6.5c4.4,0,8,3.6,8,8.1S170.7,384.8,166.3,384.8z"/>
	</g>
</g>
</svg>
