<?xml version="1.0" encoding="utf-8"?>
<!-- Generator: Adobe Illustrator 25.0.0, SVG Export Plug-In . SVG Version: 6.00 Build 0)  -->
<svg version="1.1" id="Layer_1" xmlns="http://www.w3.org/2000/svg" xmlns:xlink="http://www.w3.org/1999/xlink" x="0px" y="0px"
	 viewBox="0 0 101 100" style="enable-background:new 0 0 101 100;" xml:space="preserve">
<style type="text/css">
	.st0{fill-rule:evenodd;clip-rule:evenodd;fill:#FFE808;}
	.st1{fill:#0C2534;}
	.st2{fill-rule:evenodd;clip-rule:evenodd;fill:#205F89;}
	.st3{fill-rule:evenodd;clip-rule:evenodd;fill:#B93128;}
	.st4{fill-rule:evenodd;clip-rule:evenodd;fill:#0C2534;}
</style>
<g transform="translate(15 -335)">
	<g>
		<path class="st0" d="M-11.5,385.5c0-26.5,21.5-48,48-48s48,21.5,48,48s-21.5,48-48,48S-11.5,412-11.5,385.5z"/>
		<path class="st1" d="M36.5,435C9.2,435-13,412.8-13,385.5S9.2,336,36.5,336S86,358.2,86,385.5S63.8,435,36.5,435z M36.5,339
			C10.9,339-10,359.9-10,385.5S10.9,432,36.5,432S83,411.1,83,385.5S62.1,339,36.5,339z"/>
	</g>
	<g>
		<path class="st0" d="M35.5,360c-8,0-14.5,6.5-14.5,14.6v9.4c0,0.6,0.5,1,1,1c0.6,0,1-0.5,1-1h2.1c0,0.6,0.5,1,1,1c0.6,0,1-0.5,1-1
			v-9.4c0-4.6,3.7-8.3,8.3-8.3s8.3,3.7,8.3,8.3v5.2c0,0.6,0.5,1,1,1H49c0.6,0,1-0.5,1-1v-5.2C50,366.5,43.5,360,35.5,360z"/>
	</g>
	<g>
		<path class="st2" d="M48.9,383H22.1c-1.7,0-3.1,1.4-3.1,3.1v18.7c0,2.9,2.3,5.2,5.2,5.2h22.7c2.8,0,5.2-2.3,5.2-5.2v-18.7
			C52,384.4,50.6,383,48.9,383z"/>
	</g>
	<g>
		<path class="st3" d="M38.5,396.5c0.9-0.8,1.5-2,1.5-3.2c0-2.4-2-4.3-4.5-4.3s-4.5,1.9-4.5,4.3c0,1.2,0.5,2.4,1.5,3.2l-1.4,4.1
			c-0.2,0.6,0.1,1.2,0.7,1.4c0.1,0,0.2,0.1,0.4,0.1H39c0.6,0,1.1-0.5,1.1-1.1c0-0.1,0-0.2-0.1-0.3L38.5,396.5z"/>
	</g>
	<g>
		<path class="st4" d="M26.2,385c-0.6,0-1-0.5-1-1v-9.4c0-5.8,4.6-10.4,10.4-10.4c5.7,0,10.4,4.7,10.4,10.4v4.2h2.1v-4.2
			c0-6.9-5.6-12.5-12.4-12.5c-6.9,0-12.4,5.6-12.4,12.5v9.4c0,0.6-0.5,1-1,1c-0.6,0-1-0.5-1-1v-9.4c0-8.1,6.5-14.6,14.5-14.6
			s14.5,6.5,14.5,14.6v5.2c0,0.6-0.5,1-1,1h-4.1c-0.6,0-1-0.5-1-1v-5.2c0-4.6-3.7-8.3-8.3-8.3s-8.3,3.7-8.3,8.3v9.4
			C27.2,384.5,26.8,385,26.2,385z"/>
	</g>
	<g>
		<path class="st4" d="M46.8,410H24.2c-2.8,0-5.2-2.3-5.2-5.2v-18.7c0-1.7,1.4-3.1,3.1-3.1h26.8c1.7,0,3.1,1.4,3.1,3.1v18.7
			C52,407.7,49.7,410,46.8,410z M22.1,385.1c-0.6,0-1,0.5-1,1v18.7c0,1.7,1.4,3.1,3.1,3.1h22.7c1.7,0,3.1-1.4,3.1-3.1v-18.7
			c0-0.6-0.5-1-1-1H22.1z"/>
	</g>
	<g>
		<path class="st4" d="M38.9,402h-6.7c-0.6,0-1.1-0.5-1.1-1.1c0-0.1,0-0.2,0.1-0.3l1.4-4.1c-0.9-0.8-1.5-2-1.5-3.2
			c0-2.4,2-4.3,4.5-4.3s4.5,1.9,4.5,4.3c0,1.2-0.5,2.4-1.5,3.2l1.4,4.1c0.2,0.6-0.1,1.2-0.7,1.4C39.1,402,39,402,38.9,402z
			 M33.7,399.8h3.6l-1.2-3.4c-0.2-0.5,0-1,0.5-1.3c0.7-0.4,1.1-1.1,1.1-1.9c0-1.2-1-2.2-2.2-2.2s-2.2,1-2.2,2.2
			c0,0.8,0.4,1.5,1.1,1.8c0.5,0.3,0.7,0.8,0.5,1.3L33.7,399.8z"/>
	</g>
</g>
</svg>
