<?xml version="1.0" encoding="utf-8"?>
<!-- Generator: Adobe Illustrator 25.0.0, SVG Export Plug-In . SVG Version: 6.00 Build 0)  -->
<svg version="1.1" id="Layer_1" xmlns="http://www.w3.org/2000/svg" xmlns:xlink="http://www.w3.org/1999/xlink" x="0px" y="0px"
	 viewBox="0 0 100 100" style="enable-background:new 0 0 100 100;" xml:space="preserve">
<style type="text/css">
	.st0{fill-rule:evenodd;clip-rule:evenodd;fill:#FFE808;}
	.st1{fill:#0C2534;}
	.st2{fill-rule:evenodd;clip-rule:evenodd;fill:#B93128;}
	.st3{fill-rule:evenodd;clip-rule:evenodd;fill:#205F89;}
	.st4{fill-rule:evenodd;clip-rule:evenodd;fill:#0C2534;}
</style>
<g transform="translate(-207 -250)">
	<g>
		<path class="st0" d="M209.5,300.5c0-26.5,21.5-48,48-48s48,21.5,48,48s-21.5,48-48,48S209.5,327,209.5,300.5z"/>
		<path class="st1" d="M257.5,350c-27.3,0-49.5-22.2-49.5-49.5s22.2-49.5,49.5-49.5s49.5,22.2,49.5,49.5S284.8,350,257.5,350z
			 M257.5,254c-25.6,0-46.5,20.9-46.5,46.5s20.9,46.5,46.5,46.5s46.5-20.9,46.5-46.5S283.1,254,257.5,254z"/>
	</g>
	<g>
		<path class="st0" d="M268,291.5V308h-19.5v-10.2c-0.2,0.1-0.4,0.2-0.7,0.3l0,0c-0.5,0.1-0.9,0.1-1.5,0c-1-0.2-1.9-1-2.2-2
			c-0.5-1.9,1-3.7,2.9-3.7c0.6,0,1.1,0.2,1.5,0.4V289h17C266.9,289,268,290.1,268,291.5z"/>
	</g>
	<g>
		<path class="st2" d="M249,327h16.5c1.4,0,2.5-1.1,2.5-2.4v-16.3h-3.8c0.2-0.4,0.4-0.9,0.4-1.4c0-1.8-1.8-3.3-3.7-2.8
			c-1,0.3-1.8,1.1-2,2.1c-0.1,0.5-0.1,1,0,1.4l0,0c0.1,0.2,0.2,0.5,0.3,0.7H249V327z"/>
	</g>
	<g>
		<path class="st0" d="M230,308v16.5c0,1.4,1.1,2.5,2.4,2.5h16.3v-3.8c0.2,0.1,0.5,0.2,0.7,0.3c0.2,0.1,0.5,0.1,0.7,0.1
			c1.9,0,3.3-1.8,2.8-3.8c-0.3-1-1.1-1.8-2.1-2c-0.5-0.1-0.9-0.1-1.4,0l0,0c-0.3,0.1-0.5,0.2-0.7,0.3V308H230z"/>
	</g>
	<g>
		<path class="st2" d="M249,289v3.7c-0.4-0.2-0.9-0.4-1.5-0.4c-1.9,0-3.3,1.7-2.8,3.7c0.3,1,1.1,1.8,2.1,2c0.5,0.1,1,0.1,1.4,0l0,0
			c0.2-0.1,0.5-0.2,0.7-0.3v10h-10.2c0.1,0.2,0.2,0.5,0.3,0.7l0,0c0.1,0.4,0.1,0.9,0,1.4c-0.2,1-1,1.8-2,2.1c-2,0.5-3.8-0.9-3.8-2.8
			c0-0.2,0-0.5,0.1-0.7c0.1-0.3,0.2-0.5,0.3-0.7H230v-16.3c0-1.3,1.1-2.4,2.5-2.4L249,289L249,289z"/>
	</g>
	<g>
		<path class="st3" d="M284,284.5c0-7-5.5-12.6-12.2-12.5c-6.5,0.1-11.8,5.6-11.8,12.4c0,3.8,1.6,7.2,4.1,9.5
			c0.3,0.2,0.2,0.7-0.1,0.9l-2.3,1.4c-0.4,0.2-0.2,0.8,0.2,0.8h10.2C278.8,296.9,284,291.3,284,284.5z"/>
	</g>
	<g>
		<path class="st0" d="M270.5,290c-0.7,0-1.4-0.3-2-0.8l-3-3.1c-0.6-0.7-0.6-1.7,0-2.4c0.6-0.7,1.7-0.7,2.4,0l2.7,2.7l6.7-6.9
			c0.6-0.7,1.7-0.7,2.4,0c0.7,0.7,0.7,1.7,0,2.4l-7.1,7.3C271.9,289.7,271.2,290,270.5,290L270.5,290z"/>
	</g>
	<g>
		<path class="st4" d="M237.7,303.6c-0.5,0-0.8,0.4-0.8,0.8s0.4,0.8,0.8,0.8c0.5,0,0.8-0.4,0.8-0.8S238.1,303.6,237.7,303.6z
			 M256.2,315.9c0.5,0,0.8-0.4,0.8-0.8c0-1.2,0.9-2.1,2.1-2.1s2.1,0.9,2.1,2.1s-0.9,2.1-2.1,2.1c-0.5,0-0.8,0.4-0.8,0.8v2.3
			c0,0.5,0.4,0.8,0.8,0.8s0.8-0.4,0.8-0.8v-1.6c1.6-0.4,2.9-1.9,2.9-3.7c0-2.1-1.7-3.8-3.7-3.8s-3.7,1.7-3.7,3.8
			C255.4,315.5,255.8,315.9,256.2,315.9z M259.1,322.6c-0.5,0-0.8,0.4-0.8,0.8c0,0.5,0.4,0.8,0.8,0.8s0.8-0.4,0.8-0.8
			S259.5,322.6,259.1,322.6z M281.1,274.8c-5.2-5.2-13.4-5.1-18.5,0.1c-2.4,2.5-3.8,5.8-3.8,9.3c0,1.2,0.1,2.4,0.4,3.5h-27
			c-1.8,0-3.3,1.5-3.3,3.3v33.6c0,1.8,1.5,3.3,3.3,3.3h33c1.8,0,3.3-1.5,3.3-3.3v-24.5c0-0.5-0.4-0.8-0.8-0.8s-0.8,0.4-0.8,0.8v6.9
			h-1.8c0-0.2,0.1-0.4,0.1-0.7c0-1.2-0.5-2.3-1.5-3c-0.9-0.7-2.1-1-3.3-0.6c-1.3,0.3-2.3,1.4-2.6,2.8c-0.1,0.5-0.1,1,0,1.6h-8.2
			v-9.5c0-0.3-0.2-0.6-0.4-0.7c-0.3-0.1-0.6-0.1-0.8,0c-0.4,0.3-1,0.4-1.5,0.2c-0.7-0.2-1.3-0.8-1.5-1.5s-0.1-1.4,0.4-1.9
			c0.4-0.5,1-0.8,1.7-0.8c0.4,0,0.7,0.1,1.1,0.3c0.3,0.1,0.6,0.1,0.8,0c0.3-0.1,0.4-0.4,0.4-0.7v-3H260c0.7,1.8,1.8,3.4,3.2,4.7
			l-2,1.2c-0.5,0.3-0.7,0.9-0.6,1.4c0.1,0.6,0.6,0.9,1.2,0.9l0,0h10.5l0,0c3.4-0.1,6.7-1.5,9.1-4s3.8-5.8,3.8-9.3
			C285,280.7,283.6,277.4,281.1,274.8z M249.6,308.7h9.3c0.3,0,0.6-0.2,0.7-0.4c0.1-0.3,0.1-0.6,0-0.9c-0.3-0.4-0.3-1-0.2-1.5
			c0.2-0.7,0.8-1.4,1.5-1.5c0.7-0.2,1.3-0.1,1.9,0.4c0.5,0.4,0.8,1,0.8,1.7c0,0.4-0.1,0.7-0.3,1.1c-0.1,0.3-0.1,0.6,0,0.8
			c0.1,0.3,0.4,0.4,0.7,0.4h3v16c0,0.9-0.7,1.7-1.6,1.7h-15.7v-1.8c0.2,0,0.4,0.1,0.6,0.1c1.2,0,2.3-0.5,3-1.5s0.9-2.2,0.6-3.4
			c-0.4-1.3-1.4-2.3-2.7-2.6c-0.5-0.1-1-0.1-1.5,0v-8.6H249.6z M248,291.2c-0.2,0-0.4-0.1-0.6-0.1c-1.2,0-2.3,0.5-3,1.5
			c-0.7,0.9-0.9,2.2-0.6,3.3c0.3,1.3,1.4,2.4,2.7,2.7c0.5,0.1,1,0.1,1.5,0v8.3h-3.5c-0.5,0-0.8,0.4-0.8,0.8c0,0.5,0.4,0.8,0.8,0.8
			h3.5v9.5c0,0.3,0.2,0.6,0.4,0.7c0.3,0.1,0.6,0.1,0.8,0c0.4-0.3,1-0.3,1.5-0.2c0.7,0.2,1.3,0.8,1.5,1.5s0.1,1.4-0.3,1.9
			c-0.4,0.5-1,0.8-1.7,0.8c-0.4,0-0.7-0.1-1.1-0.3c-0.3-0.1-0.6-0.1-0.8,0c-0.3,0.1-0.4,0.4-0.4,0.7v3h-15.7c-0.9,0-1.6-0.7-1.6-1.7
			v-16h1.8c0,0.2-0.1,0.4-0.1,0.7c0,2.1,1.7,3.8,3.7,3.8c1.7,0,3.2-1.2,3.6-2.9c0.1-0.5,0.1-1,0-1.5h1.3c0.5,0,0.8-0.4,0.8-0.8
			c0-0.5-0.4-0.8-0.8-0.8h-2.5c-0.3,0-0.6,0.2-0.7,0.4c-0.1,0.3-0.1,0.6,0,0.9c0.3,0.4,0.3,1,0.2,1.5c-0.3,1.5-2.2,2.1-3.3,1.2
			c-0.9-0.7-1.1-1.8-0.5-2.8c0.1-0.3,0.1-0.6,0-0.8c-0.1-0.3-0.4-0.4-0.7-0.4h-3v-16c0-0.9,0.7-1.7,1.6-1.7h16V291.2z M280.1,292.5
			c-2.1,2.2-4.9,3.4-7.9,3.5h-9l1.1-0.6c0.4-0.2,0.6-0.6,0.7-1.1c0-0.4-0.1-0.9-0.5-1.2c-2.5-2.2-3.9-5.5-3.9-8.9
			c0-6.3,5.1-11.5,11.3-11.6c3.1,0,6,1.1,8.2,3.4c2.2,2.2,3.4,5.2,3.4,8.3C283.4,287.4,282.2,290.3,280.1,292.5z M279.4,278.8
			c-1-1-2.5-1-3.5,0l-6,6.2l-2-2.1c-0.5-0.5-1.1-0.7-1.7-0.7c-0.7,0-1.3,0.3-1.7,0.7c-0.5,0.5-0.7,1.1-0.7,1.8s0.3,1.3,0.7,1.8
			l3,3.1c0.7,0.7,1.6,1.1,2.5,1.1l0,0c1,0,1.8-0.4,2.5-1.1l7-7.1C280.4,281.4,280.4,279.8,279.4,278.8z M278.2,281.2l-7,7.1
			c-0.4,0.4-0.8,0.6-1.4,0.6l0,0c-0.5,0-1-0.2-1.4-0.6l-3-3.1c-0.3-0.3-0.3-0.9,0-1.2c0.3-0.3,0.8-0.3,1.2,0l2.6,2.7
			c0.2,0.2,0.4,0.2,0.6,0.2l0,0c0.2,0,0.4-0.1,0.6-0.2l6.6-6.8c0.3-0.3,0.8-0.3,1.2,0C278.6,280.3,278.6,280.9,278.2,281.2z
			 M234.8,296.9c0.5,0,0.8-0.4,0.8-0.8c0-1.2,0.9-2.1,2.1-2.1c1.1,0,2.1,0.9,2.1,2.1s-0.9,2.1-2.1,2.1c-0.5,0-0.8,0.4-0.8,0.8v2.3
			c0,0.5,0.4,0.8,0.8,0.8c0.5,0,0.8-0.4,0.8-0.8v-1.6c1.6-0.4,2.9-1.9,2.9-3.7c0-2.1-1.7-3.8-3.7-3.8s-3.7,1.7-3.7,3.8
			C234,296.5,234.3,296.9,234.8,296.9z"/>
	</g>
</g>
</svg>
