<?xml version="1.0" encoding="utf-8"?>
<!-- Generator: Adobe Illustrator 25.0.0, SVG Export Plug-In . SVG Version: 6.00 Build 0)  -->
<svg version="1.1" id="Layer_1" xmlns="http://www.w3.org/2000/svg" xmlns:xlink="http://www.w3.org/1999/xlink" x="0px" y="0px"
	 viewBox="0 0 101 101" style="enable-background:new 0 0 101 101;" xml:space="preserve">
<style type="text/css">
	.st0{fill-rule:evenodd;clip-rule:evenodd;fill:#FFE808;}
	.st1{fill:#0C2534;}
	.st2{fill-rule:evenodd;clip-rule:evenodd;fill:#B93128;}
	.st3{fill-rule:evenodd;clip-rule:evenodd;fill:#205F89;}
	.st4{fill-rule:evenodd;clip-rule:evenodd;fill:#FF7956;}
	.st5{fill-rule:evenodd;clip-rule:evenodd;}
</style>
<g transform="translate(-92 -772)">
	<g>
		<path class="st0" d="M94.5,822.5c0-26.5,21.5-48,48-48s48,21.5,48,48s-21.5,48-48,48S94.5,849,94.5,822.5z"/>
		<path class="st1" d="M142.5,872c-27.3,0-49.5-22.2-49.5-49.5c0-27.3,22.2-49.5,49.5-49.5c27.3,0,49.5,22.2,49.5,49.5
			C192,849.8,169.8,872,142.5,872z M142.5,776c-25.6,0-46.5,20.9-46.5,46.5c0,25.6,20.9,46.5,46.5,46.5c25.6,0,46.5-20.9,46.5-46.5
			C189,796.9,168.1,776,142.5,776z"/>
	</g>
	<g>
		<path class="st2" d="M167.6,800.3c0.9,2.4,0,5-2.3,6.3c-0.6,0.3-1,0.9-1,1.5v0.1c0,1-0.8,1.7-1.8,1.7c-1,0-1.8-0.8-1.8-1.7v-0.1
			c0-1.9,1.1-3.6,2.8-4.5c0.7-0.4,1-1.1,0.9-1.9c-0.1-0.6-0.6-1.1-1.3-1.3c-1-0.3-2,0.3-2.3,1.2c0,0.2-0.1,0.3-0.1,0.5H157
			c0-1.6,0.8-3.1,2.1-4.1c1.5-1.1,3.4-1.4,5.2-0.9C165.8,797.7,167.1,798.9,167.6,800.3z"/>
	</g>
	<g>
		<path class="st3" d="M167.6,823.3c0.9,2.4,0,5-2.3,6.3c-0.6,0.3-1,0.9-1,1.5v0.1c0,1-0.8,1.7-1.8,1.7c-1,0-1.8-0.8-1.8-1.7v-0.1
			c0-1.9,1.1-3.6,2.8-4.5c0.7-0.4,1-1.1,0.9-1.9c-0.1-0.6-0.6-1.1-1.3-1.3c-1-0.3-2,0.3-2.3,1.2c0,0.2-0.1,0.3-0.1,0.5H157
			c0-1.6,0.8-3.1,2.1-4.1c1.5-1.1,3.4-1.4,5.2-0.9C165.8,820.7,167.1,821.9,167.6,823.3z"/>
	</g>
	<g>
		<path class="st2" d="M164,814.5c0,0.8-0.7,1.5-1.5,1.5s-1.5-0.7-1.5-1.5s0.7-1.5,1.5-1.5S164,813.7,164,814.5z"/>
	</g>
	<g>
		<path class="st3" d="M164,837.5c0,0.8-0.7,1.5-1.5,1.5s-1.5-0.7-1.5-1.5s0.7-1.5,1.5-1.5S164,836.7,164,837.5z"/>
	</g>
	<g>
		<path class="st0" d="M155.7,806.3c0.9,2.4,0,5-2.1,6.3c-0.5,0.3-0.9,0.9-0.9,1.5v0.1c0,1-0.7,1.7-1.7,1.7c-0.9,0-1.7-0.8-1.7-1.7
			v-0.1c0-1.9,1-3.6,2.5-4.5c0.6-0.4,0.9-1.1,0.8-1.9c-0.1-0.6-0.6-1.1-1.2-1.3c-0.9-0.3-1.8,0.3-2.1,1.2c0,0.2-0.1,0.3-0.1,0.5H146
			c0-1.6,0.7-3.1,1.9-4.1c1.3-1.1,3.1-1.4,4.7-0.9C154,803.7,155.2,804.9,155.7,806.3z"/>
	</g>
	<g>
		<path class="st4" d="M153,820.5c0,0.8-0.9,1.5-2,1.5s-2-0.7-2-1.5s0.9-1.5,2-1.5S153,819.7,153,820.5z"/>
	</g>
	<g>
		<path class="st0" d="M153,820.5c0,0.8-0.9,1.5-2,1.5s-2-0.7-2-1.5c1.1,0,2-0.7,2-1.5C152.1,819,153,819.7,153,820.5z"/>
	</g>
	<g>
		<path class="st3" d="M147,833.6v12.6c0,1-0.8,1.8-1.8,1.8h-26.5c-1,0-1.8-0.8-1.8-1.8v-12.6c0-2,1.6-3.6,3.5-3.6h5.3l6.2,3.6
			l6.2-3.6h5.3C145.4,830,147,831.6,147,833.6z"/>
	</g>
	<g>
		<path class="st0" d="M142,814.6v0.8c0,0.9-0.6,1.6-1.3,1.6H140v-4h0.7C141.4,813,142,813.7,142,814.6z"/>
	</g>
	<g>
		<path class="st2" d="M142,800v6.5c0,2-1,3.8-2.6,4.8v-1.1l-4.9-1.4c-0.3,0.5-0.7,1-1.2,1.4c-1.8,1.4-4.2,1.4-4.4,0.9
			c-0.1-0.2,0.4-0.4,0.9-0.9c0.6-0.8,0.9-1.8,0.9-2.8h-0.9l-6.1,2.8v1.8c-1.4,0-2.6-1.2-2.6-2.8v-1.8c0-4.1,3.1-7.4,7-7.4H142z"/>
	</g>
	<g>
		<path class="st0" d="M139.2,820.5c-0.9,1.9-2.5,3.3-4.5,4c-1.7,0.6-3.6,0.6-5.3,0c-3.2-1.1-5.3-4.2-5.3-7.6v-7.2l6.2-2.7h0.9
			c0,1-0.3,1.9-0.9,2.7c-0.5,0.5-1,0.7-0.9,0.9c0.1,0.4,2.7,0.5,4.4-0.9c0.5-0.4,0.9-0.9,1.2-1.4l5,1.4v7.2
			C140,818.1,139.7,819.4,139.2,820.5z"/>
	</g>
	<g>
		<path class="st0" d="M138,830.6l-6,3.4l-6-3.4l3.4-2.6v-3c1.7,0.6,3.5,0.6,5.1,0v3L138,830.6z"/>
	</g>
	<g>
		<path class="st2" d="M126,837v5.2l-3,1.8l-3-1.8V837H126z"/>
	</g>
	<g>
		<path class="st0" d="M124,813v4h-1c-1.1,0-2-0.7-2-1.6v-0.8c0-0.9,0.9-1.6,2-1.6H124z"/>
	</g>
	<g>
		<path class="st5" d="M143.6,829.8h-5l-3-2.2v-2c2.9-1.3,5-4,5.3-7.1h0c1.5,0,2.7-1.2,2.7-2.6v-0.9c0-1.4-1.2-2.6-2.7-2.6V812
			c1.7-1.1,2.7-3,2.7-5v-6.1c0-0.5-0.4-0.9-0.9-0.9h-14.2c-4.4,0-8,3.5-8,7.9v1.8c0,1.2,0.6,2.2,1.5,2.9c-0.9,0.4-1.5,1.4-1.5,2.4
			v0.9c0,1.4,1.2,2.6,2.7,2.6h0c0.3,3.1,2.3,5.9,5.3,7.1v2l-3,2.2h-5c-2.5,0-4.4,2-4.4,4.4v12.2c0,1.4,1.2,2.6,2.7,2.6h26.7
			c1.5,0,2.7-1.2,2.7-2.6v-12.2C148,831.7,146,829.8,143.6,829.8z M141.8,814.9v0.9c0,0.5-0.4,0.9-0.9,0.9V814
			C141.4,814,141.8,814.4,141.8,814.9z M123.1,816.6c-0.5,0-0.9-0.4-0.9-0.9v-0.9c0-0.5,0.4-0.9,0.9-0.9V816.6z M123.1,810.5v0.6
			c-0.5-0.3-0.9-0.9-0.9-1.5v-1.8c0-3.4,2.8-6.1,6.2-6.1h13.3v5.2c0,1.1-0.4,2.1-1.1,2.9c-0.1-0.1-0.3-0.2-0.4-0.2l-5-1.3
			c-0.4-0.1-0.8,0.1-1,0.4c-0.3,0.4-0.6,0.8-1,1.1c-0.6,0.4-1.3,0.7-2,0.9c0.5-0.8,0.7-1.8,0.8-2.7c0-0.5-0.3-0.9-0.8-0.9
			c0,0-0.1,0-0.1,0h-0.9c-0.1,0-0.2,0-0.3,0.1l-6.2,2.6C123.3,809.8,123.1,810.1,123.1,810.5z M124.9,817.5v-6.4l5.2-2.2
			c-0.1,0.4-0.2,0.7-0.5,1c-0.1,0.1-0.3,0.3-0.5,0.4c-0.5,0.3-0.7,0.8-0.6,1.3c0.1,0.4,0.5,0.7,0.8,0.8c1.8,0.3,3.6-0.1,5-1.2
			c0.4-0.3,0.8-0.6,1-1l3.8,1v6.3c0,3.9-3.2,7-7.1,7S124.9,821.4,124.9,817.5z M129.9,828.7c0.2-0.2,0.4-0.4,0.4-0.7v-1.9
			c1.2,0.2,2.4,0.2,3.6,0v1.9c0,0.3,0.1,0.5,0.4,0.7l2.5,1.8l-4.6,2.6l-4.6-2.6L129.9,828.7z M146.2,846.4c0,0.5-0.4,0.9-0.9,0.9
			h-26.7c-0.5,0-0.9-0.4-0.9-0.9v-12.2c0-1.4,1.2-2.6,2.7-2.6h5.1l6,3.4c0.3,0.1,0.6,0.1,0.9,0l6-3.4h5.1c1.5,0,2.7,1.2,2.7,2.6
			V846.4z"/>
	</g>
	<g>
		<path class="st5" d="M125.1,837h-5.2c-0.5,0-0.9,0.4-0.9,0.8v4.8c0,0.3,0.1,0.5,0.4,0.7l2.6,1.6c0.3,0.2,0.7,0.2,1,0l2.6-1.6
			c0.2-0.1,0.4-0.4,0.4-0.7v-4.8C126,837.4,125.6,837,125.1,837z M124.2,842.2l-1.8,1.1l-1.8-1.1v-3.6h3.5V842.2z"/>
	</g>
	<g>
		<path class="st5" d="M168.6,800c-0.7-1.7-2.2-3.1-4-3.7c-2.1-0.7-4.4-0.3-6.1,1c-1.6,1.2-2.5,3-2.5,4.8c0,0.5,0.4,0.9,0.9,0.9h3.7
			c0.5,0,0.9-0.4,0.9-0.9c0-0.3,0.1-0.5,0.4-0.7c0.2-0.2,0.6-0.2,0.9-0.2c0.3,0.1,0.6,0.3,0.6,0.6c0.1,0.4-0.1,0.8-0.4,1
			c-2,1.1-3.3,3.2-3.3,5.4c0,1.5,1.3,2.6,2.8,2.6c1.5,0,2.8-1.2,2.8-2.7c0-0.3,0.2-0.6,0.5-0.8C168.5,806,169.7,802.8,168.6,800z
			 M164.9,806c-0.9,0.5-1.5,1.4-1.4,2.4c0,0.5-0.4,0.9-0.9,0.9c-0.5,0-0.9-0.4-0.9-0.9c0,0,0,0,0,0c0-1.6,0.9-3,2.4-3.8
			c1-0.6,1.5-1.7,1.3-2.8c-0.2-1-1-1.8-2-2c-0.2-0.1-0.5-0.1-0.7-0.1c-1.2,0-2.2,0.7-2.6,1.8H158c0.2-1,0.8-1.9,1.7-2.6
			c1.2-0.9,2.9-1.2,4.4-0.7c1.3,0.4,2.4,1.4,2.8,2.6C167.6,802.6,166.8,804.9,164.9,806z"/>
	</g>
	<g>
		<path class="st5" d="M162.5,812c-1.4,0-2.5,1.1-2.5,2.5s1.1,2.5,2.5,2.5s2.5-1.1,2.5-2.5S163.9,812,162.5,812z M162.5,815.3
			c-0.5,0-0.8-0.4-0.8-0.8s0.4-0.8,0.8-0.8s0.8,0.4,0.8,0.8S163,815.3,162.5,815.3z"/>
	</g>
	<g>
		<path class="st5" d="M164.6,819.3c-2.1-0.6-4.4-0.3-6.1,1c-1.6,1.2-2.5,3-2.4,4.8c0,0.5,0.4,0.9,0.9,0.9h3.7
			c0.5,0,0.9-0.4,0.9-0.9c0-0.3,0.1-0.5,0.4-0.7c0.2-0.2,0.6-0.2,0.9-0.2c0.3,0.1,0.6,0.3,0.6,0.6c0.1,0.4-0.1,0.8-0.4,1
			c-2,1.1-3.3,3.2-3.3,5.4c0,1.5,1.3,2.6,2.8,2.6s2.8-1.2,2.8-2.7c0-0.3,0.2-0.6,0.6-0.8c2.7-1.6,3.8-4.7,2.8-7.5
			C167.9,821.2,166.4,819.9,164.6,819.3z M164.9,829c-0.9,0.5-1.5,1.4-1.5,2.4c0,0.5-0.4,0.9-0.9,0.9c-0.5,0-0.9-0.4-0.9-0.9
			c0,0,0,0,0,0c0-1.6,0.9-3.1,2.4-3.8c1-0.6,1.6-1.7,1.3-2.8c-0.2-1-1-1.8-2-2c-0.2-0.1-0.5-0.1-0.7-0.1c-1.2,0-2.2,0.7-2.6,1.8H158
			c0.2-1,0.8-1.9,1.7-2.6c1.2-0.9,2.9-1.2,4.4-0.7c1.3,0.4,2.4,1.4,2.8,2.6C167.6,825.6,166.8,827.9,164.9,829z"/>
	</g>
	<g>
		<path class="st5" d="M162.5,835c-1.4,0-2.5,1.1-2.5,2.5s1.1,2.5,2.5,2.5s2.5-1.1,2.5-2.5S163.9,835,162.5,835z M162.5,838.3
			c-0.5,0-0.8-0.4-0.8-0.8s0.4-0.8,0.8-0.8s0.8,0.4,0.8,0.8S163,838.3,162.5,838.3z"/>
	</g>
	<g>
		<path class="st5" d="M156.6,806c-0.6-1.7-2-3.1-3.7-3.7c-1.9-0.7-4.1-0.3-5.6,1c-1.4,1.2-2.3,3-2.3,4.8c0,0.5,0.4,0.9,0.9,0.9h3.4
			c0.5,0,0.9-0.4,0.9-0.9c0-0.3,0.1-0.5,0.3-0.7c0.2-0.2,0.5-0.2,0.8-0.2c0.3,0.1,0.5,0.3,0.6,0.6c0.1,0.4-0.1,0.8-0.4,1
			c-1.9,1.1-3,3.2-3,5.4c0,1.5,1.2,2.6,2.6,2.6c1.4,0,2.6-1.2,2.5-2.7c0-0.3,0.2-0.6,0.5-0.8C156.6,812,157.6,808.8,156.6,806z
			 M153.2,812c-0.8,0.5-1.3,1.4-1.3,2.4c0,0.5-0.4,0.9-0.9,0.9c-0.5,0-0.9-0.4-0.9-0.9c0,0,0,0,0,0c0-1.6,0.8-3,2.2-3.8
			c0.9-0.6,1.4-1.7,1.2-2.8c-0.2-1-0.9-1.8-1.9-2c-0.2-0.1-0.4-0.1-0.7-0.1c-1.1,0-2.1,0.7-2.4,1.8h-1.8c0.2-1,0.7-1.9,1.5-2.6
			c1.1-0.9,2.7-1.2,4.1-0.7c1.2,0.4,2.2,1.4,2.6,2.6C155.7,808.6,155,810.9,153.2,812z"/>
	</g>
	<g>
		<path class="st5" d="M151,818c-1.7,0-3,1.1-3,2.5s1.3,2.5,3,2.5s3-1.1,3-2.5S152.7,818,151,818z M151,821.3c-0.6,0-1-0.4-1-0.8
			s0.4-0.8,1-0.8s1,0.4,1,0.8S151.6,821.3,151,821.3z"/>
	</g>
</g>
</svg>
