<?xml version="1.0" encoding="utf-8"?>
<!-- Generator: Adobe Illustrator 25.0.0, SVG Export Plug-In . SVG Version: 6.00 Build 0)  -->
<svg version="1.1" id="Layer_1" xmlns="http://www.w3.org/2000/svg" xmlns:xlink="http://www.w3.org/1999/xlink" x="0px" y="0px"
	 viewBox="0 0 100 100" style="enable-background:new 0 0 100 100;" xml:space="preserve">
<style type="text/css">
	.st0{fill:none;}
	.st1{fill-rule:evenodd;clip-rule:evenodd;fill:#FFE808;}
	.st2{fill:#0C2534;}
	.st3{fill-rule:evenodd;clip-rule:evenodd;fill:#205F89;}
	.st4{fill-rule:evenodd;clip-rule:evenodd;fill:#B93128;}
	.st5{fill-rule:evenodd;clip-rule:evenodd;fill:#0C2534;}
</style>
<g>
	<rect y="0" class="st0" width="100" height="100"/>
</g>
<g transform="translate(-92 -121)">
	<g>
		<path class="st1" d="M190.5,171.5c0,26.5-21.5,48-48,48s-48-21.5-48-48s21.5-48,48-48S190.5,145,190.5,171.5z"/>
		<path class="st2" d="M142.5,221c-27.3,0-49.5-22.2-49.5-49.5c0-27.3,22.2-49.5,49.5-49.5c27.3,0,49.5,22.2,49.5,49.5
			C192,198.8,169.8,221,142.5,221z M142.5,125c-25.6,0-46.5,20.9-46.5,46.5c0,25.6,20.9,46.5,46.5,46.5c25.6,0,46.5-20.9,46.5-46.5
			C189,145.9,168.1,125,142.5,125z"/>
	</g>
	<g>
		<path class="st3" d="M162,163.3v6.7h-12.5v-3.5c0-1.9-0.9-3.7-2.5-4.9l0,0c0.8-2.7,3.4-4.6,6.3-4.6h2.2
			C159.1,157,162,159.8,162,163.3C162,163.2,162,163.2,162,163.3z"/>
	</g>
	<g>
		<path class="st3" d="M159,150L159,150c0,2.2-2,4-4.4,4h-0.1c-2.5,0-4.5-1.8-4.5-4v0c0-2.2,2-4,4.5-4C157,146,159,147.8,159,150z"
			/>
	</g>
	<g>
		<path class="st1" d="M152,184l0,4l-5,0l0-4L152,184z"/>
	</g>
	<g>
		<path class="st4" d="M152,188.3v4.2c0,5.3-4.5,9.5-10,9.5h0c-5.5,0-10-4.2-10-9.5c0,0,0,0,0,0l0-4.5l5.2,0l0,4.5
			c0,2.5,2.2,4.6,4.8,4.6s4.8-2.1,4.8-4.6l0-4.2H152z"/>
	</g>
	<g>
		<path class="st1" d="M150,169.7v3.3h-15v-6.8c0-3.4,2.9-6.2,6.4-6.2h2.2c3.5,0,6.4,2.8,6.4,6.2L150,169.7L150,169.7z"/>
	</g>
	<g>
		<path class="st1" d="M138,184v4l-6,0l0-4L138,184z"/>
	</g>
	<g>
		<path class="st3" d="M137,161.5L137,161.5c-1.4,1.2-2.3,3.1-2.3,5v3.5H123v-6.8c0-3.4,2.7-6.2,6-6.2h2.1
			C133.8,157,136.2,158.9,137,161.5z"/>
	</g>
	<g>
		<path class="st3" d="M135,150c0,1.1-0.5,2.1-1.3,2.8c-0.8,0.8-2,1.2-3.2,1.2c-2.5,0-4.5-1.8-4.5-4c0-2.2,2-4,4.5-4h0
			C133,146,135,147.8,135,150z"/>
	</g>
	<g>
		<path class="st5" d="M154.5,155L154.5,155c3.1,0,5.5-2.2,5.5-4.9v0v0c0-2.8-2.4-5-5.5-5c0,0,0,0,0,0c-3,0-5.5,2.3-5.5,5
			C149,152.8,151.5,155,154.5,155L154.5,155z M154.5,146.8c1.9,0,3.5,1.4,3.5,3.2v0v0c0,1.7-1.5,3.1-3.4,3.1c0,0,0,0,0,0h-0.1
			c-1.9,0-3.5-1.4-3.5-3.1c0,0,0,0,0,0C151,148.2,152.6,146.8,154.5,146.8z"/>
	</g>
	<g>
		<path class="st5" d="M122.9,170.7h11.2v2.4c0,0.5,0.4,0.9,1,0.9h14.8c0.5,0,0.9-0.4,0.9-0.9c0,0,0,0,0,0v-2.4h11.3
			c0.5,0,0.9-0.3,0.9-0.8c0,0,0,0,0-0.1v-6.7c0-3.9-3.2-7.1-7.1-7.1c0,0,0,0-0.1,0h-2.2c-2.8,0-5.4,1.6-6.6,4.1
			c-1-0.6-2.2-0.9-3.4-0.9h-2.2c-1.2,0-2.4,0.3-3.4,0.9c-1.2-2.5-3.8-4.1-6.6-4.1h-2.2c-4,0-7.2,3.1-7.2,7v0v6.7
			C122,170.3,122.4,170.7,122.9,170.7C122.9,170.7,122.9,170.7,122.9,170.7z M153.6,157.8h2.2c2.9,0,5.3,2.3,5.3,5.2v0.1v5.8h-10.4
			v-2.5c0-2-0.8-3.8-2.2-5.1C149.4,159.2,151.4,157.8,153.6,157.8z M138.1,162.2c0.9-0.7,2.1-1.1,3.3-1.1h2.2c1.2,0,2.4,0.4,3.3,1.1
			c1.3,1,2,2.6,2,4.2v5.8H136v-5.8C136,164.7,136.8,163.2,138.1,162.2z M123.9,163.1c0-2.9,2.4-5.2,5.3-5.2h0.1h2.2
			c2.2,0,4.2,1.3,5,3.4c-1.5,1.3-2.3,3.2-2.3,5.1v2.5h-10.2V163.1z"/>
	</g>
	<g>
		<path class="st5" d="M130,155c1.3,0,2.6-0.5,3.5-1.4c0.9-0.9,1.5-2.2,1.5-3.5c0,0,0,0,0,0c0-2.8-2.2-5-5-5c-1.3,0-2.6,0.5-3.5,1.5
			c-0.9,0.9-1.5,2.2-1.5,3.5C125,152.8,127.2,155,130,155z M127.7,147.7c1.3-1.3,3.3-1.3,4.5,0c0.6,0.6,0.9,1.4,0.9,2.3
			c0,0.9-0.4,1.7-1,2.3c-0.6,0.6-1.4,0.9-2.3,0.9c-1.8,0-3.2-1.4-3.2-3.2c0,0,0,0,0,0C126.8,149.1,127.1,148.3,127.7,147.7z"/>
	</g>
	<g>
		<path class="st5" d="M153,192.1l0-8.2c0-0.2-0.1-0.5-0.3-0.6c-0.2-0.2-0.4-0.3-0.6-0.3h-5c-0.5,0-0.9,0.4-0.9,0.9l0,8.2
			c0,2.2-1.7,3.9-3.8,3.9c-2.1,0-3.8-1.8-3.7-3.9l0-8.2c0-0.5-0.4-0.9-0.9-0.9l-5,0c-0.5,0-0.9,0.4-0.9,0.9l0,8.2
			c0,6,4.7,10.8,10.4,10.9h0h0C148.3,203,153,198.1,153,192.1z M148,184.8h3.2v2l-3.2,0V184.8z M133.8,184.9l3.2,0v1.7l-3.2,0V184.9
			z M142.5,201.1L142.5,201.1c-4.8,0-8.7-4-8.7-9c0,0,0,0,0,0l0-3.8h3.2l0,3.8c0,3.2,2.5,5.8,5.5,5.8c3.1,0,5.5-2.6,5.5-5.8l0-3.5
			l3.2,0v3.4C151.2,197.1,147.3,201.1,142.5,201.1z"/>
	</g>
	<g>
		<path class="st5" d="M135,181c0.5,0,1-0.4,1-0.9l0-3.2c0-0.5-0.4-0.9-1-0.9c-0.6,0-1,0.4-1,0.9v0l0,3.2
			C134,180.6,134.4,181,135,181z"/>
	</g>
	<g>
		<path class="st5" d="M138.5,182.7l2.2-2.2c0.3-0.4,0.3-0.9,0-1.3c-0.3-0.3-0.9-0.3-1.3,0l-2.2,2.2c-0.4,0.3-0.4,0.9,0,1.3
			C137.6,183.1,138.2,183.1,138.5,182.7C138.5,182.7,138.5,182.7,138.5,182.7z"/>
	</g>
	<g>
		<path class="st5" d="M132.7,182.7c0.3-0.4,0.3-1.1,0-1.6l-2.2-2.8c-0.3-0.4-0.9-0.4-1.3,0c-0.4,0.4-0.4,1.1,0,1.6l0,0l2.2,2.8
			C131.8,183.1,132.4,183.1,132.7,182.7z"/>
	</g>
	<g>
		<path class="st5" d="M150,181c0.5,0,1-0.4,1-0.9v0v-3.2c0-0.5-0.4-0.9-1-0.9c0,0,0,0,0,0c-0.5,0-1,0.4-1,0.9v0v3.2
			C149,180.6,149.4,181,150,181C150,181,150,181,150,181z"/>
	</g>
	<g>
		<path class="st5" d="M155.7,180.5c0.3-0.3,0.3-0.9,0-1.3c-0.3-0.3-0.9-0.3-1.3,0l-2.2,2.2c-0.3,0.3-0.3,0.9,0,1.3
			c0.3,0.3,0.9,0.3,1.3,0L155.7,180.5z"/>
	</g>
	<g>
		<path class="st5" d="M147.1,183c0.5,0,0.9-0.5,0.9-1.1c0-0.3-0.1-0.6-0.3-0.8l-2.2-2.8c-0.3-0.4-0.9-0.4-1.3,0
			c-0.3,0.4-0.3,1.1,0,1.6l2.2,2.8C146.6,182.9,146.9,183,147.1,183z"/>
	</g>
	<g>
		<path class="st1" d="M147,153.5c0,1.2-0.5,2.3-1.3,3.2c-0.8,0.8-2,1.3-3.2,1.3c-2.5,0-4.5-2-4.5-4.5c0-2.5,2-4.5,4.5-4.5h0
			C145,149,147,151,147,153.5z"/>
	</g>
	<g>
		<path class="st5" d="M142.5,159c1.4,0,2.8-0.6,3.9-1.6c1-1,1.6-2.4,1.6-3.9c0,0,0,0,0,0c0-3-2.5-5.5-5.5-5.5
			c-1.5,0-2.9,0.6-3.9,1.6c-1,1-1.6,2.4-1.6,3.9C137,156.5,139.5,159,142.5,159z M140,151c1.4-1.4,3.6-1.4,5,0c0.7,0.7,1,1.6,1,2.5
			c0,0.9-0.4,1.8-1.1,2.5c-0.7,0.7-1.5,1-2.5,1c-1.9,0-3.5-1.6-3.5-3.5c0,0,0,0,0,0C139,152.6,139.3,151.7,140,151z"/>
	</g>
</g>
</svg>
