<?xml version="1.0" encoding="utf-8"?>
<!-- Generator: Adobe Illustrator 25.0.0, SVG Export Plug-In . SVG Version: 6.00 Build 0)  -->
<svg version="1.1" id="Layer_1" xmlns="http://www.w3.org/2000/svg" xmlns:xlink="http://www.w3.org/1999/xlink" x="0px" y="0px"
	 viewBox="0 0 100 101" style="enable-background:new 0 0 100 101;" xml:space="preserve">
<style type="text/css">
	.st0{fill:none;}
	.st1{fill-rule:evenodd;clip-rule:evenodd;fill:#FFE808;}
	.st2{fill:#0C2534;}
	.st3{fill-rule:evenodd;clip-rule:evenodd;fill:#B93128;}
	.st4{fill-rule:evenodd;clip-rule:evenodd;fill:#205F89;}
	.st5{fill-rule:evenodd;clip-rule:evenodd;fill:#0C2534;}
</style>
<g>
	<rect y="0" class="st0" width="100" height="101"/>
</g>
<g transform="translate(2 -134)">
	<g>
		<path class="st1" d="M0.5,184.5c0-26.5,21.5-48,48-48c26.5,0,48,21.5,48,48s-21.5,48-48,48C22,232.5,0.5,211,0.5,184.5z"/>
		<path class="st2" d="M48.5,234C21.2,234-1,211.8-1,184.5c0-27.3,22.2-49.5,49.5-49.5c27.3,0,49.5,22.2,49.5,49.5
			C98,211.8,75.8,234,48.5,234z M48.5,138C22.9,138,2,158.9,2,184.5C2,210.1,22.9,231,48.5,231c25.6,0,46.5-20.9,46.5-46.5
			C95,158.9,74.1,138,48.5,138z"/>
	</g>
	<g>
		<path class="st3" d="M74,158c0,0-0.2,5.5-2.5,12l-9.5-9.5C68.5,158.2,74,158,74,158z"/>
	</g>
	<g>
		<path class="st4" d="M62,161l10,9.7c-1.6,4.3-4.1,9-8.1,12.9c-3.7,3.6-8.1,6.4-12.7,8.4L40,181.1c1.4-3,3.3-6.2,5.8-9.2
			c0.9-1.1,1.8-2.1,2.9-3.1C52.6,164.9,57.5,162.5,62,161z"/>
	</g>
	<g>
		<path class="st1" d="M61.8,170.2c1.6,1.6,1.6,4.1,0,5.7c-1.6,1.6-4.1,1.6-5.7,0c-1.6-1.6-1.6-4.1,0-5.7
			C57.7,168.6,60.3,168.6,61.8,170.2z"/>
	</g>
	<g>
		<path class="st3" d="M60.4,187.2C65.9,195,55.7,200,50,200c3-2.9,2.1-6.5,2.1-6.5l-1.1-1.1c3-1.3,6.3-3.1,9.3-5.4L60.4,187.2z"/>
	</g>
	<g>
		<path class="st3" d="M38.8,188.7l-0.2-0.2c-0.5-0.5-0.8-1.2-0.6-1.9c0.4-1.7,1.1-3.6,2-5.6l11,11c-2,0.9-3.9,1.5-5.6,2
			c-0.7,0.2-1.4-0.1-1.9-0.6l-0.2-0.2L38.8,188.7z"/>
	</g>
	<g>
		<path class="st3" d="M45.8,171.6l0.2,0.1c-2.5,3.1-4.4,6.3-5.8,9.3l-1.1-1.1c0,0-4-0.9-7,2.1C32,176.3,37.4,166.1,45.8,171.6z"/>
	</g>
	<g>
		<path class="st1" d="M38.6,189l4.4,4.4c-0.3,1.2-1.1,2.6-2.2,3.7c-2.4,2.4-8.8,2.9-8.8,2.9s0.5-6.4,2.9-8.8
			C36.1,190.1,37.4,189.3,38.6,189z"/>
	</g>
	<g>
		<path class="st5" d="M49.7,184.7c0.4-0.4,0.4-1,0-1.4c-0.4-0.4-1-0.4-1.4,0c-0.4,0.4-0.4,1,0,1.4
			C48.7,185.1,49.3,185.1,49.7,184.7z"/>
	</g>
	<g>
		<path class="st5" d="M63.4,176.5c2.1-2,2.1-5.1,0-7.1c-2.1-2-5.6-2-7.8,0c-2.1,1.9-2.1,5.1,0,7.1
			C57.8,178.5,61.2,178.5,63.4,176.5z M57.2,170.9c1.3-1.2,3.4-1.2,4.7,0c1.3,1.2,1.3,3.1,0,4.2c-1.3,1.2-3.4,1.2-4.7,0
			C55.9,174,55.9,172.1,57.2,170.9z"/>
	</g>
	<g>
		<path class="st5" d="M31.7,183c0.1,0.1,0.3,0.1,0.4,0.1c0.3,0,0.5-0.1,0.7-0.3c2.1-2.1,4.7-2,5.6-1.9l0.4,0.4
			c-0.7,1.7-1.3,3.5-1.7,5.1c-0.2,0.6-0.1,1.2,0.1,1.8c-1,0.5-2,1.2-2.9,2c-2.7,2.7-3.3,9.4-3.3,9.6c0,0.3,0.1,0.6,0.3,0.8
			c0.2,0.2,0.5,0.3,0.7,0.3c0,0,0.1,0,0.1,0c0.3,0,6.9-0.6,9.6-3.3c0.9-0.9,1.5-1.8,2-2.9c0.6,0.2,1.3,0.3,1.8,0.1
			c1.7-0.4,3.4-1,5.1-1.7l0.4,0.4c0.1,0.9,0.2,3.5-1.9,5.6c-0.3,0.3-0.4,0.8-0.2,1.2c0.2,0.4,0.5,0.7,1,0.7c4.2,0,10-2.5,12.2-6.5
			c0.9-1.7,1.6-4.5-0.5-8c0.9-0.7,1.7-1.5,2.5-2.3c3.5-3.5,6.2-8,8.1-13.4c2.4-6.8,2.6-12.5,2.6-12.7c0-0.3-0.1-0.6-0.3-0.8
			c-0.2-0.2-0.5-0.3-0.8-0.3c-0.2,0-5.9,0.2-12.7,2.6c-5.4,1.9-9.9,4.7-13.4,8.2c-0.8,0.8-1.5,1.6-2.3,2.5c-3.5-2-6.2-1.4-8-0.5
			c-4,2.2-6.5,8-6.5,12.2C31,182.4,31.3,182.8,31.7,183z M40.3,196.2c-1.5,1.5-4.9,2.2-7,2.5c0.3-2.2,1.1-5.6,2.5-7
			c0.8-0.8,1.8-1.4,2.7-1.8l3.6,3.6C41.7,194.4,41.1,195.4,40.3,196.2z M45.1,192.9c-0.3,0.1-0.7,0-0.9-0.3
			c-5.1-5.1,1.5,1.5-4.8-4.8c-0.3-0.3-0.4-0.6-0.3-0.9c0.3-1.3,0.8-2.7,1.3-4l8.7,8.7C47.8,192.1,46.4,192.6,45.1,192.9z
			 M60.3,193.5c-1.4,2.6-4.9,4.5-8.1,5.2c1-1.9,1.2-4.3,0.9-5.8c-0.1-0.3-0.3-0.5-0.3-0.5c2.6-1.2,5-2.7,7.2-4.4
			C61.2,189.9,61.3,191.8,60.3,193.5z M70.9,168.5l-7.4-7.4c4-1.3,7.5-1.7,9.3-1.9C72.6,161,72.2,164.5,70.9,168.5z M49.3,169.3
			c3.1-3.1,7.2-5.6,12-7.4l8.9,8.9c-1.8,4.8-4.3,8.9-7.4,12c-1,1-2,1.9-3.1,2.7c-2.6,2.1-5.4,3.8-8.4,5.2l-9.9-9.9
			c1.4-3,3.2-5.9,5.2-8.4C47.4,171.3,48.3,170.2,49.3,169.3z M38.5,171.7c1.7-0.9,3.6-0.8,5.6,0.3c-1.7,2.3-3.2,4.7-4.4,7.2
			c0,0-0.2-0.2-0.6-0.3c-0.1,0-2.9-0.6-5.8,0.9C34,176.5,35.9,173,38.5,171.7z"/>
	</g>
	<g>
		<path class="st5" d="M43.8,205.7l2.9-2.9c0.4-0.4,0.4-1.1,0-1.5c-0.4-0.4-1.1-0.4-1.5,0l-2.9,2.9c-0.4,0.4-0.4,1.1,0,1.5
			C42.7,206.1,43.4,206.1,43.8,205.7z"/>
	</g>
	<g>
		<path class="st5" d="M28.1,190.7l3.5-2.9c0.5-0.4,0.5-1.1,0-1.5c-0.5-0.4-1.3-0.4-1.8,0l-3.5,2.9c-0.5,0.4-0.5,1.1,0,1.5
			C26.8,191.1,27.6,191.1,28.1,190.7z"/>
	</g>
	<g>
		<path class="st5" d="M37.2,202.3l-6.9,7.7c-0.4,0.4-0.4,1.2,0,1.6c0.4,0.4,1.1,0.4,1.5,0l6.9-7.7c0.4-0.4,0.4-1.2,0-1.6
			C38.3,201.9,37.6,201.9,37.2,202.3z"/>
	</g>
	<g>
		<path class="st5" d="M29.1,202.3l-7.7,7.7c-0.4,0.4-0.4,1.2,0,1.6c0.4,0.4,1.2,0.4,1.6,0l7.7-7.7c0.4-0.4,0.4-1.2,0-1.6
			C30.2,201.9,29.5,201.9,29.1,202.3z"/>
	</g>
	<g>
		<path class="st5" d="M22.8,202.7l6.9-7.7c0.4-0.4,0.4-1.2,0-1.6c-0.4-0.4-1.1-0.4-1.5,0l-6.9,7.7c-0.4,0.4-0.4,1.2,0,1.6
			C21.7,203.1,22.4,203.1,22.8,202.7z"/>
	</g>
	<g>
		<path class="st5" d="M52.5,181.7l1.2-1.7c0.3-0.5,0.3-1.2,0-1.7c-0.3-0.5-0.9-0.5-1.2,0l-1.2,1.7c-0.3,0.5-0.3,1.2,0,1.7
			C51.6,182.1,52.2,182.1,52.5,181.7z"/>
	</g>
</g>
</svg>
