<?xml version="1.0" encoding="utf-8"?>
<!-- Generator: Adobe Illustrator 25.0.0, SVG Export Plug-In . SVG Version: 6.00 Build 0)  -->
<svg version="1.1" id="Layer_1" xmlns="http://www.w3.org/2000/svg" xmlns:xlink="http://www.w3.org/1999/xlink" x="0px" y="0px"
	 viewBox="0 0 101 101" style="enable-background:new 0 0 101 101;" xml:space="preserve">
<style type="text/css">
	.st0{fill:none;}
	.st1{fill-rule:evenodd;clip-rule:evenodd;fill:#FFE808;}
	.st2{fill:#0C2534;}
	.st3{fill-rule:evenodd;clip-rule:evenodd;fill:#B93128;}
	.st4{fill-rule:evenodd;clip-rule:evenodd;fill:#205F89;}
	.st5{fill-rule:evenodd;clip-rule:evenodd;fill:#0C2534;}
</style>
<g>
	<rect y="0" class="st0" width="101" height="101"/>
</g>
<g transform="translate(-16 -567)">
	<g>
		<path class="st1" d="M18.5,617.5c0-26.5,21.5-48,48-48c26.5,0,48,21.5,48,48s-21.5,48-48,48C40,665.5,18.5,644,18.5,617.5z"/>
		<path class="st2" d="M66.5,667C39.2,667,17,644.8,17,617.5c0-27.3,22.2-49.5,49.5-49.5c27.3,0,49.5,22.2,49.5,49.5
			C116,644.8,93.8,667,66.5,667z M66.5,571C40.9,571,20,591.9,20,617.5c0,25.6,20.9,46.5,46.5,46.5c25.6,0,46.5-20.9,46.5-46.5
			C113,591.9,92.1,571,66.5,571z"/>
	</g>
	<g>
		<path class="st3" d="M63,600h9l-4.1,5l0,0L63,600z"/>
	</g>
	<g>
		<path class="st3" d="M75,597.6l-0.7-0.7c-1.1-1.2-2.6-1.9-4.3-1.9H62v1.4c0,2,1.6,3.7,3.7,3.6l6.8,0L75,597.6z"/>
	</g>
	<g>
		<path class="st3" d="M66,632.8L66,632.8c1.7,1.3,3.9,1.9,6,1.7l0.3,0l5.7,5.5L92,628.5l-7.9-7.5L66,632.8z"/>
	</g>
	<g>
		<path class="st4" d="M51.9,621.4L41,632l17.6,8l9.3-9.1l0,0c3.8-0.1,7.5-1.7,10.2-4.3l10.1-9.8c1.1-1.1,1.1-2.9,0-3.9l0,0
			c-1.1-1.1-2.9-1.1-4.1,0l-1.3,1.2l2.7-2.6c1.1-1.1,1.1-2.9,0-3.9l0,0c-1.1-1.1-2.9-1.1-4.1,0l-2.7,2.6l3.7-3.6
			c1.1-1.1,1.1-2.9,0-3.9l0,0c-1.1-1.1-2.9-1.1-4.1,0l-3.7,3.6l4.7-4.6c1.1-1.1,1.1-2.9,0-3.9l0,0c-1.1-1.1-2.9-1.1-4.1,0l-7.4,7.2"
			/>
	</g>
	<g>
		<path class="st3" d="M56.1,617.4l-3-2.6c-1.2-1-3.1-1-4.3,0l0,0c-1.2,1-1.2,2.8,0,3.8l3,2.6c1.2,1,3.1,1,4.3,0l0,0
			C57.3,620.2,57.3,618.5,56.1,617.4z"/>
	</g>
	<g>
		<path class="st3" d="M60.2,613.1l-4.2-4.2c-1.1-1.1-3-1.1-4.1,0l0,0c-1.1,1.1-1.1,3,0,4.1l4.2,4.2c1.1,1.1,3,1.1,4.1,0l0,0
			C61.3,616,61.3,614.2,60.2,613.1z"/>
	</g>
	<g>
		<path class="st3" d="M64.2,609.1l-5.2-5.2c-1.1-1.1-3-1.1-4.1,0l0,0c-1.1,1.1-1.1,3,0,4.1l5.2,5.2c1.1,1.1,3,1.1,4.1,0l0,0
			C65.3,612,65.3,610.2,64.2,609.1z"/>
	</g>
	<g>
		<path class="st3" d="M68.2,605.1l-6.2-6.2c-1.1-1.1-2.9-1.1-4.1,0l0,0c-1.1,1.1-1.1,2.9,0,4.1l6.2,6.2c1.1,1.1,2.9,1.1,4.1,0l0,0
			C69.3,608,69.3,606.2,68.2,605.1z"/>
	</g>
	<g>
		<path class="st5" d="M92.7,627.5l-2.7-2.2c-0.4-0.4-1.2-0.3-1.6,0c-0.4,0.4-0.4,0.9,0,1.3l2.7,2.2c0.2,0.2,0.5,0.3,0.8,0.3
			c0.3,0,0.6-0.1,0.8-0.3C93.1,628.4,93.1,627.8,92.7,627.5z"/>
	</g>
	<g>
		<path class="st5" d="M85.3,622.3L85.3,622.3c-0.4,0.4-0.4,1,0,1.4c0.2,0.2,0.5,0.3,0.7,0.3c0.3,0,0.5-0.1,0.7-0.3
			c0.4-0.4,0.4-1,0-1.4C86.3,621.9,85.7,621.9,85.3,622.3z"/>
	</g>
	<g>
		<path class="st5" d="M73.2,633.7c-0.2-0.2-0.5-0.3-0.8-0.3l-0.3,0c-1.5,0.1-3-0.2-4.3-0.9l0.7-0.7c3.9-0.2,7.6-1.9,10.4-4.6
			l10.1-9.8c1.5-1.5,1.5-3.9,0-5.4c-0.5-0.5-1.2-0.9-1.9-1c0.2-0.5,0.4-1,0.4-1.6c0-1-0.4-2-1.1-2.7c-0.6-0.6-1.3-0.9-2.1-1.1
			c0.4-1.3,0.1-2.8-0.9-3.9c-0.6-0.6-1.3-0.9-2.1-1.1c0.1-0.4,0.2-0.8,0.2-1.2c0-1-0.4-2-1.1-2.7c-0.7-0.7-1.7-1.1-2.8-1.1
			c-0.7,0-1.3,0.2-1.9,0.5l-0.1-0.1c-1.3-1.4-3.1-2.1-5-2.1h-8.1c-0.6,0-1,0.5-1,1v1.3c0,0.5,0.1,1,0.3,1.5c-0.5-0.2-1-0.3-1.5-0.3
			c-1,0-2,0.4-2.8,1.1c-1.1,1-1.4,2.6-0.9,3.9c-0.8,0.1-1.5,0.5-2.1,1.1c-0.7,0.7-1.1,1.7-1.1,2.7c0,0.4,0.1,0.8,0.2,1.2
			c-0.8,0.1-1.5,0.5-2.1,1.1c-1.2,1.2-1.4,2.9-0.8,4.3c-0.7,0.2-1.4,0.5-1.9,1c-1.5,1.5-1.5,3.9,0,5.4l2.1,2l-10.2,9.9
			c-0.4,0.4-0.4,1,0,1.4c0.2,0.2,0.5,0.3,0.7,0.3c0.3,0,0.5-0.1,0.7-0.3l10.3-10c0.6,0.3,1.2,0.5,1.9,0.5c1,0,2-0.4,2.8-1.1
			c0.8-0.8,1.2-1.8,1.1-2.8c0.1,0,0.1,0,0.2,0c1,0,2-0.4,2.8-1.1c0.7-0.7,1.1-1.7,1.1-2.7c0-0.1,0-0.1,0-0.2c0.1,0,0.1,0,0.2,0
			c1,0,2-0.4,2.8-1.1c0.7-0.7,1.1-1.7,1.1-2.7c0-0.1,0-0.1,0-0.2c0.1,0,0.1,0,0.2,0c1,0,2-0.4,2.8-1.1c1.4-1.4,1.5-3.6,0.3-5.1
			l6.9-6.7c0.3-0.3,0.8-0.5,1.3-0.5s0.9,0.2,1.3,0.5c0.3,0.3,0.5,0.8,0.5,1.3c0,0.5-0.2,0.9-0.5,1.3l-1,1l-3.7,3.6
			c-0.4,0.4-0.4,1,0,1.4c0.2,0.2,0.5,0.3,0.7,0.3c0.3,0,0.5-0.1,0.7-0.3l3.7-3.6c0.7-0.7,1.9-0.7,2.6,0c0.7,0.7,0.7,1.8,0,2.5l-1,1
			l-2.7,2.6c-0.4,0.4-0.4,1,0,1.4c0.2,0.2,0.5,0.3,0.7,0.3s0.5-0.1,0.7-0.3l2.7-2.6c0.3-0.3,0.8-0.5,1.3-0.5c0.5,0,0.9,0.2,1.3,0.5
			c0.3,0.3,0.5,0.8,0.5,1.3s-0.2,0.9-0.5,1.3l-1.4,1.4l-1.3,1.2c-0.4,0.4-0.4,1,0,1.4c0.2,0.2,0.5,0.3,0.7,0.3
			c0.3,0,0.5-0.1,0.7-0.3l1.3-1.2c0.7-0.7,1.9-0.7,2.6,0c0.7,0.7,0.7,1.8,0,2.5l-10.1,9.8c-2.5,2.5-5.9,3.9-9.4,4
			c-0.3,0-0.5,0.1-0.7,0.3l-9.3,9.1c-0.4,0.4-0.4,1,0,1.4c0.2,0.2,0.5,0.3,0.7,0.3c0.3,0,0.5-0.1,0.7-0.3l6.8-6.7
			c1.7,1.1,3.8,1.6,5.9,1.5l5.3,5.2c0.2,0.2,0.5,0.3,0.7,0.3c0.3,0,0.5-0.1,0.7-0.3c0.4-0.4,0.4-1,0-1.4L73.2,633.7z M63.2,596h7.1
			c1.3,0,2.6,0.5,3.5,1.5l0,0l-6.2,6l-2.8-2.8c0.3,0.1,0.7,0.1,1,0.1c0,0,0,0,0,0l2.8,0c0.6,0,1-0.5,1-1c0-0.6-0.5-1-1-1
			c0,0,0,0,0,0l-2.8,0c0,0,0,0,0,0c-0.7,0-1.4-0.3-1.9-0.7c-0.5-0.5-0.8-1.1-0.8-1.8L63.2,596L63.2,596z M55.3,620.6
			c-0.3,0.3-0.8,0.5-1.3,0.5c-0.5,0-0.9-0.2-1.3-0.5l-2.8-2.7c-0.7-0.7-0.7-1.8,0-2.5c0.3-0.3,0.8-0.5,1.3-0.5
			c0.5,0,0.9,0.2,1.3,0.5l2.8,2.7C56,618.8,56,619.9,55.3,620.6z M59.9,615.4c0,0.5-0.2,0.9-0.5,1.3c-0.7,0.7-1.9,0.7-2.6,0
			l-2.8-2.7l-1.4-1.4c-0.7-0.7-0.7-1.8,0-2.5c0.3-0.3,0.8-0.5,1.3-0.5c0.5,0,0.9,0.2,1.3,0.5l4.2,4.1c0,0,0,0,0,0
			C59.7,614.4,59.9,614.9,59.9,615.4z M63.9,611.4c0,0.5-0.2,0.9-0.5,1.3c-0.7,0.7-1.9,0.7-2.6,0l-5.2-5.1c-0.3-0.3-0.5-0.8-0.5-1.3
			c0-0.5,0.2-0.9,0.5-1.3c0.4-0.3,0.8-0.5,1.3-0.5c0.5,0,0.9,0.2,1.3,0.5l2.4,2.3l2.8,2.8h0C63.7,610.5,63.9,610.9,63.9,611.4z
			 M67.4,608.7c-0.7,0.7-1.9,0.7-2.6,0l-5.2-5.1c0,0,0,0,0,0l-1-1c-0.7-0.7-0.7-1.8,0-2.5c0.4-0.3,0.8-0.5,1.3-0.5
			c0.5,0,0.9,0.2,1.3,0.5l6.2,6.1c0.3,0.3,0.5,0.8,0.5,1.3C68,607.9,67.8,608.4,67.4,608.7z"/>
	</g>
</g>
</svg>
