<?xml version="1.0" encoding="utf-8"?>
<!-- Generator: Adobe Illustrator 25.0.0, SVG Export Plug-In . SVG Version: 6.00 Build 0)  -->
<svg version="1.1" id="Layer_1" xmlns="http://www.w3.org/2000/svg" xmlns:xlink="http://www.w3.org/1999/xlink" x="0px" y="0px"
	 viewBox="0 0 100 100" style="enable-background:new 0 0 100 100;" xml:space="preserve">
<style type="text/css">
	.st0{fill-rule:evenodd;clip-rule:evenodd;fill:#FFE808;}
	.st1{fill:#0C2534;}
	.st2{fill-rule:evenodd;clip-rule:evenodd;fill:#F4A422;}
	.st3{fill-rule:evenodd;clip-rule:evenodd;fill:#EDC17C;}
	.st4{fill-rule:evenodd;clip-rule:evenodd;fill:#E8821C;}
	.st5{fill-rule:evenodd;clip-rule:evenodd;fill:#EFCCBF;}
	.st6{fill-rule:evenodd;clip-rule:evenodd;fill:#676B7F;}
	.st7{fill-rule:evenodd;clip-rule:evenodd;fill:#F4C167;}
	.st8{fill-rule:evenodd;clip-rule:evenodd;fill:#4A4A56;}
	.st9{fill-rule:evenodd;clip-rule:evenodd;fill:#D8B4AD;}
	.st10{fill-rule:evenodd;clip-rule:evenodd;fill:#B93128;}
	.st11{fill-rule:evenodd;clip-rule:evenodd;fill:#205F89;}
	.st12{fill-rule:evenodd;clip-rule:evenodd;fill:#0C2534;}
</style>
<g transform="translate(-151 -237)">
	<g>
		<path class="st0" d="M153.5,287.5c0-26.5,21.5-48,48-48s48,21.5,48,48s-21.5,48-48,48S153.5,314,153.5,287.5z"/>
		<path class="st1" d="M201.5,337c-27.3,0-49.5-22.2-49.5-49.5c0-27.3,22.2-49.5,49.5-49.5c27.3,0,49.5,22.2,49.5,49.5
			C251,314.8,228.8,337,201.5,337z M201.5,241c-25.6,0-46.5,20.9-46.5,46.5c0,25.6,20.9,46.5,46.5,46.5c25.6,0,46.5-20.9,46.5-46.5
			C248,261.9,227.1,241,201.5,241z"/>
	</g>
	<g>
		<path class="st2" d="M197.3,282.7l-3.6-0.4c-4.1-0.4-7.7-3-9.2-6.9l-2.4-6c-0.4-0.9,0.1-2,1-2.4h0.1l19.3-6.9
			c0.9-0.4,2,0.2,2.4,1.1l2,6c1.2,3.6,0.5,7.7-2.1,10.6l-2.5,2.8l9.8,25.5h3.7c0.7,0,1.5,0.5,1.6,1.2l0.5,1.4l-13.5,5.3l-0.6-1.4
			c-0.3-0.7-0.1-1.5,0.5-2l2.7-2.6L197.3,282.7z"/>
	</g>
	<g>
		<path class="st3" d="M201.5,276l-1.4-1.3c4.4-4-0.1-10.6-0.1-10.7l1.7-1C201.9,263.4,206.9,271,201.5,276z"/>
	</g>
	<g>
		<path class="st4" d="M217.5,307.2c-0.3-0.7-0.9-1.2-1.6-1.2h-3.6l-5,2l-2.6,2.6c-0.5,0.6-0.7,1.3-0.5,2l0.5,1.4l13.3-5.3
			L217.5,307.2z"/>
	</g>
	<g>
		<path class="st5" d="M215.9,296l-5.1-13.8c-0.4-0.9-1.4-1.4-2.3-1.1h-0.1l-9.9,4.3c-0.5,0.3-0.9,0.7-1.1,1.3l-0.7,3.6l-22.6,9V312
			l26.2-10.8l6.7,0.8c0.4,0,0.7,0,1-0.2l7.1-3.5C215.8,297.8,216.2,296.9,215.9,296z"/>
	</g>
	<g>
		<path class="st6" d="M196.3,290l-9.3,3.7l3.7,11.3l9.3-3.8L196.3,290z"/>
	</g>
	<g>
		<path class="st7" d="M219.5,263v0.9c0,3.1-2.5,5.6-5.5,5.6c3,0,5.5,2.5,5.5,5.6v0.9v-0.9c0-3.1,2.5-5.6,5.5-5.6
			c-3,0-5.5-2.5-5.5-5.6V263z"/>
	</g>
	<g>
		<path class="st7" d="M179.5,281v0.9c0,3.1-2.5,5.6-5.5,5.6c3,0,5.5,2.5,5.5,5.6v0.9v-0.9c0-3.1,2.5-5.6,5.5-5.6
			c-3,0-5.5-2.5-5.5-5.6V281z"/>
	</g>
	<g>
		<path class="st7" d="M222.5,281v0.9c0,3.1-2.5,5.6-5.5,5.6c3,0,5.5,2.5,5.5,5.6v0.9v-0.9c0-3.1,2.5-5.6,5.5-5.6
			c-3,0-5.5-2.5-5.5-5.6V281z"/>
	</g>
	<g>
		<path class="st8" d="M191,304.9l-17,7.1v-12.6l13.4-5.4L191,304.9z"/>
	</g>
	<g>
		<path class="st8" d="M193.1,301l1.9-0.6l-3.1-8.4l-1.9,0.7L193.1,301z"/>
	</g>
	<g>
		<path class="st9" d="M211.4,284l-5.4,1.6l0.6,1.4l5.4-1.5L211.4,284z"/>
	</g>
	<g>
		<path class="st9" d="M213.3,289l-5.3,1.5l0.6,1.5l5.4-1.5L213.3,289z"/>
	</g>
	<g>
		<path class="st9" d="M215.3,293l-5.3,2.1l0.6,1.9l5.4-1.9L215.3,293z"/>
	</g>
	<g>
		<path class="st10" d="M197.3,282.7l-3.6-0.4c-4.1-0.4-7.7-3-9.2-6.9l-2.4-6c-0.4-0.9,0.1-2,1-2.4h0.1l19.3-6.9
			c0.9-0.4,2,0.2,2.4,1.1l2,6c1.2,3.6,0.5,7.7-2.1,10.6l-2.5,2.8l9.8,25.5h3.7c0.7,0,1.5,0.5,1.6,1.2l0.5,1.4l-13.5,5.3l-0.6-1.4
			c-0.3-0.7-0.1-1.5,0.5-2l2.7-2.6L197.3,282.7z"/>
	</g>
	<g>
		<path class="st11" d="M217.5,307.2c-0.3-0.7-0.9-1.2-1.6-1.2h-3.6l-5,2l-2.6,2.6c-0.5,0.6-0.7,1.3-0.5,2l0.5,1.4l13.3-5.3
			L217.5,307.2z"/>
	</g>
	<g>
		<path class="st0" d="M215.9,296l-5.1-13.8c-0.4-0.9-1.4-1.4-2.3-1.1h-0.1l-9.9,4.3c-0.5,0.3-0.9,0.7-1.1,1.3l-0.7,3.6l-22.6,9V312
			l26.2-10.8l6.7,0.8c0.4,0,0.7,0,1-0.2l7.1-3.5C215.8,297.8,216.2,296.9,215.9,296z"/>
	</g>
	<g>
		<path class="st11" d="M196.3,290l-9.3,3.7l3.7,11.3l9.3-3.8L196.3,290z"/>
	</g>
	<g>
		<path class="st0" d="M219.5,263v0.9c0,3.1-2.5,5.6-5.5,5.6c3,0,5.5,2.5,5.5,5.6v0.9v-0.9c0-3.1,2.5-5.6,5.5-5.6
			c-3,0-5.5-2.5-5.5-5.6V263z"/>
	</g>
	<g>
		<path class="st0" d="M179.5,281v0.9c0,3.1-2.5,5.6-5.5,5.6c3,0,5.5,2.5,5.5,5.6v0.9v-0.9c0-3.1,2.5-5.6,5.5-5.6
			c-3,0-5.5-2.5-5.5-5.6V281z"/>
	</g>
	<g>
		<path class="st0" d="M222.5,281v0.9c0,3.1-2.5,5.6-5.5,5.6c3,0,5.5,2.5,5.5,5.6v0.9v-0.9c0-3.1,2.5-5.6,5.5-5.6
			c-3,0-5.5-2.5-5.5-5.6V281z"/>
	</g>
	<g>
		<path class="st11" d="M191,304.9l-17,7.1v-12.6l13.4-5.4L191,304.9z"/>
	</g>
	<g>
		<path class="st8" d="M193.1,301l1.9-0.6l-3.1-8.4l-1.9,0.7L193.1,301z"/>
	</g>
	<g>
		<path class="st9" d="M211.4,284l-5.4,1.6l0.6,1.4l5.4-1.5L211.4,284z"/>
	</g>
	<g>
		<path class="st9" d="M213.3,289l-5.3,1.5l0.6,1.5l5.4-1.5L213.3,289z"/>
	</g>
	<g>
		<path class="st9" d="M215.3,293l-5.3,2.1l0.6,1.9l5.4-1.9L215.3,293z"/>
	</g>
	<g>
		<path class="st12" d="M218.6,275.1v0.9h1.8v-0.9c0-2.6,2-4.6,4.6-4.6v-1.9c-2.6,0-4.6-2-4.6-4.6V263h-1.8v0.9c0,2.6-2,4.6-4.6,4.6
			v1.9C216.6,270.4,218.6,272.5,218.6,275.1z M219.5,267.3c0.6,0.9,1.3,1.7,2.2,2.2c-0.9,0.6-1.6,1.3-2.2,2.2
			c-0.6-0.9-1.3-1.7-2.2-2.2C218.2,268.9,218.9,268.2,219.5,267.3z"/>
	</g>
	<g>
		<path class="st12" d="M178.6,293.1v0.9h1.8v-0.9c0-2.6,2-4.6,4.6-4.6v-1.9c-2.6,0-4.6-2-4.6-4.6V281h-1.8v0.9c0,2.6-2,4.6-4.6,4.6
			v1.9C176.6,288.4,178.6,290.5,178.6,293.1z M179.5,285.3c0.6,0.9,1.3,1.7,2.2,2.2c-0.9,0.6-1.6,1.3-2.2,2.2
			c-0.6-0.9-1.3-1.7-2.2-2.2C178.2,286.9,178.9,286.2,179.5,285.3z"/>
	</g>
	<g>
		<path class="st12" d="M216.5,305.1h-3.1l-1.7-3.9l4.1-2c1.3-0.6,1.8-2.1,1.4-3.4L212,282c-0.6-1.5-2.1-2.1-3.6-1.6
			c0,0-0.1,0-0.1,0.1l-3.9,1.6l-0.5-1.3l2.1-2.5c1.5-1.6,2.4-3.6,2.7-5.8l2.7-3.2c1.8-2,1.4-5-0.6-6.7c-0.4-0.3-0.7-0.5-1.1-0.7
			c-1-0.5-2-0.5-3.1-0.3l-0.3-0.8c-0.5-1.5-2.1-2.2-3.5-1.6l-19.5,6.9c-1.5,0.5-2.2,2.1-1.7,3.4v0.1l0.5,1.2
			c-2.4,1.1-3.5,3.8-2.7,6.2c0.6,1.8,2.3,3.1,4.3,3.4l4.3,0.5c1.8,1.3,3.9,2.1,6,2.3l3.1,0.3l0.6,1.4c-0.6,0.4-1.1,1-1.3,1.8
			l-0.6,3.1l-22.6,9l0.6,1.7l13-5.1l3.1,9.3l-16.7,6.8l0.7,1.6l26.6-10.8l4.6,0.5l1.7,5l-2.2,2.1c-0.8,0.7-1.1,1.9-0.6,3l0.9,2.3
			l15.4-5.9l-0.8-2.2C218.6,305.7,217.6,305.1,216.5,305.1z M211.5,305.3l-3.3,1.1l-1.2-3.4c0.6,0.1,1,0,1.5-0.3l1.6-0.7
			L211.5,305.3z M209,281.9c0.5-0.2,1,0,1.2,0.5l0.7,1.9l-4.5,1.5l0.6,1.7l4.5-1.5l1.1,2.9l-4.3,1.5l0.6,1.7l4.4-1.5l1.1,2.9
			l-4.3,1.4l0.6,1.7l4.3-1.5l0.5,1.2c0.2,0.5,0,0.9-0.5,1.1l-7.3,3.5c-0.2,0.1-0.4,0.1-0.6,0.1l-6.3-0.7l-3.4-10.1l0.6-3.4
			c0.1-0.3,0.3-0.5,0.6-0.6L209,281.9z M208.9,263.5c1.5,0.6,2.2,2.4,1.6,3.9c-0.1,0.3-0.3,0.5-0.5,0.7l-1.1,1.4
			c-0.1-0.9-0.3-1.7-0.6-2.6l-1.2-3.5C207.8,263.3,208.3,263.4,208.9,263.5z M181.1,276.5c-0.6-1.5,0.1-3.2,1.6-3.9l1.3,3.1
			c0.5,1.1,1.1,2.2,1.9,3.1l-1.9-0.2C182.6,278.5,181.5,277.7,181.1,276.5z M194.3,281.3c-3.8-0.4-7.1-2.7-8.5-6.3l-2.4-6
			c-0.2-0.5,0-1,0.5-1.2l19.5-6.9c0.3-0.1,0.5-0.1,0.7,0c0.2,0.1,0.4,0.3,0.5,0.5l2,6c1.1,3.4,0.4,7-1.9,9.6l-2.9,3.3l0.8,2.2
			l-3.3,1.4l-0.9-2.3L194.3,281.3z M188.4,294.5l2.1-0.8l2.3,6.9l1.8-0.5l-2.4-7.1l3.7-1.5l3.1,9.2l-7.5,3.1L188.4,294.5z
			 M205.7,312.6l-0.3-0.5c-0.1-0.4,0-0.7,0.2-1l3.1-2.9l4-1.3h3.7c0.4,0,0.7,0.3,0.8,0.5l0.2,0.5L205.7,312.6z"/>
	</g>
	<g>
		<path class="st12" d="M223.4,281.9V281h-1.8v0.9c0,2.6-2,4.6-4.6,4.6v1.9c2.6,0,4.6,2,4.6,4.6v0.9h1.8v-0.9c0-2.6,2-4.6,4.6-4.6
			v-1.9C225.4,286.6,223.4,284.5,223.4,281.9z M222.5,289.7c-0.6-0.9-1.3-1.7-2.2-2.2c0.9-0.6,1.6-1.3,2.2-2.2
			c0.6,0.9,1.3,1.7,2.2,2.2C223.8,288.1,223.1,288.8,222.5,289.7z"/>
	</g>
	<g>
		<path class="st12" d="M200.2,274.7l1.4,1.3c5.3-5,0.4-12.7,0.1-13l-1.6,1C200.1,264,204.4,270.7,200.2,274.7z"/>
	</g>
</g>
</svg>
