<?xml version="1.0" encoding="utf-8"?>
<!-- Generator: Adobe Illustrator 25.0.0, SVG Export Plug-In . SVG Version: 6.00 Build 0)  -->
<svg version="1.1" id="Layer_1" xmlns="http://www.w3.org/2000/svg" xmlns:xlink="http://www.w3.org/1999/xlink" x="0px" y="0px"
	 viewBox="0 0 100 101" style="enable-background:new 0 0 100 101;" xml:space="preserve">
<style type="text/css">
	.st0{fill:none;}
	.st1{fill-rule:evenodd;clip-rule:evenodd;fill:#FFE808;}
	.st2{fill:#0C2534;}
	.st3{fill-rule:evenodd;clip-rule:evenodd;fill:#205F89;}
	.st4{fill-rule:evenodd;clip-rule:evenodd;fill:#B93128;}
	.st5{fill-rule:evenodd;clip-rule:evenodd;fill:#0C2534;}
	.st6{fill-rule:evenodd;clip-rule:evenodd;}
</style>
<g>
	<rect y="0" class="st0" width="100" height="101"/>
</g>
<g transform="translate(-117 -860)">
	<g>
		<path class="st1" d="M119.5,910.5c0-26.5,21.5-48,48-48s48,21.5,48,48s-21.5,48-48,48S119.5,937,119.5,910.5z"/>
		<path class="st2" d="M167.5,960c-27.3,0-49.5-22.2-49.5-49.5c0-27.3,22.2-49.5,49.5-49.5c27.3,0,49.5,22.2,49.5,49.5
			C217,937.8,194.8,960,167.5,960z M167.5,864c-25.6,0-46.5,20.9-46.5,46.5c0,25.6,20.9,46.5,46.5,46.5c25.6,0,46.5-20.9,46.5-46.5
			C214,884.9,193.1,864,167.5,864z"/>
	</g>
	<g>
		<path class="st3" d="M176.7,925.9c0.4,0.7,0.6,1.5,0.6,2.3c0,2.8-2.3,5.1-5.1,5.1c-1.1,2.6-3.9,4.1-6.8,3.6
			c-2.8-0.6-4.9-3-4.9-5.9c0,2.9-2,5.3-4.9,5.9c-2.8,0.6-5.7-0.9-6.8-3.6c-2.8,0-5.1-2.3-5.1-5.1c0-0.8,0.2-1.6,0.6-2.3
			c-1.9-0.1-3.5-1.4-4.1-3.2c-0.6-1.8,0.1-3.8,1.6-5c-1.2-1.2-1.8-2.8-1.8-4.4s0.8-3.2,2.1-4.3c-0.1-0.5-0.2-1-0.2-1.5
			c0-3,2.4-5.4,5.4-5.5c-0.7-1.1-0.9-2.4-0.5-3.6c0.4-1.2,1.3-2.2,2.6-2.6l0,0c9.5-6.9,11.6-2.3,12-0.8c-1.7,5.1-0.8,10.6,2.4,14.9
			c3.2,4.3,8.2,6.8,13.6,6.8c0.1,0,0.2,0,0.3,0c1.6,0.8,3.4,2.3,3.4,4.6C181,923.7,179.1,925.7,176.7,925.9z"/>
	</g>
	<g>
		<path class="st4" d="M194,900.5c0,9.1-7.4,16.5-16.5,16.5s-16.5-7.4-16.5-16.5s7.4-16.5,16.5-16.5S194,891.4,194,900.5z"/>
	</g>
	<g>
		<path class="st1" d="M190,900c0,7.2-5.8,13-13,13s-13-5.8-13-13s5.8-13,13-13S190,892.8,190,900z"/>
	</g>
	<g>
		<path class="st4" d="M180,932v2.1c0,1.6-1.6,2.9-3.5,2.9s-3.5-1.3-3.5-2.9V932H180z"/>
	</g>
	<g>
		<path class="st1" d="M173,921h7v11h-7V921z"/>
	</g>
	<g>
		<path class="st4" d="M180,916.2v4.8h-7v-5L180,916.2z"/>
	</g>
	<g>
		<path class="st5" d="M152.2,914.2c1.7-0.1,3.4-0.8,4.6-2.1c0.3-0.4,0.3-1,0-1.3c-0.4-0.4-0.9-0.4-1.3,0c-1.4,1.5-3.6,2-5.5,1.1
			c-1.9-0.8-3.1-2.7-3.1-4.9c0-0.5-0.4-1-0.9-1c-0.5,0-0.9,0.4-0.9,1c0,3.3,2.2,6.2,5.3,7c-0.4,1.2-1.4,2-2.6,2.1
			c-0.5,0.1-0.8,0.5-0.8,1c0,0.5,0.4,0.9,0.9,0.9c0,0,0.1,0,0.1,0C149.9,917.7,151.6,916.2,152.2,914.2z"/>
	</g>
	<g>
		<path class="st5" d="M156.1,919c-3.5,0-6.3,2.9-6.3,6.5c0,0,0,0.1,0,0.1c-0.3,0-0.6-0.1-0.9-0.1c-0.5,0-0.9,0.4-0.9,0.9
			c0,0.5,0.4,0.9,0.9,0.9c2.5,0,4.5,2.1,4.5,4.7c0,0.5,0.4,0.9,0.9,0.9c0.5,0,0.9-0.4,0.9-0.9c0-2.5-1.4-4.8-3.5-5.9
			c0-0.2,0-0.4-0.1-0.7c0-2.6,2-4.7,4.5-4.7c0.5,0,0.9-0.4,0.9-0.9C157,919.4,156.6,919,156.1,919z"/>
	</g>
	<g>
		<path class="st6" d="M177.5,883c-8.8,0-16.2,6.4-17.4,15.1c-1.2,8.6,4.3,16.8,12.8,19.1v16.7c0,2.3,1.9,4.1,4.1,4.1
			s4.1-1.8,4.1-4.1v-16.4c8.7-1.9,14.6-10,13.7-18.9C194,889.7,186.5,883,177.5,883z M174.8,922.4h4.6v8.2h-4.6V922.4z M177.1,936.2
			c-1.3,0-2.3-1-2.3-2.3v-1.4h4.6v1.4C179.4,935.1,178.3,936.2,177.1,936.2z M179.4,920.6h-4.6v-3c0.9,0.2,1.8,0.2,2.8,0.2
			c0.6,0,1.2,0,1.8-0.1V920.6z M177.5,916c-8.7,0-15.7-7-15.7-15.6c0-8.6,7-15.6,15.7-15.6s15.7,7,15.7,15.6
			C193.2,909,186.2,916,177.5,916z"/>
	</g>
	<g>
		<path class="st6" d="M177,886c-7.7,0-14,6.3-14,14s6.3,14,14,14s14-6.3,14-14C191,892.3,184.7,886,177,886z M177,912.1
			c-6.7,0-12.1-5.4-12.1-12.1s5.4-12.1,12.1-12.1s12.1,5.4,12.1,12.1C189.1,906.7,183.7,912.1,177,912.1z"/>
	</g>
	<g>
		<path class="st5" d="M143,926.6c-0.5,1.7-0.2,3.6,0.8,5c1,1.5,2.6,2.4,4.4,2.6c1.2,2.3,3.5,3.7,6.1,3.7c2.6,0,4.9-1.3,6.2-3.5
			c1.2,2.2,3.6,3.5,6.1,3.5c1.5,0,2.9-0.5,4.1-1.4c0.4-0.3,0.5-0.9,0.2-1.3c-0.3-0.4-0.9-0.5-1.3-0.2c-0.9,0.6-1.9,1-3,1
			c-2.8,0-5.1-2.3-5.1-5.1s2.3-5.1,5.1-5.1c0.5,0,0.9-0.4,0.9-0.9c0-0.5-0.4-0.9-0.9-0.9c-1.9,0-3.8,0.8-5.1,2.2v-14.6
			c0-0.5-0.4-0.9-0.9-0.9s-0.9,0.4-0.9,0.9V931c0,2.4-1.7,4.5-4.1,5c-2.4,0.5-4.8-0.8-5.7-3c-0.1-0.3-0.5-0.6-0.9-0.6
			c-2.3,0-4.2-1.9-4.2-4.2c0-0.7,0.2-1.3,0.5-1.9c0.1-0.3,0.1-0.6,0-0.9c-0.2-0.3-0.4-0.5-0.7-0.5c-1.9-0.2-3.4-1.8-3.4-3.7
			c0-0.9,0.3-1.7,0.9-2.4c1.2,0.9,2.7,1.4,4.3,1.4c0.5,0,0.9-0.4,0.9-0.9c0-0.5-0.4-0.9-0.9-0.9c-2.1,0-4-1.3-4.8-3.3
			c-0.8-2-0.2-4.2,1.4-5.6c0.2-0.2,0.4-0.6,0.3-0.9c-0.1-0.4-0.2-0.8-0.2-1.2c0-2.6,2.1-4.6,4.7-4.6c2.6,0,4.7,2.1,4.7,4.6
			c0,0.5,0.4,0.9,0.9,0.9c0.5,0,0.9-0.4,0.9-0.9c0-3.5-2.7-6.3-6.2-6.5c-0.4-0.8-0.4-1.8-0.1-2.6c0.4-0.9,1.1-1.5,1.9-1.8
			c0.3-0.1,0.7-0.2,1.1-0.2c0.9,0,1.7,0.3,2.3,0.9c0.6,0.6,1,1.4,1,2.3c0,0.5,0.4,0.9,0.9,0.9c0.5,0,0.9-0.4,0.9-0.9
			c0-2.2-1.4-4.1-3.5-4.8c3.3-2,5-2,5.8-1.7c0.3,0.1,0.7,0.1,0.9-0.2c0.3-0.2,0.4-0.6,0.3-0.9c-0.1-0.3-0.3-0.6-0.7-0.7
			c-2.3-0.7-5.5,0.5-9.8,3.6c-2.5,1-3.8,3.8-3,6.3c-3.4,0.8-5.5,4.1-4.8,7.5c-2.4,2.5-2.7,6.3-0.6,9c-0.9,1-1.4,2.3-1.4,3.7
			C139,923.8,140.6,925.9,143,926.6z"/>
	</g>
</g>
</svg>
