<?xml version="1.0" encoding="utf-8"?>
<!-- Generator: Adobe Illustrator 25.0.0, SVG Export Plug-In . SVG Version: 6.00 Build 0)  -->
<svg version="1.1" id="Layer_1" xmlns="http://www.w3.org/2000/svg" xmlns:xlink="http://www.w3.org/1999/xlink" x="0px" y="0px"
	 viewBox="0 0 100 100" style="enable-background:new 0 0 100 100;" xml:space="preserve">
<style type="text/css">
	.st0{fill:none;}
	.st1{fill-rule:evenodd;clip-rule:evenodd;fill:#FFE808;}
	.st2{fill:#0C2534;}
	.st3{fill-rule:evenodd;clip-rule:evenodd;fill:#205F89;}
	.st4{fill-rule:evenodd;clip-rule:evenodd;fill:#B93128;}
	.st5{fill-rule:evenodd;clip-rule:evenodd;fill:#0C2534;}
</style>
<g>
	<rect y="0" class="st0" width="100" height="100"/>
</g>
<g transform="translate(59 -807)">
	<g>
		<path class="st1" d="M-56.5,857.5c0-26.5,21.5-48,48-48s48,21.5,48,48s-21.5,48-48,48S-56.5,884-56.5,857.5z"/>
		<path class="st2" d="M-8.5,907c-27.3,0-49.5-22.2-49.5-49.5c0-27.3,22.2-49.5,49.5-49.5c27.3,0,49.5,22.2,49.5,49.5
			C41,884.8,18.8,907-8.5,907z M-8.5,811c-25.6,0-46.5,20.9-46.5,46.5c0,25.6,20.9,46.5,46.5,46.5c25.6,0,46.5-20.9,46.5-46.5
			C38,831.9,17.1,811-8.5,811z"/>
	</g>
	<g>
		<path class="st3" d="M12.6,855.5c1.2,2.1-0.2,4.7-2.6,4.8c-8.8,0.3-17.7,2.5-26.1,6.8l-2.8,1.6c0,0,0-0.1,6.7,11.7
			c0.6,1.1,0.3,2.4-0.8,3.1l-2.2,1.3c-1.1,0.6-2.5,0.3-3.1-0.8l-6.8-11.7l-1.1,0.6c-2.2,1.2-4.9,0.5-6.2-1.6l-5.1-8.7
			c-1.2-2.1-0.5-4.9,1.7-6.1l10-5.7c7.6-4.9,14.1-11.4,19-19.1c1.3-2,4.3-2,5.5,0.1l4.3,7.5c2.5-1.4,5.7-0.6,7.1,1.9
			c1.4,2.5,0.6,5.7-1.9,7.1L12.6,855.5z"/>
	</g>
	<g>
		<path class="st4" d="M10.3,840.7c1.5,2.6,0.6,5.8-2,7.3L3,838.7C5.6,837.2,8.8,838.1,10.3,840.7z"/>
	</g>
	<g>
		<path class="st1" d="M-25.7,850l9.7,16.6c-1.9,1.1-8.1,4.7-10.1,5.8c-2.2,1.2-5,0.5-6.2-1.7l-5.1-8.8c-1.3-2.2-0.5-4.9,1.7-6.2
			L-25.7,850z"/>
	</g>
	<g>
		<path class="st5" d="M9.5,848.2c3.9-3.2,2.6-9.5-2.3-10.8c-1.3-0.3-2.6-0.3-3.8,0.2l-3.9-6.7c-1.6-2.7-5.5-2.8-7.2-0.1
			c-4.8,7.6-11.1,14-18.7,18.9c-0.4,0.3-0.6,0.9-0.3,1.3c0,0.1,6.5,11.2,6.5,11.3c0.3,0.5,0.9,0.6,1.4,0.4c0.5-0.3,0.6-0.9,0.4-1.4
			l-6-10.4c7.2-4.8,13.6-11.2,18.5-19c0.9-1.4,2.9-1.4,3.7,0.1l13.9,24.1c0.8,1.4-0.2,3.2-1.8,3.3c-9.2,0.4-18.2,2.7-26.5,6.9
			c0,0-9.4,5.4-10,5.8c-1.7,1-3.8,0.4-4.8-1.3l-5.1-8.8c-1-1.7-0.4-3.8,1.3-4.8l6.1-3.5c0.5-0.3,0.6-0.9,0.4-1.4
			c-0.3-0.5-0.9-0.6-1.4-0.4l-6.1,3.5c-2.6,1.5-3.5,4.9-2,7.5l5.1,8.8c1.5,2.6,4.9,3.5,7.5,2l0.2-0.1l6.3,10.8
			c0.9,1.6,2.9,2.1,4.4,1.2l2.2-1.3c1.6-0.9,2.1-2.9,1.2-4.4l-4.4-7.7c-0.3-0.5-0.9-0.6-1.4-0.4c-0.5,0.3-0.6,0.9-0.4,1.4l4.4,7.7
			c0.3,0.6,0.1,1.4-0.5,1.7l-2.2,1.3c-0.6,0.3-1.4,0.1-1.7-0.5l-6.3-10.8l8-4.6c7.8-4,16.6-6.4,25.6-6.7c3.2-0.1,5-3.6,3.5-6.3
			L9.5,848.2z M9.2,841.3c1,1.7,0.6,3.8-0.7,5.1l-4.1-7.1C6.2,838.8,8.2,839.5,9.2,841.3z M19,836.8l-2.6,1.5
			c-0.5,0.3-1.1,0.1-1.4-0.4c-0.3-0.5-0.1-1.1,0.4-1.4l2.6-1.5c0.5-0.3,1.1-0.1,1.4,0.4C19.7,835.9,19.5,836.5,19,836.8z M7.9,831.1
			l0.6-2.4c0.1-0.5,0.7-0.9,1.2-0.7c0.5,0.1,0.9,0.7,0.7,1.2l-0.6,2.4c-0.1,0.5-0.7,0.9-1.2,0.7C8.1,832.2,7.7,831.6,7.9,831.1z
			 M21,847.5c-0.1,0.4-0.5,0.7-1,0.7c-0.2,0-0.1,0-2.6-0.7c-0.5-0.1-0.9-0.7-0.7-1.2s0.7-0.9,1.2-0.7l2.4,0.6
			C20.8,846.4,21.1,847,21,847.5z"/>
	</g>
</g>
</svg>
