<?xml version="1.0" encoding="utf-8"?>
<!-- Generator: Adobe Illustrator 25.0.0, SVG Export Plug-In . SVG Version: 6.00 Build 0)  -->
<svg version="1.1" id="Layer_1" xmlns="http://www.w3.org/2000/svg" xmlns:xlink="http://www.w3.org/1999/xlink" x="0px" y="0px"
	 viewBox="0 0 101 101" style="enable-background:new 0 0 101 101;" xml:space="preserve">
<style type="text/css">
	.st0{fill:none;}
	.st1{fill-rule:evenodd;clip-rule:evenodd;fill:#FFE808;}
	.st2{fill:#0C2534;}
	.st3{fill-rule:evenodd;clip-rule:evenodd;fill:#B93128;}
	.st4{fill-rule:evenodd;clip-rule:evenodd;fill:#205F89;}
	.st5{fill-rule:evenodd;clip-rule:evenodd;fill:#0C2534;}
</style>
<g>
	<rect y="0" class="st0" width="101" height="101"/>
</g>
<g transform="translate(-52 -436)">
	<g>
		<path class="st1" d="M54.5,486.5c0-26.5,21.5-48,48-48c26.5,0,48,21.5,48,48s-21.5,48-48,48C76,534.5,54.5,513,54.5,486.5z"/>
		<path class="st2" d="M102.5,536C75.2,536,53,513.8,53,486.5c0-27.3,22.2-49.5,49.5-49.5c27.3,0,49.5,22.2,49.5,49.5
			C152,513.8,129.8,536,102.5,536z M102.5,440C76.9,440,56,460.9,56,486.5c0,25.6,20.9,46.5,46.5,46.5c25.6,0,46.5-20.9,46.5-46.5
			C149,460.9,128.1,440,102.5,440z"/>
	</g>
	<g>
		<path class="st3" d="M125.9,514.8l-11.7-11.7c-0.3-0.3-0.3-0.7,0-1l3.9-3.9c0.3-0.3,0.7-0.3,1,0l11.7,11.7c0.3,0.3,0.3,0.7,0,1
			l-3.9,3.9C126.6,515.1,126.1,515.1,125.9,514.8z"/>
	</g>
	<g>
		<path class="st1" d="M109.7,496.1l2.4-2.4l5.3,5.3l-2.4,2.4L109.7,496.1z"/>
	</g>
	<g>
		<path class="st1" d="M116.5,505.3l4.9-4.9l2.4,2.4l-4.9,4.9L116.5,505.3z"/>
	</g>
	<g>
		<path class="st1" d="M119,480.5c0,12.4-10.1,22.5-22.5,22.5C84.1,503,74,492.9,74,480.5S84.1,458,96.5,458
			C108.9,458,119,468.1,119,480.5z"/>
	</g>
	<g>
		<path class="st4" d="M115,480c0,10.5-8.5,19-19,19c-10.5,0-19-8.5-19-19s8.5-19,19-19C106.5,461,115,469.5,115,480z"/>
	</g>
	<g>
		<path class="st3" d="M93,481h-7v-10.5c0-0.3,0.2-0.5,0.5-0.5h6.1c0.3,0,0.5,0.2,0.5,0.5V481z"/>
	</g>
	<g>
		<path class="st1" d="M107,481h-7v-6.5c0-0.3,0.2-0.5,0.5-0.5h6.1c0.3,0,0.5,0.2,0.5,0.5V481z"/>
	</g>
	<g>
		<path class="st4" d="M100,481h-7v-14.5c0-0.3,0.2-0.5,0.5-0.5h6.1c0.3,0,0.5,0.2,0.5,0.5V481z"/>
	</g>
	<g>
		<path class="st5" d="M131.5,509.4l-0.8-0.8c-0.3-0.3-0.9-0.3-1.2,0c-0.3,0.3-0.3,0.9,0,1.2l0.7,0.7l-3.7,3.7l-6.2-6.2l3.7-3.7
			l2.9,2.9c0.3,0.3,0.9,0.3,1.2,0c0.3-0.3,0.3-0.9,0-1.2l-3.5-3.5c0,0,0,0,0,0l-2.4-2.4c0,0,0,0,0,0l-2.2-2.2
			c-0.3-0.3-0.7-0.5-1.1-0.5c-0.4,0-0.8,0.2-1.1,0.5l-0.1,0.1l-3.1-3.1c2.2-2.8,3.8-6,4.6-9.6h6.1c0.5,0,0.9-0.4,0.9-0.9
			c0-0.5-0.4-0.9-0.9-0.9h-5.8c0.1-0.6,0.1-1.1,0.2-1.7h9.7c0.5,0,0.9-0.4,0.9-0.9c0-0.5-0.4-0.9-0.9-0.9h-9.7c0-0.6,0-1.1-0.1-1.7
			h5.6c0.5,0,0.9-0.4,0.9-0.9c0-0.5-0.4-0.9-0.9-0.9h-5.8c-0.6-4-2.2-7.7-4.8-10.9c-0.3-0.4-0.8-0.4-1.2-0.1
			c-0.4,0.3-0.4,0.8-0.1,1.2c3,3.8,4.7,8.5,4.7,13.4c0,11.9-9.7,21.6-21.6,21.6c-11.9,0-21.6-9.7-21.6-21.6s9.7-21.6,21.6-21.6
			c5.4,0,10.5,2,14.5,5.6c0.4,0.3,0.9,0.3,1.2-0.1s0.3-0.9-0.1-1.2c-4.3-3.9-9.9-6.1-15.7-6.1C83.5,457,73,467.5,73,480.3
			c0,11.4,8.2,20.8,18.9,22.9v5.8c0,0.5,0.4,0.9,0.9,0.9c0.5,0,0.9-0.4,0.9-0.9v-5.6c0.6,0.1,1.1,0.1,1.7,0.1v9.5
			c0,0.5,0.4,0.9,0.9,0.9c0.5,0,0.9-0.4,0.9-0.9v-9.5c0.6,0,1.1-0.1,1.7-0.1v5.5c0,0.5,0.4,0.9,0.9,0.9c0.5,0,0.9-0.4,0.9-0.9v-5.8
			c3.9-0.7,7.5-2.4,10.4-4.7l3.1,3.1l-0.1,0.1c-0.3,0.3-0.5,0.7-0.5,1.1c0,0.4,0.2,0.8,0.5,1.1l2.2,2.2c0,0,0,0,0,0l2.4,2.4
			c0,0,0,0,0,0l7,7c0.3,0.3,0.7,0.5,1.1,0.5c0.4,0,0.8-0.2,1.1-0.5l3.9-3.9c0.3-0.3,0.5-0.7,0.5-1.1
			C132,510.1,131.8,509.7,131.5,509.4z M113.4,496.2l3,3l-1.2,1.2l-3-3C112.6,497,113,496.6,113.4,496.2z M119.1,506.7l-1.2-1.2
			l3.7-3.7l1.2,1.2L119.1,506.7z M118.9,499.2l1.4,1.4l-3.7,3.7l-1.4-1.4L118.9,499.2z"/>
	</g>
	<g>
		<path class="st5" d="M84.7,495.9c3.4,2.6,7.5,4,11.8,4.1c10.8,0,19.5-9,19.5-20s-8.7-20-19.5-20c-5.2,0-10.1,2.1-13.7,5.9
			c-3.7,3.8-5.7,8.8-5.8,14.1c-0.1,4.9,1.7,9.6,4.9,13.3c0.3,0.4,0.8,0.4,1.2,0.1c0.3-0.3,0.4-0.9,0.1-1.2
			c-2.9-3.3-4.5-7.6-4.5-12.1c0.1-4.9,1.9-9.5,5.3-12.9c3.4-3.5,7.8-5.4,12.5-5.4c9.8,0,17.8,8.2,17.8,18.3s-8,18.3-17.8,18.3
			c-4,0-7.7-1.3-10.8-3.7c-0.4-0.3-0.9-0.2-1.2,0.2C84.2,495.1,84.3,495.6,84.7,495.9z"/>
	</g>
	<g>
		<path class="st5" d="M99.6,465h-6.1c-0.7,0-1.3,0.6-1.3,1.3v3.1h-5.7c-0.7,0-1.3,0.6-1.3,1.3v9.4h-1.2c-0.5,0-0.9,0.4-0.9,0.9
			c0,0.5,0.4,0.9,0.9,0.9h25.2c0.5,0,0.9-0.4,0.9-0.9c0-0.5-0.4-0.9-0.9-0.9h-1.2v-5c0-0.7-0.6-1.3-1.3-1.3h-5.7v-7.6
			C100.9,465.6,100.3,465,99.6,465z M86.8,471.2h5.3v9h-5.3V471.2z M93.9,466.8h5.3v13.5h-5.3V466.8z M106.2,475.7v4.6h-5.3v-4.6
			H106.2z"/>
	</g>
	<g>
		<path class="st5" d="M106.1,488.9H102l-1.9-4.4c-0.1-0.3-0.5-0.5-0.8-0.5c-0.4,0-0.7,0.2-0.8,0.5l-2.5,6.3l-1.8-4.6
			c-0.1-0.3-0.4-0.5-0.7-0.5c-0.3,0-0.7,0.1-0.8,0.4l-1.7,2.8h-4.1c-0.5,0-0.9,0.4-0.9,0.8c0,0.4,0.4,0.8,0.9,0.8h4.6
			c0.3,0,0.6-0.2,0.8-0.4l1-1.7l1.9,5.1c0.1,0.3,0.4,0.5,0.8,0.5h0c0.4,0,0.7-0.2,0.8-0.5l2.6-6.4l1.2,2.9c0.1,0.3,0.5,0.5,0.8,0.5
			h4.7c0.5,0,0.9-0.4,0.9-0.8S106.6,488.9,106.1,488.9z"/>
	</g>
</g>
</svg>
