<?xml version="1.0" encoding="utf-8"?>
<!-- Generator: Adobe Illustrator 25.0.0, SVG Export Plug-In . SVG Version: 6.00 Build 0)  -->
<svg version="1.1" id="Layer_1" xmlns="http://www.w3.org/2000/svg" xmlns:xlink="http://www.w3.org/1999/xlink" x="0px" y="0px"
	 viewBox="0 0 340 340" style="enable-background:new 0 0 340 340;" xml:space="preserve">
<style type="text/css">
	.st0{fill-rule:evenodd;clip-rule:evenodd;fill:#FFE808;}
	.st1{fill:#0C2534;}
	.st2{fill-rule:evenodd;clip-rule:evenodd;fill:#205F89;}
	.st3{fill-rule:evenodd;clip-rule:evenodd;fill:#FCE807;}
	.st4{fill-rule:evenodd;clip-rule:evenodd;fill:#E27F45;}
	.st5{fill-rule:evenodd;clip-rule:evenodd;fill:#B93228;}
	.st6{fill-rule:evenodd;clip-rule:evenodd;fill:#0C2534;}
</style>
<g>
	<path class="st0" d="M5,170C5,78.9,78.9,5,170,5s165,73.9,165,165s-73.9,165-165,165S5,261.1,5,170z"/>
	<path class="st1" d="M170,340.2C76.2,340.2-0.2,263.8-0.2,170S76.2-0.2,170-0.2S340.2,76.2,340.2,170S263.8,340.2,170,340.2z
		 M170,10.2C81.9,10.2,10.2,81.9,10.2,170c0,88.1,71.7,159.8,159.8,159.8c88.1,0,159.8-71.7,159.8-159.8
		C329.8,81.9,258.1,10.2,170,10.2z"/>
</g>
<g>
	<path class="st2" d="M165,74l-92,82.5V258h184V156.5L165,74z"/>
</g>
<g>
	<path class="st3" d="M232,258H99V112.3L124.3,87H232V258z"/>
</g>
<g>
	<path class="st4" d="M127,141h76v6h-76V141z"/>
</g>
<g>
	<path class="st4" d="M134,128h63v7h-63V128z"/>
</g>
<g>
	<path class="st4" d="M127,166h76v6h-76V166z"/>
</g>
<g>
	<path class="st4" d="M134,153h63v7h-63V153z"/>
</g>
<g>
	<path class="st5" d="M73,258l92-63l92,63H73z"/>
</g>
<g>
	<path class="st5" d="M73,157l83,44.3L73,258V157z"/>
</g>
<g>
	<path class="st5" d="M257,157l-83,44.3l83,56.7V157z"/>
</g>
<g>
	<path class="st3" d="M124,112H99l25-25V112z"/>
</g>
<g>
	<path class="st6" d="M127,141h76v6h-76V141z"/>
</g>
<g>
	<path class="st6" d="M134,128h63v7h-63V128z"/>
</g>
<g>
	<path class="st6" d="M127,166h76v6h-76V166z"/>
</g>
<g>
	<path class="st6" d="M134,153h63v7h-63V153z"/>
</g>
<g>
	<path class="st6" d="M261.9,154.1l-24.3-21.8V86.8c0-1.7-1.4-3.2-3.2-3.2h-51.2l-13.2-11.9c-1.2-1.1-3-1.1-4.2,0l-13.2,11.9h-25.8
		c-0.8,0-1.7,0.3-2.2,0.9l-25.3,25.3c-0.6,0.6-0.9,1.4-0.9,2.3v20.2l-24.3,21.7v0c-0.7,0.6-1.1,1.4-1.1,2.3v101.3
		c0,1.7,1.4,3.2,3.2,3.2h183.7c1.8,0,3.2-1.4,3.2-3.2V156.5C263,155.6,262.6,154.8,261.9,154.1L261.9,154.1z M237.7,140.9l13.9,12.4
		h-13.9V140.9z M237.7,159.7h9.6l-9.6,5.2V159.7z M168,78.4l5.9,5.3h-11.7L168,78.4z M123.7,94.5V109h-14.5L123.7,94.5z
		 M104.7,115.3h22.2c1.8,0,3.2-1.4,3.2-3.2V90h101.3v78.3l-53.8,29l-7.7-5.3c-1.1-0.8-2.5-0.8-3.6,0l-7.7,5.3l-53.8-29V115.3z
		 M98.3,140.9v12.4H84.4L98.3,140.9z M98.3,159.7v5.2l-9.6-5.2H98.3z M79.3,161.8l6.3,3.4V185H92v-16.4l60.6,32.7l-73.3,50.5V161.8z
		 M86.3,254.7l81.7-56.3l81.7,56.3H86.3z M256.7,251.8l-73.3-50.5l73.3-39.5V251.8z"/>
</g>
<g>
	<path class="st6" d="M99.1,93c-0.7,0-1.5-0.3-2.1-0.9L83.8,78.3c-1.1-1.2-1.1-3.2,0-4.4c1.1-1.2,3-1.2,4.2,0l13.2,13.8
		c1.1,1.2,1.1,3.2,0,4.4C100.6,92.7,99.9,93,99.1,93z"/>
</g>
<g>
	<path class="st6" d="M93,103c-0.3,0-0.6,0-0.9-0.1l-16.1-5c-1.6-0.5-2.5-2.1-1.9-3.7c0.5-1.6,2.1-2.5,3.7-1.9l16,5
		c1.6,0.5,2.5,2.1,1.9,3.7C95.5,102.2,94.3,103,93,103z"/>
</g>
<g>
	<path class="st6" d="M249.9,106c-1.2,0-2.4-0.8-2.7-2.1c-0.4-1.5,0.4-3.1,1.9-3.6l17.3-5.2c1.5-0.5,3.1,0.4,3.5,1.9
		c0.4,1.5-0.4,3.1-1.9,3.6l-17.3,5.2C250.4,106,250.1,106,249.9,106z"/>
</g>
<g>
	<path class="st6" d="M244,96c-0.8,0-1.5-0.3-2.1-0.9c-1.2-1.2-1.1-3.1,0-4.3L254,78.9c1.2-1.2,3.1-1.1,4.2,0c1.2,1.2,1.1,3.1,0,4.3
		l-12,12C245.4,95.7,244.7,96,244,96z"/>
</g>
</svg>
